<svg xmlns="http://www.w3.org/2000/svg" xmlns:xlink="http://www.w3.org/1999/xlink" xmlns:lucid="lucid" width="2665" height="1639"><g transform="translate(3488 -1284)" lucid:page-tab-id="VorHAaVeQnF0"><path d="M-3500-500h6000v3500h-6000z" fill="#fff"/><path d="M-2480 1386a6 6 0 0 1 6-6h748a6 6 0 0 1 6 6v1421.85a6 6 0 0 1-6 6h-748a6 6 0 0 1-6-6z" stroke="#3a414a" stroke-width="2" fill="#ffd9d9"/><path d="M-2277.65 1839.3a10 10 0 0 1 10-10h300a10 10 0 0 1 10 10v220a10 10 0 0 1-10 10h-300a10 10 0 0 1-10-10z" stroke="#000" stroke-width="2" fill="#fff"/><use xlink:href="#a" transform="matrix(1,0,0,1,-2272.654071745425,1834.3023255813953) translate(47.40740740740742 89.96527777777777)"/><use xlink:href="#b" transform="matrix(1,0,0,1,-2272.654071745425,1834.3023255813953) translate(94.25925925925927 89.96527777777777)"/><use xlink:href="#c" transform="matrix(1,0,0,1,-2272.654071745425,1834.3023255813953) translate(162.7777777777778 89.96527777777777)"/><use xlink:href="#d" transform="matrix(1,0,0,1,-2272.654071745425,1834.3023255813953) translate(250.2469135802469 89.96527777777777)"/><use xlink:href="#e" transform="matrix(1,0,0,1,-2272.654071745425,1834.3023255813953) translate(66.2037037037037 116.63194444444446)"/><use xlink:href="#f" transform="matrix(1,0,0,1,-2272.654071745425,1834.3023255813953) translate(132.68518518518516 116.63194444444446)"/><use xlink:href="#g" transform="matrix(1,0,0,1,-2272.654071745425,1834.3023255813953) translate(45.15432098765433 143.29861111111111)"/><use xlink:href="#h" transform="matrix(1,0,0,1,-2272.654071745425,1834.3023255813953) translate(138.91975308641975 143.29861111111111)"/><use xlink:href="#i" transform="matrix(1,0,0,1,-2272.654071745425,1834.3023255813953) translate(172.2530864197531 143.29861111111111)"/><path d="M-2117.65 2291.3v96" stroke="#5e5e5e" stroke-width="2" fill="none"/><path d="M-2116.68 2291.33h-1.95v-1.03h1.95zM-2116.68 2388.3h-1.95v-1.02h1.95z" stroke="#5e5e5e" stroke-width=".05" fill="#5e5e5e"/><path d="M-2117.65 2071.3v182.96" stroke="#5e5e5e" stroke-width="2" fill="none"/><path d="M-2116.68 2071.33h-1.95v-1.03h1.95zM-2116.68 2255.26h-1.95v-1.03h1.95z" stroke="#5e5e5e" stroke-width=".05" fill="#5e5e5e"/><path d="M-2375.96 1484.92a10 10 0 0 1 10-10h140a10 10 0 0 1 10 10v100a10 10 0 0 1-10 10h-140a10 10 0 0 1-10-10z" stroke="#000" stroke-width="2" fill="#fff"/><use xlink:href="#j" transform="matrix(1,0,0,1,-2370.9580649902946,1479.9166666666667) translate(6.5123456790123555 45.27777777777778)"/><use xlink:href="#k" transform="matrix(1,0,0,1,-2370.9580649902946,1479.9166666666667) translate(75.64814814814815 45.27777777777778)"/><use xlink:href="#d" transform="matrix(1,0,0,1,-2370.9580649902946,1479.9166666666667) translate(131.14197530864197 45.27777777777778)"/><use xlink:href="#l" transform="matrix(1,0,0,1,-2370.9580649902946,1479.9166666666667) translate(19.444444444444443 71.94444444444446)"/><path d="M-2295.3 1596.66l179.48 201.6" stroke="#5e5e5e" stroke-width="2" fill="none"/><path d="M-2294.55 1596.03l-1.45 1.3-1.26-1.4h2.6zM-2113.85 1799h-2.6l-.1-.12 1.44-1.3z" stroke="#5e5e5e" stroke-width=".05" fill="#5e5e5e"/><path d="M-2264.65 2559.3h-285.1" stroke="#5e5e5e" stroke-width="2" fill="none"/><path d="M-2263.65 2560.28h-1.03v-1.95h1.03zM-2549.74 2560.28h-1.02v-1.95h1.02z" stroke="#5e5e5e" stroke-width=".05" fill="#5e5e5e"/><path d="M-2262.65 2399.3a10 10 0 0 1 10-10h270a10 10 0 0 1 10 10v320a10 10 0 0 1-10 10h-270a10 10 0 0 1-10-10z" stroke="#000" stroke-width="2" fill="#fff"/><path d="M-2117.65 2469.3c-16.56 0-30-13.44-30-30 0-16.56 13.44-30 30-30 16.56 0 30 13.44 30 30 0 16.56-13.44 30-30 30zm0-57.42c-15.18 0-27.42 12.24-27.42 27.42 0 15.18 12.24 27.42 27.42 27.42 15.18 0 27.42-12.24 27.42-27.42 0-15.18-12.24-27.42-27.42-27.42z" stroke="#fff" stroke-opacity="0" fill="#693cc5"/><path d="M-2112.68 2423.3l-4.97-5.8-4.98 5.8-1.93-1.67 5.94-6.93c.45-.53 1.26-.6 1.8-.14l.13.14 5.95 6.93z" stroke="#fff" stroke-opacity="0" fill="#693cc5"/><path d="M-2118.93 2416.48h2.55v45.63h-2.55v-45.62z" stroke="#fff" stroke-opacity="0" fill="#693cc5"/><path d="M-2117.65 2464.35c-.36 0-.66-.12-.9-.37l-5.95-5.95 1.8-1.8 5.05 5.1 5.03-5.1 1.8 1.8-5.93 5.95c-.25.25-.55.37-.9.37zM-2126.6 2446.14l-1.87-1.73 5.05-5.1-5.05-5.03 1.88-1.8 5.95 5.93c.5.5.5 1.3 0 1.8zM-2108.65 2446.14l-5.94-5.93c-.5-.5-.5-1.3 0-1.8l5.95-5.94 1.8 1.8-5.04 5.04 5.06 5.1z" stroke="#fff" stroke-opacity="0" fill="#693cc5"/><path d="M-2113.7 2438.03h21.8v2.55h-21.8v-2.55zM-2143.4 2438.03h21.8v2.55h-21.8v-2.55z" stroke="#fff" stroke-opacity="0" fill="#693cc5"/><path d="M-3425 2480h105v39.06h-105zM-3320 2480h114v39.06h-114zM-3206 2480h463v39.06h-463zM-2743 2480h190.74v39.06H-2743z" fill="#fcfcca"/><path d="M-3425 2519.06h105v49h-105zM-3320 2519.06h114v49h-114zM-3206 2519.06h463v49h-463zM-2743 2519.06h190.74v49H-2743zM-3425 2568.06h105v52h-105zM-3320 2568.06h114v52h-114zM-3206 2568.06h463v52h-463zM-2743 2568.06h190.74v52H-2743zM-3425 2620.06h105v49h-105zM-3320 2620.06h114v49h-114zM-3206 2620.06h463v49h-463zM-2743 2620.06h190.74v49H-2743z" fill="#fff"/><path d="M-3425 2480v39.06M-3425 2480h105M-3320 2480v39.06M-3320 2480h114M-3206 2480v39.06M-3206 2480h463M-2743 2480v39.06M-2552.26 2480v39.06M-2743 2480h190.74M-3425 2519.06v49M-3425 2519.06h105M-3320 2519.06v49M-3320 2519.06h114M-3206 2519.06v49M-3206 2519.06h463M-2743 2519.06v49M-2552.26 2519.06v49M-2743 2519.06h190.74M-3425 2568.06v52M-3425 2568.06h105M-3320 2568.06v52M-3320 2568.06h114M-3206 2568.06v52M-3206 2568.06h463M-2743 2568.06v52M-2552.26 2568.06v52M-2743 2568.06h190.74M-3425 2620.06v49M-3425 2620.06h105M-3425 2669.06h105M-3320 2620.06v49M-3320 2620.06h114M-3320 2669.06h114M-3206 2620.06v49M-3206 2620.06h463M-3206 2669.06h463M-2743 2620.06v49M-2552.26 2620.06v49M-2743 2620.06h190.74M-2743 2669.06h190.74" stroke="#5e5e5e" stroke-width="3" fill="none"/><use xlink:href="#m" transform="matrix(1,0,0,1,-3419.9999999999995,2484.9900885226793) translate(24.074074074074076 19.444444444444443)"/><use xlink:href="#n" transform="matrix(1,0,0,1,-3314.9999999999995,2484.9900885226793) translate(16.845679012345677 19.444444444444443)"/><use xlink:href="#o" transform="matrix(1,0,0,1,-3200.9999999999995,2484.9900885226793) translate(196.90123456790124 19.444444444444443)"/><use xlink:href="#p" transform="matrix(1,0,0,1,-2737.9999999999995,2484.9900885226793) translate(44.26543209876543 19.444444444444443)"/><use xlink:href="#q" transform="matrix(1,0,0,1,-2737.9999999999995,2484.9900885226793) translate(96.05555555555556 19.444444444444443)"/><use xlink:href="#r" transform="matrix(1,0,0,1,-3419.9999999999995,2524.05985596454) translate(24.69135802469136 23.944444444444443)"/><use xlink:href="#s" transform="matrix(1,0,0,1,-3314.9999999999995,2524.05985596454) translate(11.29012345679012 23.944444444444443)"/><use xlink:href="#t" transform="matrix(1,0,0,1,-3200.9999999999995,2524.05985596454) translate(136.99382716049382 23.944444444444443)"/><use xlink:href="#u" transform="matrix(1,0,0,1,-3200.9999999999995,2524.05985596454) translate(254.27777777777777 23.944444444444443)"/><use xlink:href="#v" transform="matrix(1,0,0,1,-2737.9999999999995,2524.05985596454) translate(44.2037037037037 23.944444444444443)"/><use xlink:href="#r" transform="matrix(1,0,0,1,-3419.9999999999995,2573.05985596454) translate(24.69135802469136 25.444444444444443)"/><use xlink:href="#s" transform="matrix(1,0,0,1,-3314.9999999999995,2573.05985596454) translate(11.29012345679012 25.444444444444443)"/><use xlink:href="#w" transform="matrix(1,0,0,1,-3200.9999999999995,2573.05985596454) translate(136.99382716049382 25.444444444444443)"/><use xlink:href="#u" transform="matrix(1,0,0,1,-3200.9999999999995,2573.05985596454) translate(254.27777777777777 25.444444444444443)"/><use xlink:href="#v" transform="matrix(1,0,0,1,-2737.9999999999995,2573.05985596454) translate(44.2037037037037 25.444444444444443)"/><use xlink:href="#r" transform="matrix(1,0,0,1,-3419.9999999999995,2625.05985596454) translate(24.69135802469136 23.944444444444443)"/><use xlink:href="#s" transform="matrix(1,0,0,1,-3314.9999999999995,2625.05985596454) translate(11.29012345679012 23.944444444444443)"/><use xlink:href="#x" transform="matrix(1,0,0,1,-3200.9999999999995,2625.05985596454) translate(136.99382716049382 23.944444444444443)"/><use xlink:href="#u" transform="matrix(1,0,0,1,-3200.9999999999995,2625.05985596454) translate(254.27777777777777 23.944444444444443)"/><use xlink:href="#v" transform="matrix(1,0,0,1,-2737.9999999999995,2625.05985596454) translate(44.2037037037037 23.944444444444443)"/><path d="M-2267.65 2495.3a6 6 0 0 1 6-6h288a6 6 0 0 1 6 6v48a6 6 0 0 1-6 6h-288a6 6 0 0 1-6-6z" fill="none"/><use xlink:href="#y" transform="matrix(1,0,0,1,-2267.654071745425,2489.302325581395) translate(121.6358024691358 17.77777777777778)"/><use xlink:href="#z" transform="matrix(1,0,0,1,-2267.654071745425,2489.302325581395) translate(166.0185185185185 17.77777777777778)"/><use xlink:href="#A" transform="matrix(1,0,0,1,-2267.654071745425,2489.302325581395) translate(74.69135802469135 44.44444444444444)"/><use xlink:href="#B" transform="matrix(1,0,0,1,-2267.654071745425,2489.302325581395) translate(108.02469135802468 44.44444444444444)"/><use xlink:href="#C" transform="matrix(1,0,0,1,-2267.654071745425,2489.302325581395) translate(42.68518518518519 71.11111111111111)"/><use xlink:href="#D" transform="matrix(1,0,0,1,-2267.654071745425,2489.302325581395) translate(109.16666666666667 71.11111111111111)"/><use xlink:href="#E" transform="matrix(1,0,0,1,-2267.654071745425,2489.302325581395) translate(90.15432098765433 97.77777777777777)"/><use xlink:href="#F" transform="matrix(1,0,0,1,-2267.654071745425,2489.302325581395) translate(148.1172839506173 97.77777777777777)"/><use xlink:href="#G" transform="matrix(1,0,0,1,-2267.654071745425,2489.302325581395) translate(10.555555555555543 124.44444444444446)"/><use xlink:href="#H" transform="matrix(1,0,0,1,-2267.654071745425,2489.302325581395) translate(25.370370370370356 124.44444444444446)"/><use xlink:href="#I" transform="matrix(1,0,0,1,-2267.654071745425,2489.302325581395) translate(135.12345679012344 124.44444444444446)"/><use xlink:href="#J" transform="matrix(1,0,0,1,-2267.654071745425,2489.302325581395) translate(68.5493827160494 151.11111111111111)"/><use xlink:href="#K" transform="matrix(1,0,0,1,-2267.654071745425,2489.302325581395) translate(161.14197530864197 151.11111111111111)"/><use xlink:href="#L" transform="matrix(1,0,0,1,-2267.654071745425,2489.302325581395) translate(185.83333333333334 151.11111111111111)"/><path d="M-3420 1873.3h105v38.65h-105zM-3315 1873.3h113v38.65h-113zM-3202 1873.3h464v38.65h-464zM-2738 1873.3h190.74v38.65H-2738z" fill="#fcfcca"/><path d="M-3420 1911.95h105v38.65h-105zM-3315 1911.95h113v38.65h-113zM-3202 1911.95h464v38.65h-464zM-2738 1911.95h190.74v38.65H-2738z" fill="#fff"/><path d="M-3420 1950.6h105v43h-105zM-3315 1950.6h113v43h-113zM-3202 1950.6h464v43h-464zM-2738 1950.6h190.74v43H-2738zM-3420 1993.6h105v43h-105zM-3315 1993.6h113v43h-113zM-3202 1993.6h464v43h-464zM-2738 1993.6h190.74v43H-2738zM-3420 2036.6h105v43h-105zM-3315 2036.6h113v43h-113zM-3202 2036.6h464v43h-464zM-2738 2036.6h190.74v43H-2738zM-3420 2079.6h105v43h-105zM-3315 2079.6h113v43h-113zM-3202 2079.6h464v43h-464zM-2738 2079.6h190.74v43H-2738z" fill="#fff"/><path d="M-3420 1873.3v38.65M-3420 1873.3h105M-3315 1873.3v38.65M-3315 1873.3h113M-3202 1873.3v38.65M-3202 1873.3h464M-2738 1873.3v38.65M-2547.26 1873.3v38.65M-2738 1873.3h190.74M-3420 1911.95v38.65M-3420 1911.95h105M-3315 1911.95v38.65M-3315 1911.95h113M-3202 1911.95v38.65M-3202 1911.95h464M-2738 1911.95v38.65M-2547.26 1911.95v38.65M-2738 1911.95h190.74M-3420 1950.6v43M-3420 1950.6h105M-3315 1950.6v43M-3315 1950.6h113M-3202 1950.6v43M-3202 1950.6h464M-2738 1950.6v43M-2547.26 1950.6v43M-2738 1950.6h190.74M-3420 1993.6v43M-3420 1993.6h105M-3315 1993.6v43M-3315 1993.6h113M-3202 1993.6v43M-3202 1993.6h464M-2738 1993.6v43M-2547.26 1993.6v43M-2738 1993.6h190.74M-3420 2036.6v43M-3420 2036.6h105M-3315 2036.6v43M-3315 2036.6h113M-3202 2036.6v43M-3202 2036.6h464M-2738 2036.6v43M-2547.26 2036.6v43M-2738 2036.6h190.74M-3420 2079.6v43M-3420 2079.6h105M-3420 2122.6h105M-3315 2079.6v43M-3315 2079.6h113M-3315 2122.6h113M-3202 2079.6v43M-3202 2079.6h464M-3202 2122.6h464M-2738 2079.6v43M-2547.26 2079.6v43M-2738 2079.6h190.74M-2738 2122.6h190.74" stroke="#5e5e5e" stroke-width="3" fill="none"/><use xlink:href="#m" transform="matrix(1,0,0,1,-3415,1878.302325581395) translate(24.074074074074076 18.944444444444443)"/><use xlink:href="#n" transform="matrix(1,0,0,1,-3310,1878.302325581395) translate(16.345679012345677 18.944444444444443)"/><use xlink:href="#o" transform="matrix(1,0,0,1,-3197,1878.302325581395) translate(197.40123456790124 18.944444444444443)"/><use xlink:href="#p" transform="matrix(1,0,0,1,-2733,1878.302325581395) translate(44.26543209876543 18.944444444444443)"/><use xlink:href="#q" transform="matrix(1,0,0,1,-2733,1878.302325581395) translate(96.05555555555556 18.944444444444443)"/><use xlink:href="#r" transform="matrix(1,0,0,1,-3415,1916.9534883720928) translate(24.69135802469136 18.944444444444443)"/><use xlink:href="#s" transform="matrix(1,0,0,1,-3310,1916.9534883720928) translate(10.79012345679012 18.944444444444443)"/><use xlink:href="#M" transform="matrix(1,0,0,1,-3197,1916.9534883720928) translate(118.97530864197532 18.944444444444443)"/><use xlink:href="#N" transform="matrix(1,0,0,1,-3197,1916.9534883720928) translate(273.2962962962963 18.944444444444443)"/><use xlink:href="#O" transform="matrix(1,0,0,1,-2733,1916.9534883720928) translate(31.85802469135802 18.944444444444443)"/><use xlink:href="#r" transform="matrix(1,0,0,1,-3415,1955.6046511627906) translate(24.69135802469136 20.944444444444443)"/><use xlink:href="#s" transform="matrix(1,0,0,1,-3310,1955.6046511627906) translate(10.79012345679012 20.944444444444443)"/><use xlink:href="#P" transform="matrix(1,0,0,1,-3197,1955.6046511627906) translate(149.8395061728395 20.944444444444443)"/><use xlink:href="#N" transform="matrix(1,0,0,1,-3197,1955.6046511627906) translate(242.4320987654321 20.944444444444443)"/><use xlink:href="#O" transform="matrix(1,0,0,1,-2733,1955.6046511627906) translate(31.85802469135802 20.944444444444443)"/><use xlink:href="#Q" transform="matrix(1,0,0,1,-3415,1998.6046511627906) translate(6.851851851851855 20.944444444444443)"/><use xlink:href="#s" transform="matrix(1,0,0,1,-3310,1998.6046511627906) translate(10.79012345679012 20.944444444444443)"/><use xlink:href="#R" transform="matrix(1,0,0,1,-3197,1998.6046511627906) translate(171.44444444444446 20.944444444444443)"/><use xlink:href="#Q" transform="matrix(1,0,0,1,-3415,2041.6046511627906) translate(6.851851851851855 20.944444444444443)"/><use xlink:href="#s" transform="matrix(1,0,0,1,-3310,2041.6046511627906) translate(10.79012345679012 20.944444444444443)"/><use xlink:href="#S" transform="matrix(1,0,0,1,-3197,2041.6046511627906) translate(171.44444444444446 20.944444444444443)"/><use xlink:href="#Q" transform="matrix(1,0,0,1,-3415,2084.6046511627906) translate(6.851851851851855 20.944444444444443)"/><use xlink:href="#s" transform="matrix(1,0,0,1,-3310,2084.6046511627906) translate(10.79012345679012 20.944444444444443)"/><use xlink:href="#T" transform="matrix(1,0,0,1,-3197,2084.6046511627906) translate(171.44444444444446 20.944444444444443)"/><path d="M-3320 1394.5h113v38.65h-113zM-3207 1394.5h207v38.65h-207zM-3000 1394.5h257v38.65h-257zM-2743 1394.5h190.74v38.65H-2743z" fill="#fcfcca"/><path d="M-3320 1433.15h113v37h-113zM-3207 1433.15h207v37h-207zM-3000 1433.15h257v37h-257zM-2743 1433.15h190.74v37H-2743zM-3320 1470.15h113v43h-113zM-3207 1470.15h207v43h-207zM-3000 1470.15h257v43h-257zM-2743 1470.15h190.74v43H-2743zM-3320 1513.15h113v43h-113zM-3207 1513.15h207v43h-207zM-3000 1513.15h257v43h-257zM-2743 1513.15h190.74v43H-2743zM-3320 1556.15h113v43h-113zM-3207 1556.15h207v43h-207zM-3000 1556.15h257v43h-257zM-2743 1556.15h190.74v43H-2743zM-3320 1599.15h113v43h-113zM-3207 1599.15h207v43h-207zM-3000 1599.15h257v43h-257zM-2743 1599.15h190.74v43H-2743z" fill="#fff"/><path d="M-3320 1394.5v38.65M-3320 1394.5h113M-3207 1394.5v38.65M-3207 1394.5h207M-3000 1394.5v38.65M-3000 1394.5h257M-2743 1394.5v38.65M-2552.26 1394.5v38.65M-2743 1394.5h190.74M-3320 1433.15v37M-3320 1433.15h113M-3207 1433.15v37M-3207 1433.15h207M-3000 1433.15v37M-3000 1433.15h257M-2743 1433.15v37M-2552.26 1433.15v37M-2743 1433.15h190.74M-3320 1470.15v43M-3320 1470.15h113M-3207 1470.15v43M-3207 1470.15h207M-3000 1470.15v43M-3000 1470.15h257M-2743 1470.15v43M-2552.26 1470.15v43M-2743 1470.15h190.74M-3320 1513.15v43M-3320 1513.15h113M-3207 1513.15v43M-3207 1513.15h207M-3000 1513.15v43M-3000 1513.15h257M-2743 1513.15v43M-2552.26 1513.15v43M-2743 1513.15h190.74M-3320 1556.15v43M-3320 1556.15h113M-3207 1556.15v43M-3207 1556.15h207M-3000 1556.15v43M-3000 1556.15h257M-2743 1556.15v43M-2552.26 1556.15v43M-2743 1556.15h190.74M-3320 1599.15v43M-3320 1599.15h113M-3320 1642.15h113M-3207 1599.15v43M-3207 1599.15h207M-3207 1642.15h207M-3000 1599.15v43M-3000 1599.15h257M-3000 1642.15h257M-2743 1599.15v43M-2552.26 1599.15v43M-2743 1599.15h190.74M-2743 1642.15h190.74" stroke="#5e5e5e" stroke-width="3" fill="none"/><use xlink:href="#n" transform="matrix(1,0,0,1,-3314.9999999999995,1399.4959994835992) translate(16.345679012345677 18.944444444444443)"/><use xlink:href="#o" transform="matrix(1,0,0,1,-3201.9999999999995,1399.4959994835992) translate(68.90123456790124 18.944444444444443)"/><use xlink:href="#p" transform="matrix(1,0,0,1,-2994.9999999999995,1399.4959994835992) translate(50.1358024691358 18.944444444444443)"/><use xlink:href="#U" transform="matrix(1,0,0,1,-2994.9999999999995,1399.4959994835992) translate(101.92592592592592 18.944444444444443)"/><use xlink:href="#V" transform="matrix(1,0,0,1,-2994.9999999999995,1399.4959994835992) translate(148.77777777777777 18.944444444444443)"/><use xlink:href="#p" transform="matrix(1,0,0,1,-2737.9999999999995,1399.4959994835992) translate(30.68518518518519 18.944444444444443)"/><use xlink:href="#U" transform="matrix(1,0,0,1,-2737.9999999999995,1399.4959994835992) translate(82.47530864197532 18.944444444444443)"/><use xlink:href="#W" transform="matrix(1,0,0,1,-2737.9999999999995,1399.4959994835992) translate(129.32716049382717 18.944444444444443)"/><use xlink:href="#s" transform="matrix(1,0,0,1,-3314.9999999999995,1438.147162274297) translate(10.79012345679012 17.944444444444443)"/><use xlink:href="#X" transform="matrix(1,0,0,1,-3201.9999999999995,1438.147162274297) translate(24.425925925925924 17.944444444444443)"/><use xlink:href="#Y" transform="matrix(1,0,0,1,-2994.9999999999995,1438.147162274297) translate(1.709876543209873 17.944444444444443)"/><use xlink:href="#Z" transform="matrix(1,0,0,1,-2994.9999999999995,1438.147162274297) translate(70.22839506172839 17.944444444444443)"/><use xlink:href="#aa" transform="matrix(1,0,0,1,-2994.9999999999995,1438.147162274297) translate(157.69753086419752 17.944444444444443)"/><use xlink:href="#v" transform="matrix(1,0,0,1,-2737.9999999999995,1438.147162274297) translate(44.2037037037037 17.944444444444443)"/><use xlink:href="#s" transform="matrix(1,0,0,1,-3314.9999999999995,1475.147162274297) translate(10.79012345679012 20.944444444444443)"/><use xlink:href="#ab" transform="matrix(1,0,0,1,-3201.9999999999995,1475.147162274297) translate(55.29012345679012 20.944444444444443)"/><use xlink:href="#Y" transform="matrix(1,0,0,1,-2994.9999999999995,1475.147162274297) translate(1.709876543209873 20.944444444444443)"/><use xlink:href="#Z" transform="matrix(1,0,0,1,-2994.9999999999995,1475.147162274297) translate(70.22839506172839 20.944444444444443)"/><use xlink:href="#aa" transform="matrix(1,0,0,1,-2994.9999999999995,1475.147162274297) translate(157.69753086419752 20.944444444444443)"/><use xlink:href="#v" transform="matrix(1,0,0,1,-2737.9999999999995,1475.147162274297) translate(44.2037037037037 20.944444444444443)"/><use xlink:href="#ac" transform="matrix(1,0,0,1,-3314.9999999999995,1518.147162274297) translate(14.49382716049383 20.944444444444443)"/><use xlink:href="#R" transform="matrix(1,0,0,1,-3201.9999999999995,1518.147162274297) translate(42.94444444444444 20.944444444444443)"/><use xlink:href="#ad" transform="matrix(1,0,0,1,-2994.9999999999995,1518.147162274297) translate(57.5432098765432 20.944444444444443)"/><use xlink:href="#ae" transform="matrix(1,0,0,1,-2994.9999999999995,1518.147162274297) translate(113.03703703703704 20.944444444444443)"/><use xlink:href="#ac" transform="matrix(1,0,0,1,-3314.9999999999995,1561.147162274297) translate(14.49382716049383 20.944444444444443)"/><use xlink:href="#S" transform="matrix(1,0,0,1,-3201.9999999999995,1561.147162274297) translate(42.94444444444444 20.944444444444443)"/><use xlink:href="#Y" transform="matrix(1,0,0,1,-2994.9999999999995,1561.147162274297) translate(48.592592592592595 20.944444444444443)"/><use xlink:href="#af" transform="matrix(1,0,0,1,-2994.9999999999995,1561.147162274297) translate(117.11111111111111 20.944444444444443)"/><use xlink:href="#ac" transform="matrix(1,0,0,1,-3314.9999999999995,1604.147162274297) translate(14.49382716049383 20.944444444444443)"/><use xlink:href="#ab" transform="matrix(1,0,0,1,-3201.9999999999995,1604.147162274297) translate(55.29012345679012 20.944444444444443)"/><use xlink:href="#ag" transform="matrix(1,0,0,1,-2994.9999999999995,1604.147162274297) translate(85.87654320987654 20.944444444444443)"/><path d="M-2099.77 2018.1h-2.96v-10.2c.04-5.04-1.4-9.3-4.4-13.02-2.8-3.72-6.47-5.58-10.78-5.58-4.37-.06-8.1 1.86-10.92 5.58-3 3.66-4.44 7.98-4.4 13.02v10.2h-2.4c-1.12.06-2.03 1.08-2.03 2.34v26.58c0 1.26.9 2.28 2.03 2.28h35.85c1.12 0 2.04-1.02 2.08-2.28v-26.58c-.03-1.32-.95-2.28-2.07-2.34zm-9.95 0h-16.4v-10.38c0-2.76.9-5.16 2.57-7.14 1.44-1.86 3.36-2.88 5.56-2.88 2.2 0 4.12 1.02 5.56 2.88.4.48.68.9.96 1.44 1.16 1.68 1.72 3.48 1.8 5.64z" stroke="#000" stroke-opacity="0" fill="url(#ah)"/><path d="M-2099.7 2018.1h-35.9c-.5 0-.93.2-1.3.58l38.5 29.9c.48-.42.75-1.03.75-1.73v-26.58c-.07-1.22-.94-2.14-2.04-2.17z" stroke="#000" stroke-opacity="0" fill="#50e6ff"/><path d="M-2135.5 2018.1h35.85c.5 0 .94.2 1.34.58l-38.55 29.9c-.47-.45-.74-1.03-.74-1.73v-26.58c.12-1.22 1-2.14 2.1-2.17z" stroke="#000" stroke-opacity="0" fill="#fff" fill-opacity=".2"/><path d="M-2121.2 2024.55l3.53-4c.1-.07.2-.07.28 0l3.5 4c.1.05.1.18.07.26-.03.04-.03.07-.06.1h-2.04c-.12 0-.18.07-.18.17v5.13c0 .1-.1.18-.2.18h-2.3c-.1.03-.16-.02-.2-.1v-5.21c-.02-.1-.08-.2-.2-.18h-2.06c-.1-.04-.18-.1-.18-.25 0-.02.03-.07.06-.1zm7.28 18.2l-3.5 3.95c-.06.1-.18.1-.24.03-.04 0-.04 0-.04-.03l-3.5-3.94c-.1-.05-.12-.18-.06-.3.03 0 .03 0 .06-.04h2.05c.13 0 .22-.08.22-.18v-5.15c0-.15.1-.22.18-.22h2.17c.1 0 .18.07.18.2v5.16c0 .1.1.18.18.18h2.06c.1-.08.2-.05.27.05.07.08.07.2-.02.3zm-13.86-5.14v-2.33c0-.1-.1-.18-.18-.18h-4.44c-.12 0-.18-.12-.18-.22v-2.37c-.06-.07-.03-.2.06-.25.03-.03.06-.03.12-.03h4.44c.1 0 .18-.08.18-.2v-2.32c0-.13.12-.24.24-.2.03 0 .06.02.1.04l3.5 3.97c.05.1.05.22 0 .27l-3.5 4c-.1.08-.25.05-.3-.05 0-.03-.04-.08-.04-.1zm20.44-7.9v2.3c0 .14.1.22.18.22h4.53s.22 0 .22.2v2.46c0 .13-.1.2-.22.2h-4.54c-.1 0-.18.1-.18.2v2.33c0 .12-.06.22-.15.22-.05 0-.1 0-.14-.05l-3.5-4 3.5-4.23s.3-.05.3.16z" stroke="#000" stroke-opacity="0" fill="#fff"/><path d="M-2138.65 2028.05l-406.1 32.08" stroke="#5e5e5e" stroke-width="2" fill="none"/><path d="M-2137.65 2028.95l-.95.07-.15-1.94 1.1-.1zM-2544.66 2061.1l-1.1.1v-1.97l.94-.08z" stroke="#5e5e5e" stroke-width=".05" fill="#5e5e5e"/><path d="M-2377.96 1534.92h-171.8" stroke="#5e5e5e" stroke-width="2" fill="none"/><path d="M-2376.96 1535.9h-1.02v-1.96h1.02zM-2549.74 1535.9h-1.02v-1.96h1.02z" stroke="#5e5e5e" stroke-width=".05" fill="#5e5e5e"/><path d="M-2455.96 1590a10 10 0 0 1 10-10h300a10 10 0 0 1 10 10v40a10 10 0 0 1-10 10h-300a10 10 0 0 1-10-10z" stroke="#000" stroke-width="2" fill="#fff"/><use xlink:href="#ai" transform="matrix(1,0,0,1,-2450.9580649902946,1585) translate(116.79012345679013 20.90277777777778)"/><use xlink:href="#aj" transform="matrix(1,0,0,1,-2450.9580649902946,1585) translate(12.376543209876559 47.56944444444444)"/><use xlink:href="#ak" transform="matrix(1,0,0,1,-2450.9580649902946,1585) translate(57.993827160493844 47.56944444444444)"/><use xlink:href="#al" transform="matrix(1,0,0,1,-2450.9580649902946,1585) translate(141.820987654321 47.56944444444444)"/><use xlink:href="#am" transform="matrix(1,0,0,1,-2450.9580649902946,1585) translate(252.87037037037038 47.56944444444444)"/><path d="M-2267.65 1810a10 10 0 0 1 10-10h285a10 10 0 0 1 10 10v40a10 10 0 0 1-10 10h-285a10 10 0 0 1-10-10z" stroke="#000" stroke-width="2" fill="#fff"/><use xlink:href="#ai" transform="matrix(1,0,0,1,-2262.654071745425,1804.9999999999998) translate(109.29012345679013 17.77777777777778)"/><use xlink:href="#an" transform="matrix(1,0,0,1,-2262.654071745425,1804.9999999999998) translate(9.074074074074105 44.44444444444444)"/><use xlink:href="#ao" transform="matrix(1,0,0,1,-2262.654071745425,1804.9999999999998) translate(68.14814814814818 44.44444444444444)"/><use xlink:href="#ap" transform="matrix(1,0,0,1,-2262.654071745425,1804.9999999999998) translate(161.9135802469136 44.44444444444444)"/><use xlink:href="#aq" transform="matrix(1,0,0,1,-2262.654071745425,1804.9999999999998) translate(241.17283950617283 44.44444444444444)"/><use xlink:href="#ar" transform="matrix(1,0,0,1,-2262.654071745425,1804.9999999999998) translate(147.5 71.11111111111111)"/><path d="M-2157.65 1370a10 10 0 0 1 10-10h91.56a10 10 0 0 1 10 10v40a10 10 0 0 1-10 10h-91.55a10 10 0 0 1-10-10z" stroke="#000" stroke-width="2" fill="#ffd9d9"/><use xlink:href="#as" transform="matrix(1,0,0,1,-2152.654071745425,1365) translate(6.617283950617285 30.27777777777778)"/><use xlink:href="#at" transform="matrix(1,0,0,1,-2152.654071745425,1365) translate(83.03703703703704 30.27777777777778)"/><path d="M-2157.65 2262.26a6 6 0 0 1 6-6h68a6 6 0 0 1 6 6v21.04a6 6 0 0 1-6 6h-68a6 6 0 0 1-6-6z" stroke="#3a414a" stroke-width="2" fill="#fff"/><use xlink:href="#au" transform="matrix(1,0,0,1,-2152.654071745425,2261.2606589147285) translate(12.191358024691361 19.27777777777778)"/><path d="M-2005.2 1484.92a10 10 0 0 1 10-10h140a10 10 0 0 1 10 10v100a10 10 0 0 1-10 10h-140a10 10 0 0 1-10-10z" stroke="#000" stroke-width="2" fill="#fff"/><use xlink:href="#j" transform="matrix(1,0,0,1,-2000.1960069902952,1479.9166666666667) translate(6.5123456790123555 45.27777777777778)"/><use xlink:href="#k" transform="matrix(1,0,0,1,-2000.1960069902952,1479.9166666666667) translate(75.64814814814815 45.27777777777778)"/><use xlink:href="#av" transform="matrix(1,0,0,1,-2000.1960069902952,1479.9166666666667) translate(131.14197530864197 45.27777777777778)"/><use xlink:href="#aw" transform="matrix(1,0,0,1,-2000.1960069902952,1479.9166666666667) translate(19.444444444444443 71.94444444444446)"/><path d="M-1925.88 1596.65l-188.6 201.62" stroke="#5e5e5e" stroke-width="2" fill="none"/><path d="M-1925.18 1597.33l-1.43-1.33.07-.08h2.67zM-2113.74 1798.92l-.08.08h-2.67l1.34-1.4z" stroke="#5e5e5e" stroke-width=".05" fill="#5e5e5e"/><path d="M-2085.2 1590a10 10 0 0 1 10-10h300a10 10 0 0 1 10 10v40a10 10 0 0 1-10 10h-300a10 10 0 0 1-10-10z" stroke="#000" stroke-width="2" fill="#fff"/><use xlink:href="#ai" transform="matrix(1,0,0,1,-2080.1960069902952,1585) translate(116.79012345679013 20.90277777777778)"/><use xlink:href="#aj" transform="matrix(1,0,0,1,-2080.1960069902952,1585) translate(12.376543209876559 47.56944444444444)"/><use xlink:href="#ak" transform="matrix(1,0,0,1,-2080.1960069902952,1585) translate(57.993827160493844 47.56944444444444)"/><use xlink:href="#al" transform="matrix(1,0,0,1,-2080.1960069902952,1585) translate(141.820987654321 47.56944444444444)"/><use xlink:href="#am" transform="matrix(1,0,0,1,-2080.1960069902952,1585) translate(252.87037037037038 47.56944444444444)"/><path d="M-1670.94 1409.1h148v37h-148zM-1522.94 1409.1h172v37h-172zM-1350.94 1409.1h257v37h-257zM-1093.94 1409.1h190.74v37h-190.74z" fill="#fcfcca"/><path d="M-1670.94 1446.1h148v37h-148zM-1522.94 1446.1h172v37h-172zM-1350.94 1446.1h257v37h-257zM-1093.94 1446.1h190.74v37h-190.74zM-1670.94 1483.1h148v43h-148zM-1522.94 1483.1h172v43h-172zM-1350.94 1483.1h257v43h-257zM-1093.94 1483.1h190.74v43h-190.74zM-1670.94 1526.1h148v43h-148zM-1522.94 1526.1h172v43h-172zM-1350.94 1526.1h257v43h-257zM-1093.94 1526.1h190.74v43h-190.74zM-1670.94 1569.1h148v43h-148zM-1522.94 1569.1h172v43h-172zM-1350.94 1569.1h257v43h-257zM-1093.94 1569.1h190.74v43h-190.74zM-1670.94 1612.1h148v43h-148zM-1522.94 1612.1h172v43h-172zM-1350.94 1612.1h257v43h-257zM-1093.94 1612.1h190.74v43h-190.74z" fill="#fff"/><path d="M-1670.94 1409.1v37M-1670.94 1409.1h148M-1522.94 1409.1v37M-1522.94 1409.1h172M-1350.94 1409.1v37M-1350.94 1409.1h257M-1093.94 1409.1v37M-903.2 1409.1v37M-1093.94 1409.1h190.74M-1670.94 1446.1v37M-1670.94 1446.1h148M-1522.94 1446.1v37M-1522.94 1446.1h172M-1350.94 1446.1v37M-1350.94 1446.1h257M-1093.94 1446.1v37M-903.2 1446.1v37M-1093.94 1446.1h190.74M-1670.94 1483.1v43M-1670.94 1483.1h148M-1522.94 1483.1v43M-1522.94 1483.1h172M-1350.94 1483.1v43M-1350.94 1483.1h257M-1093.94 1483.1v43M-903.2 1483.1v43M-1093.94 1483.1h190.74M-1670.94 1526.1v43M-1670.94 1526.1h148M-1522.94 1526.1v43M-1522.94 1526.1h172M-1350.94 1526.1v43M-1350.94 1526.1h257M-1093.94 1526.1v43M-903.2 1526.1v43M-1093.94 1526.1h190.74M-1670.94 1569.1v43M-1670.94 1569.1h148M-1522.94 1569.1v43M-1522.94 1569.1h172M-1350.94 1569.1v43M-1350.94 1569.1h257M-1093.94 1569.1v43M-903.2 1569.1v43M-1093.94 1569.1h190.74M-1670.94 1612.1v43M-1670.94 1612.1h148M-1670.94 1655.1h148M-1522.94 1612.1v43M-1522.94 1612.1h172M-1522.94 1655.1h172M-1350.94 1612.1v43M-1350.94 1612.1h257M-1350.94 1655.1h257M-1093.94 1612.1v43M-903.2 1612.1v43M-1093.94 1612.1h190.74M-1093.94 1655.1h190.74" stroke="#5e5e5e" stroke-width="3" fill="none"/><g><use xlink:href="#n" transform="matrix(1,0,0,1,-1665.940146686079,1414.1029147313095) translate(33.84567901234568 17.944444444444443)"/></g><g><use xlink:href="#o" transform="matrix(1,0,0,1,-1517.940146686079,1414.1029147313095) translate(51.401234567901234 17.944444444444443)"/></g><g><use xlink:href="#p" transform="matrix(1,0,0,1,-1345.940146686079,1414.1029147313095) translate(50.1358024691358 17.944444444444443)"/><use xlink:href="#U" transform="matrix(1,0,0,1,-1345.940146686079,1414.1029147313095) translate(101.92592592592592 17.944444444444443)"/><use xlink:href="#V" transform="matrix(1,0,0,1,-1345.940146686079,1414.1029147313095) translate(148.77777777777777 17.944444444444443)"/></g><g><use xlink:href="#p" transform="matrix(1,0,0,1,-1088.940146686079,1414.1029147313095) translate(30.68518518518519 17.944444444444443)"/><use xlink:href="#U" transform="matrix(1,0,0,1,-1088.940146686079,1414.1029147313095) translate(82.47530864197532 17.944444444444443)"/><use xlink:href="#W" transform="matrix(1,0,0,1,-1088.940146686079,1414.1029147313095) translate(129.32716049382717 17.944444444444443)"/></g><g><use xlink:href="#s" transform="matrix(1,0,0,1,-1665.940146686079,1451.1029147313095) translate(28.29012345679012 17.944444444444443)"/></g><g><use xlink:href="#X" transform="matrix(1,0,0,1,-1517.940146686079,1451.1029147313095) translate(6.925925925925924 17.944444444444443)"/></g><g><use xlink:href="#Y" transform="matrix(1,0,0,1,-1345.940146686079,1451.1029147313095) translate(1.709876543209873 17.944444444444443)"/><use xlink:href="#Z" transform="matrix(1,0,0,1,-1345.940146686079,1451.1029147313095) translate(70.22839506172839 17.944444444444443)"/><use xlink:href="#aa" transform="matrix(1,0,0,1,-1345.940146686079,1451.1029147313095) translate(157.69753086419752 17.944444444444443)"/></g><g><use xlink:href="#v" transform="matrix(1,0,0,1,-1088.940146686079,1451.1029147313095) translate(44.2037037037037 17.944444444444443)"/></g><g><use xlink:href="#s" transform="matrix(1,0,0,1,-1665.940146686079,1488.1029147313095) translate(28.29012345679012 20.944444444444443)"/></g><g><use xlink:href="#ab" transform="matrix(1,0,0,1,-1517.940146686079,1488.1029147313095) translate(37.79012345679012 20.944444444444443)"/></g><g><use xlink:href="#Y" transform="matrix(1,0,0,1,-1345.940146686079,1488.1029147313095) translate(1.709876543209873 20.944444444444443)"/><use xlink:href="#Z" transform="matrix(1,0,0,1,-1345.940146686079,1488.1029147313095) translate(70.22839506172839 20.944444444444443)"/><use xlink:href="#aa" transform="matrix(1,0,0,1,-1345.940146686079,1488.1029147313095) translate(157.69753086419752 20.944444444444443)"/></g><g><use xlink:href="#v" transform="matrix(1,0,0,1,-1088.940146686079,1488.1029147313095) translate(44.2037037037037 20.944444444444443)"/></g><g><use xlink:href="#ac" transform="matrix(1,0,0,1,-1665.940146686079,1531.1029147313095) translate(31.99382716049383 20.944444444444443)"/></g><g><use xlink:href="#R" transform="matrix(1,0,0,1,-1517.940146686079,1531.1029147313095) translate(25.444444444444443 20.944444444444443)"/></g><g><use xlink:href="#ad" transform="matrix(1,0,0,1,-1345.940146686079,1531.1029147313095) translate(57.5432098765432 20.944444444444443)"/><use xlink:href="#ae" transform="matrix(1,0,0,1,-1345.940146686079,1531.1029147313095) translate(113.03703703703704 20.944444444444443)"/></g><g><use xlink:href="#ac" transform="matrix(1,0,0,1,-1665.940146686079,1574.1029147313095) translate(31.99382716049383 20.944444444444443)"/></g><g><use xlink:href="#T" transform="matrix(1,0,0,1,-1517.940146686079,1574.1029147313095) translate(25.444444444444443 20.944444444444443)"/></g><g><use xlink:href="#Y" transform="matrix(1,0,0,1,-1345.940146686079,1574.1029147313095) translate(48.592592592592595 20.944444444444443)"/><use xlink:href="#af" transform="matrix(1,0,0,1,-1345.940146686079,1574.1029147313095) translate(117.11111111111111 20.944444444444443)"/></g><g><use xlink:href="#ac" transform="matrix(1,0,0,1,-1665.940146686079,1617.1029147313095) translate(31.99382716049383 20.944444444444443)"/></g><g><use xlink:href="#ab" transform="matrix(1,0,0,1,-1517.940146686079,1617.1029147313095) translate(37.79012345679012 20.944444444444443)"/></g><g><use xlink:href="#ag" transform="matrix(1,0,0,1,-1345.940146686079,1617.1029147313095) translate(85.87654320987654 20.944444444444443)"/></g><path d="M-1673.44 1533.8l-169.76.76" stroke="#5e5e5e" stroke-width="2" fill="none"/><path d="M-1672.44 1534.78h-1.02v-1.95h1.02zM-1843.17 1535.53h-1.03v-1.95h1.03z" stroke="#5e5e5e" stroke-width=".05" fill="#5e5e5e"/><defs><path d="M197 0v-115H63V0H30v-248h33v105h134v-105h34V0h-34" id="ax"/><path d="M84 4C-5 8 30-112 23-190h32v120c0 31 7 50 39 49 72-2 45-101 50-169h31l1 190h-30c-1-10 1-25-2-33-11 22-28 36-60 37" id="ay"/><path d="M115-194c53 0 69 39 70 98 0 66-23 100-70 100C84 3 66-7 56-30L54 0H23l1-261h32v101c10-23 28-34 59-34zm-8 174c40 0 45-34 45-75 0-40-5-75-45-74-42 0-51 32-51 76 0 43 10 73 51 73" id="az"/><g id="a"><use transform="matrix(0.06172839506172839,0,0,0.06172839506172839,0,0)" xlink:href="#ax"/><use transform="matrix(0.06172839506172839,0,0,0.06172839506172839,15.987654320987653,0)" xlink:href="#ay"/><use transform="matrix(0.06172839506172839,0,0,0.06172839506172839,28.333333333333332,0)" xlink:href="#az"/></g><path d="M137 0h-34L2-248h35l83 218 83-218h36" id="aA"/><path d="M24-231v-30h32v30H24zM24 0v-190h32V0H24" id="aB"/><path d="M114-163C36-179 61-72 57 0H25l-1-190h30c1 12-1 29 2 39 6-27 23-49 58-41v29" id="aC"/><path d="M59-47c-2 24 18 29 38 22v24C64 9 27 4 27-40v-127H5v-23h24l9-43h21v43h35v23H59v120" id="aD"/><path d="M141-36C126-15 110 5 73 4 37 3 15-17 15-53c-1-64 63-63 125-63 3-35-9-54-41-54-24 1-41 7-42 31l-33-3c5-37 33-52 76-52 45 0 72 20 72 64v82c-1 20 7 32 28 27v20c-31 9-61-2-59-35zM48-53c0 20 12 33 32 33 41-3 63-29 60-74-43 2-92-5-92 41" id="aE"/><path d="M24 0v-261h32V0H24" id="aF"/><g id="b"><use transform="matrix(0.06172839506172839,0,0,0.06172839506172839,0,0)" xlink:href="#aA"/><use transform="matrix(0.06172839506172839,0,0,0.06172839506172839,14.382716049382715,0)" xlink:href="#aB"/><use transform="matrix(0.06172839506172839,0,0,0.06172839506172839,19.25925925925926,0)" xlink:href="#aC"/><use transform="matrix(0.06172839506172839,0,0,0.06172839506172839,26.604938271604937,0)" xlink:href="#aD"/><use transform="matrix(0.06172839506172839,0,0,0.06172839506172839,32.77777777777778,0)" xlink:href="#ay"/><use transform="matrix(0.06172839506172839,0,0,0.06172839506172839,45.123456790123456,0)" xlink:href="#aE"/><use transform="matrix(0.06172839506172839,0,0,0.06172839506172839,57.46913580246913,0)" xlink:href="#aF"/></g><path d="M190 0L58-211 59 0H30v-248h39L202-35l-2-213h31V0h-41" id="aG"/><path d="M100-194c63 0 86 42 84 106H49c0 40 14 67 53 68 26 1 43-12 49-29l28 8c-11 28-37 45-77 45C44 4 14-33 15-96c1-61 26-98 85-98zm52 81c6-60-76-77-97-28-3 7-6 17-6 28h103" id="aH"/><path d="M206 0h-36l-40-164L89 0H53L-1-190h32L70-26l43-164h34l41 164 42-164h31" id="aI"/><path d="M100-194c62-1 85 37 85 99 1 63-27 99-86 99S16-35 15-95c0-66 28-99 85-99zM99-20c44 1 53-31 53-75 0-43-8-75-51-75s-53 32-53 75 10 74 51 75" id="aJ"/><path d="M143 0L79-87 56-68V0H24v-261h32v163l83-92h37l-77 82L181 0h-38" id="aK"/><g id="c"><use transform="matrix(0.06172839506172839,0,0,0.06172839506172839,0,0)" xlink:href="#aG"/><use transform="matrix(0.06172839506172839,0,0,0.06172839506172839,15.987654320987653,0)" xlink:href="#aH"/><use transform="matrix(0.06172839506172839,0,0,0.06172839506172839,28.333333333333332,0)" xlink:href="#aD"/><use transform="matrix(0.06172839506172839,0,0,0.06172839506172839,34.50617283950617,0)" xlink:href="#aI"/><use transform="matrix(0.06172839506172839,0,0,0.06172839506172839,50.49382716049382,0)" xlink:href="#aJ"/><use transform="matrix(0.06172839506172839,0,0,0.06172839506172839,62.8395061728395,0)" xlink:href="#aC"/><use transform="matrix(0.06172839506172839,0,0,0.06172839506172839,70.18518518518518,0)" xlink:href="#aK"/></g><path d="M27 0v-27h64v-190l-56 39v-29l58-41h29v221h61V0H27" id="aL"/><use transform="matrix(0.06172839506172839,0,0,0.06172839506172839,0,0)" xlink:href="#aL" id="d"/><path d="M212-179c-10-28-35-45-73-45-59 0-87 40-87 99 0 60 29 101 89 101 43 0 62-24 78-52l27 14C228-24 195 4 139 4 59 4 22-46 18-125c-6-104 99-153 187-111 19 9 31 26 39 46" id="aM"/><path d="M33 0v-248h34V0H33" id="aN"/><path d="M30-248c118-7 216 8 213 122C240-48 200 0 122 0H30v-248zM63-27c89 8 146-16 146-99s-60-101-146-95v194" id="aO"/><path d="M233-177c-1 41-23 64-60 70L243 0h-38l-65-103H63V0H30v-248c88 3 205-21 203 71zM63-129c60-2 137 13 137-47 0-61-80-42-137-45v92" id="aP"/><path d="M33-154v-36h34v36H33zM33 0v-36h34V0H33" id="aQ"/><g id="e"><use transform="matrix(0.06172839506172839,0,0,0.06172839506172839,0,0)" xlink:href="#aM"/><use transform="matrix(0.06172839506172839,0,0,0.06172839506172839,15.987654320987653,0)" xlink:href="#aN"/><use transform="matrix(0.06172839506172839,0,0,0.06172839506172839,22.160493827160494,0)" xlink:href="#aO"/><use transform="matrix(0.06172839506172839,0,0,0.06172839506172839,38.148148148148145,0)" xlink:href="#aP"/><use transform="matrix(0.06172839506172839,0,0,0.06172839506172839,54.1358024691358,0)" xlink:href="#aQ"/></g><path d="M101-251c68 0 85 55 85 127S166 4 100 4C33 4 14-52 14-124c0-73 17-127 87-127zm-1 229c47 0 54-49 54-102s-4-102-53-102c-51 0-55 48-55 102 0 53 5 102 54 102" id="aR"/><path d="M33 0v-38h34V0H33" id="aS"/><path d="M0 4l72-265h28L28 4H0" id="aT"/><path d="M101-251c82-7 93 87 43 132L82-64C71-53 59-42 53-27h129V0H18c2-99 128-94 128-182 0-28-16-43-45-43s-46 15-49 41l-32-3c6-41 34-60 81-64" id="aU"/><g id="f"><use transform="matrix(0.06172839506172839,0,0,0.06172839506172839,0,0)" xlink:href="#aL"/><use transform="matrix(0.06172839506172839,0,0,0.06172839506172839,12.345679012345679,0)" xlink:href="#aR"/><use transform="matrix(0.06172839506172839,0,0,0.06172839506172839,24.691358024691358,0)" xlink:href="#aS"/><use transform="matrix(0.06172839506172839,0,0,0.06172839506172839,30.864197530864196,0)" xlink:href="#aR"/><use transform="matrix(0.06172839506172839,0,0,0.06172839506172839,43.20987654320987,0)" xlink:href="#aS"/><use transform="matrix(0.06172839506172839,0,0,0.06172839506172839,49.382716049382715,0)" xlink:href="#aR"/><use transform="matrix(0.06172839506172839,0,0,0.06172839506172839,61.72839506172839,0)" xlink:href="#aS"/><use transform="matrix(0.06172839506172839,0,0,0.06172839506172839,67.90123456790123,0)" xlink:href="#aR"/><use transform="matrix(0.06172839506172839,0,0,0.06172839506172839,80.24691358024691,0)" xlink:href="#aT"/><use transform="matrix(0.06172839506172839,0,0,0.06172839506172839,86.41975308641975,0)" xlink:href="#aU"/><use transform="matrix(0.06172839506172839,0,0,0.06172839506172839,98.76543209876543,0)" xlink:href="#aU"/></g><path d="M143 4C61 4 22-44 18-125c-5-107 100-154 193-111 17 8 29 25 37 43l-32 9c-13-25-37-40-76-40-61 0-88 39-88 99 0 61 29 100 91 101 35 0 62-11 79-27v-45h-74v-28h105v86C228-13 192 4 143 4" id="aV"/><path d="M179-190L93 31C79 59 56 82 12 73V49c39 6 53-20 64-50L1-190h34L92-34l54-156h33" id="aW"/><g id="g"><use transform="matrix(0.06172839506172839,0,0,0.06172839506172839,0,0)" xlink:href="#aV"/><use transform="matrix(0.06172839506172839,0,0,0.06172839506172839,17.28395061728395,0)" xlink:href="#aE"/><use transform="matrix(0.06172839506172839,0,0,0.06172839506172839,29.629629629629626,0)" xlink:href="#aD"/><use transform="matrix(0.06172839506172839,0,0,0.06172839506172839,35.80246913580247,0)" xlink:href="#aH"/><use transform="matrix(0.06172839506172839,0,0,0.06172839506172839,48.148148148148145,0)" xlink:href="#aI"/><use transform="matrix(0.06172839506172839,0,0,0.06172839506172839,64.1358024691358,0)" xlink:href="#aE"/><use transform="matrix(0.06172839506172839,0,0,0.06172839506172839,76.48148148148148,0)" xlink:href="#aW"/></g><path d="M30-248c87 1 191-15 191 75 0 78-77 80-158 76V0H30v-248zm33 125c57 0 124 11 124-50 0-59-68-47-124-48v98" id="aX"/><g id="h"><use transform="matrix(0.06172839506172839,0,0,0.06172839506172839,0,0)" xlink:href="#aN"/><use transform="matrix(0.06172839506172839,0,0,0.06172839506172839,6.172839506172839,0)" xlink:href="#aX"/><use transform="matrix(0.06172839506172839,0,0,0.06172839506172839,20.98765432098765,0)" xlink:href="#aQ"/></g><path d="M54-142c48-35 137-8 131 61C196 18 31 33 14-55l32-4c7 23 22 37 52 37 35-1 51-22 54-58 4-55-73-65-99-34H22l8-134h141v27H59" id="aY"/><g id="i"><use transform="matrix(0.06172839506172839,0,0,0.06172839506172839,0,0)" xlink:href="#aL"/><use transform="matrix(0.06172839506172839,0,0,0.06172839506172839,12.345679012345679,0)" xlink:href="#aR"/><use transform="matrix(0.06172839506172839,0,0,0.06172839506172839,24.691358024691358,0)" xlink:href="#aS"/><use transform="matrix(0.06172839506172839,0,0,0.06172839506172839,30.864197530864196,0)" xlink:href="#aR"/><use transform="matrix(0.06172839506172839,0,0,0.06172839506172839,43.20987654320987,0)" xlink:href="#aS"/><use transform="matrix(0.06172839506172839,0,0,0.06172839506172839,49.382716049382715,0)" xlink:href="#aR"/><use transform="matrix(0.06172839506172839,0,0,0.06172839506172839,61.72839506172839,0)" xlink:href="#aS"/><use transform="matrix(0.06172839506172839,0,0,0.06172839506172839,67.90123456790123,0)" xlink:href="#aY"/><use transform="matrix(0.06172839506172839,0,0,0.06172839506172839,80.24691358024691,0)" xlink:href="#aR"/></g><path d="M185-189c-5-48-123-54-124 2 14 75 158 14 163 119 3 78-121 87-175 55-17-10-28-26-33-46l33-7c5 56 141 63 141-1 0-78-155-14-162-118-5-82 145-84 179-34 5 7 8 16 11 25" id="aZ"/><path d="M115-194c55 1 70 41 70 98S169 2 115 4C84 4 66-9 55-30l1 105H24l-1-265h31l2 30c10-21 28-34 59-34zm-8 174c40 0 45-34 45-75s-6-73-45-74c-42 0-51 32-51 76 0 43 10 73 51 73" id="ba"/><g id="j"><use transform="matrix(0.06172839506172839,0,0,0.06172839506172839,0,0)" xlink:href="#aZ"/><use transform="matrix(0.06172839506172839,0,0,0.06172839506172839,14.814814814814813,0)" xlink:href="#ba"/><use transform="matrix(0.06172839506172839,0,0,0.06172839506172839,27.160493827160494,0)" xlink:href="#aJ"/><use transform="matrix(0.06172839506172839,0,0,0.06172839506172839,39.50617283950617,0)" xlink:href="#aK"/><use transform="matrix(0.06172839506172839,0,0,0.06172839506172839,50.61728395061728,0)" xlink:href="#aH"/></g><g id="k"><use transform="matrix(0.06172839506172839,0,0,0.06172839506172839,0,0)" xlink:href="#aA"/><use transform="matrix(0.06172839506172839,0,0,0.06172839506172839,14.814814814814813,0)" xlink:href="#aG"/><use transform="matrix(0.06172839506172839,0,0,0.06172839506172839,30.80246913580247,0)" xlink:href="#aH"/><use transform="matrix(0.06172839506172839,0,0,0.06172839506172839,43.148148148148145,0)" xlink:href="#aD"/></g><path d="M155-56V0h-30v-56H8v-25l114-167h33v167h35v25h-35zm-30-156c-27 46-58 90-88 131h88v-131" id="bb"/><g id="l"><use transform="matrix(0.06172839506172839,0,0,0.06172839506172839,0,0)" xlink:href="#aL"/><use transform="matrix(0.06172839506172839,0,0,0.06172839506172839,12.345679012345679,0)" xlink:href="#aR"/><use transform="matrix(0.06172839506172839,0,0,0.06172839506172839,24.691358024691358,0)" xlink:href="#aS"/><use transform="matrix(0.06172839506172839,0,0,0.06172839506172839,30.864197530864196,0)" xlink:href="#aR"/><use transform="matrix(0.06172839506172839,0,0,0.06172839506172839,43.20987654320987,0)" xlink:href="#aS"/><use transform="matrix(0.06172839506172839,0,0,0.06172839506172839,49.382716049382715,0)" xlink:href="#bb"/><use transform="matrix(0.06172839506172839,0,0,0.06172839506172839,61.72839506172839,0)" xlink:href="#aS"/><use transform="matrix(0.06172839506172839,0,0,0.06172839506172839,67.90123456790123,0)" xlink:href="#aR"/><use transform="matrix(0.06172839506172839,0,0,0.06172839506172839,80.24691358024691,0)" xlink:href="#aT"/><use transform="matrix(0.06172839506172839,0,0,0.06172839506172839,86.41975308641975,0)" xlink:href="#aU"/><use transform="matrix(0.06172839506172839,0,0,0.06172839506172839,98.76543209876543,0)" xlink:href="#aU"/></g><g id="m"><use transform="matrix(0.06172839506172839,0,0,0.06172839506172839,0,0)" xlink:href="#aX"/><use transform="matrix(0.06172839506172839,0,0,0.06172839506172839,14.814814814814813,0)" xlink:href="#aH"/><use transform="matrix(0.06172839506172839,0,0,0.06172839506172839,27.160493827160494,0)" xlink:href="#aH"/><use transform="matrix(0.06172839506172839,0,0,0.06172839506172839,39.50617283950617,0)" xlink:href="#aC"/></g><path d="M96-169c-40 0-48 33-48 73s9 75 48 75c24 0 41-14 43-38l32 2c-6 37-31 61-74 61-59 0-76-41-82-99-10-93 101-131 147-64 4 7 5 14 7 22l-32 3c-4-21-16-35-41-35" id="bc"/><g id="n"><use transform="matrix(0.06172839506172839,0,0,0.06172839506172839,0,0)" xlink:href="#aZ"/><use transform="matrix(0.06172839506172839,0,0,0.06172839506172839,14.814814814814813,0)" xlink:href="#aJ"/><use transform="matrix(0.06172839506172839,0,0,0.06172839506172839,27.160493827160494,0)" xlink:href="#ay"/><use transform="matrix(0.06172839506172839,0,0,0.06172839506172839,39.50617283950617,0)" xlink:href="#aC"/><use transform="matrix(0.06172839506172839,0,0,0.06172839506172839,46.85185185185185,0)" xlink:href="#bc"/><use transform="matrix(0.06172839506172839,0,0,0.06172839506172839,57.96296296296296,0)" xlink:href="#aH"/></g><g id="o"><use transform="matrix(0.06172839506172839,0,0,0.06172839506172839,0,0)" xlink:href="#aP"/><use transform="matrix(0.06172839506172839,0,0,0.06172839506172839,15.987654320987653,0)" xlink:href="#aJ"/><use transform="matrix(0.06172839506172839,0,0,0.06172839506172839,28.333333333333332,0)" xlink:href="#ay"/><use transform="matrix(0.06172839506172839,0,0,0.06172839506172839,40.67901234567901,0)" xlink:href="#aD"/><use transform="matrix(0.06172839506172839,0,0,0.06172839506172839,46.851851851851855,0)" xlink:href="#aH"/></g><path d="M141 0L90-78 38 0H4l68-98-65-92h35l48 74 47-74h35l-64 92 68 98h-35" id="bd"/><g id="p"><use transform="matrix(0.06172839506172839,0,0,0.06172839506172839,0,0)" xlink:href="#aG"/><use transform="matrix(0.06172839506172839,0,0,0.06172839506172839,15.987654320987653,0)" xlink:href="#aH"/><use transform="matrix(0.06172839506172839,0,0,0.06172839506172839,28.333333333333332,0)" xlink:href="#bd"/><use transform="matrix(0.06172839506172839,0,0,0.06172839506172839,39.44444444444444,0)" xlink:href="#aD"/></g><g id="q"><use transform="matrix(0.06172839506172839,0,0,0.06172839506172839,0,0)" xlink:href="#ax"/><use transform="matrix(0.06172839506172839,0,0,0.06172839506172839,15.987654320987653,0)" xlink:href="#aJ"/><use transform="matrix(0.06172839506172839,0,0,0.06172839506172839,28.333333333333332,0)" xlink:href="#ba"/></g><g id="r"><use transform="matrix(0.06172839506172839,0,0,0.06172839506172839,0,0)" xlink:href="#aA"/><use transform="matrix(0.06172839506172839,0,0,0.06172839506172839,14.814814814814813,0)" xlink:href="#aX"/><use transform="matrix(0.06172839506172839,0,0,0.06172839506172839,29.629629629629626,0)" xlink:href="#aG"/></g><path d="M30 0v-248h33v221h125V0H30" id="be"/><path d="M117-194c89-4 53 116 60 194h-32v-121c0-31-8-49-39-48C34-167 62-67 57 0H25l-1-190h30c1 10-1 24 2 32 11-22 29-35 61-36" id="bf"/><path d="M85-194c31 0 48 13 60 33l-1-100h32l1 261h-30c-2-10 0-23-3-31C134-8 116 4 85 4 32 4 16-35 15-94c0-66 23-100 70-100zm9 24c-40 0-46 34-46 75 0 40 6 74 45 74 42 0 51-32 51-76 0-42-9-74-50-73" id="bg"/><g id="s"><use transform="matrix(0.06172839506172839,0,0,0.06172839506172839,0,0)" xlink:href="#be"/><use transform="matrix(0.06172839506172839,0,0,0.06172839506172839,12.345679012345679,0)" xlink:href="#aH"/><use transform="matrix(0.06172839506172839,0,0,0.06172839506172839,24.691358024691358,0)" xlink:href="#aE"/><use transform="matrix(0.06172839506172839,0,0,0.06172839506172839,37.03703703703704,0)" xlink:href="#aC"/><use transform="matrix(0.06172839506172839,0,0,0.06172839506172839,44.382716049382715,0)" xlink:href="#bf"/><use transform="matrix(0.06172839506172839,0,0,0.06172839506172839,56.72839506172839,0)" xlink:href="#aH"/><use transform="matrix(0.06172839506172839,0,0,0.06172839506172839,69.07407407407408,0)" xlink:href="#bg"/></g><g id="t"><use transform="matrix(0.06172839506172839,0,0,0.06172839506172839,0,0)" xlink:href="#aL"/><use transform="matrix(0.06172839506172839,0,0,0.06172839506172839,12.345679012345679,0)" xlink:href="#aR"/><use transform="matrix(0.06172839506172839,0,0,0.06172839506172839,24.691358024691358,0)" xlink:href="#aS"/><use transform="matrix(0.06172839506172839,0,0,0.06172839506172839,30.864197530864196,0)" xlink:href="#aR"/><use transform="matrix(0.06172839506172839,0,0,0.06172839506172839,43.20987654320987,0)" xlink:href="#aS"/><use transform="matrix(0.06172839506172839,0,0,0.06172839506172839,49.382716049382715,0)" xlink:href="#aR"/><use transform="matrix(0.06172839506172839,0,0,0.06172839506172839,61.72839506172839,0)" xlink:href="#aS"/><use transform="matrix(0.06172839506172839,0,0,0.06172839506172839,67.90123456790123,0)" xlink:href="#aR"/><use transform="matrix(0.06172839506172839,0,0,0.06172839506172839,80.24691358024691,0)" xlink:href="#aT"/><use transform="matrix(0.06172839506172839,0,0,0.06172839506172839,86.41975308641975,0)" xlink:href="#aU"/><use transform="matrix(0.06172839506172839,0,0,0.06172839506172839,98.76543209876543,0)" xlink:href="#aU"/></g><path d="M110-160c48 1 74 30 74 79 0 53-28 85-80 85-65 0-83-55-86-122-5-90 50-162 133-122 14 7 22 21 27 39l-31 6c-5-40-67-38-82-6-9 19-15 44-15 74 11-20 30-34 60-33zm-7 138c34 0 49-23 49-58s-16-56-50-56c-29 0-50 16-49 49 1 36 15 65 50 65" id="bh"/><g id="u"><use transform="matrix(0.06172839506172839,0,0,0.06172839506172839,0,0)" xlink:href="#bh"/><use transform="matrix(0.06172839506172839,0,0,0.06172839506172839,12.345679012345679,0)" xlink:href="#aY"/><use transform="matrix(0.06172839506172839,0,0,0.06172839506172839,24.691358024691358,0)" xlink:href="#aY"/><use transform="matrix(0.06172839506172839,0,0,0.06172839506172839,37.03703703703704,0)" xlink:href="#aL"/><use transform="matrix(0.06172839506172839,0,0,0.06172839506172839,49.382716049382715,0)" xlink:href="#aY"/></g><g id="v"><use transform="matrix(0.06172839506172839,0,0,0.06172839506172839,0,0)" xlink:href="#aL"/><use transform="matrix(0.06172839506172839,0,0,0.06172839506172839,12.345679012345679,0)" xlink:href="#aR"/><use transform="matrix(0.06172839506172839,0,0,0.06172839506172839,24.691358024691358,0)" xlink:href="#aS"/><use transform="matrix(0.06172839506172839,0,0,0.06172839506172839,30.864197530864196,0)" xlink:href="#aR"/><use transform="matrix(0.06172839506172839,0,0,0.06172839506172839,43.20987654320987,0)" xlink:href="#aS"/><use transform="matrix(0.06172839506172839,0,0,0.06172839506172839,49.382716049382715,0)" xlink:href="#aR"/><use transform="matrix(0.06172839506172839,0,0,0.06172839506172839,61.72839506172839,0)" xlink:href="#aS"/><use transform="matrix(0.06172839506172839,0,0,0.06172839506172839,67.90123456790123,0)" xlink:href="#aY"/><use transform="matrix(0.06172839506172839,0,0,0.06172839506172839,80.24691358024691,0)" xlink:href="#aR"/></g><g id="w"><use transform="matrix(0.06172839506172839,0,0,0.06172839506172839,0,0)" xlink:href="#aL"/><use transform="matrix(0.06172839506172839,0,0,0.06172839506172839,12.345679012345679,0)" xlink:href="#aR"/><use transform="matrix(0.06172839506172839,0,0,0.06172839506172839,24.691358024691358,0)" xlink:href="#aS"/><use transform="matrix(0.06172839506172839,0,0,0.06172839506172839,30.864197530864196,0)" xlink:href="#aR"/><use transform="matrix(0.06172839506172839,0,0,0.06172839506172839,43.20987654320987,0)" xlink:href="#aS"/><use transform="matrix(0.06172839506172839,0,0,0.06172839506172839,49.382716049382715,0)" xlink:href="#bb"/><use transform="matrix(0.06172839506172839,0,0,0.06172839506172839,61.72839506172839,0)" xlink:href="#aS"/><use transform="matrix(0.06172839506172839,0,0,0.06172839506172839,67.90123456790123,0)" xlink:href="#aR"/><use transform="matrix(0.06172839506172839,0,0,0.06172839506172839,80.24691358024691,0)" xlink:href="#aT"/><use transform="matrix(0.06172839506172839,0,0,0.06172839506172839,86.41975308641975,0)" xlink:href="#aU"/><use transform="matrix(0.06172839506172839,0,0,0.06172839506172839,98.76543209876543,0)" xlink:href="#aU"/></g><path d="M134-131c28 9 52 24 51 62-1 50-34 73-85 73S17-19 16-69c0-36 21-54 49-61-75-25-45-126 34-121 46 3 78 18 79 63 0 33-17 51-44 57zm-34-11c31 1 46-15 46-44 0-28-17-43-47-42-29 0-46 13-45 42 1 28 16 44 46 44zm1 122c35 0 51-18 51-52 0-30-18-46-53-46-33 0-51 17-51 47 0 34 19 51 53 51" id="bi"/><g id="x"><use transform="matrix(0.06172839506172839,0,0,0.06172839506172839,0,0)" xlink:href="#aL"/><use transform="matrix(0.06172839506172839,0,0,0.06172839506172839,12.345679012345679,0)" xlink:href="#aR"/><use transform="matrix(0.06172839506172839,0,0,0.06172839506172839,24.691358024691358,0)" xlink:href="#aS"/><use transform="matrix(0.06172839506172839,0,0,0.06172839506172839,30.864197530864196,0)" xlink:href="#aR"/><use transform="matrix(0.06172839506172839,0,0,0.06172839506172839,43.20987654320987,0)" xlink:href="#aS"/><use transform="matrix(0.06172839506172839,0,0,0.06172839506172839,49.382716049382715,0)" xlink:href="#bi"/><use transform="matrix(0.06172839506172839,0,0,0.06172839506172839,61.72839506172839,0)" xlink:href="#aS"/><use transform="matrix(0.06172839506172839,0,0,0.06172839506172839,67.90123456790123,0)" xlink:href="#aR"/><use transform="matrix(0.06172839506172839,0,0,0.06172839506172839,80.24691358024691,0)" xlink:href="#aT"/><use transform="matrix(0.06172839506172839,0,0,0.06172839506172839,86.41975308641975,0)" xlink:href="#aU"/><use transform="matrix(0.06172839506172839,0,0,0.06172839506172839,98.76543209876543,0)" xlink:href="#aU"/></g><g id="y"><use transform="matrix(0.06172839506172839,0,0,0.06172839506172839,0,0)" xlink:href="#aZ"/><use transform="matrix(0.06172839506172839,0,0,0.06172839506172839,14.814814814814813,0)" xlink:href="#aB"/><use transform="matrix(0.06172839506172839,0,0,0.06172839506172839,19.691358024691354,0)" xlink:href="#aD"/><use transform="matrix(0.06172839506172839,0,0,0.06172839506172839,25.864197530864192,0)" xlink:href="#aH"/></g><use transform="matrix(0.06172839506172839,0,0,0.06172839506172839,0,0)" xlink:href="#aL" id="z"/><g id="A"><use transform="matrix(0.06172839506172839,0,0,0.06172839506172839,0,0)" xlink:href="#aN"/><use transform="matrix(0.06172839506172839,0,0,0.06172839506172839,6.172839506172839,0)" xlink:href="#aX"/><use transform="matrix(0.06172839506172839,0,0,0.06172839506172839,20.98765432098765,0)" xlink:href="#aQ"/></g><path d="M99-251c64 0 84 50 84 122C183-37 130 33 47-8c-14-7-20-23-25-40l30-5c6 39 69 39 84 7 9-19 16-44 16-74-10 22-31 35-62 35-49 0-73-33-73-83 0-54 28-83 82-83zm-1 141c31-1 51-18 51-49 0-36-14-67-51-67-34 0-49 23-49 58 0 34 15 58 49 58" id="bj"/><g id="B"><use transform="matrix(0.06172839506172839,0,0,0.06172839506172839,0,0)" xlink:href="#aL"/><use transform="matrix(0.06172839506172839,0,0,0.06172839506172839,12.345679012345679,0)" xlink:href="#bj"/><use transform="matrix(0.06172839506172839,0,0,0.06172839506172839,24.691358024691358,0)" xlink:href="#aU"/><use transform="matrix(0.06172839506172839,0,0,0.06172839506172839,37.03703703703704,0)" xlink:href="#aS"/><use transform="matrix(0.06172839506172839,0,0,0.06172839506172839,43.20987654320988,0)" xlink:href="#aL"/><use transform="matrix(0.06172839506172839,0,0,0.06172839506172839,55.55555555555556,0)" xlink:href="#bh"/><use transform="matrix(0.06172839506172839,0,0,0.06172839506172839,67.90123456790124,0)" xlink:href="#bi"/><use transform="matrix(0.06172839506172839,0,0,0.06172839506172839,80.24691358024693,0)" xlink:href="#aS"/><use transform="matrix(0.06172839506172839,0,0,0.06172839506172839,86.41975308641976,0)" xlink:href="#aL"/><use transform="matrix(0.06172839506172839,0,0,0.06172839506172839,98.76543209876544,0)" xlink:href="#aS"/><use transform="matrix(0.06172839506172839,0,0,0.06172839506172839,104.93827160493828,0)" xlink:href="#aL"/></g><g id="C"><use transform="matrix(0.06172839506172839,0,0,0.06172839506172839,0,0)" xlink:href="#aM"/><use transform="matrix(0.06172839506172839,0,0,0.06172839506172839,15.987654320987653,0)" xlink:href="#aN"/><use transform="matrix(0.06172839506172839,0,0,0.06172839506172839,22.160493827160494,0)" xlink:href="#aO"/><use transform="matrix(0.06172839506172839,0,0,0.06172839506172839,38.148148148148145,0)" xlink:href="#aP"/><use transform="matrix(0.06172839506172839,0,0,0.06172839506172839,54.1358024691358,0)" xlink:href="#aQ"/></g><g id="D"><use transform="matrix(0.06172839506172839,0,0,0.06172839506172839,0,0)" xlink:href="#aL"/><use transform="matrix(0.06172839506172839,0,0,0.06172839506172839,12.345679012345679,0)" xlink:href="#bj"/><use transform="matrix(0.06172839506172839,0,0,0.06172839506172839,24.691358024691358,0)" xlink:href="#aU"/><use transform="matrix(0.06172839506172839,0,0,0.06172839506172839,37.03703703703704,0)" xlink:href="#aS"/><use transform="matrix(0.06172839506172839,0,0,0.06172839506172839,43.20987654320988,0)" xlink:href="#aL"/><use transform="matrix(0.06172839506172839,0,0,0.06172839506172839,55.55555555555556,0)" xlink:href="#bh"/><use transform="matrix(0.06172839506172839,0,0,0.06172839506172839,67.90123456790124,0)" xlink:href="#bi"/><use transform="matrix(0.06172839506172839,0,0,0.06172839506172839,80.24691358024693,0)" xlink:href="#aS"/><use transform="matrix(0.06172839506172839,0,0,0.06172839506172839,86.41975308641976,0)" xlink:href="#aL"/><use transform="matrix(0.06172839506172839,0,0,0.06172839506172839,98.76543209876544,0)" xlink:href="#aS"/><use transform="matrix(0.06172839506172839,0,0,0.06172839506172839,104.93827160493828,0)" xlink:href="#aR"/><use transform="matrix(0.06172839506172839,0,0,0.06172839506172839,117.28395061728396,0)" xlink:href="#aT"/><use transform="matrix(0.06172839506172839,0,0,0.06172839506172839,123.4567901234568,0)" xlink:href="#aU"/><use transform="matrix(0.06172839506172839,0,0,0.06172839506172839,135.80246913580248,0)" xlink:href="#bb"/></g><path d="M205 0l-28-72H64L36 0H1l101-248h38L239 0h-34zm-38-99l-47-123c-12 45-31 82-46 123h93" id="bk"/><g id="E"><use transform="matrix(0.06172839506172839,0,0,0.06172839506172839,0,0)" xlink:href="#bk"/><use transform="matrix(0.06172839506172839,0,0,0.06172839506172839,14.814814814814813,0)" xlink:href="#aZ"/><use transform="matrix(0.06172839506172839,0,0,0.06172839506172839,29.629629629629626,0)" xlink:href="#aG"/><use transform="matrix(0.06172839506172839,0,0,0.06172839506172839,45.61728395061728,0)" xlink:href="#aQ"/></g><g id="F"><use transform="matrix(0.06172839506172839,0,0,0.06172839506172839,0,0)" xlink:href="#bh"/><use transform="matrix(0.06172839506172839,0,0,0.06172839506172839,12.345679012345679,0)" xlink:href="#aY"/><use transform="matrix(0.06172839506172839,0,0,0.06172839506172839,24.691358024691358,0)" xlink:href="#aR"/><use transform="matrix(0.06172839506172839,0,0,0.06172839506172839,37.03703703703704,0)" xlink:href="#aR"/><use transform="matrix(0.06172839506172839,0,0,0.06172839506172839,49.382716049382715,0)" xlink:href="#aL"/></g><path d="M80-196l47-18 7 23-49 13 32 44-20 13-27-46-27 45-21-12 33-44-49-13 8-23 47 19-2-53h23" id="bl"/><use transform="matrix(0.06172839506172839,0,0,0.06172839506172839,0,0)" xlink:href="#bl" id="G"/><path d="M108 0H70L1-190h34L89-25l56-165h34" id="bm"/><path d="M135-143c-3-34-86-38-87 0 15 53 115 12 119 90S17 21 10-45l28-5c4 36 97 45 98 0-10-56-113-15-118-90-4-57 82-63 122-42 12 7 21 19 24 35" id="bn"/><g id="H"><use transform="matrix(0.06172839506172839,0,0,0.06172839506172839,0,0)" xlink:href="#bk"/><use transform="matrix(0.06172839506172839,0,0,0.06172839506172839,14.814814814814813,0)" xlink:href="#bg"/><use transform="matrix(0.06172839506172839,0,0,0.06172839506172839,27.160493827160494,0)" xlink:href="#bm"/><use transform="matrix(0.06172839506172839,0,0,0.06172839506172839,38.27160493827161,0)" xlink:href="#aH"/><use transform="matrix(0.06172839506172839,0,0,0.06172839506172839,50.617283950617285,0)" xlink:href="#aC"/><use transform="matrix(0.06172839506172839,0,0,0.06172839506172839,57.96296296296296,0)" xlink:href="#aD"/><use transform="matrix(0.06172839506172839,0,0,0.06172839506172839,64.1358024691358,0)" xlink:href="#aB"/><use transform="matrix(0.06172839506172839,0,0,0.06172839506172839,69.01234567901234,0)" xlink:href="#bn"/><use transform="matrix(0.06172839506172839,0,0,0.06172839506172839,80.12345679012346,0)" xlink:href="#aH"/><use transform="matrix(0.06172839506172839,0,0,0.06172839506172839,92.46913580246914,0)" xlink:href="#bn"/></g><path d="M68-38c1 34 0 65-14 84H32c9-13 17-26 17-46H33v-38h35" id="bo"/><g id="I"><use transform="matrix(0.06172839506172839,0,0,0.06172839506172839,0,0)" xlink:href="#aL"/><use transform="matrix(0.06172839506172839,0,0,0.06172839506172839,12.345679012345679,0)" xlink:href="#bj"/><use transform="matrix(0.06172839506172839,0,0,0.06172839506172839,24.691358024691358,0)" xlink:href="#aU"/><use transform="matrix(0.06172839506172839,0,0,0.06172839506172839,37.03703703703704,0)" xlink:href="#aS"/><use transform="matrix(0.06172839506172839,0,0,0.06172839506172839,43.20987654320988,0)" xlink:href="#aL"/><use transform="matrix(0.06172839506172839,0,0,0.06172839506172839,55.55555555555556,0)" xlink:href="#bh"/><use transform="matrix(0.06172839506172839,0,0,0.06172839506172839,67.90123456790124,0)" xlink:href="#bi"/><use transform="matrix(0.06172839506172839,0,0,0.06172839506172839,80.24691358024693,0)" xlink:href="#aS"/><use transform="matrix(0.06172839506172839,0,0,0.06172839506172839,86.41975308641976,0)" xlink:href="#aL"/><use transform="matrix(0.06172839506172839,0,0,0.06172839506172839,98.76543209876544,0)" xlink:href="#aS"/><use transform="matrix(0.06172839506172839,0,0,0.06172839506172839,104.93827160493828,0)" xlink:href="#aR"/><use transform="matrix(0.06172839506172839,0,0,0.06172839506172839,117.28395061728396,0)" xlink:href="#aT"/><use transform="matrix(0.06172839506172839,0,0,0.06172839506172839,123.4567901234568,0)" xlink:href="#aU"/><use transform="matrix(0.06172839506172839,0,0,0.06172839506172839,135.80246913580248,0)" xlink:href="#bb"/><use transform="matrix(0.06172839506172839,0,0,0.06172839506172839,148.14814814814815,0)" xlink:href="#bo"/></g><g id="J"><use transform="matrix(0.06172839506172839,0,0,0.06172839506172839,0,0)" xlink:href="#aR"/><use transform="matrix(0.06172839506172839,0,0,0.06172839506172839,12.345679012345679,0)" xlink:href="#aS"/><use transform="matrix(0.06172839506172839,0,0,0.06172839506172839,18.51851851851852,0)" xlink:href="#aR"/><use transform="matrix(0.06172839506172839,0,0,0.06172839506172839,30.864197530864196,0)" xlink:href="#aS"/><use transform="matrix(0.06172839506172839,0,0,0.06172839506172839,37.03703703703704,0)" xlink:href="#aR"/><use transform="matrix(0.06172839506172839,0,0,0.06172839506172839,49.382716049382715,0)" xlink:href="#aS"/><use transform="matrix(0.06172839506172839,0,0,0.06172839506172839,55.55555555555556,0)" xlink:href="#aR"/><use transform="matrix(0.06172839506172839,0,0,0.06172839506172839,67.90123456790124,0)" xlink:href="#aT"/><use transform="matrix(0.06172839506172839,0,0,0.06172839506172839,74.07407407407408,0)" xlink:href="#aR"/></g><g id="K"><use transform="matrix(0.06172839506172839,0,0,0.06172839506172839,0,0)" xlink:href="#aD"/><use transform="matrix(0.06172839506172839,0,0,0.06172839506172839,6.172839506172839,0)" xlink:href="#aJ"/></g><g id="L"><use transform="matrix(0.06172839506172839,0,0,0.06172839506172839,0,0)" xlink:href="#aA"/><use transform="matrix(0.06172839506172839,0,0,0.06172839506172839,14.814814814814813,0)" xlink:href="#aX"/><use transform="matrix(0.06172839506172839,0,0,0.06172839506172839,29.629629629629626,0)" xlink:href="#aG"/></g><g id="M"><use transform="matrix(0.06172839506172839,0,0,0.06172839506172839,0,0)" xlink:href="#aL"/><use transform="matrix(0.06172839506172839,0,0,0.06172839506172839,12.345679012345679,0)" xlink:href="#bj"/><use transform="matrix(0.06172839506172839,0,0,0.06172839506172839,24.691358024691358,0)" xlink:href="#aU"/><use transform="matrix(0.06172839506172839,0,0,0.06172839506172839,37.03703703703704,0)" xlink:href="#aS"/><use transform="matrix(0.06172839506172839,0,0,0.06172839506172839,43.20987654320988,0)" xlink:href="#aL"/><use transform="matrix(0.06172839506172839,0,0,0.06172839506172839,55.55555555555556,0)" xlink:href="#bh"/><use transform="matrix(0.06172839506172839,0,0,0.06172839506172839,67.90123456790124,0)" xlink:href="#bi"/><use transform="matrix(0.06172839506172839,0,0,0.06172839506172839,80.24691358024693,0)" xlink:href="#aS"/><use transform="matrix(0.06172839506172839,0,0,0.06172839506172839,86.41975308641976,0)" xlink:href="#aL"/><use transform="matrix(0.06172839506172839,0,0,0.06172839506172839,98.76543209876544,0)" xlink:href="#aS"/><use transform="matrix(0.06172839506172839,0,0,0.06172839506172839,104.93827160493828,0)" xlink:href="#aR"/><use transform="matrix(0.06172839506172839,0,0,0.06172839506172839,117.28395061728396,0)" xlink:href="#aT"/><use transform="matrix(0.06172839506172839,0,0,0.06172839506172839,123.4567901234568,0)" xlink:href="#aU"/><use transform="matrix(0.06172839506172839,0,0,0.06172839506172839,135.80246913580248,0)" xlink:href="#bb"/></g><g id="N"><use transform="matrix(0.06172839506172839,0,0,0.06172839506172839,0,0)" xlink:href="#bh"/><use transform="matrix(0.06172839506172839,0,0,0.06172839506172839,12.345679012345679,0)" xlink:href="#aY"/><use transform="matrix(0.06172839506172839,0,0,0.06172839506172839,24.691358024691358,0)" xlink:href="#aR"/><use transform="matrix(0.06172839506172839,0,0,0.06172839506172839,37.03703703703704,0)" xlink:href="#aR"/><use transform="matrix(0.06172839506172839,0,0,0.06172839506172839,49.382716049382715,0)" xlink:href="#aL"/></g><g id="O"><use transform="matrix(0.06172839506172839,0,0,0.06172839506172839,0,0)" xlink:href="#aL"/><use transform="matrix(0.06172839506172839,0,0,0.06172839506172839,12.345679012345679,0)" xlink:href="#bj"/><use transform="matrix(0.06172839506172839,0,0,0.06172839506172839,24.691358024691358,0)" xlink:href="#aU"/><use transform="matrix(0.06172839506172839,0,0,0.06172839506172839,37.03703703703704,0)" xlink:href="#aS"/><use transform="matrix(0.06172839506172839,0,0,0.06172839506172839,43.20987654320988,0)" xlink:href="#aL"/><use transform="matrix(0.06172839506172839,0,0,0.06172839506172839,55.55555555555556,0)" xlink:href="#bh"/><use transform="matrix(0.06172839506172839,0,0,0.06172839506172839,67.90123456790124,0)" xlink:href="#bi"/><use transform="matrix(0.06172839506172839,0,0,0.06172839506172839,80.24691358024693,0)" xlink:href="#aS"/><use transform="matrix(0.06172839506172839,0,0,0.06172839506172839,86.41975308641976,0)" xlink:href="#aL"/><use transform="matrix(0.06172839506172839,0,0,0.06172839506172839,98.76543209876544,0)" xlink:href="#aS"/><use transform="matrix(0.06172839506172839,0,0,0.06172839506172839,104.93827160493828,0)" xlink:href="#aL"/></g><g id="P"><use transform="matrix(0.06172839506172839,0,0,0.06172839506172839,0,0)" xlink:href="#aR"/><use transform="matrix(0.06172839506172839,0,0,0.06172839506172839,12.345679012345679,0)" xlink:href="#aS"/><use transform="matrix(0.06172839506172839,0,0,0.06172839506172839,18.51851851851852,0)" xlink:href="#aR"/><use transform="matrix(0.06172839506172839,0,0,0.06172839506172839,30.864197530864196,0)" xlink:href="#aS"/><use transform="matrix(0.06172839506172839,0,0,0.06172839506172839,37.03703703703704,0)" xlink:href="#aR"/><use transform="matrix(0.06172839506172839,0,0,0.06172839506172839,49.382716049382715,0)" xlink:href="#aS"/><use transform="matrix(0.06172839506172839,0,0,0.06172839506172839,55.55555555555556,0)" xlink:href="#aR"/><use transform="matrix(0.06172839506172839,0,0,0.06172839506172839,67.90123456790124,0)" xlink:href="#aT"/><use transform="matrix(0.06172839506172839,0,0,0.06172839506172839,74.07407407407408,0)" xlink:href="#aR"/></g><g id="Q"><use transform="matrix(0.06172839506172839,0,0,0.06172839506172839,0,0)" xlink:href="#aG"/><use transform="matrix(0.06172839506172839,0,0,0.06172839506172839,15.987654320987653,0)" xlink:href="#aH"/><use transform="matrix(0.06172839506172839,0,0,0.06172839506172839,28.333333333333332,0)" xlink:href="#aD"/><use transform="matrix(0.06172839506172839,0,0,0.06172839506172839,34.50617283950617,0)" xlink:href="#aI"/><use transform="matrix(0.06172839506172839,0,0,0.06172839506172839,50.49382716049382,0)" xlink:href="#aJ"/><use transform="matrix(0.06172839506172839,0,0,0.06172839506172839,62.8395061728395,0)" xlink:href="#aC"/><use transform="matrix(0.06172839506172839,0,0,0.06172839506172839,70.18518518518518,0)" xlink:href="#aK"/></g><g id="R"><use transform="matrix(0.06172839506172839,0,0,0.06172839506172839,0,0)" xlink:href="#aL"/><use transform="matrix(0.06172839506172839,0,0,0.06172839506172839,12.345679012345679,0)" xlink:href="#aR"/><use transform="matrix(0.06172839506172839,0,0,0.06172839506172839,24.691358024691358,0)" xlink:href="#aS"/><use transform="matrix(0.06172839506172839,0,0,0.06172839506172839,30.864197530864196,0)" xlink:href="#aR"/><use transform="matrix(0.06172839506172839,0,0,0.06172839506172839,43.20987654320987,0)" xlink:href="#aS"/><use transform="matrix(0.06172839506172839,0,0,0.06172839506172839,49.382716049382715,0)" xlink:href="#aR"/><use transform="matrix(0.06172839506172839,0,0,0.06172839506172839,61.72839506172839,0)" xlink:href="#aS"/><use transform="matrix(0.06172839506172839,0,0,0.06172839506172839,67.90123456790123,0)" xlink:href="#aR"/><use transform="matrix(0.06172839506172839,0,0,0.06172839506172839,80.24691358024691,0)" xlink:href="#aT"/><use transform="matrix(0.06172839506172839,0,0,0.06172839506172839,86.41975308641975,0)" xlink:href="#aU"/><use transform="matrix(0.06172839506172839,0,0,0.06172839506172839,98.76543209876543,0)" xlink:href="#aU"/></g><g id="S"><use transform="matrix(0.06172839506172839,0,0,0.06172839506172839,0,0)" xlink:href="#aL"/><use transform="matrix(0.06172839506172839,0,0,0.06172839506172839,12.345679012345679,0)" xlink:href="#aR"/><use transform="matrix(0.06172839506172839,0,0,0.06172839506172839,24.691358024691358,0)" xlink:href="#aS"/><use transform="matrix(0.06172839506172839,0,0,0.06172839506172839,30.864197530864196,0)" xlink:href="#aR"/><use transform="matrix(0.06172839506172839,0,0,0.06172839506172839,43.20987654320987,0)" xlink:href="#aS"/><use transform="matrix(0.06172839506172839,0,0,0.06172839506172839,49.382716049382715,0)" xlink:href="#bb"/><use transform="matrix(0.06172839506172839,0,0,0.06172839506172839,61.72839506172839,0)" xlink:href="#aS"/><use transform="matrix(0.06172839506172839,0,0,0.06172839506172839,67.90123456790123,0)" xlink:href="#aR"/><use transform="matrix(0.06172839506172839,0,0,0.06172839506172839,80.24691358024691,0)" xlink:href="#aT"/><use transform="matrix(0.06172839506172839,0,0,0.06172839506172839,86.41975308641975,0)" xlink:href="#aU"/><use transform="matrix(0.06172839506172839,0,0,0.06172839506172839,98.76543209876543,0)" xlink:href="#aU"/></g><g id="T"><use transform="matrix(0.06172839506172839,0,0,0.06172839506172839,0,0)" xlink:href="#aL"/><use transform="matrix(0.06172839506172839,0,0,0.06172839506172839,12.345679012345679,0)" xlink:href="#aR"/><use transform="matrix(0.06172839506172839,0,0,0.06172839506172839,24.691358024691358,0)" xlink:href="#aS"/><use transform="matrix(0.06172839506172839,0,0,0.06172839506172839,30.864197530864196,0)" xlink:href="#aR"/><use transform="matrix(0.06172839506172839,0,0,0.06172839506172839,43.20987654320987,0)" xlink:href="#aS"/><use transform="matrix(0.06172839506172839,0,0,0.06172839506172839,49.382716049382715,0)" xlink:href="#bi"/><use transform="matrix(0.06172839506172839,0,0,0.06172839506172839,61.72839506172839,0)" xlink:href="#aS"/><use transform="matrix(0.06172839506172839,0,0,0.06172839506172839,67.90123456790123,0)" xlink:href="#aR"/><use transform="matrix(0.06172839506172839,0,0,0.06172839506172839,80.24691358024691,0)" xlink:href="#aT"/><use transform="matrix(0.06172839506172839,0,0,0.06172839506172839,86.41975308641975,0)" xlink:href="#aU"/><use transform="matrix(0.06172839506172839,0,0,0.06172839506172839,98.76543209876543,0)" xlink:href="#aU"/></g><g id="U"><use transform="matrix(0.06172839506172839,0,0,0.06172839506172839,0,0)" xlink:href="#ax"/><use transform="matrix(0.06172839506172839,0,0,0.06172839506172839,15.987654320987653,0)" xlink:href="#aJ"/><use transform="matrix(0.06172839506172839,0,0,0.06172839506172839,28.333333333333332,0)" xlink:href="#ba"/></g><path d="M127-220V0H93v-220H8v-28h204v28h-85" id="bp"/><g id="V"><use transform="matrix(0.06172839506172839,0,0,0.06172839506172839,0,0)" xlink:href="#bp"/><use transform="matrix(0.06172839506172839,0,0,0.06172839506172839,12.28395061728395,0)" xlink:href="#aW"/><use transform="matrix(0.06172839506172839,0,0,0.06172839506172839,23.39506172839506,0)" xlink:href="#ba"/><use transform="matrix(0.06172839506172839,0,0,0.06172839506172839,35.74074074074074,0)" xlink:href="#aH"/></g><g id="W"><use transform="matrix(0.06172839506172839,0,0,0.06172839506172839,0,0)" xlink:href="#aN"/><use transform="matrix(0.06172839506172839,0,0,0.06172839506172839,6.172839506172839,0)" xlink:href="#aX"/></g><g id="X"><use transform="matrix(0.06172839506172839,0,0,0.06172839506172839,0,0)" xlink:href="#aL"/><use transform="matrix(0.06172839506172839,0,0,0.06172839506172839,12.345679012345679,0)" xlink:href="#bj"/><use transform="matrix(0.06172839506172839,0,0,0.06172839506172839,24.691358024691358,0)" xlink:href="#aU"/><use transform="matrix(0.06172839506172839,0,0,0.06172839506172839,37.03703703703704,0)" xlink:href="#aS"/><use transform="matrix(0.06172839506172839,0,0,0.06172839506172839,43.20987654320988,0)" xlink:href="#aL"/><use transform="matrix(0.06172839506172839,0,0,0.06172839506172839,55.55555555555556,0)" xlink:href="#bh"/><use transform="matrix(0.06172839506172839,0,0,0.06172839506172839,67.90123456790124,0)" xlink:href="#bi"/><use transform="matrix(0.06172839506172839,0,0,0.06172839506172839,80.24691358024693,0)" xlink:href="#aS"/><use transform="matrix(0.06172839506172839,0,0,0.06172839506172839,86.41975308641976,0)" xlink:href="#aL"/><use transform="matrix(0.06172839506172839,0,0,0.06172839506172839,98.76543209876544,0)" xlink:href="#aS"/><use transform="matrix(0.06172839506172839,0,0,0.06172839506172839,104.93827160493828,0)" xlink:href="#aR"/><use transform="matrix(0.06172839506172839,0,0,0.06172839506172839,117.28395061728396,0)" xlink:href="#aT"/><use transform="matrix(0.06172839506172839,0,0,0.06172839506172839,123.4567901234568,0)" xlink:href="#aU"/><use transform="matrix(0.06172839506172839,0,0,0.06172839506172839,135.80246913580248,0)" xlink:href="#bb"/></g><g id="Y"><use transform="matrix(0.06172839506172839,0,0,0.06172839506172839,0,0)" xlink:href="#aA"/><use transform="matrix(0.06172839506172839,0,0,0.06172839506172839,14.382716049382715,0)" xlink:href="#aB"/><use transform="matrix(0.06172839506172839,0,0,0.06172839506172839,19.25925925925926,0)" xlink:href="#aC"/><use transform="matrix(0.06172839506172839,0,0,0.06172839506172839,26.604938271604937,0)" xlink:href="#aD"/><use transform="matrix(0.06172839506172839,0,0,0.06172839506172839,32.77777777777778,0)" xlink:href="#ay"/><use transform="matrix(0.06172839506172839,0,0,0.06172839506172839,45.123456790123456,0)" xlink:href="#aE"/><use transform="matrix(0.06172839506172839,0,0,0.06172839506172839,57.46913580246913,0)" xlink:href="#aF"/></g><g id="Z"><use transform="matrix(0.06172839506172839,0,0,0.06172839506172839,0,0)" xlink:href="#aG"/><use transform="matrix(0.06172839506172839,0,0,0.06172839506172839,15.987654320987653,0)" xlink:href="#aH"/><use transform="matrix(0.06172839506172839,0,0,0.06172839506172839,28.333333333333332,0)" xlink:href="#aD"/><use transform="matrix(0.06172839506172839,0,0,0.06172839506172839,34.50617283950617,0)" xlink:href="#aI"/><use transform="matrix(0.06172839506172839,0,0,0.06172839506172839,50.49382716049382,0)" xlink:href="#aJ"/><use transform="matrix(0.06172839506172839,0,0,0.06172839506172839,62.8395061728395,0)" xlink:href="#aC"/><use transform="matrix(0.06172839506172839,0,0,0.06172839506172839,70.18518518518518,0)" xlink:href="#aK"/></g><g id="aa"><use transform="matrix(0.06172839506172839,0,0,0.06172839506172839,0,0)" xlink:href="#aV"/><use transform="matrix(0.06172839506172839,0,0,0.06172839506172839,17.28395061728395,0)" xlink:href="#aE"/><use transform="matrix(0.06172839506172839,0,0,0.06172839506172839,29.629629629629626,0)" xlink:href="#aD"/><use transform="matrix(0.06172839506172839,0,0,0.06172839506172839,35.80246913580247,0)" xlink:href="#aH"/><use transform="matrix(0.06172839506172839,0,0,0.06172839506172839,48.148148148148145,0)" xlink:href="#aI"/><use transform="matrix(0.06172839506172839,0,0,0.06172839506172839,64.1358024691358,0)" xlink:href="#aE"/><use transform="matrix(0.06172839506172839,0,0,0.06172839506172839,76.48148148148148,0)" xlink:href="#aW"/></g><g id="ab"><use transform="matrix(0.06172839506172839,0,0,0.06172839506172839,0,0)" xlink:href="#aR"/><use transform="matrix(0.06172839506172839,0,0,0.06172839506172839,12.345679012345679,0)" xlink:href="#aS"/><use transform="matrix(0.06172839506172839,0,0,0.06172839506172839,18.51851851851852,0)" xlink:href="#aR"/><use transform="matrix(0.06172839506172839,0,0,0.06172839506172839,30.864197530864196,0)" xlink:href="#aS"/><use transform="matrix(0.06172839506172839,0,0,0.06172839506172839,37.03703703703704,0)" xlink:href="#aR"/><use transform="matrix(0.06172839506172839,0,0,0.06172839506172839,49.382716049382715,0)" xlink:href="#aS"/><use transform="matrix(0.06172839506172839,0,0,0.06172839506172839,55.55555555555556,0)" xlink:href="#aR"/><use transform="matrix(0.06172839506172839,0,0,0.06172839506172839,67.90123456790124,0)" xlink:href="#aT"/><use transform="matrix(0.06172839506172839,0,0,0.06172839506172839,74.07407407407408,0)" xlink:href="#aR"/></g><path d="M210-169c-67 3-38 105-44 169h-31v-121c0-29-5-50-35-48C34-165 62-65 56 0H25l-1-190h30c1 10-1 24 2 32 10-44 99-50 107 0 11-21 27-35 58-36 85-2 47 119 55 194h-31v-121c0-29-5-49-35-48" id="bq"/><g id="ac"><use transform="matrix(0.06172839506172839,0,0,0.06172839506172839,0,0)" xlink:href="#aZ"/><use transform="matrix(0.06172839506172839,0,0,0.06172839506172839,14.814814814814813,0)" xlink:href="#aW"/><use transform="matrix(0.06172839506172839,0,0,0.06172839506172839,25.925925925925924,0)" xlink:href="#bn"/><use transform="matrix(0.06172839506172839,0,0,0.06172839506172839,37.03703703703704,0)" xlink:href="#aD"/><use transform="matrix(0.06172839506172839,0,0,0.06172839506172839,43.20987654320988,0)" xlink:href="#aH"/><use transform="matrix(0.06172839506172839,0,0,0.06172839506172839,55.55555555555556,0)" xlink:href="#bq"/></g><g id="ad"><use transform="matrix(0.06172839506172839,0,0,0.06172839506172839,0,0)" xlink:href="#aA"/><use transform="matrix(0.06172839506172839,0,0,0.06172839506172839,14.814814814814813,0)" xlink:href="#aG"/><use transform="matrix(0.06172839506172839,0,0,0.06172839506172839,30.80246913580247,0)" xlink:href="#aH"/><use transform="matrix(0.06172839506172839,0,0,0.06172839506172839,43.148148148148145,0)" xlink:href="#aD"/></g><path d="M177-190C167-65 218 103 67 71c-23-6-38-20-44-43l32-5c15 47 100 32 89-28v-30C133-14 115 1 83 1 29 1 15-40 15-95c0-56 16-97 71-98 29-1 48 16 59 35 1-10 0-23 2-32h30zM94-22c36 0 50-32 50-73 0-42-14-75-50-75-39 0-46 34-46 75s6 73 46 73" id="br"/><g id="ae"><use transform="matrix(0.06172839506172839,0,0,0.06172839506172839,0,0)" xlink:href="#aX"/><use transform="matrix(0.06172839506172839,0,0,0.06172839506172839,14.814814814814813,0)" xlink:href="#aH"/><use transform="matrix(0.06172839506172839,0,0,0.06172839506172839,27.160493827160494,0)" xlink:href="#aH"/><use transform="matrix(0.06172839506172839,0,0,0.06172839506172839,39.50617283950617,0)" xlink:href="#aC"/><use transform="matrix(0.06172839506172839,0,0,0.06172839506172839,46.85185185185185,0)" xlink:href="#aB"/><use transform="matrix(0.06172839506172839,0,0,0.06172839506172839,51.72839506172839,0)" xlink:href="#bf"/><use transform="matrix(0.06172839506172839,0,0,0.06172839506172839,64.07407407407408,0)" xlink:href="#br"/></g><g id="af"><use transform="matrix(0.06172839506172839,0,0,0.06172839506172839,0,0)" xlink:href="#aG"/><use transform="matrix(0.06172839506172839,0,0,0.06172839506172839,15.987654320987653,0)" xlink:href="#aH"/><use transform="matrix(0.06172839506172839,0,0,0.06172839506172839,28.333333333333332,0)" xlink:href="#aD"/><use transform="matrix(0.06172839506172839,0,0,0.06172839506172839,34.50617283950617,0)" xlink:href="#aI"/><use transform="matrix(0.06172839506172839,0,0,0.06172839506172839,50.49382716049382,0)" xlink:href="#aJ"/><use transform="matrix(0.06172839506172839,0,0,0.06172839506172839,62.8395061728395,0)" xlink:href="#aC"/><use transform="matrix(0.06172839506172839,0,0,0.06172839506172839,70.18518518518518,0)" xlink:href="#aK"/></g><g id="ag"><use transform="matrix(0.06172839506172839,0,0,0.06172839506172839,0,0)" xlink:href="#aN"/><use transform="matrix(0.06172839506172839,0,0,0.06172839506172839,6.172839506172839,0)" xlink:href="#bf"/><use transform="matrix(0.06172839506172839,0,0,0.06172839506172839,18.51851851851852,0)" xlink:href="#aD"/><use transform="matrix(0.06172839506172839,0,0,0.06172839506172839,24.691358024691358,0)" xlink:href="#aH"/><use transform="matrix(0.06172839506172839,0,0,0.06172839506172839,37.03703703703704,0)" xlink:href="#aC"/><use transform="matrix(0.06172839506172839,0,0,0.06172839506172839,44.382716049382715,0)" xlink:href="#bf"/><use transform="matrix(0.06172839506172839,0,0,0.06172839506172839,56.72839506172839,0)" xlink:href="#aH"/><use transform="matrix(0.06172839506172839,0,0,0.06172839506172839,69.07407407407408,0)" xlink:href="#aD"/></g><linearGradient gradientUnits="userSpaceOnUse" id="ah" x1="-2118.84" y1="1963.41" x2="-2117.27" y2="2055.95"><stop offset="22%" stop-color="#32d4f5"/><stop offset="47%" stop-color="#31d1f3"/><stop offset="63%" stop-color="#2ec9eb"/><stop offset="77%" stop-color="#29bade"/><stop offset="89%" stop-color="#22a5cb"/><stop offset="100%" stop-color="#198ab3"/><stop offset="100%" stop-color="#198ab3"/></linearGradient><g id="ai"><use transform="matrix(0.06172839506172839,0,0,0.06172839506172839,0,0)" xlink:href="#aX"/><use transform="matrix(0.06172839506172839,0,0,0.06172839506172839,14.814814814814813,0)" xlink:href="#aH"/><use transform="matrix(0.06172839506172839,0,0,0.06172839506172839,27.160493827160494,0)" xlink:href="#aH"/><use transform="matrix(0.06172839506172839,0,0,0.06172839506172839,39.50617283950617,0)" xlink:href="#aC"/><use transform="matrix(0.06172839506172839,0,0,0.06172839506172839,46.85185185185185,0)" xlink:href="#aB"/><use transform="matrix(0.06172839506172839,0,0,0.06172839506172839,51.72839506172839,0)" xlink:href="#bf"/><use transform="matrix(0.06172839506172839,0,0,0.06172839506172839,64.07407407407408,0)" xlink:href="#br"/></g><path d="M232-93c-1 65-40 97-104 97C67 4 28-28 28-90v-158h33c8 89-33 224 67 224 102 0 64-133 71-224h33v155" id="bs"/><g id="aj"><use transform="matrix(0.06172839506172839,0,0,0.06172839506172839,0,0)" xlink:href="#bs"/><use transform="matrix(0.06172839506172839,0,0,0.06172839506172839,15.987654320987653,0)" xlink:href="#bn"/><use transform="matrix(0.06172839506172839,0,0,0.06172839506172839,27.098765432098766,0)" xlink:href="#aH"/></g><g id="ak"><use transform="matrix(0.06172839506172839,0,0,0.06172839506172839,0,0)" xlink:href="#aP"/><use transform="matrix(0.06172839506172839,0,0,0.06172839506172839,15.987654320987653,0)" xlink:href="#aH"/><use transform="matrix(0.06172839506172839,0,0,0.06172839506172839,28.333333333333332,0)" xlink:href="#bq"/><use transform="matrix(0.06172839506172839,0,0,0.06172839506172839,46.79012345679012,0)" xlink:href="#aJ"/><use transform="matrix(0.06172839506172839,0,0,0.06172839506172839,59.1358024691358,0)" xlink:href="#aD"/><use transform="matrix(0.06172839506172839,0,0,0.06172839506172839,65.30864197530863,0)" xlink:href="#aH"/></g><g id="al"><use transform="matrix(0.06172839506172839,0,0,0.06172839506172839,0,0)" xlink:href="#aV"/><use transform="matrix(0.06172839506172839,0,0,0.06172839506172839,17.28395061728395,0)" xlink:href="#aE"/><use transform="matrix(0.06172839506172839,0,0,0.06172839506172839,29.629629629629626,0)" xlink:href="#aD"/><use transform="matrix(0.06172839506172839,0,0,0.06172839506172839,35.80246913580247,0)" xlink:href="#aH"/><use transform="matrix(0.06172839506172839,0,0,0.06172839506172839,48.148148148148145,0)" xlink:href="#aI"/><use transform="matrix(0.06172839506172839,0,0,0.06172839506172839,64.1358024691358,0)" xlink:href="#aE"/><use transform="matrix(0.06172839506172839,0,0,0.06172839506172839,76.48148148148148,0)" xlink:href="#aW"/><use transform="matrix(0.06172839506172839,0,0,0.06172839506172839,87.5925925925926,0)" xlink:href="#bn"/><use transform="matrix(0.06172839506172839,0,0,0.06172839506172839,98.70370370370371,0)" xlink:href="#aQ"/></g><g id="am"><use transform="matrix(0.06172839506172839,0,0,0.06172839506172839,0,0)" xlink:href="#bp"/><use transform="matrix(0.06172839506172839,0,0,0.06172839506172839,12.716049382716047,0)" xlink:href="#aC"/><use transform="matrix(0.06172839506172839,0,0,0.06172839506172839,20.061728395061728,0)" xlink:href="#ay"/><use transform="matrix(0.06172839506172839,0,0,0.06172839506172839,32.407407407407405,0)" xlink:href="#aH"/></g><g id="an"><use transform="matrix(0.06172839506172839,0,0,0.06172839506172839,0,0)" xlink:href="#bk"/><use transform="matrix(0.06172839506172839,0,0,0.06172839506172839,14.814814814814813,0)" xlink:href="#aF"/><use transform="matrix(0.06172839506172839,0,0,0.06172839506172839,19.691358024691354,0)" xlink:href="#aF"/><use transform="matrix(0.06172839506172839,0,0,0.06172839506172839,24.5679012345679,0)" xlink:href="#aJ"/><use transform="matrix(0.06172839506172839,0,0,0.06172839506172839,36.913580246913575,0)" xlink:href="#aI"/></g><g id="ao"><use transform="matrix(0.06172839506172839,0,0,0.06172839506172839,0,0)" xlink:href="#aV"/><use transform="matrix(0.06172839506172839,0,0,0.06172839506172839,17.28395061728395,0)" xlink:href="#aE"/><use transform="matrix(0.06172839506172839,0,0,0.06172839506172839,29.629629629629626,0)" xlink:href="#aD"/><use transform="matrix(0.06172839506172839,0,0,0.06172839506172839,35.80246913580247,0)" xlink:href="#aH"/><use transform="matrix(0.06172839506172839,0,0,0.06172839506172839,48.148148148148145,0)" xlink:href="#aI"/><use transform="matrix(0.06172839506172839,0,0,0.06172839506172839,64.1358024691358,0)" xlink:href="#aE"/><use transform="matrix(0.06172839506172839,0,0,0.06172839506172839,76.48148148148148,0)" xlink:href="#aW"/></g><g id="ap"><use transform="matrix(0.06172839506172839,0,0,0.06172839506172839,0,0)" xlink:href="#bp"/><use transform="matrix(0.06172839506172839,0,0,0.06172839506172839,12.716049382716047,0)" xlink:href="#aC"/><use transform="matrix(0.06172839506172839,0,0,0.06172839506172839,20.061728395061728,0)" xlink:href="#aE"/><use transform="matrix(0.06172839506172839,0,0,0.06172839506172839,32.407407407407405,0)" xlink:href="#bf"/><use transform="matrix(0.06172839506172839,0,0,0.06172839506172839,44.75308641975308,0)" xlink:href="#bn"/><use transform="matrix(0.06172839506172839,0,0,0.06172839506172839,55.86419753086419,0)" xlink:href="#aB"/><use transform="matrix(0.06172839506172839,0,0,0.06172839506172839,60.74074074074073,0)" xlink:href="#aD"/><use transform="matrix(0.06172839506172839,0,0,0.06172839506172839,66.91358024691357,0)" xlink:href="#aQ"/></g><g id="aq"><use transform="matrix(0.06172839506172839,0,0,0.06172839506172839,0,0)" xlink:href="#bp"/><use transform="matrix(0.06172839506172839,0,0,0.06172839506172839,12.716049382716047,0)" xlink:href="#aC"/><use transform="matrix(0.06172839506172839,0,0,0.06172839506172839,20.061728395061728,0)" xlink:href="#ay"/><use transform="matrix(0.06172839506172839,0,0,0.06172839506172839,32.407407407407405,0)" xlink:href="#aH"/></g><g id="as"><use transform="matrix(0.06172839506172839,0,0,0.06172839506172839,0,0)" xlink:href="#aP"/><use transform="matrix(0.06172839506172839,0,0,0.06172839506172839,15.987654320987653,0)" xlink:href="#aH"/><use transform="matrix(0.06172839506172839,0,0,0.06172839506172839,28.333333333333332,0)" xlink:href="#br"/><use transform="matrix(0.06172839506172839,0,0,0.06172839506172839,40.67901234567901,0)" xlink:href="#aB"/><use transform="matrix(0.06172839506172839,0,0,0.06172839506172839,45.55555555555556,0)" xlink:href="#aJ"/><use transform="matrix(0.06172839506172839,0,0,0.06172839506172839,57.901234567901234,0)" xlink:href="#bf"/></g><use transform="matrix(0.06172839506172839,0,0,0.06172839506172839,0,0)" xlink:href="#aL" id="at"/><g id="au"><use transform="matrix(0.06172839506172839,0,0,0.06172839506172839,0,0)" xlink:href="#aA"/><use transform="matrix(0.06172839506172839,0,0,0.06172839506172839,14.814814814814813,0)" xlink:href="#aX"/><use transform="matrix(0.06172839506172839,0,0,0.06172839506172839,29.629629629629626,0)" xlink:href="#aG"/></g><use transform="matrix(0.06172839506172839,0,0,0.06172839506172839,0,0)" xlink:href="#aU" id="av"/><g id="aw"><use transform="matrix(0.06172839506172839,0,0,0.06172839506172839,0,0)" xlink:href="#aL"/><use transform="matrix(0.06172839506172839,0,0,0.06172839506172839,12.345679012345679,0)" xlink:href="#aR"/><use transform="matrix(0.06172839506172839,0,0,0.06172839506172839,24.691358024691358,0)" xlink:href="#aS"/><use transform="matrix(0.06172839506172839,0,0,0.06172839506172839,30.864197530864196,0)" xlink:href="#aR"/><use transform="matrix(0.06172839506172839,0,0,0.06172839506172839,43.20987654320987,0)" xlink:href="#aS"/><use transform="matrix(0.06172839506172839,0,0,0.06172839506172839,49.382716049382715,0)" xlink:href="#bi"/><use transform="matrix(0.06172839506172839,0,0,0.06172839506172839,61.72839506172839,0)" xlink:href="#aS"/><use transform="matrix(0.06172839506172839,0,0,0.06172839506172839,67.90123456790123,0)" xlink:href="#aR"/><use transform="matrix(0.06172839506172839,0,0,0.06172839506172839,80.24691358024691,0)" xlink:href="#aT"/><use transform="matrix(0.06172839506172839,0,0,0.06172839506172839,86.41975308641975,0)" xlink:href="#aU"/><use transform="matrix(0.06172839506172839,0,0,0.06172839506172839,98.76543209876543,0)" xlink:href="#aU"/></g></defs></g></svg>