<svg xmlns="http://www.w3.org/2000/svg" xmlns:xlink="http://www.w3.org/1999/xlink" xmlns:lucid="lucid" width="1709" height="1717"><g transform="translate(-99 513)" lucid:page-tab-id="~kqHv.8VnizU"><path d="M0-500h2000v2000H0z" fill="#fff"/><path d="M1080-434a6 6 0 0 1 6-6h673.46a6 6 0 0 1 6 6v1568a6 6 0 0 1-6 6H1086a6 6 0 0 1-6-6z" stroke="#3a414a" stroke-width="2" fill="#ffd9d9"/><path d="M168.58 222.72h105v38.66h-105z" fill="#fcfcca"/><path d="M273.58 222.72h113v38.66h-113z" fill="#fcfcca"/><path d="M386.58 222.72h464v38.66h-464zM850.58 222.72h190.74v38.66H850.58z" fill="#fcfcca"/><path d="M168.58 261.38h105v38.65h-105z" fill="#fff"/><path d="M273.58 261.38h113v38.65h-113z" fill="#fff"/><path d="M386.58 261.38h464v38.65h-464zM850.58 261.38h190.74v38.65H850.58zM168.58 300.03h105v43h-105z" fill="#fff"/><path d="M273.58 300.03h113v43h-113z" fill="#fff"/><path d="M386.58 300.03h464v43h-464zM850.58 300.03h190.74v43H850.58zM168.58 343.03h105v43h-105z" fill="#fff"/><path d="M273.58 343.03h113v43h-113z" fill="#fff"/><path d="M386.58 343.03h464v43h-464zM850.58 343.03h190.74v43H850.58z" fill="#fff"/><path d="M168.58 222.72v38.66M168.58 222.72h105M273.58 222.72v38.66M273.58 222.72h113M386.58 222.72v38.66M386.58 222.72h464M850.58 222.72v38.66M1041.32 222.72v38.66M850.58 222.72h190.74M168.58 261.38v38.65M168.58 261.38h105M273.58 261.38v38.65M273.58 261.38h113M386.58 261.38v38.65M386.58 261.38h464M850.58 261.38v38.65M1041.32 261.38v38.65M850.58 261.38h190.74M168.58 300.03v43M168.58 300.03h105M273.58 300.03v43M273.58 300.03h113M386.58 300.03v43M386.58 300.03h464M850.58 300.03v43M1041.32 300.03v43M850.58 300.03h190.74M168.58 343.03v43M168.58 343.03h105M168.58 386.03h105M273.58 343.03v43M273.58 343.03h113M273.58 386.03h113M386.58 343.03v43M386.58 343.03h464M386.58 386.03h464M850.58 343.03v43M1041.32 343.03v43M850.58 343.03h190.74M850.58 386.03h190.74" stroke="#5e5e5e" stroke-width="3" fill="none"/><use xlink:href="#a" transform="matrix(1,0,0,1,173.58333333333348,227.7238372093022) translate(24.074074074074076 18.944444444444443)"/><use xlink:href="#b" transform="matrix(1,0,0,1,278.5833333333335,227.7238372093022) translate(16.345679012345677 18.944444444444443)"/><use xlink:href="#c" transform="matrix(1,0,0,1,391.5833333333335,227.7238372093022) translate(197.40123456790124 18.944444444444443)"/><use xlink:href="#d" transform="matrix(1,0,0,1,855.5833333333335,227.7238372093022) translate(44.26543209876543 18.944444444444443)"/><use xlink:href="#e" transform="matrix(1,0,0,1,855.5833333333335,227.7238372093022) translate(96.05555555555556 18.944444444444443)"/><use xlink:href="#f" transform="matrix(1,0,0,1,173.58333333333348,266.3749999999999) translate(15.432098765432102 18.944444444444443)"/><use xlink:href="#g" transform="matrix(1,0,0,1,173.58333333333348,266.3749999999999) translate(67.22222222222223 18.944444444444443)"/><use xlink:href="#h" transform="matrix(1,0,0,1,278.5833333333335,266.3749999999999) translate(10.79012345679012 18.944444444444443)"/><use xlink:href="#i" transform="matrix(1,0,0,1,391.5833333333335,266.3749999999999) translate(85.02469135802468 18.944444444444443)"/><use xlink:href="#j" transform="matrix(1,0,0,1,391.5833333333335,266.3749999999999) translate(239.34567901234567 18.944444444444443)"/><use xlink:href="#k" transform="matrix(1,0,0,1,391.5833333333335,266.3749999999999) translate(307.2469135802469 18.944444444444443)"/><use xlink:href="#l" transform="matrix(1,0,0,1,855.5833333333335,266.3749999999999) translate(44.2037037037037 18.944444444444443)"/><use xlink:href="#m" transform="matrix(1,0,0,1,173.58333333333348,305.0261627906976) translate(6.851851851851855 20.944444444444443)"/><use xlink:href="#h" transform="matrix(1,0,0,1,278.5833333333335,305.0261627906976) translate(10.79012345679012 20.944444444444443)"/><use xlink:href="#n" transform="matrix(1,0,0,1,391.5833333333335,305.0261627906976) translate(171.44444444444446 20.944444444444443)"/><use xlink:href="#m" transform="matrix(1,0,0,1,173.58333333333348,348.0261627906976) translate(6.851851851851855 20.944444444444443)"/><use xlink:href="#h" transform="matrix(1,0,0,1,278.5833333333335,348.0261627906976) translate(10.79012345679012 20.944444444444443)"/><use xlink:href="#o" transform="matrix(1,0,0,1,391.5833333333335,348.0261627906976) translate(171.44444444444446 20.944444444444443)"/><path d="M1238.58 24.38a10 10 0 0 1 10-10h360a10 10 0 0 1 10 10v320a10 10 0 0 1-10 10h-360a10 10 0 0 1-10-10z" stroke="#000" stroke-width="2" fill="#fff"/><use xlink:href="#p" transform="matrix(1,0,0,1,1243.5833333333335,19.374999999999886) translate(185 156.99652777777777)"/><use xlink:href="#q" transform="matrix(1,0,0,1,1243.5833333333335,19.374999999999886) translate(185 183.66319444444443)"/><path d="M235.33-37.64h116v42h-116z" fill="#fcfcca"/><path d="M351.33-37.64h228v42h-228zM579.33-37.64h293v42h-293z" fill="#fcfcca"/><path d="M872.33-37.64h169v42h-169z" fill="#fcfcca"/><path d="M235.33 4.36h116v37h-116z" fill="#fff"/><path d="M351.33 4.36h228v37h-228zM579.33 4.36h293v37h-293z" fill="#fff"/><path d="M872.33 4.36h169v37h-169zM235.33 41.36h116v43h-116z" fill="#fff"/><path d="M351.33 41.36h228v43h-228zM579.33 41.36h293v43h-293z" fill="#fff"/><path d="M872.33 41.36h169v43h-169zM235.33 84.36h116v43h-116z" fill="#fff"/><path d="M351.33 84.36h228v43h-228zM579.33 84.36h293v43h-293z" fill="#fff"/><path d="M872.33 84.36h169v43h-169zM235.33 127.36h116v43h-116z" fill="#fff"/><path d="M351.33 127.36h228v43h-228zM579.33 127.36h293v43h-293z" fill="#fff"/><path d="M872.33 127.36h169v43h-169z" fill="#fff"/><path d="M235.33-37.64v42M235.33-37.64h116M351.33-37.64v42M351.33-37.64h228M579.33-37.64v42M579.33-37.64h293M872.33-37.64v42M1041.33-37.64v42M872.33-37.64h169M235.33 4.36v37M235.33 4.36h116M351.33 4.36v37M351.33 4.36h228M579.33 4.36v37M579.33 4.36h293M872.33 4.36v37M1041.33 4.36v37M872.33 4.36h169M235.33 41.36v43M235.33 41.36h116M351.33 41.36v43M351.33 41.36h228M579.33 41.36v43M579.33 41.36h293M872.33 41.36v43M1041.33 41.36v43M872.33 41.36h169M235.33 84.36v43M235.33 84.36h116M351.33 84.36v43M351.33 84.36h228M579.33 84.36v43M579.33 84.36h293M872.33 84.36v43M1041.33 84.36v43M872.33 84.36h169M235.33 127.36v43M235.33 127.36h116M235.33 170.36h116M351.33 127.36v43M351.33 127.36h228M351.33 170.36h228M579.33 127.36v43M579.33 127.36h293M579.33 170.36h293M872.33 127.36v43M1041.33 127.36v43M872.33 127.36h169M872.33 170.36h169" stroke="#5e5e5e" stroke-width="3" fill="none"/><use xlink:href="#b" transform="matrix(1,0,0,1,240.33333333333394,-32.640625000000114) translate(17.845679012345677 20.444444444444443)"/><use xlink:href="#c" transform="matrix(1,0,0,1,356.33333333333394,-32.640625000000114) translate(79.40123456790124 20.444444444444443)"/><use xlink:href="#r" transform="matrix(1,0,0,1,584.3333333333339,-32.640625000000114) translate(94.67901234567901 20.444444444444443)"/><use xlink:href="#d" transform="matrix(1,0,0,1,877.3333333333339,-32.640625000000114) translate(19.68518518518519 20.444444444444443)"/><use xlink:href="#s" transform="matrix(1,0,0,1,877.3333333333339,-32.640625000000114) translate(71.47530864197532 20.444444444444443)"/><use xlink:href="#t" transform="matrix(1,0,0,1,877.3333333333339,-32.640625000000114) translate(118.32716049382717 20.444444444444443)"/><use xlink:href="#h" transform="matrix(1,0,0,1,240.33333333333394,9.359374999999886) translate(12.29012345679012 17.944444444444443)"/><use xlink:href="#u" transform="matrix(1,0,0,1,356.33333333333394,9.359374999999886) translate(34.925925925925924 17.944444444444443)"/><use xlink:href="#v" transform="matrix(1,0,0,1,584.3333333333339,9.359374999999886) translate(19.709876543209873 17.944444444444443)"/><use xlink:href="#w" transform="matrix(1,0,0,1,584.3333333333339,9.359374999999886) translate(88.22839506172839 17.944444444444443)"/><use xlink:href="#x" transform="matrix(1,0,0,1,584.3333333333339,9.359374999999886) translate(175.69753086419752 17.944444444444443)"/><use xlink:href="#l" transform="matrix(1,0,0,1,877.3333333333339,9.359374999999886) translate(33.2037037037037 17.944444444444443)"/><use xlink:href="#y" transform="matrix(1,0,0,1,240.33333333333394,46.359374999999886) translate(15.99382716049383 20.944444444444443)"/><use xlink:href="#o" transform="matrix(1,0,0,1,356.33333333333394,46.359374999999886) translate(53.44444444444444 20.944444444444443)"/><use xlink:href="#z" transform="matrix(1,0,0,1,584.3333333333339,46.359374999999886) translate(75.5432098765432 20.944444444444443)"/><use xlink:href="#A" transform="matrix(1,0,0,1,584.3333333333339,46.359374999999886) translate(131.03703703703704 20.944444444444443)"/><use xlink:href="#y" transform="matrix(1,0,0,1,240.33333333333394,89.35937499999989) translate(15.99382716049383 20.944444444444443)"/><use xlink:href="#n" transform="matrix(1,0,0,1,356.33333333333394,89.35937499999989) translate(53.44444444444444 20.944444444444443)"/><use xlink:href="#v" transform="matrix(1,0,0,1,584.3333333333339,89.35937499999989) translate(66.5925925925926 20.944444444444443)"/><use xlink:href="#B" transform="matrix(1,0,0,1,584.3333333333339,89.35937499999989) translate(135.11111111111111 20.944444444444443)"/><use xlink:href="#y" transform="matrix(1,0,0,1,240.33333333333394,132.3593749999999) translate(15.99382716049383 20.944444444444443)"/><use xlink:href="#C" transform="matrix(1,0,0,1,356.33333333333394,132.3593749999999) translate(65.79012345679013 20.944444444444443)"/><use xlink:href="#D" transform="matrix(1,0,0,1,584.3333333333339,132.3593749999999) translate(103.87654320987654 20.944444444444443)"/><path d="M1108.58 229.66a10 10 0 0 1 10-10h360a10 10 0 0 1 10 10v79.8a10 10 0 0 1-10 10h-360a10 10 0 0 1-10-10z" stroke="#000" stroke-width="2" fill="#fff"/><path d="M1148 269.56h-104.18" stroke="#5e5e5e" stroke-width="2" fill="none"/><path d="M1149.35 268.94l.03.02-.07.03v.02l-.12.06-.5 1.35-.04.1h-.66v-1.95h1.85zM1043.85 270.53h-1.03v-1.95h1.03z" stroke="#5e5e5e" stroke-width=".05" fill="#5e5e5e"/><path d="M1186.46 268.36h-2.95v-10.2c.05-5.04-1.4-9.3-4.4-13.02-2.78-3.72-6.46-5.58-10.78-5.58-4.35-.06-8.07 1.86-10.9 5.58-3 3.66-4.44 7.98-4.4 13.02v10.2h-2.4c-1.12.06-2.04 1.08-2.04 2.34v26.58c0 1.26.92 2.28 2.04 2.28h35.85c1.1 0 2.03-1.02 2.07-2.28V270.7c-.04-1.32-.96-2.28-2.08-2.34zm-9.94 0h-16.4v-10.38c0-2.76.9-5.16 2.57-7.14 1.43-1.86 3.35-2.88 5.54-2.88 2.2 0 4.12 1.02 5.56 2.88.4.48.68.9.96 1.44 1.16 1.68 1.7 3.48 1.8 5.64z" stroke="#000" stroke-opacity="0" fill="url(#E)"/><path d="M1186.55 268.36h-35.9c-.5 0-.95.18-1.3.58l38.5 29.9c.47-.43.74-1.04.74-1.74v-26.58c-.1-1.22-.95-2.13-2.05-2.16z" stroke="#000" stroke-opacity="0" fill="#50e6ff"/><path d="M1150.72 268.36h35.87c.5 0 .93.18 1.32.58l-38.53 29.9c-.48-.46-.76-1.04-.76-1.74v-26.58c.12-1.22.98-2.13 2.08-2.16z" stroke="#000" stroke-opacity="0" fill="#fff" fill-opacity=".2"/><path d="M1165.04 274.8l3.53-4c.1-.07.18-.07.27 0l3.5 4c.1.06.1.2.07.27l-.05.08h-2.06c-.13 0-.2.08-.2.18v5.13c0 .1-.08.18-.17.18h-2.32c-.08.03-.14-.03-.17-.1V275.33c-.04-.1-.1-.22-.22-.2h-2.04c-.1-.02-.18-.1-.18-.23 0-.02.03-.07.06-.1zm7.28 18.22l-3.5 3.94c-.07.1-.2.1-.25.03-.03 0-.03 0-.03-.04l-3.5-3.94c-.1-.06-.12-.2-.06-.3.03 0 .03-.02.06-.05h2.05c.1 0 .2-.07.2-.18v-5.16c0-.13.1-.2.18-.2h2.18c.1 0 .18.07.18.2v5.15c0 .1.1.18.18.18h2.06c.1-.08.2-.06.27.05.06.08.06.2-.03.3zm-13.87-5.15v-2.34c0-.1-.1-.2-.18-.2h-4.43c-.13 0-.2-.1-.2-.2v-2.36c-.05-.08-.02-.2.07-.27.04-.02.07-.02.13-.02h4.44c.1 0 .18-.08.18-.2v-2.32c0-.14.13-.24.25-.2.03 0 .06 0 .1.04l3.5 3.97c.05.08.05.2 0 .26l-3.5 4c-.1.07-.25.05-.3-.06 0-.03-.05-.08-.05-.1zm20.45-7.92v2.32c0 .13.1.2.18.2h4.53s.22 0 .22.22v2.43c0 .13-.1.2-.2.2h-4.54c-.1 0-.18.1-.18.2v2.34c0 .1-.06.2-.15.2-.06 0-.12 0-.15-.05l-3.5-4 3.5-4.22s.3-.06.3.15z" stroke="#000" stroke-opacity="0" fill="#fff"/><path d="M1241.32 245.56a6 6 0 0 1 6-6h228a6 6 0 0 1 6 6v48a6 6 0 0 1-6 6h-228a6 6 0 0 1-6-6z" fill="none"/><use xlink:href="#F" transform="matrix(1,0,0,1,1241.3212750981702,239.55729166666646) translate(75.55555555555556 17.77777777777778)"/><use xlink:href="#G" transform="matrix(1,0,0,1,1241.3212750981702,239.55729166666646) translate(152.09876543209876 17.77777777777778)"/><use xlink:href="#H" transform="matrix(1,0,0,1,1241.3212750981702,239.55729166666646) translate(31.203703703703695 44.44444444444444)"/><use xlink:href="#I" transform="matrix(1,0,0,1,1241.3212750981702,239.55729166666646) translate(97.68518518518518 44.44444444444444)"/><use xlink:href="#J" transform="matrix(1,0,0,1,1241.3212750981702,239.55729166666646) translate(10.15432098765433 71.11111111111111)"/><use xlink:href="#K" transform="matrix(1,0,0,1,1241.3212750981702,239.55729166666646) translate(103.91975308641976 71.11111111111111)"/><use xlink:href="#L" transform="matrix(1,0,0,1,1241.3212750981702,239.55729166666646) translate(137.2530864197531 71.11111111111111)"/><path d="M1108.58 89.46a10 10 0 0 1 10-10h360a10 10 0 0 1 10 10v79.8a10 10 0 0 1-10 10h-360a10 10 0 0 1-10-10z" stroke="#000" stroke-width="2" fill="#fff"/><path d="M1140.56 99.36h56.04c1.32 0 1.98.87 1.98 2.56v46.14c0 1.7-.66 2.56-1.98 2.56h-56.04c-1.32 0-1.98-.87-1.98-2.56v-46.14c0-1.7.66-2.56 1.98-2.56z" stroke="#000" stroke-opacity="0" fill="url(#M)"/><path d="M1178.6 117.53v14.93l-10.02 7.5v-14.95l10.02-7.47z" stroke="#000" stroke-opacity="0" fill="#50e6ff"/><path d="M1178.54 117.48l-10 7.5-9.98-7.5 10-7.47 9.98 7.48z" stroke="#000" stroke-opacity="0" fill="#c3f1ff"/><path d="M1168.58 125.05v14.92l-10.02-7.5v-14.94l10.02 7.52z" stroke="#000" stroke-opacity="0" fill="#9cebff"/><path d="M1158.56 132.4l10.02-7.4v14.9l-10.02-7.5z" stroke="#000" stroke-opacity="0" fill="#c3f1ff"/><path d="M1178.6 132.4l-10.02-7.4v14.9l10.02-7.5z" stroke="#000" stroke-opacity="0" fill="#9cebff"/><path d="M1180.6 166.1c-5.93-1.2-6.14-6.66-6.14-15.48h-11.8c0 8.82-.17 14.3-6.1 15.48-1.72.23-2.98 2.07-2.98 4.26h30c0-2.2-1.26-4.03-2.97-4.26z" stroke="#000" stroke-opacity="0" fill="url(#N)"/><path d="M1228.58 105.36a6 6 0 0 1 6-6h228a6 6 0 0 1 6 6v48a6 6 0 0 1-6 6h-228a6 6 0 0 1-6-6z" fill="none"/><use xlink:href="#F" transform="matrix(1,0,0,1,1228.5833333333335,99.35937499999989) translate(75.55555555555556 17.77777777777778)"/><use xlink:href="#O" transform="matrix(1,0,0,1,1228.5833333333335,99.35937499999989) translate(152.09876543209876 17.77777777777778)"/><use xlink:href="#H" transform="matrix(1,0,0,1,1228.5833333333335,99.35937499999989) translate(31.203703703703695 44.44444444444444)"/><use xlink:href="#P" transform="matrix(1,0,0,1,1228.5833333333335,99.35937499999989) translate(97.68518518518518 44.44444444444444)"/><use xlink:href="#Q" transform="matrix(1,0,0,1,1228.5833333333335,99.35937499999989) translate(31.141975308641975 71.11111111111111)"/><use xlink:href="#R" transform="matrix(1,0,0,1,1228.5833333333335,99.35937499999989) translate(70.58641975308642 71.11111111111111)"/><use xlink:href="#S" transform="matrix(1,0,0,1,1228.5833333333335,99.35937499999989) translate(103.91975308641975 71.11111111111111)"/><path d="M1137.7 134.37l-94-53.47" stroke="#5e5e5e" stroke-width="2" fill="none"/><path d="M1138.58 133.74v2.24l-1.37-.78.97-1.7zM1044.2 80.06l-.96 1.7-.4-.23v-2.25z" stroke="#5e5e5e" stroke-width=".05" fill="#5e5e5e"/><path d="M1308.58 25.46a6 6 0 0 1 6-6h228a6 6 0 0 1 6 6v48a6 6 0 0 1-6 6h-228a6 6 0 0 1-6-6z" fill="none"/><use xlink:href="#z" transform="matrix(1,0,0,1,1308.5833333333335,19.4583333333332) translate(86.08024691358025 21.111111111111114)"/><use xlink:href="#T" transform="matrix(1,0,0,1,1308.5833333333335,19.4583333333332) translate(141.57407407407408 21.111111111111114)"/><use xlink:href="#U" transform="matrix(1,0,0,1,1308.5833333333335,19.4583333333332) translate(31.203703703703695 47.777777777777786)"/><use xlink:href="#V" transform="matrix(1,0,0,1,1308.5833333333335,19.4583333333332) translate(97.68518518518518 47.777777777777786)"/><path d="M1322.7-330a10 10 0 0 1 10-10h197.25a10 10 0 0 1 10 10v160a10 10 0 0 1-10 10H1332.7a10 10 0 0 1-10-10z" stroke="#000" stroke-width="2" fill="#fff"/><use xlink:href="#p" transform="matrix(1,0,0,1,1327.6902459805885,-335) translate(104 76.21527777777777)"/><use xlink:href="#q" transform="matrix(1,0,0,1,1327.6902459805885,-335) translate(104 102.88194444444446)"/><path d="M1325.6-334a6 6 0 0 1 6-6h199.43a6 6 0 0 1 6 6v48a6 6 0 0 1-6 6H1331.6a6 6 0 0 1-6-6z" fill="none"/><use xlink:href="#z" transform="matrix(1,0,0,1,1325.612941764837,-340) translate(72.08024691358025 21.111111111111114)"/><use xlink:href="#W" transform="matrix(1,0,0,1,1325.612941764837,-340) translate(127.57407407407408 21.111111111111114)"/><use xlink:href="#U" transform="matrix(1,0,0,1,1325.612941764837,-340) translate(17.203703703703695 47.777777777777786)"/><use xlink:href="#X" transform="matrix(1,0,0,1,1325.612941764837,-340) translate(83.68518518518518 47.777777777777786)"/><path d="M1431.32-158V12.38" stroke="#5e5e5e" stroke-width="2" fill="none"/><path d="M1432.3-157.97h-1.95V-159h1.95zM1432.3 13.38h-1.95v-1.03h1.95z" stroke="#5e5e5e" stroke-width=".05" fill="#5e5e5e"/><path d="M1278.58-179.1a10 10 0 0 1 10-10h300a10 10 0 0 1 10 10v40a10 10 0 0 1-10 10h-300a10 10 0 0 1-10-10z" stroke="#000" stroke-width="2" fill="#fff"/><use xlink:href="#Y" transform="matrix(1,0,0,1,1283.5833333333335,-184.10416666666703) translate(116.79012345679013 17.77777777777778)"/><use xlink:href="#Z" transform="matrix(1,0,0,1,1283.5833333333335,-184.10416666666703) translate(17.93209876543213 44.44444444444444)"/><use xlink:href="#aa" transform="matrix(1,0,0,1,1283.5833333333335,-184.10416666666703) translate(63.549382716049415 44.44444444444444)"/><use xlink:href="#ab" transform="matrix(1,0,0,1,1283.5833333333335,-184.10416666666703) translate(147.37654320987656 44.44444444444444)"/><use xlink:href="#ac" transform="matrix(1,0,0,1,1283.5833333333335,-184.10416666666703) translate(247.3148148148148 44.44444444444444)"/><use xlink:href="#q" transform="matrix(1,0,0,1,1283.5833333333335,-184.10416666666703) translate(155 71.11111111111111)"/><path d="M240-320h113v37H240zM353-320h230v37H353zM583-320h294v37H583zM877-320h162v37H877z" fill="#fcfcca"/><path d="M240-283h113v37H240zM353-283h230v37H353zM583-283h294v37H583zM877-283h162v37H877zM240-246h113v43H240zM353-246h230v43H353zM583-246h294v43H583zM877-246h162v43H877zM240-203h113v43H240zM353-203h230v43H353zM583-203h294v43H583zM877-203h162v43H877zM240-160h113v43H240zM353-160h230v43H353zM583-160h294v43H583zM877-160h162v43H877z" fill="#fff"/><path d="M240-320v37M240-320h113M353-320v37M353-320h230M583-320v37M583-320h294M877-320v37M1039-320v37M877-320h162M240-283v37M240-283h113M353-283v37M353-283h230M583-283v37M583-283h294M877-283v37M1039-283v37M877-283h162M240-246v43M240-246h113M353-246v43M353-246h230M583-246v43M583-246h294M877-246v43M1039-246v43M877-246h162M240-203v43M240-203h113M353-203v43M353-203h230M583-203v43M583-203h294M877-203v43M1039-203v43M877-203h162M240-160v43M240-160h113M240-117h113M353-160v43M353-160h230M353-117h230M583-160v43M583-160h294M583-117h294M877-160v43M1039-160v43M877-160h162M877-117h162" stroke="#5e5e5e" stroke-width="3" fill="none"/><use xlink:href="#b" transform="matrix(1,0,0,1,245,-315) translate(16.345679012345677 17.944444444444443)"/><use xlink:href="#c" transform="matrix(1,0,0,1,358,-315) translate(80.40123456790124 17.944444444444443)"/><use xlink:href="#d" transform="matrix(1,0,0,1,588,-315) translate(68.6358024691358 17.944444444444443)"/><use xlink:href="#s" transform="matrix(1,0,0,1,588,-315) translate(120.42592592592592 17.944444444444443)"/><use xlink:href="#ad" transform="matrix(1,0,0,1,588,-315) translate(167.27777777777777 17.944444444444443)"/><use xlink:href="#d" transform="matrix(1,0,0,1,882,-315) translate(16.18518518518519 17.944444444444443)"/><use xlink:href="#s" transform="matrix(1,0,0,1,882,-315) translate(67.97530864197532 17.944444444444443)"/><use xlink:href="#t" transform="matrix(1,0,0,1,882,-315) translate(114.82716049382717 17.944444444444443)"/><use xlink:href="#h" transform="matrix(1,0,0,1,245,-278) translate(10.79012345679012 17.944444444444443)"/><use xlink:href="#u" transform="matrix(1,0,0,1,358,-278) translate(35.925925925925924 17.944444444444443)"/><use xlink:href="#v" transform="matrix(1,0,0,1,588,-278) translate(20.209876543209873 17.944444444444443)"/><use xlink:href="#w" transform="matrix(1,0,0,1,588,-278) translate(88.72839506172839 17.944444444444443)"/><use xlink:href="#x" transform="matrix(1,0,0,1,588,-278) translate(176.19753086419752 17.944444444444443)"/><use xlink:href="#l" transform="matrix(1,0,0,1,882,-278) translate(29.703703703703702 17.944444444444443)"/><use xlink:href="#y" transform="matrix(1,0,0,1,245,-241) translate(14.49382716049383 20.944444444444443)"/><use xlink:href="#n" transform="matrix(1,0,0,1,358,-241) translate(54.44444444444444 20.944444444444443)"/><use xlink:href="#z" transform="matrix(1,0,0,1,588,-241) translate(76.0432098765432 20.944444444444443)"/><use xlink:href="#A" transform="matrix(1,0,0,1,588,-241) translate(131.53703703703704 20.944444444444443)"/><use xlink:href="#y" transform="matrix(1,0,0,1,245,-198) translate(14.49382716049383 20.944444444444443)"/><use xlink:href="#o" transform="matrix(1,0,0,1,358,-198) translate(54.44444444444444 20.944444444444443)"/><use xlink:href="#v" transform="matrix(1,0,0,1,588,-198) translate(67.0925925925926 20.944444444444443)"/><use xlink:href="#B" transform="matrix(1,0,0,1,588,-198) translate(135.61111111111111 20.944444444444443)"/><use xlink:href="#y" transform="matrix(1,0,0,1,245,-155) translate(14.49382716049383 20.944444444444443)"/><use xlink:href="#C" transform="matrix(1,0,0,1,358,-155) translate(66.79012345679013 20.944444444444443)"/><use xlink:href="#D" transform="matrix(1,0,0,1,588,-155) translate(104.37654320987654 20.944444444444443)"/><path d="M1278.58-30.54a10 10 0 0 1 10-10h300a10 10 0 0 1 10 10v40a10 10 0 0 1-10 10h-300a10 10 0 0 1-10-10z" stroke="#000" stroke-width="2" fill="#fff"/><use xlink:href="#Y" transform="matrix(1,0,0,1,1283.5833333333335,-35.5416666666668) translate(116.79012345679013 17.77777777777778)"/><use xlink:href="#ae" transform="matrix(1,0,0,1,1283.5833333333335,-35.5416666666668) translate(16.574074074074105 44.44444444444444)"/><use xlink:href="#af" transform="matrix(1,0,0,1,1283.5833333333335,-35.5416666666668) translate(75.64814814814818 44.44444444444444)"/><use xlink:href="#ag" transform="matrix(1,0,0,1,1283.5833333333335,-35.5416666666668) translate(169.4135802469136 44.44444444444444)"/><use xlink:href="#ac" transform="matrix(1,0,0,1,1283.5833333333335,-35.5416666666668) translate(248.67283950617283 44.44444444444444)"/><use xlink:href="#q" transform="matrix(1,0,0,1,1283.5833333333335,-35.5416666666668) translate(155 71.11111111111111)"/><path d="M1320.7-249.9l-279.2 24.72" stroke="#5e5e5e" stroke-width="2" fill="none"/><path d="M1321.7-249.02l-.94.08-.18-1.94 1.1-.1zM1041.6-224.22l-1.1.1v-1.96l.94-.08z" stroke="#5e5e5e" stroke-width=".05" fill="#5e5e5e"/><path d="M1348.58 528.86a10 10 0 0 1 10-10h140a10 10 0 0 1 10 10v100a10 10 0 0 1-10 10h-140a10 10 0 0 1-10-10z" stroke="#000" stroke-width="2" fill="#fff"/><use xlink:href="#ah" transform="matrix(1,0,0,1,1353.5833333333335,523.859724999994) translate(5.308641975308646 31.52777777777778)"/><use xlink:href="#T" transform="matrix(1,0,0,1,1353.5833333333335,523.859724999994) translate(68.82716049382717 58.19444444444445)"/><use xlink:href="#ai" transform="matrix(1,0,0,1,1353.5833333333335,523.859724999994) translate(12.037037037037038 84.86111111111111)"/><use xlink:href="#aj" transform="matrix(1,0,0,1,1353.5833333333335,523.859724999994) translate(45.37037037037037 84.86111111111111)"/><path d="M1428.58 640.86v96" stroke="#5e5e5e" stroke-width="2" fill="none"/><path d="M1429.56 640.9h-1.95v-1.04h1.96zM1429.56 737.86h-1.95v-1.03h1.96z" stroke="#5e5e5e" stroke-width=".05" fill="#5e5e5e"/><path d="M168.58 443.94h105v38.65h-105z" fill="#fcfcca"/><path d="M273.58 443.94h113v38.65h-113z" fill="#fcfcca"/><path d="M386.58 443.94h464v38.65h-464zM850.58 443.94h190.74v38.65H850.58z" fill="#fcfcca"/><path d="M168.58 482.6h105v38.64h-105z" fill="#fff"/><path d="M273.58 482.6h113v38.64h-113z" fill="#fff"/><path d="M386.58 482.6h464v38.64h-464zM850.58 482.6h190.74v38.64H850.58zM168.58 521.25h105v43h-105z" fill="#fff"/><path d="M273.58 521.25h113v43h-113z" fill="#fff"/><path d="M386.58 521.25h464v43h-464zM850.58 521.25h190.74v43H850.58zM168.58 564.25h105v43h-105z" fill="#fff"/><path d="M273.58 564.25h113v43h-113z" fill="#fff"/><path d="M386.58 564.25h464v43h-464zM850.58 564.25h190.74v43H850.58z" fill="#fff"/><path d="M168.58 443.94v38.65M168.58 443.94h105M273.58 443.94v38.65M273.58 443.94h113M386.58 443.94v38.65M386.58 443.94h464M850.58 443.94v38.65M1041.32 443.94v38.65M850.58 443.94h190.74M168.58 482.6v38.64M168.58 482.6h105M273.58 482.6v38.64M273.58 482.6h113M386.58 482.6v38.64M386.58 482.6h464M850.58 482.6v38.64M1041.32 482.6v38.64M850.58 482.6h190.74M168.58 521.25v43M168.58 521.25h105M273.58 521.25v43M273.58 521.25h113M386.58 521.25v43M386.58 521.25h464M850.58 521.25v43M1041.32 521.25v43M850.58 521.25h190.74M168.58 564.25v43M168.58 564.25h105M168.58 607.25h105M273.58 564.25v43M273.58 564.25h113M273.58 607.25h113M386.58 564.25v43M386.58 564.25h464M386.58 607.25h464M850.58 564.25v43M1041.32 564.25v43M850.58 564.25h190.74M850.58 607.25h190.74" stroke="#5e5e5e" stroke-width="3" fill="none"/><use xlink:href="#a" transform="matrix(1,0,0,1,173.58333333333354,448.94305833332743) translate(24.074074074074076 18.944444444444443)"/><use xlink:href="#b" transform="matrix(1,0,0,1,278.58333333333354,448.94305833332743) translate(16.345679012345677 18.944444444444443)"/><use xlink:href="#c" transform="matrix(1,0,0,1,391.58333333333354,448.94305833332743) translate(197.40123456790124 18.944444444444443)"/><use xlink:href="#d" transform="matrix(1,0,0,1,855.5833333333335,448.94305833332743) translate(44.26543209876543 18.944444444444443)"/><use xlink:href="#e" transform="matrix(1,0,0,1,855.5833333333335,448.94305833332743) translate(96.05555555555556 18.944444444444443)"/><use xlink:href="#ak" transform="matrix(1,0,0,1,173.58333333333354,487.5942211240251) translate(19.135802469135804 18.944444444444443)"/><use xlink:href="#g" transform="matrix(1,0,0,1,173.58333333333354,487.5942211240251) translate(63.51851851851852 18.944444444444443)"/><use xlink:href="#h" transform="matrix(1,0,0,1,278.58333333333354,487.5942211240251) translate(10.79012345679012 18.944444444444443)"/><use xlink:href="#i" transform="matrix(1,0,0,1,391.58333333333354,487.5942211240251) translate(118.97530864197532 18.944444444444443)"/><use xlink:href="#k" transform="matrix(1,0,0,1,391.58333333333354,487.5942211240251) translate(273.2962962962963 18.944444444444443)"/><use xlink:href="#al" transform="matrix(1,0,0,1,855.5833333333335,487.5942211240251) translate(31.85802469135802 18.944444444444443)"/><use xlink:href="#am" transform="matrix(1,0,0,1,173.58333333333354,526.2453839147229) translate(17.901234567901234 20.944444444444443)"/><use xlink:href="#g" transform="matrix(1,0,0,1,173.58333333333354,526.2453839147229) translate(64.75308641975309 20.944444444444443)"/><use xlink:href="#h" transform="matrix(1,0,0,1,278.58333333333354,526.2453839147229) translate(10.79012345679012 20.944444444444443)"/><use xlink:href="#an" transform="matrix(1,0,0,1,391.58333333333354,526.2453839147229) translate(137.49382716049382 20.944444444444443)"/><use xlink:href="#ao" transform="matrix(1,0,0,1,391.58333333333354,526.2453839147229) translate(254.77777777777777 20.944444444444443)"/><use xlink:href="#ap" transform="matrix(1,0,0,1,855.5833333333335,526.2453839147229) translate(44.2037037037037 20.944444444444443)"/><use xlink:href="#am" transform="matrix(1,0,0,1,173.58333333333354,569.2453839147229) translate(17.901234567901234 20.944444444444443)"/><use xlink:href="#g" transform="matrix(1,0,0,1,173.58333333333354,569.2453839147229) translate(64.75308641975309 20.944444444444443)"/><use xlink:href="#h" transform="matrix(1,0,0,1,278.58333333333354,569.2453839147229) translate(10.79012345679012 20.944444444444443)"/><use xlink:href="#aq" transform="matrix(1,0,0,1,391.58333333333354,569.2453839147229) translate(137.49382716049382 20.944444444444443)"/><use xlink:href="#ao" transform="matrix(1,0,0,1,391.58333333333354,569.2453839147229) translate(254.77777777777777 20.944444444444443)"/><use xlink:href="#ap" transform="matrix(1,0,0,1,855.5833333333335,569.2453839147229) translate(44.2037037037037 20.944444444444443)"/><path d="M1281.66 908.5l-237.9-96.27" stroke="#5e5e5e" stroke-width="2" fill="none"/><path d="M1282.58 907.8v2.1l-1.3-.52.72-1.8zM1044.14 811.34l-.73 1.8-.58-.23v-2.1z" stroke="#5e5e5e" stroke-width=".05" fill="#5e5e5e"/><path d="M1283.58 748.86a10 10 0 0 1 10-10h270a10 10 0 0 1 10 10v320a10 10 0 0 1-10 10h-270a10 10 0 0 1-10-10z" stroke="#000" stroke-width="2" fill="#fff"/><path d="M1428.58 818.86c-16.56 0-30-13.44-30-30 0-16.56 13.44-30 30-30 16.56 0 30 13.44 30 30 0 16.56-13.44 30-30 30zm0-57.42c-15.18 0-27.42 12.24-27.42 27.42 0 15.18 12.24 27.42 27.42 27.42 15.18 0 27.42-12.24 27.42-27.42 0-15.18-12.24-27.42-27.42-27.42z" stroke="#fff" stroke-opacity="0" fill="#693cc5"/><path d="M1433.56 772.85l-4.98-5.8-4.97 5.8-1.92-1.66 5.94-6.94c.45-.54 1.25-.6 1.8-.14l.13.14 5.94 6.93z" stroke="#fff" stroke-opacity="0" fill="#693cc5"/><path d="M1427.3 766.03h2.56v45.64h-2.55v-45.64z" stroke="#fff" stroke-opacity="0" fill="#693cc5"/><path d="M1428.58 813.9c-.35 0-.65-.12-.9-.37l-5.94-5.94 1.8-1.8 5.04 5.1 5.04-5.1 1.8 1.8-5.93 5.93c-.26.25-.56.38-.92.38zM1419.65 795.7l-1.88-1.74 5.05-5.1-5.05-5.04 1.88-1.8 5.93 5.94c.5.5.5 1.3 0 1.8zM1437.58 795.7l-5.94-5.94c-.5-.5-.5-1.3 0-1.8l5.94-5.94 1.82 1.8-5.05 5.04 5.05 5.1z" stroke="#fff" stroke-opacity="0" fill="#693cc5"/><path d="M1432.54 787.58h21.8v2.56h-21.8v-2.56zM1402.83 787.58h21.8v2.56h-21.8v-2.56z" stroke="#fff" stroke-opacity="0" fill="#693cc5"/><path d="M168.58 754.36h105v39.07h-105z" fill="#fcfcca"/><path d="M273.58 754.36h114v39.07h-114z" fill="#fcfcca"/><path d="M387.58 754.36h463v39.07h-463zM850.58 754.36h190.74v39.07H850.58z" fill="#fcfcca"/><path d="M168.58 793.43h105v49h-105z" fill="#fff"/><path d="M273.58 793.43h114v49h-114z" fill="#fff"/><path d="M387.58 793.43h463v49h-463zM850.58 793.43h190.74v49H850.58zM168.58 842.43h105v49h-105z" fill="#fff"/><path d="M273.58 842.43h114v49h-114z" fill="#fff"/><path d="M387.58 842.43h463v49h-463zM850.58 842.43h190.74v49H850.58z" fill="#fff"/><path d="M168.58 754.36v39.07M168.58 754.36h105M273.58 754.36v39.07M273.58 754.36h114M387.58 754.36v39.07M387.58 754.36h463M850.58 754.36v39.07M1041.32 754.36v39.07M850.58 754.36h190.74M168.58 793.43v49M168.58 793.43h105M273.58 793.43v49M273.58 793.43h114M387.58 793.43v49M387.58 793.43h463M850.58 793.43v49M1041.32 793.43v49M850.58 793.43h190.74M168.58 842.43v49M168.58 842.43h105M168.58 891.43h105M273.58 842.43v49M273.58 842.43h114M273.58 891.43h114M387.58 842.43v49M387.58 842.43h463M387.58 891.43h463M850.58 842.43v49M1041.32 842.43v49M850.58 842.43h190.74M850.58 891.43h190.74" stroke="#5e5e5e" stroke-width="3" fill="none"/><g><use xlink:href="#a" transform="matrix(1,0,0,1,173.58333333333377,759.3597249999945) translate(24.074074074074076 19.444444444444443)"/></g><g><use xlink:href="#b" transform="matrix(1,0,0,1,278.58333333333377,759.3597249999945) translate(16.845679012345677 19.444444444444443)"/></g><g><use xlink:href="#c" transform="matrix(1,0,0,1,392.58333333333377,759.3597249999945) translate(196.90123456790124 19.444444444444443)"/></g><g><use xlink:href="#d" transform="matrix(1,0,0,1,855.5833333333337,759.3597249999945) translate(44.26543209876543 19.444444444444443)"/><use xlink:href="#e" transform="matrix(1,0,0,1,855.5833333333337,759.3597249999945) translate(96.05555555555556 19.444444444444443)"/></g><g><use xlink:href="#f" transform="matrix(1,0,0,1,173.58333333333377,798.4294924418549) translate(15.432098765432102 23.944444444444443)"/><use xlink:href="#g" transform="matrix(1,0,0,1,173.58333333333377,798.4294924418549) translate(67.22222222222223 23.944444444444443)"/></g><g><use xlink:href="#h" transform="matrix(1,0,0,1,278.58333333333377,798.4294924418549) translate(11.29012345679012 23.944444444444443)"/></g><g><use xlink:href="#an" transform="matrix(1,0,0,1,392.58333333333377,798.4294924418549) translate(136.99382716049382 23.944444444444443)"/><use xlink:href="#ar" transform="matrix(1,0,0,1,392.58333333333377,798.4294924418549) translate(254.27777777777777 23.944444444444443)"/></g><g><use xlink:href="#l" transform="matrix(1,0,0,1,855.5833333333337,798.4294924418549) translate(44.2037037037037 23.944444444444443)"/></g><g><use xlink:href="#f" transform="matrix(1,0,0,1,173.58333333333377,847.4294924418549) translate(15.432098765432102 23.944444444444443)"/><use xlink:href="#g" transform="matrix(1,0,0,1,173.58333333333377,847.4294924418549) translate(67.22222222222223 23.944444444444443)"/></g><g><use xlink:href="#h" transform="matrix(1,0,0,1,278.58333333333377,847.4294924418549) translate(11.29012345679012 23.944444444444443)"/></g><g><use xlink:href="#aq" transform="matrix(1,0,0,1,392.58333333333377,847.4294924418549) translate(136.99382716049382 23.944444444444443)"/><use xlink:href="#ar" transform="matrix(1,0,0,1,392.58333333333377,847.4294924418549) translate(254.27777777777777 23.944444444444443)"/></g><g><use xlink:href="#l" transform="matrix(1,0,0,1,855.5833333333337,847.4294924418549) translate(44.2037037037037 23.944444444444443)"/></g><path d="M1278.58 844.86a6 6 0 0 1 6-6h288a6 6 0 0 1 6 6v48a6 6 0 0 1-6 6h-288a6 6 0 0 1-6-6z" fill="none"/><g><use xlink:href="#ak" transform="matrix(1,0,0,1,1278.5833333333335,838.8597249999943) translate(121.6358024691358 17.77777777777778)"/><use xlink:href="#T" transform="matrix(1,0,0,1,1278.5833333333335,838.8597249999943) translate(166.0185185185185 17.77777777777778)"/><use xlink:href="#ai" transform="matrix(1,0,0,1,1278.5833333333335,838.8597249999943) translate(74.69135802469135 44.44444444444444)"/><use xlink:href="#as" transform="matrix(1,0,0,1,1278.5833333333335,838.8597249999943) translate(108.02469135802468 44.44444444444444)"/><use xlink:href="#U" transform="matrix(1,0,0,1,1278.5833333333335,838.8597249999943) translate(42.68518518518519 71.11111111111111)"/><use xlink:href="#at" transform="matrix(1,0,0,1,1278.5833333333335,838.8597249999943) translate(109.16666666666667 71.11111111111111)"/><use xlink:href="#au" transform="matrix(1,0,0,1,1278.5833333333335,838.8597249999943) translate(90.15432098765433 97.77777777777777)"/><use xlink:href="#av" transform="matrix(1,0,0,1,1278.5833333333335,838.8597249999943) translate(148.1172839506173 97.77777777777777)"/><use xlink:href="#aw" transform="matrix(1,0,0,1,1278.5833333333335,838.8597249999943) translate(13.641975308641975 124.44444444444446)"/><use xlink:href="#ax" transform="matrix(1,0,0,1,1278.5833333333335,838.8597249999943) translate(28.456790123456788 124.44444444444446)"/><use xlink:href="#ay" transform="matrix(1,0,0,1,1278.5833333333335,838.8597249999943) translate(138.20987654320987 124.44444444444446)"/><use xlink:href="#az" transform="matrix(1,0,0,1,1278.5833333333335,838.8597249999943) translate(117.9320987654321 151.11111111111111)"/><use xlink:href="#g" transform="matrix(1,0,0,1,1278.5833333333335,838.8597249999943) translate(169.72222222222223 151.11111111111111)"/></g><path d="M1346.6 578.68l-302.8-55.15" stroke="#5e5e5e" stroke-width="2" fill="none"/><path d="M1347.58 577.87v1.98l-1.18-.22.35-1.9zM1044 522.58l-.34 1.92-.84-.16v-1.98z" stroke="#5e5e5e" stroke-width=".05" fill="#5e5e5e"/><path d="M1428.58 356.38v160.48" stroke="#5e5e5e" stroke-width="2" fill="none"/><path d="M1429.56 356.4h-1.95v-1.02h1.96zM1429.56 517.86h-1.95v-1.03h1.96z" stroke="#5e5e5e" stroke-width=".05" fill="#5e5e5e"/><path d="M1366.95-470a10 10 0 0 1 10-10h91.56a10 10 0 0 1 10 10v40a10 10 0 0 1-10 10h-91.55a10 10 0 0 1-10-10z" stroke="#000" stroke-width="2" fill="#ffd9d9"/><g><use xlink:href="#aA" transform="matrix(1,0,0,1,1371.9482695812442,-475) translate(6.617283950617285 30.27777777777778)"/><use xlink:href="#aB" transform="matrix(1,0,0,1,1371.9482695812442,-475) translate(83.03703703703704 30.27777777777778)"/></g><defs><path d="M30-248c87 1 191-15 191 75 0 78-77 80-158 76V0H30v-248zm33 125c57 0 124 11 124-50 0-59-68-47-124-48v98" id="aC"/><path d="M100-194c63 0 86 42 84 106H49c0 40 14 67 53 68 26 1 43-12 49-29l28 8c-11 28-37 45-77 45C44 4 14-33 15-96c1-61 26-98 85-98zm52 81c6-60-76-77-97-28-3 7-6 17-6 28h103" id="aD"/><path d="M114-163C36-179 61-72 57 0H25l-1-190h30c1 12-1 29 2 39 6-27 23-49 58-41v29" id="aE"/><g id="a"><use transform="matrix(0.06172839506172839,0,0,0.06172839506172839,0,0)" xlink:href="#aC"/><use transform="matrix(0.06172839506172839,0,0,0.06172839506172839,14.814814814814813,0)" xlink:href="#aD"/><use transform="matrix(0.06172839506172839,0,0,0.06172839506172839,27.160493827160494,0)" xlink:href="#aD"/><use transform="matrix(0.06172839506172839,0,0,0.06172839506172839,39.50617283950617,0)" xlink:href="#aE"/></g><path d="M185-189c-5-48-123-54-124 2 14 75 158 14 163 119 3 78-121 87-175 55-17-10-28-26-33-46l33-7c5 56 141 63 141-1 0-78-155-14-162-118-5-82 145-84 179-34 5 7 8 16 11 25" id="aF"/><path d="M100-194c62-1 85 37 85 99 1 63-27 99-86 99S16-35 15-95c0-66 28-99 85-99zM99-20c44 1 53-31 53-75 0-43-8-75-51-75s-53 32-53 75 10 74 51 75" id="aG"/><path d="M84 4C-5 8 30-112 23-190h32v120c0 31 7 50 39 49 72-2 45-101 50-169h31l1 190h-30c-1-10 1-25-2-33-11 22-28 36-60 37" id="aH"/><path d="M96-169c-40 0-48 33-48 73s9 75 48 75c24 0 41-14 43-38l32 2c-6 37-31 61-74 61-59 0-76-41-82-99-10-93 101-131 147-64 4 7 5 14 7 22l-32 3c-4-21-16-35-41-35" id="aI"/><g id="b"><use transform="matrix(0.06172839506172839,0,0,0.06172839506172839,0,0)" xlink:href="#aF"/><use transform="matrix(0.06172839506172839,0,0,0.06172839506172839,14.814814814814813,0)" xlink:href="#aG"/><use transform="matrix(0.06172839506172839,0,0,0.06172839506172839,27.160493827160494,0)" xlink:href="#aH"/><use transform="matrix(0.06172839506172839,0,0,0.06172839506172839,39.50617283950617,0)" xlink:href="#aE"/><use transform="matrix(0.06172839506172839,0,0,0.06172839506172839,46.85185185185185,0)" xlink:href="#aI"/><use transform="matrix(0.06172839506172839,0,0,0.06172839506172839,57.96296296296296,0)" xlink:href="#aD"/></g><path d="M233-177c-1 41-23 64-60 70L243 0h-38l-65-103H63V0H30v-248c88 3 205-21 203 71zM63-129c60-2 137 13 137-47 0-61-80-42-137-45v92" id="aJ"/><path d="M59-47c-2 24 18 29 38 22v24C64 9 27 4 27-40v-127H5v-23h24l9-43h21v43h35v23H59v120" id="aK"/><g id="c"><use transform="matrix(0.06172839506172839,0,0,0.06172839506172839,0,0)" xlink:href="#aJ"/><use transform="matrix(0.06172839506172839,0,0,0.06172839506172839,15.987654320987653,0)" xlink:href="#aG"/><use transform="matrix(0.06172839506172839,0,0,0.06172839506172839,28.333333333333332,0)" xlink:href="#aH"/><use transform="matrix(0.06172839506172839,0,0,0.06172839506172839,40.67901234567901,0)" xlink:href="#aK"/><use transform="matrix(0.06172839506172839,0,0,0.06172839506172839,46.851851851851855,0)" xlink:href="#aD"/></g><path d="M190 0L58-211 59 0H30v-248h39L202-35l-2-213h31V0h-41" id="aL"/><path d="M141 0L90-78 38 0H4l68-98-65-92h35l48 74 47-74h35l-64 92 68 98h-35" id="aM"/><g id="d"><use transform="matrix(0.06172839506172839,0,0,0.06172839506172839,0,0)" xlink:href="#aL"/><use transform="matrix(0.06172839506172839,0,0,0.06172839506172839,15.987654320987653,0)" xlink:href="#aD"/><use transform="matrix(0.06172839506172839,0,0,0.06172839506172839,28.333333333333332,0)" xlink:href="#aM"/><use transform="matrix(0.06172839506172839,0,0,0.06172839506172839,39.44444444444444,0)" xlink:href="#aK"/></g><path d="M197 0v-115H63V0H30v-248h33v105h134v-105h34V0h-34" id="aN"/><path d="M115-194c55 1 70 41 70 98S169 2 115 4C84 4 66-9 55-30l1 105H24l-1-265h31l2 30c10-21 28-34 59-34zm-8 174c40 0 45-34 45-75s-6-73-45-74c-42 0-51 32-51 76 0 43 10 73 51 73" id="aO"/><g id="e"><use transform="matrix(0.06172839506172839,0,0,0.06172839506172839,0,0)" xlink:href="#aN"/><use transform="matrix(0.06172839506172839,0,0,0.06172839506172839,15.987654320987653,0)" xlink:href="#aG"/><use transform="matrix(0.06172839506172839,0,0,0.06172839506172839,28.333333333333332,0)" xlink:href="#aO"/></g><path d="M30 0v-248h187v28H63v79h144v27H63v87h162V0H30" id="aP"/><path d="M195 0l-74-108L45 0H8l94-129-87-119h37l69 98 67-98h37l-84 118L233 0h-38" id="aQ"/><g id="f"><use transform="matrix(0.06172839506172839,0,0,0.06172839506172839,0,0)" xlink:href="#aP"/><use transform="matrix(0.06172839506172839,0,0,0.06172839506172839,14.814814814814813,0)" xlink:href="#aQ"/><use transform="matrix(0.06172839506172839,0,0,0.06172839506172839,29.629629629629626,0)" xlink:href="#aJ"/></g><path d="M27 0v-27h64v-190l-56 39v-29l58-41h29v221h61V0H27" id="aR"/><use transform="matrix(0.06172839506172839,0,0,0.06172839506172839,0,0)" xlink:href="#aR" id="g"/><path d="M30 0v-248h33v221h125V0H30" id="aS"/><path d="M141-36C126-15 110 5 73 4 37 3 15-17 15-53c-1-64 63-63 125-63 3-35-9-54-41-54-24 1-41 7-42 31l-33-3c5-37 33-52 76-52 45 0 72 20 72 64v82c-1 20 7 32 28 27v20c-31 9-61-2-59-35zM48-53c0 20 12 33 32 33 41-3 63-29 60-74-43 2-92-5-92 41" id="aT"/><path d="M117-194c89-4 53 116 60 194h-32v-121c0-31-8-49-39-48C34-167 62-67 57 0H25l-1-190h30c1 10-1 24 2 32 11-22 29-35 61-36" id="aU"/><path d="M85-194c31 0 48 13 60 33l-1-100h32l1 261h-30c-2-10 0-23-3-31C134-8 116 4 85 4 32 4 16-35 15-94c0-66 23-100 70-100zm9 24c-40 0-46 34-46 75 0 40 6 74 45 74 42 0 51-32 51-76 0-42-9-74-50-73" id="aV"/><g id="h"><use transform="matrix(0.06172839506172839,0,0,0.06172839506172839,0,0)" xlink:href="#aS"/><use transform="matrix(0.06172839506172839,0,0,0.06172839506172839,12.345679012345679,0)" xlink:href="#aD"/><use transform="matrix(0.06172839506172839,0,0,0.06172839506172839,24.691358024691358,0)" xlink:href="#aT"/><use transform="matrix(0.06172839506172839,0,0,0.06172839506172839,37.03703703703704,0)" xlink:href="#aE"/><use transform="matrix(0.06172839506172839,0,0,0.06172839506172839,44.382716049382715,0)" xlink:href="#aU"/><use transform="matrix(0.06172839506172839,0,0,0.06172839506172839,56.72839506172839,0)" xlink:href="#aD"/><use transform="matrix(0.06172839506172839,0,0,0.06172839506172839,69.07407407407408,0)" xlink:href="#aV"/></g><path d="M99-251c64 0 84 50 84 122C183-37 130 33 47-8c-14-7-20-23-25-40l30-5c6 39 69 39 84 7 9-19 16-44 16-74-10 22-31 35-62 35-49 0-73-33-73-83 0-54 28-83 82-83zm-1 141c31-1 51-18 51-49 0-36-14-67-51-67-34 0-49 23-49 58 0 34 15 58 49 58" id="aW"/><path d="M101-251c82-7 93 87 43 132L82-64C71-53 59-42 53-27h129V0H18c2-99 128-94 128-182 0-28-16-43-45-43s-46 15-49 41l-32-3c6-41 34-60 81-64" id="aX"/><path d="M33 0v-38h34V0H33" id="aY"/><path d="M110-160c48 1 74 30 74 79 0 53-28 85-80 85-65 0-83-55-86-122-5-90 50-162 133-122 14 7 22 21 27 39l-31 6c-5-40-67-38-82-6-9 19-15 44-15 74 11-20 30-34 60-33zm-7 138c34 0 49-23 49-58s-16-56-50-56c-29 0-50 16-49 49 1 36 15 65 50 65" id="aZ"/><path d="M134-131c28 9 52 24 51 62-1 50-34 73-85 73S17-19 16-69c0-36 21-54 49-61-75-25-45-126 34-121 46 3 78 18 79 63 0 33-17 51-44 57zm-34-11c31 1 46-15 46-44 0-28-17-43-47-42-29 0-46 13-45 42 1 28 16 44 46 44zm1 122c35 0 51-18 51-52 0-30-18-46-53-46-33 0-51 17-51 47 0 34 19 51 53 51" id="ba"/><path d="M101-251c68 0 85 55 85 127S166 4 100 4C33 4 14-52 14-124c0-73 17-127 87-127zm-1 229c47 0 54-49 54-102s-4-102-53-102c-51 0-55 48-55 102 0 53 5 102 54 102" id="bb"/><path d="M0 4l72-265h28L28 4H0" id="bc"/><path d="M155-56V0h-30v-56H8v-25l114-167h33v167h35v25h-35zm-30-156c-27 46-58 90-88 131h88v-131" id="bd"/><g id="i"><use transform="matrix(0.06172839506172839,0,0,0.06172839506172839,0,0)" xlink:href="#aR"/><use transform="matrix(0.06172839506172839,0,0,0.06172839506172839,12.345679012345679,0)" xlink:href="#aW"/><use transform="matrix(0.06172839506172839,0,0,0.06172839506172839,24.691358024691358,0)" xlink:href="#aX"/><use transform="matrix(0.06172839506172839,0,0,0.06172839506172839,37.03703703703704,0)" xlink:href="#aY"/><use transform="matrix(0.06172839506172839,0,0,0.06172839506172839,43.20987654320988,0)" xlink:href="#aR"/><use transform="matrix(0.06172839506172839,0,0,0.06172839506172839,55.55555555555556,0)" xlink:href="#aZ"/><use transform="matrix(0.06172839506172839,0,0,0.06172839506172839,67.90123456790124,0)" xlink:href="#ba"/><use transform="matrix(0.06172839506172839,0,0,0.06172839506172839,80.24691358024693,0)" xlink:href="#aY"/><use transform="matrix(0.06172839506172839,0,0,0.06172839506172839,86.41975308641976,0)" xlink:href="#aR"/><use transform="matrix(0.06172839506172839,0,0,0.06172839506172839,98.76543209876544,0)" xlink:href="#aY"/><use transform="matrix(0.06172839506172839,0,0,0.06172839506172839,104.93827160493828,0)" xlink:href="#bb"/><use transform="matrix(0.06172839506172839,0,0,0.06172839506172839,117.28395061728396,0)" xlink:href="#bc"/><use transform="matrix(0.06172839506172839,0,0,0.06172839506172839,123.4567901234568,0)" xlink:href="#aX"/><use transform="matrix(0.06172839506172839,0,0,0.06172839506172839,135.80246913580248,0)" xlink:href="#bd"/></g><path d="M64 0c3-98 48-159 88-221H18v-27h164v26C143-157 98-101 97 0H64" id="be"/><g id="j"><use transform="matrix(0.06172839506172839,0,0,0.06172839506172839,0,0)" xlink:href="#aR"/><use transform="matrix(0.06172839506172839,0,0,0.06172839506172839,12.345679012345679,0)" xlink:href="#aX"/><use transform="matrix(0.06172839506172839,0,0,0.06172839506172839,24.691358024691358,0)" xlink:href="#bb"/><use transform="matrix(0.06172839506172839,0,0,0.06172839506172839,37.03703703703704,0)" xlink:href="#be"/><use transform="matrix(0.06172839506172839,0,0,0.06172839506172839,49.382716049382715,0)" xlink:href="#aZ"/></g><path d="M54-142c48-35 137-8 131 61C196 18 31 33 14-55l32-4c7 23 22 37 52 37 35-1 51-22 54-58 4-55-73-65-99-34H22l8-134h141v27H59" id="bf"/><g id="k"><use transform="matrix(0.06172839506172839,0,0,0.06172839506172839,0,0)" xlink:href="#aZ"/><use transform="matrix(0.06172839506172839,0,0,0.06172839506172839,12.345679012345679,0)" xlink:href="#bf"/><use transform="matrix(0.06172839506172839,0,0,0.06172839506172839,24.691358024691358,0)" xlink:href="#bb"/><use transform="matrix(0.06172839506172839,0,0,0.06172839506172839,37.03703703703704,0)" xlink:href="#bb"/><use transform="matrix(0.06172839506172839,0,0,0.06172839506172839,49.382716049382715,0)" xlink:href="#aR"/></g><path d="M126-127c33 6 58 20 58 59 0 88-139 92-164 29-3-8-5-16-6-25l32-3c6 27 21 44 54 44 32 0 52-15 52-46 0-38-36-46-79-43v-28c39 1 72-4 72-42 0-27-17-43-46-43-28 0-47 15-49 41l-32-3c6-42 35-63 81-64 48-1 79 21 79 65 0 36-21 52-52 59" id="bg"/><g id="l"><use transform="matrix(0.06172839506172839,0,0,0.06172839506172839,0,0)" xlink:href="#aR"/><use transform="matrix(0.06172839506172839,0,0,0.06172839506172839,12.345679012345679,0)" xlink:href="#bb"/><use transform="matrix(0.06172839506172839,0,0,0.06172839506172839,24.691358024691358,0)" xlink:href="#aY"/><use transform="matrix(0.06172839506172839,0,0,0.06172839506172839,30.864197530864196,0)" xlink:href="#bb"/><use transform="matrix(0.06172839506172839,0,0,0.06172839506172839,43.20987654320987,0)" xlink:href="#aY"/><use transform="matrix(0.06172839506172839,0,0,0.06172839506172839,49.382716049382715,0)" xlink:href="#bb"/><use transform="matrix(0.06172839506172839,0,0,0.06172839506172839,61.72839506172839,0)" xlink:href="#aY"/><use transform="matrix(0.06172839506172839,0,0,0.06172839506172839,67.90123456790123,0)" xlink:href="#aX"/><use transform="matrix(0.06172839506172839,0,0,0.06172839506172839,80.24691358024691,0)" xlink:href="#bg"/></g><path d="M206 0h-36l-40-164L89 0H53L-1-190h32L70-26l43-164h34l41 164 42-164h31" id="bh"/><path d="M143 0L79-87 56-68V0H24v-261h32v163l83-92h37l-77 82L181 0h-38" id="bi"/><g id="m"><use transform="matrix(0.06172839506172839,0,0,0.06172839506172839,0,0)" xlink:href="#aL"/><use transform="matrix(0.06172839506172839,0,0,0.06172839506172839,15.987654320987653,0)" xlink:href="#aD"/><use transform="matrix(0.06172839506172839,0,0,0.06172839506172839,28.333333333333332,0)" xlink:href="#aK"/><use transform="matrix(0.06172839506172839,0,0,0.06172839506172839,34.50617283950617,0)" xlink:href="#bh"/><use transform="matrix(0.06172839506172839,0,0,0.06172839506172839,50.49382716049382,0)" xlink:href="#aG"/><use transform="matrix(0.06172839506172839,0,0,0.06172839506172839,62.8395061728395,0)" xlink:href="#aE"/><use transform="matrix(0.06172839506172839,0,0,0.06172839506172839,70.18518518518518,0)" xlink:href="#bi"/></g><g id="n"><use transform="matrix(0.06172839506172839,0,0,0.06172839506172839,0,0)" xlink:href="#aR"/><use transform="matrix(0.06172839506172839,0,0,0.06172839506172839,12.345679012345679,0)" xlink:href="#bb"/><use transform="matrix(0.06172839506172839,0,0,0.06172839506172839,24.691358024691358,0)" xlink:href="#aY"/><use transform="matrix(0.06172839506172839,0,0,0.06172839506172839,30.864197530864196,0)" xlink:href="#bb"/><use transform="matrix(0.06172839506172839,0,0,0.06172839506172839,43.20987654320987,0)" xlink:href="#aY"/><use transform="matrix(0.06172839506172839,0,0,0.06172839506172839,49.382716049382715,0)" xlink:href="#bb"/><use transform="matrix(0.06172839506172839,0,0,0.06172839506172839,61.72839506172839,0)" xlink:href="#aY"/><use transform="matrix(0.06172839506172839,0,0,0.06172839506172839,67.90123456790123,0)" xlink:href="#bb"/><use transform="matrix(0.06172839506172839,0,0,0.06172839506172839,80.24691358024691,0)" xlink:href="#bc"/><use transform="matrix(0.06172839506172839,0,0,0.06172839506172839,86.41975308641975,0)" xlink:href="#aX"/><use transform="matrix(0.06172839506172839,0,0,0.06172839506172839,98.76543209876543,0)" xlink:href="#aX"/></g><g id="o"><use transform="matrix(0.06172839506172839,0,0,0.06172839506172839,0,0)" xlink:href="#aR"/><use transform="matrix(0.06172839506172839,0,0,0.06172839506172839,12.345679012345679,0)" xlink:href="#bb"/><use transform="matrix(0.06172839506172839,0,0,0.06172839506172839,24.691358024691358,0)" xlink:href="#aY"/><use transform="matrix(0.06172839506172839,0,0,0.06172839506172839,30.864197530864196,0)" xlink:href="#bb"/><use transform="matrix(0.06172839506172839,0,0,0.06172839506172839,43.20987654320987,0)" xlink:href="#aY"/><use transform="matrix(0.06172839506172839,0,0,0.06172839506172839,49.382716049382715,0)" xlink:href="#bd"/><use transform="matrix(0.06172839506172839,0,0,0.06172839506172839,61.72839506172839,0)" xlink:href="#aY"/><use transform="matrix(0.06172839506172839,0,0,0.06172839506172839,67.90123456790123,0)" xlink:href="#bb"/><use transform="matrix(0.06172839506172839,0,0,0.06172839506172839,80.24691358024691,0)" xlink:href="#bc"/><use transform="matrix(0.06172839506172839,0,0,0.06172839506172839,86.41975308641975,0)" xlink:href="#aX"/><use transform="matrix(0.06172839506172839,0,0,0.06172839506172839,98.76543209876543,0)" xlink:href="#aX"/></g><path d="M16-82v-28h88v28H16" id="bj"/><g id="r"><use transform="matrix(0.06172839506172839,0,0,0.06172839506172839,0,0)" xlink:href="#aL"/><use transform="matrix(0.06172839506172839,0,0,0.06172839506172839,15.987654320987653,0)" xlink:href="#aD"/><use transform="matrix(0.06172839506172839,0,0,0.06172839506172839,28.333333333333332,0)" xlink:href="#aM"/><use transform="matrix(0.06172839506172839,0,0,0.06172839506172839,39.44444444444444,0)" xlink:href="#aK"/><use transform="matrix(0.06172839506172839,0,0,0.06172839506172839,45.617283950617285,0)" xlink:href="#bj"/><use transform="matrix(0.06172839506172839,0,0,0.06172839506172839,52.96296296296296,0)" xlink:href="#aN"/><use transform="matrix(0.06172839506172839,0,0,0.06172839506172839,68.95061728395062,0)" xlink:href="#aG"/><use transform="matrix(0.06172839506172839,0,0,0.06172839506172839,81.2962962962963,0)" xlink:href="#aO"/></g><g id="s"><use transform="matrix(0.06172839506172839,0,0,0.06172839506172839,0,0)" xlink:href="#aN"/><use transform="matrix(0.06172839506172839,0,0,0.06172839506172839,15.987654320987653,0)" xlink:href="#aG"/><use transform="matrix(0.06172839506172839,0,0,0.06172839506172839,28.333333333333332,0)" xlink:href="#aO"/></g><path d="M33 0v-248h34V0H33" id="bk"/><g id="t"><use transform="matrix(0.06172839506172839,0,0,0.06172839506172839,0,0)" xlink:href="#bk"/><use transform="matrix(0.06172839506172839,0,0,0.06172839506172839,6.172839506172839,0)" xlink:href="#aC"/></g><g id="u"><use transform="matrix(0.06172839506172839,0,0,0.06172839506172839,0,0)" xlink:href="#aR"/><use transform="matrix(0.06172839506172839,0,0,0.06172839506172839,12.345679012345679,0)" xlink:href="#aW"/><use transform="matrix(0.06172839506172839,0,0,0.06172839506172839,24.691358024691358,0)" xlink:href="#aX"/><use transform="matrix(0.06172839506172839,0,0,0.06172839506172839,37.03703703703704,0)" xlink:href="#aY"/><use transform="matrix(0.06172839506172839,0,0,0.06172839506172839,43.20987654320988,0)" xlink:href="#aR"/><use transform="matrix(0.06172839506172839,0,0,0.06172839506172839,55.55555555555556,0)" xlink:href="#aZ"/><use transform="matrix(0.06172839506172839,0,0,0.06172839506172839,67.90123456790124,0)" xlink:href="#ba"/><use transform="matrix(0.06172839506172839,0,0,0.06172839506172839,80.24691358024693,0)" xlink:href="#aY"/><use transform="matrix(0.06172839506172839,0,0,0.06172839506172839,86.41975308641976,0)" xlink:href="#aR"/><use transform="matrix(0.06172839506172839,0,0,0.06172839506172839,98.76543209876544,0)" xlink:href="#aY"/><use transform="matrix(0.06172839506172839,0,0,0.06172839506172839,104.93827160493828,0)" xlink:href="#bb"/><use transform="matrix(0.06172839506172839,0,0,0.06172839506172839,117.28395061728396,0)" xlink:href="#bc"/><use transform="matrix(0.06172839506172839,0,0,0.06172839506172839,123.4567901234568,0)" xlink:href="#aX"/><use transform="matrix(0.06172839506172839,0,0,0.06172839506172839,135.80246913580248,0)" xlink:href="#bd"/></g><path d="M137 0h-34L2-248h35l83 218 83-218h36" id="bl"/><path d="M24-231v-30h32v30H24zM24 0v-190h32V0H24" id="bm"/><path d="M24 0v-261h32V0H24" id="bn"/><g id="v"><use transform="matrix(0.06172839506172839,0,0,0.06172839506172839,0,0)" xlink:href="#bl"/><use transform="matrix(0.06172839506172839,0,0,0.06172839506172839,14.382716049382715,0)" xlink:href="#bm"/><use transform="matrix(0.06172839506172839,0,0,0.06172839506172839,19.25925925925926,0)" xlink:href="#aE"/><use transform="matrix(0.06172839506172839,0,0,0.06172839506172839,26.604938271604937,0)" xlink:href="#aK"/><use transform="matrix(0.06172839506172839,0,0,0.06172839506172839,32.77777777777778,0)" xlink:href="#aH"/><use transform="matrix(0.06172839506172839,0,0,0.06172839506172839,45.123456790123456,0)" xlink:href="#aT"/><use transform="matrix(0.06172839506172839,0,0,0.06172839506172839,57.46913580246913,0)" xlink:href="#bn"/></g><g id="w"><use transform="matrix(0.06172839506172839,0,0,0.06172839506172839,0,0)" xlink:href="#aL"/><use transform="matrix(0.06172839506172839,0,0,0.06172839506172839,15.987654320987653,0)" xlink:href="#aD"/><use transform="matrix(0.06172839506172839,0,0,0.06172839506172839,28.333333333333332,0)" xlink:href="#aK"/><use transform="matrix(0.06172839506172839,0,0,0.06172839506172839,34.50617283950617,0)" xlink:href="#bh"/><use transform="matrix(0.06172839506172839,0,0,0.06172839506172839,50.49382716049382,0)" xlink:href="#aG"/><use transform="matrix(0.06172839506172839,0,0,0.06172839506172839,62.8395061728395,0)" xlink:href="#aE"/><use transform="matrix(0.06172839506172839,0,0,0.06172839506172839,70.18518518518518,0)" xlink:href="#bi"/></g><path d="M143 4C61 4 22-44 18-125c-5-107 100-154 193-111 17 8 29 25 37 43l-32 9c-13-25-37-40-76-40-61 0-88 39-88 99 0 61 29 100 91 101 35 0 62-11 79-27v-45h-74v-28h105v86C228-13 192 4 143 4" id="bo"/><path d="M179-190L93 31C79 59 56 82 12 73V49c39 6 53-20 64-50L1-190h34L92-34l54-156h33" id="bp"/><g id="x"><use transform="matrix(0.06172839506172839,0,0,0.06172839506172839,0,0)" xlink:href="#bo"/><use transform="matrix(0.06172839506172839,0,0,0.06172839506172839,17.28395061728395,0)" xlink:href="#aT"/><use transform="matrix(0.06172839506172839,0,0,0.06172839506172839,29.629629629629626,0)" xlink:href="#aK"/><use transform="matrix(0.06172839506172839,0,0,0.06172839506172839,35.80246913580247,0)" xlink:href="#aD"/><use transform="matrix(0.06172839506172839,0,0,0.06172839506172839,48.148148148148145,0)" xlink:href="#bh"/><use transform="matrix(0.06172839506172839,0,0,0.06172839506172839,64.1358024691358,0)" xlink:href="#aT"/><use transform="matrix(0.06172839506172839,0,0,0.06172839506172839,76.48148148148148,0)" xlink:href="#bp"/></g><path d="M135-143c-3-34-86-38-87 0 15 53 115 12 119 90S17 21 10-45l28-5c4 36 97 45 98 0-10-56-113-15-118-90-4-57 82-63 122-42 12 7 21 19 24 35" id="bq"/><path d="M210-169c-67 3-38 105-44 169h-31v-121c0-29-5-50-35-48C34-165 62-65 56 0H25l-1-190h30c1 10-1 24 2 32 10-44 99-50 107 0 11-21 27-35 58-36 85-2 47 119 55 194h-31v-121c0-29-5-49-35-48" id="br"/><g id="y"><use transform="matrix(0.06172839506172839,0,0,0.06172839506172839,0,0)" xlink:href="#aF"/><use transform="matrix(0.06172839506172839,0,0,0.06172839506172839,14.814814814814813,0)" xlink:href="#bp"/><use transform="matrix(0.06172839506172839,0,0,0.06172839506172839,25.925925925925924,0)" xlink:href="#bq"/><use transform="matrix(0.06172839506172839,0,0,0.06172839506172839,37.03703703703704,0)" xlink:href="#aK"/><use transform="matrix(0.06172839506172839,0,0,0.06172839506172839,43.20987654320988,0)" xlink:href="#aD"/><use transform="matrix(0.06172839506172839,0,0,0.06172839506172839,55.55555555555556,0)" xlink:href="#br"/></g><g id="z"><use transform="matrix(0.06172839506172839,0,0,0.06172839506172839,0,0)" xlink:href="#bl"/><use transform="matrix(0.06172839506172839,0,0,0.06172839506172839,14.814814814814813,0)" xlink:href="#aL"/><use transform="matrix(0.06172839506172839,0,0,0.06172839506172839,30.80246913580247,0)" xlink:href="#aD"/><use transform="matrix(0.06172839506172839,0,0,0.06172839506172839,43.148148148148145,0)" xlink:href="#aK"/></g><path d="M177-190C167-65 218 103 67 71c-23-6-38-20-44-43l32-5c15 47 100 32 89-28v-30C133-14 115 1 83 1 29 1 15-40 15-95c0-56 16-97 71-98 29-1 48 16 59 35 1-10 0-23 2-32h30zM94-22c36 0 50-32 50-73 0-42-14-75-50-75-39 0-46 34-46 75s6 73 46 73" id="bs"/><g id="A"><use transform="matrix(0.06172839506172839,0,0,0.06172839506172839,0,0)" xlink:href="#aC"/><use transform="matrix(0.06172839506172839,0,0,0.06172839506172839,14.814814814814813,0)" xlink:href="#aD"/><use transform="matrix(0.06172839506172839,0,0,0.06172839506172839,27.160493827160494,0)" xlink:href="#aD"/><use transform="matrix(0.06172839506172839,0,0,0.06172839506172839,39.50617283950617,0)" xlink:href="#aE"/><use transform="matrix(0.06172839506172839,0,0,0.06172839506172839,46.85185185185185,0)" xlink:href="#bm"/><use transform="matrix(0.06172839506172839,0,0,0.06172839506172839,51.72839506172839,0)" xlink:href="#aU"/><use transform="matrix(0.06172839506172839,0,0,0.06172839506172839,64.07407407407408,0)" xlink:href="#bs"/></g><g id="B"><use transform="matrix(0.06172839506172839,0,0,0.06172839506172839,0,0)" xlink:href="#aL"/><use transform="matrix(0.06172839506172839,0,0,0.06172839506172839,15.987654320987653,0)" xlink:href="#aD"/><use transform="matrix(0.06172839506172839,0,0,0.06172839506172839,28.333333333333332,0)" xlink:href="#aK"/><use transform="matrix(0.06172839506172839,0,0,0.06172839506172839,34.50617283950617,0)" xlink:href="#bh"/><use transform="matrix(0.06172839506172839,0,0,0.06172839506172839,50.49382716049382,0)" xlink:href="#aG"/><use transform="matrix(0.06172839506172839,0,0,0.06172839506172839,62.8395061728395,0)" xlink:href="#aE"/><use transform="matrix(0.06172839506172839,0,0,0.06172839506172839,70.18518518518518,0)" xlink:href="#bi"/></g><g id="C"><use transform="matrix(0.06172839506172839,0,0,0.06172839506172839,0,0)" xlink:href="#bb"/><use transform="matrix(0.06172839506172839,0,0,0.06172839506172839,12.345679012345679,0)" xlink:href="#aY"/><use transform="matrix(0.06172839506172839,0,0,0.06172839506172839,18.51851851851852,0)" xlink:href="#bb"/><use transform="matrix(0.06172839506172839,0,0,0.06172839506172839,30.864197530864196,0)" xlink:href="#aY"/><use transform="matrix(0.06172839506172839,0,0,0.06172839506172839,37.03703703703704,0)" xlink:href="#bb"/><use transform="matrix(0.06172839506172839,0,0,0.06172839506172839,49.382716049382715,0)" xlink:href="#aY"/><use transform="matrix(0.06172839506172839,0,0,0.06172839506172839,55.55555555555556,0)" xlink:href="#bb"/><use transform="matrix(0.06172839506172839,0,0,0.06172839506172839,67.90123456790124,0)" xlink:href="#bc"/><use transform="matrix(0.06172839506172839,0,0,0.06172839506172839,74.07407407407408,0)" xlink:href="#bb"/></g><g id="D"><use transform="matrix(0.06172839506172839,0,0,0.06172839506172839,0,0)" xlink:href="#bk"/><use transform="matrix(0.06172839506172839,0,0,0.06172839506172839,6.172839506172839,0)" xlink:href="#aU"/><use transform="matrix(0.06172839506172839,0,0,0.06172839506172839,18.51851851851852,0)" xlink:href="#aK"/><use transform="matrix(0.06172839506172839,0,0,0.06172839506172839,24.691358024691358,0)" xlink:href="#aD"/><use transform="matrix(0.06172839506172839,0,0,0.06172839506172839,37.03703703703704,0)" xlink:href="#aE"/><use transform="matrix(0.06172839506172839,0,0,0.06172839506172839,44.382716049382715,0)" xlink:href="#aU"/><use transform="matrix(0.06172839506172839,0,0,0.06172839506172839,56.72839506172839,0)" xlink:href="#aD"/><use transform="matrix(0.06172839506172839,0,0,0.06172839506172839,69.07407407407408,0)" xlink:href="#aK"/></g><linearGradient gradientUnits="userSpaceOnUse" id="E" x1="1167.4" y1="213.66" x2="1168.97" y2="306.21"><stop offset="22%" stop-color="#32d4f5"/><stop offset="47%" stop-color="#31d1f3"/><stop offset="63%" stop-color="#2ec9eb"/><stop offset="77%" stop-color="#29bade"/><stop offset="89%" stop-color="#22a5cb"/><stop offset="100%" stop-color="#198ab3"/><stop offset="100%" stop-color="#198ab3"/></linearGradient><path d="M115-194c53 0 69 39 70 98 0 66-23 100-70 100C84 3 66-7 56-30L54 0H23l1-261h32v101c10-23 28-34 59-34zm-8 174c40 0 45-34 45-75 0-40-5-75-45-74-42 0-51 32-51 76 0 43 10 73 51 73" id="bt"/><g id="F"><use transform="matrix(0.06172839506172839,0,0,0.06172839506172839,0,0)" xlink:href="#aF"/><use transform="matrix(0.06172839506172839,0,0,0.06172839506172839,14.814814814814813,0)" xlink:href="#aH"/><use transform="matrix(0.06172839506172839,0,0,0.06172839506172839,27.160493827160494,0)" xlink:href="#bt"/><use transform="matrix(0.06172839506172839,0,0,0.06172839506172839,39.50617283950617,0)" xlink:href="#aU"/><use transform="matrix(0.06172839506172839,0,0,0.06172839506172839,51.85185185185185,0)" xlink:href="#aD"/><use transform="matrix(0.06172839506172839,0,0,0.06172839506172839,64.19753086419753,0)" xlink:href="#aK"/></g><use transform="matrix(0.06172839506172839,0,0,0.06172839506172839,0,0)" xlink:href="#aR" id="G"/><path d="M212-179c-10-28-35-45-73-45-59 0-87 40-87 99 0 60 29 101 89 101 43 0 62-24 78-52l27 14C228-24 195 4 139 4 59 4 22-46 18-125c-6-104 99-153 187-111 19 9 31 26 39 46" id="bu"/><path d="M30-248c118-7 216 8 213 122C240-48 200 0 122 0H30v-248zM63-27c89 8 146-16 146-99s-60-101-146-95v194" id="bv"/><path d="M33-154v-36h34v36H33zM33 0v-36h34V0H33" id="bw"/><g id="H"><use transform="matrix(0.06172839506172839,0,0,0.06172839506172839,0,0)" xlink:href="#bu"/><use transform="matrix(0.06172839506172839,0,0,0.06172839506172839,15.987654320987653,0)" xlink:href="#bk"/><use transform="matrix(0.06172839506172839,0,0,0.06172839506172839,22.160493827160494,0)" xlink:href="#bv"/><use transform="matrix(0.06172839506172839,0,0,0.06172839506172839,38.148148148148145,0)" xlink:href="#aJ"/><use transform="matrix(0.06172839506172839,0,0,0.06172839506172839,54.1358024691358,0)" xlink:href="#bw"/></g><g id="I"><use transform="matrix(0.06172839506172839,0,0,0.06172839506172839,0,0)" xlink:href="#aR"/><use transform="matrix(0.06172839506172839,0,0,0.06172839506172839,12.345679012345679,0)" xlink:href="#bb"/><use transform="matrix(0.06172839506172839,0,0,0.06172839506172839,24.691358024691358,0)" xlink:href="#aY"/><use transform="matrix(0.06172839506172839,0,0,0.06172839506172839,30.864197530864196,0)" xlink:href="#bb"/><use transform="matrix(0.06172839506172839,0,0,0.06172839506172839,43.20987654320987,0)" xlink:href="#aY"/><use transform="matrix(0.06172839506172839,0,0,0.06172839506172839,49.382716049382715,0)" xlink:href="#bb"/><use transform="matrix(0.06172839506172839,0,0,0.06172839506172839,61.72839506172839,0)" xlink:href="#aY"/><use transform="matrix(0.06172839506172839,0,0,0.06172839506172839,67.90123456790123,0)" xlink:href="#bb"/><use transform="matrix(0.06172839506172839,0,0,0.06172839506172839,80.24691358024691,0)" xlink:href="#bc"/><use transform="matrix(0.06172839506172839,0,0,0.06172839506172839,86.41975308641975,0)" xlink:href="#aX"/><use transform="matrix(0.06172839506172839,0,0,0.06172839506172839,98.76543209876543,0)" xlink:href="#bd"/></g><g id="J"><use transform="matrix(0.06172839506172839,0,0,0.06172839506172839,0,0)" xlink:href="#bo"/><use transform="matrix(0.06172839506172839,0,0,0.06172839506172839,17.28395061728395,0)" xlink:href="#aT"/><use transform="matrix(0.06172839506172839,0,0,0.06172839506172839,29.629629629629626,0)" xlink:href="#aK"/><use transform="matrix(0.06172839506172839,0,0,0.06172839506172839,35.80246913580247,0)" xlink:href="#aD"/><use transform="matrix(0.06172839506172839,0,0,0.06172839506172839,48.148148148148145,0)" xlink:href="#bh"/><use transform="matrix(0.06172839506172839,0,0,0.06172839506172839,64.1358024691358,0)" xlink:href="#aT"/><use transform="matrix(0.06172839506172839,0,0,0.06172839506172839,76.48148148148148,0)" xlink:href="#bp"/></g><g id="K"><use transform="matrix(0.06172839506172839,0,0,0.06172839506172839,0,0)" xlink:href="#bk"/><use transform="matrix(0.06172839506172839,0,0,0.06172839506172839,6.172839506172839,0)" xlink:href="#aC"/><use transform="matrix(0.06172839506172839,0,0,0.06172839506172839,20.98765432098765,0)" xlink:href="#bw"/></g><g id="L"><use transform="matrix(0.06172839506172839,0,0,0.06172839506172839,0,0)" xlink:href="#aR"/><use transform="matrix(0.06172839506172839,0,0,0.06172839506172839,12.345679012345679,0)" xlink:href="#bb"/><use transform="matrix(0.06172839506172839,0,0,0.06172839506172839,24.691358024691358,0)" xlink:href="#aY"/><use transform="matrix(0.06172839506172839,0,0,0.06172839506172839,30.864197530864196,0)" xlink:href="#bb"/><use transform="matrix(0.06172839506172839,0,0,0.06172839506172839,43.20987654320987,0)" xlink:href="#aY"/><use transform="matrix(0.06172839506172839,0,0,0.06172839506172839,49.382716049382715,0)" xlink:href="#bb"/><use transform="matrix(0.06172839506172839,0,0,0.06172839506172839,61.72839506172839,0)" xlink:href="#aY"/><use transform="matrix(0.06172839506172839,0,0,0.06172839506172839,67.90123456790123,0)" xlink:href="#bf"/><use transform="matrix(0.06172839506172839,0,0,0.06172839506172839,80.24691358024691,0)" xlink:href="#bb"/></g><linearGradient gradientUnits="userSpaceOnUse" id="M" x1="1168.58" y1="170.36" x2="1168.58" y2="99.36"><stop offset="0%" stop-color="#0078d4"/><stop offset="82%" stop-color="#5ea0ef"/></linearGradient><linearGradient gradientUnits="userSpaceOnUse" id="N" x1="1168.58" y1="170.36" x2="1168.58" y2="99.36"><stop offset="15%" stop-color="#ccc"/><stop offset="100%" stop-color="#707070"/></linearGradient><use transform="matrix(0.06172839506172839,0,0,0.06172839506172839,0,0)" xlink:href="#aX" id="O"/><g id="P"><use transform="matrix(0.06172839506172839,0,0,0.06172839506172839,0,0)" xlink:href="#aR"/><use transform="matrix(0.06172839506172839,0,0,0.06172839506172839,12.345679012345679,0)" xlink:href="#bb"/><use transform="matrix(0.06172839506172839,0,0,0.06172839506172839,24.691358024691358,0)" xlink:href="#aY"/><use transform="matrix(0.06172839506172839,0,0,0.06172839506172839,30.864197530864196,0)" xlink:href="#bb"/><use transform="matrix(0.06172839506172839,0,0,0.06172839506172839,43.20987654320987,0)" xlink:href="#aY"/><use transform="matrix(0.06172839506172839,0,0,0.06172839506172839,49.382716049382715,0)" xlink:href="#aR"/><use transform="matrix(0.06172839506172839,0,0,0.06172839506172839,61.72839506172839,0)" xlink:href="#aY"/><use transform="matrix(0.06172839506172839,0,0,0.06172839506172839,67.90123456790123,0)" xlink:href="#bb"/><use transform="matrix(0.06172839506172839,0,0,0.06172839506172839,80.24691358024691,0)" xlink:href="#bc"/><use transform="matrix(0.06172839506172839,0,0,0.06172839506172839,86.41975308641975,0)" xlink:href="#aX"/><use transform="matrix(0.06172839506172839,0,0,0.06172839506172839,98.76543209876543,0)" xlink:href="#bd"/></g><path d="M240 0l2-218c-23 76-54 145-80 218h-23L58-218 59 0H30v-248h44l77 211c21-75 51-140 76-211h43V0h-30" id="bx"/><g id="Q"><use transform="matrix(0.06172839506172839,0,0,0.06172839506172839,0,0)" xlink:href="#bl"/><use transform="matrix(0.06172839506172839,0,0,0.06172839506172839,14.814814814814813,0)" xlink:href="#bx"/></g><g id="R"><use transform="matrix(0.06172839506172839,0,0,0.06172839506172839,0,0)" xlink:href="#bk"/><use transform="matrix(0.06172839506172839,0,0,0.06172839506172839,6.172839506172839,0)" xlink:href="#aC"/><use transform="matrix(0.06172839506172839,0,0,0.06172839506172839,20.98765432098765,0)" xlink:href="#bw"/></g><g id="S"><use transform="matrix(0.06172839506172839,0,0,0.06172839506172839,0,0)" xlink:href="#aR"/><use transform="matrix(0.06172839506172839,0,0,0.06172839506172839,12.345679012345679,0)" xlink:href="#bb"/><use transform="matrix(0.06172839506172839,0,0,0.06172839506172839,24.691358024691358,0)" xlink:href="#aY"/><use transform="matrix(0.06172839506172839,0,0,0.06172839506172839,30.864197530864196,0)" xlink:href="#bb"/><use transform="matrix(0.06172839506172839,0,0,0.06172839506172839,43.20987654320987,0)" xlink:href="#aY"/><use transform="matrix(0.06172839506172839,0,0,0.06172839506172839,49.382716049382715,0)" xlink:href="#aR"/><use transform="matrix(0.06172839506172839,0,0,0.06172839506172839,61.72839506172839,0)" xlink:href="#aY"/><use transform="matrix(0.06172839506172839,0,0,0.06172839506172839,67.90123456790123,0)" xlink:href="#aR"/><use transform="matrix(0.06172839506172839,0,0,0.06172839506172839,80.24691358024691,0)" xlink:href="#bb"/><use transform="matrix(0.06172839506172839,0,0,0.06172839506172839,92.5925925925926,0)" xlink:href="#bb"/></g><use transform="matrix(0.06172839506172839,0,0,0.06172839506172839,0,0)" xlink:href="#aR" id="T"/><g id="U"><use transform="matrix(0.06172839506172839,0,0,0.06172839506172839,0,0)" xlink:href="#bu"/><use transform="matrix(0.06172839506172839,0,0,0.06172839506172839,15.987654320987653,0)" xlink:href="#bk"/><use transform="matrix(0.06172839506172839,0,0,0.06172839506172839,22.160493827160494,0)" xlink:href="#bv"/><use transform="matrix(0.06172839506172839,0,0,0.06172839506172839,38.148148148148145,0)" xlink:href="#aJ"/><use transform="matrix(0.06172839506172839,0,0,0.06172839506172839,54.1358024691358,0)" xlink:href="#bw"/></g><g id="V"><use transform="matrix(0.06172839506172839,0,0,0.06172839506172839,0,0)" xlink:href="#aR"/><use transform="matrix(0.06172839506172839,0,0,0.06172839506172839,12.345679012345679,0)" xlink:href="#bb"/><use transform="matrix(0.06172839506172839,0,0,0.06172839506172839,24.691358024691358,0)" xlink:href="#aY"/><use transform="matrix(0.06172839506172839,0,0,0.06172839506172839,30.864197530864196,0)" xlink:href="#bb"/><use transform="matrix(0.06172839506172839,0,0,0.06172839506172839,43.20987654320987,0)" xlink:href="#aY"/><use transform="matrix(0.06172839506172839,0,0,0.06172839506172839,49.382716049382715,0)" xlink:href="#bb"/><use transform="matrix(0.06172839506172839,0,0,0.06172839506172839,61.72839506172839,0)" xlink:href="#aY"/><use transform="matrix(0.06172839506172839,0,0,0.06172839506172839,67.90123456790123,0)" xlink:href="#bb"/><use transform="matrix(0.06172839506172839,0,0,0.06172839506172839,80.24691358024691,0)" xlink:href="#bc"/><use transform="matrix(0.06172839506172839,0,0,0.06172839506172839,86.41975308641975,0)" xlink:href="#aX"/><use transform="matrix(0.06172839506172839,0,0,0.06172839506172839,98.76543209876543,0)" xlink:href="#aX"/></g><use transform="matrix(0.06172839506172839,0,0,0.06172839506172839,0,0)" xlink:href="#aX" id="W"/><g id="X"><use transform="matrix(0.06172839506172839,0,0,0.06172839506172839,0,0)" xlink:href="#aR"/><use transform="matrix(0.06172839506172839,0,0,0.06172839506172839,12.345679012345679,0)" xlink:href="#bb"/><use transform="matrix(0.06172839506172839,0,0,0.06172839506172839,24.691358024691358,0)" xlink:href="#aY"/><use transform="matrix(0.06172839506172839,0,0,0.06172839506172839,30.864197530864196,0)" xlink:href="#bb"/><use transform="matrix(0.06172839506172839,0,0,0.06172839506172839,43.20987654320987,0)" xlink:href="#aY"/><use transform="matrix(0.06172839506172839,0,0,0.06172839506172839,49.382716049382715,0)" xlink:href="#bd"/><use transform="matrix(0.06172839506172839,0,0,0.06172839506172839,61.72839506172839,0)" xlink:href="#aY"/><use transform="matrix(0.06172839506172839,0,0,0.06172839506172839,67.90123456790123,0)" xlink:href="#bb"/><use transform="matrix(0.06172839506172839,0,0,0.06172839506172839,80.24691358024691,0)" xlink:href="#bc"/><use transform="matrix(0.06172839506172839,0,0,0.06172839506172839,86.41975308641975,0)" xlink:href="#aX"/><use transform="matrix(0.06172839506172839,0,0,0.06172839506172839,98.76543209876543,0)" xlink:href="#aX"/></g><g id="Y"><use transform="matrix(0.06172839506172839,0,0,0.06172839506172839,0,0)" xlink:href="#aC"/><use transform="matrix(0.06172839506172839,0,0,0.06172839506172839,14.814814814814813,0)" xlink:href="#aD"/><use transform="matrix(0.06172839506172839,0,0,0.06172839506172839,27.160493827160494,0)" xlink:href="#aD"/><use transform="matrix(0.06172839506172839,0,0,0.06172839506172839,39.50617283950617,0)" xlink:href="#aE"/><use transform="matrix(0.06172839506172839,0,0,0.06172839506172839,46.85185185185185,0)" xlink:href="#bm"/><use transform="matrix(0.06172839506172839,0,0,0.06172839506172839,51.72839506172839,0)" xlink:href="#aU"/><use transform="matrix(0.06172839506172839,0,0,0.06172839506172839,64.07407407407408,0)" xlink:href="#bs"/></g><path d="M232-93c-1 65-40 97-104 97C67 4 28-28 28-90v-158h33c8 89-33 224 67 224 102 0 64-133 71-224h33v155" id="by"/><g id="Z"><use transform="matrix(0.06172839506172839,0,0,0.06172839506172839,0,0)" xlink:href="#by"/><use transform="matrix(0.06172839506172839,0,0,0.06172839506172839,15.987654320987653,0)" xlink:href="#bq"/><use transform="matrix(0.06172839506172839,0,0,0.06172839506172839,27.098765432098766,0)" xlink:href="#aD"/></g><g id="aa"><use transform="matrix(0.06172839506172839,0,0,0.06172839506172839,0,0)" xlink:href="#aJ"/><use transform="matrix(0.06172839506172839,0,0,0.06172839506172839,15.987654320987653,0)" xlink:href="#aD"/><use transform="matrix(0.06172839506172839,0,0,0.06172839506172839,28.333333333333332,0)" xlink:href="#br"/><use transform="matrix(0.06172839506172839,0,0,0.06172839506172839,46.79012345679012,0)" xlink:href="#aG"/><use transform="matrix(0.06172839506172839,0,0,0.06172839506172839,59.1358024691358,0)" xlink:href="#aK"/><use transform="matrix(0.06172839506172839,0,0,0.06172839506172839,65.30864197530863,0)" xlink:href="#aD"/></g><g id="ab"><use transform="matrix(0.06172839506172839,0,0,0.06172839506172839,0,0)" xlink:href="#bo"/><use transform="matrix(0.06172839506172839,0,0,0.06172839506172839,17.28395061728395,0)" xlink:href="#aT"/><use transform="matrix(0.06172839506172839,0,0,0.06172839506172839,29.629629629629626,0)" xlink:href="#aK"/><use transform="matrix(0.06172839506172839,0,0,0.06172839506172839,35.80246913580247,0)" xlink:href="#aD"/><use transform="matrix(0.06172839506172839,0,0,0.06172839506172839,48.148148148148145,0)" xlink:href="#bh"/><use transform="matrix(0.06172839506172839,0,0,0.06172839506172839,64.1358024691358,0)" xlink:href="#aT"/><use transform="matrix(0.06172839506172839,0,0,0.06172839506172839,76.48148148148148,0)" xlink:href="#bp"/><use transform="matrix(0.06172839506172839,0,0,0.06172839506172839,87.5925925925926,0)" xlink:href="#bw"/></g><path d="M127-220V0H93v-220H8v-28h204v28h-85" id="bz"/><g id="ac"><use transform="matrix(0.06172839506172839,0,0,0.06172839506172839,0,0)" xlink:href="#bz"/><use transform="matrix(0.06172839506172839,0,0,0.06172839506172839,12.716049382716047,0)" xlink:href="#aE"/><use transform="matrix(0.06172839506172839,0,0,0.06172839506172839,20.061728395061728,0)" xlink:href="#aH"/><use transform="matrix(0.06172839506172839,0,0,0.06172839506172839,32.407407407407405,0)" xlink:href="#aD"/></g><g id="ad"><use transform="matrix(0.06172839506172839,0,0,0.06172839506172839,0,0)" xlink:href="#bz"/><use transform="matrix(0.06172839506172839,0,0,0.06172839506172839,12.28395061728395,0)" xlink:href="#bp"/><use transform="matrix(0.06172839506172839,0,0,0.06172839506172839,23.39506172839506,0)" xlink:href="#aO"/><use transform="matrix(0.06172839506172839,0,0,0.06172839506172839,35.74074074074074,0)" xlink:href="#aD"/></g><path d="M205 0l-28-72H64L36 0H1l101-248h38L239 0h-34zm-38-99l-47-123c-12 45-31 82-46 123h93" id="bA"/><g id="ae"><use transform="matrix(0.06172839506172839,0,0,0.06172839506172839,0,0)" xlink:href="#bA"/><use transform="matrix(0.06172839506172839,0,0,0.06172839506172839,14.814814814814813,0)" xlink:href="#bn"/><use transform="matrix(0.06172839506172839,0,0,0.06172839506172839,19.691358024691354,0)" xlink:href="#bn"/><use transform="matrix(0.06172839506172839,0,0,0.06172839506172839,24.5679012345679,0)" xlink:href="#aG"/><use transform="matrix(0.06172839506172839,0,0,0.06172839506172839,36.913580246913575,0)" xlink:href="#bh"/></g><g id="af"><use transform="matrix(0.06172839506172839,0,0,0.06172839506172839,0,0)" xlink:href="#bo"/><use transform="matrix(0.06172839506172839,0,0,0.06172839506172839,17.28395061728395,0)" xlink:href="#aT"/><use transform="matrix(0.06172839506172839,0,0,0.06172839506172839,29.629629629629626,0)" xlink:href="#aK"/><use transform="matrix(0.06172839506172839,0,0,0.06172839506172839,35.80246913580247,0)" xlink:href="#aD"/><use transform="matrix(0.06172839506172839,0,0,0.06172839506172839,48.148148148148145,0)" xlink:href="#bh"/><use transform="matrix(0.06172839506172839,0,0,0.06172839506172839,64.1358024691358,0)" xlink:href="#aT"/><use transform="matrix(0.06172839506172839,0,0,0.06172839506172839,76.48148148148148,0)" xlink:href="#bp"/></g><g id="ag"><use transform="matrix(0.06172839506172839,0,0,0.06172839506172839,0,0)" xlink:href="#bz"/><use transform="matrix(0.06172839506172839,0,0,0.06172839506172839,12.716049382716047,0)" xlink:href="#aE"/><use transform="matrix(0.06172839506172839,0,0,0.06172839506172839,20.061728395061728,0)" xlink:href="#aT"/><use transform="matrix(0.06172839506172839,0,0,0.06172839506172839,32.407407407407405,0)" xlink:href="#aU"/><use transform="matrix(0.06172839506172839,0,0,0.06172839506172839,44.75308641975308,0)" xlink:href="#bq"/><use transform="matrix(0.06172839506172839,0,0,0.06172839506172839,55.86419753086419,0)" xlink:href="#bm"/><use transform="matrix(0.06172839506172839,0,0,0.06172839506172839,60.74074074074073,0)" xlink:href="#aK"/><use transform="matrix(0.06172839506172839,0,0,0.06172839506172839,66.91358024691357,0)" xlink:href="#bw"/></g><g id="ah"><use transform="matrix(0.06172839506172839,0,0,0.06172839506172839,0,0)" xlink:href="#aP"/><use transform="matrix(0.06172839506172839,0,0,0.06172839506172839,14.814814814814813,0)" xlink:href="#aM"/><use transform="matrix(0.06172839506172839,0,0,0.06172839506172839,25.925925925925924,0)" xlink:href="#aO"/><use transform="matrix(0.06172839506172839,0,0,0.06172839506172839,38.2716049382716,0)" xlink:href="#aE"/><use transform="matrix(0.06172839506172839,0,0,0.06172839506172839,45.61728395061728,0)" xlink:href="#aD"/><use transform="matrix(0.06172839506172839,0,0,0.06172839506172839,57.962962962962955,0)" xlink:href="#bq"/><use transform="matrix(0.06172839506172839,0,0,0.06172839506172839,69.07407407407406,0)" xlink:href="#bq"/><use transform="matrix(0.06172839506172839,0,0,0.06172839506172839,80.18518518518518,0)" xlink:href="#aJ"/><use transform="matrix(0.06172839506172839,0,0,0.06172839506172839,96.17283950617283,0)" xlink:href="#aG"/><use transform="matrix(0.06172839506172839,0,0,0.06172839506172839,108.51851851851852,0)" xlink:href="#aH"/><use transform="matrix(0.06172839506172839,0,0,0.06172839506172839,120.8641975308642,0)" xlink:href="#aK"/><use transform="matrix(0.06172839506172839,0,0,0.06172839506172839,127.03703703703702,0)" xlink:href="#aD"/></g><g id="ai"><use transform="matrix(0.06172839506172839,0,0,0.06172839506172839,0,0)" xlink:href="#bk"/><use transform="matrix(0.06172839506172839,0,0,0.06172839506172839,6.172839506172839,0)" xlink:href="#aC"/><use transform="matrix(0.06172839506172839,0,0,0.06172839506172839,20.98765432098765,0)" xlink:href="#bw"/></g><g id="aj"><use transform="matrix(0.06172839506172839,0,0,0.06172839506172839,0,0)" xlink:href="#aR"/><use transform="matrix(0.06172839506172839,0,0,0.06172839506172839,12.345679012345679,0)" xlink:href="#bb"/><use transform="matrix(0.06172839506172839,0,0,0.06172839506172839,24.691358024691358,0)" xlink:href="#aY"/><use transform="matrix(0.06172839506172839,0,0,0.06172839506172839,30.864197530864196,0)" xlink:href="#bb"/><use transform="matrix(0.06172839506172839,0,0,0.06172839506172839,43.20987654320987,0)" xlink:href="#aY"/><use transform="matrix(0.06172839506172839,0,0,0.06172839506172839,49.382716049382715,0)" xlink:href="#bb"/><use transform="matrix(0.06172839506172839,0,0,0.06172839506172839,61.72839506172839,0)" xlink:href="#aY"/><use transform="matrix(0.06172839506172839,0,0,0.06172839506172839,67.90123456790123,0)" xlink:href="#aX"/><use transform="matrix(0.06172839506172839,0,0,0.06172839506172839,80.24691358024691,0)" xlink:href="#bg"/></g><g id="ak"><use transform="matrix(0.06172839506172839,0,0,0.06172839506172839,0,0)" xlink:href="#aF"/><use transform="matrix(0.06172839506172839,0,0,0.06172839506172839,14.814814814814813,0)" xlink:href="#bm"/><use transform="matrix(0.06172839506172839,0,0,0.06172839506172839,19.691358024691354,0)" xlink:href="#aK"/><use transform="matrix(0.06172839506172839,0,0,0.06172839506172839,25.864197530864192,0)" xlink:href="#aD"/></g><g id="al"><use transform="matrix(0.06172839506172839,0,0,0.06172839506172839,0,0)" xlink:href="#aR"/><use transform="matrix(0.06172839506172839,0,0,0.06172839506172839,12.345679012345679,0)" xlink:href="#aW"/><use transform="matrix(0.06172839506172839,0,0,0.06172839506172839,24.691358024691358,0)" xlink:href="#aX"/><use transform="matrix(0.06172839506172839,0,0,0.06172839506172839,37.03703703703704,0)" xlink:href="#aY"/><use transform="matrix(0.06172839506172839,0,0,0.06172839506172839,43.20987654320988,0)" xlink:href="#aR"/><use transform="matrix(0.06172839506172839,0,0,0.06172839506172839,55.55555555555556,0)" xlink:href="#aZ"/><use transform="matrix(0.06172839506172839,0,0,0.06172839506172839,67.90123456790124,0)" xlink:href="#ba"/><use transform="matrix(0.06172839506172839,0,0,0.06172839506172839,80.24691358024693,0)" xlink:href="#aY"/><use transform="matrix(0.06172839506172839,0,0,0.06172839506172839,86.41975308641976,0)" xlink:href="#aR"/><use transform="matrix(0.06172839506172839,0,0,0.06172839506172839,98.76543209876544,0)" xlink:href="#aY"/><use transform="matrix(0.06172839506172839,0,0,0.06172839506172839,104.93827160493828,0)" xlink:href="#aR"/></g><g id="am"><use transform="matrix(0.06172839506172839,0,0,0.06172839506172839,0,0)" xlink:href="#aN"/><use transform="matrix(0.06172839506172839,0,0,0.06172839506172839,15.987654320987653,0)" xlink:href="#aH"/><use transform="matrix(0.06172839506172839,0,0,0.06172839506172839,28.333333333333332,0)" xlink:href="#bt"/></g><g id="an"><use transform="matrix(0.06172839506172839,0,0,0.06172839506172839,0,0)" xlink:href="#aR"/><use transform="matrix(0.06172839506172839,0,0,0.06172839506172839,12.345679012345679,0)" xlink:href="#bb"/><use transform="matrix(0.06172839506172839,0,0,0.06172839506172839,24.691358024691358,0)" xlink:href="#aY"/><use transform="matrix(0.06172839506172839,0,0,0.06172839506172839,30.864197530864196,0)" xlink:href="#bb"/><use transform="matrix(0.06172839506172839,0,0,0.06172839506172839,43.20987654320987,0)" xlink:href="#aY"/><use transform="matrix(0.06172839506172839,0,0,0.06172839506172839,49.382716049382715,0)" xlink:href="#bb"/><use transform="matrix(0.06172839506172839,0,0,0.06172839506172839,61.72839506172839,0)" xlink:href="#aY"/><use transform="matrix(0.06172839506172839,0,0,0.06172839506172839,67.90123456790123,0)" xlink:href="#bb"/><use transform="matrix(0.06172839506172839,0,0,0.06172839506172839,80.24691358024691,0)" xlink:href="#bc"/><use transform="matrix(0.06172839506172839,0,0,0.06172839506172839,86.41975308641975,0)" xlink:href="#aX"/><use transform="matrix(0.06172839506172839,0,0,0.06172839506172839,98.76543209876543,0)" xlink:href="#aX"/></g><g id="ao"><use transform="matrix(0.06172839506172839,0,0,0.06172839506172839,0,0)" xlink:href="#aZ"/><use transform="matrix(0.06172839506172839,0,0,0.06172839506172839,12.345679012345679,0)" xlink:href="#bf"/><use transform="matrix(0.06172839506172839,0,0,0.06172839506172839,24.691358024691358,0)" xlink:href="#bf"/><use transform="matrix(0.06172839506172839,0,0,0.06172839506172839,37.03703703703704,0)" xlink:href="#aR"/><use transform="matrix(0.06172839506172839,0,0,0.06172839506172839,49.382716049382715,0)" xlink:href="#bf"/></g><g id="ap"><use transform="matrix(0.06172839506172839,0,0,0.06172839506172839,0,0)" xlink:href="#aR"/><use transform="matrix(0.06172839506172839,0,0,0.06172839506172839,12.345679012345679,0)" xlink:href="#bb"/><use transform="matrix(0.06172839506172839,0,0,0.06172839506172839,24.691358024691358,0)" xlink:href="#aY"/><use transform="matrix(0.06172839506172839,0,0,0.06172839506172839,30.864197530864196,0)" xlink:href="#bb"/><use transform="matrix(0.06172839506172839,0,0,0.06172839506172839,43.20987654320987,0)" xlink:href="#aY"/><use transform="matrix(0.06172839506172839,0,0,0.06172839506172839,49.382716049382715,0)" xlink:href="#bb"/><use transform="matrix(0.06172839506172839,0,0,0.06172839506172839,61.72839506172839,0)" xlink:href="#aY"/><use transform="matrix(0.06172839506172839,0,0,0.06172839506172839,67.90123456790123,0)" xlink:href="#bf"/><use transform="matrix(0.06172839506172839,0,0,0.06172839506172839,80.24691358024691,0)" xlink:href="#bb"/></g><g id="aq"><use transform="matrix(0.06172839506172839,0,0,0.06172839506172839,0,0)" xlink:href="#aR"/><use transform="matrix(0.06172839506172839,0,0,0.06172839506172839,12.345679012345679,0)" xlink:href="#bb"/><use transform="matrix(0.06172839506172839,0,0,0.06172839506172839,24.691358024691358,0)" xlink:href="#aY"/><use transform="matrix(0.06172839506172839,0,0,0.06172839506172839,30.864197530864196,0)" xlink:href="#bb"/><use transform="matrix(0.06172839506172839,0,0,0.06172839506172839,43.20987654320987,0)" xlink:href="#aY"/><use transform="matrix(0.06172839506172839,0,0,0.06172839506172839,49.382716049382715,0)" xlink:href="#bd"/><use transform="matrix(0.06172839506172839,0,0,0.06172839506172839,61.72839506172839,0)" xlink:href="#aY"/><use transform="matrix(0.06172839506172839,0,0,0.06172839506172839,67.90123456790123,0)" xlink:href="#bb"/><use transform="matrix(0.06172839506172839,0,0,0.06172839506172839,80.24691358024691,0)" xlink:href="#bc"/><use transform="matrix(0.06172839506172839,0,0,0.06172839506172839,86.41975308641975,0)" xlink:href="#aX"/><use transform="matrix(0.06172839506172839,0,0,0.06172839506172839,98.76543209876543,0)" xlink:href="#aX"/></g><g id="ar"><use transform="matrix(0.06172839506172839,0,0,0.06172839506172839,0,0)" xlink:href="#aR"/><use transform="matrix(0.06172839506172839,0,0,0.06172839506172839,12.345679012345679,0)" xlink:href="#aX"/><use transform="matrix(0.06172839506172839,0,0,0.06172839506172839,24.691358024691358,0)" xlink:href="#bb"/><use transform="matrix(0.06172839506172839,0,0,0.06172839506172839,37.03703703703704,0)" xlink:href="#be"/><use transform="matrix(0.06172839506172839,0,0,0.06172839506172839,49.382716049382715,0)" xlink:href="#aZ"/></g><g id="as"><use transform="matrix(0.06172839506172839,0,0,0.06172839506172839,0,0)" xlink:href="#aR"/><use transform="matrix(0.06172839506172839,0,0,0.06172839506172839,12.345679012345679,0)" xlink:href="#aW"/><use transform="matrix(0.06172839506172839,0,0,0.06172839506172839,24.691358024691358,0)" xlink:href="#aX"/><use transform="matrix(0.06172839506172839,0,0,0.06172839506172839,37.03703703703704,0)" xlink:href="#aY"/><use transform="matrix(0.06172839506172839,0,0,0.06172839506172839,43.20987654320988,0)" xlink:href="#aR"/><use transform="matrix(0.06172839506172839,0,0,0.06172839506172839,55.55555555555556,0)" xlink:href="#aZ"/><use transform="matrix(0.06172839506172839,0,0,0.06172839506172839,67.90123456790124,0)" xlink:href="#ba"/><use transform="matrix(0.06172839506172839,0,0,0.06172839506172839,80.24691358024693,0)" xlink:href="#aY"/><use transform="matrix(0.06172839506172839,0,0,0.06172839506172839,86.41975308641976,0)" xlink:href="#aR"/><use transform="matrix(0.06172839506172839,0,0,0.06172839506172839,98.76543209876544,0)" xlink:href="#aY"/><use transform="matrix(0.06172839506172839,0,0,0.06172839506172839,104.93827160493828,0)" xlink:href="#aR"/></g><g id="at"><use transform="matrix(0.06172839506172839,0,0,0.06172839506172839,0,0)" xlink:href="#aR"/><use transform="matrix(0.06172839506172839,0,0,0.06172839506172839,12.345679012345679,0)" xlink:href="#aW"/><use transform="matrix(0.06172839506172839,0,0,0.06172839506172839,24.691358024691358,0)" xlink:href="#aX"/><use transform="matrix(0.06172839506172839,0,0,0.06172839506172839,37.03703703703704,0)" xlink:href="#aY"/><use transform="matrix(0.06172839506172839,0,0,0.06172839506172839,43.20987654320988,0)" xlink:href="#aR"/><use transform="matrix(0.06172839506172839,0,0,0.06172839506172839,55.55555555555556,0)" xlink:href="#aZ"/><use transform="matrix(0.06172839506172839,0,0,0.06172839506172839,67.90123456790124,0)" xlink:href="#ba"/><use transform="matrix(0.06172839506172839,0,0,0.06172839506172839,80.24691358024693,0)" xlink:href="#aY"/><use transform="matrix(0.06172839506172839,0,0,0.06172839506172839,86.41975308641976,0)" xlink:href="#aR"/><use transform="matrix(0.06172839506172839,0,0,0.06172839506172839,98.76543209876544,0)" xlink:href="#aY"/><use transform="matrix(0.06172839506172839,0,0,0.06172839506172839,104.93827160493828,0)" xlink:href="#bb"/><use transform="matrix(0.06172839506172839,0,0,0.06172839506172839,117.28395061728396,0)" xlink:href="#bc"/><use transform="matrix(0.06172839506172839,0,0,0.06172839506172839,123.4567901234568,0)" xlink:href="#aX"/><use transform="matrix(0.06172839506172839,0,0,0.06172839506172839,135.80246913580248,0)" xlink:href="#bd"/></g><g id="au"><use transform="matrix(0.06172839506172839,0,0,0.06172839506172839,0,0)" xlink:href="#bA"/><use transform="matrix(0.06172839506172839,0,0,0.06172839506172839,14.814814814814813,0)" xlink:href="#aF"/><use transform="matrix(0.06172839506172839,0,0,0.06172839506172839,29.629629629629626,0)" xlink:href="#aL"/><use transform="matrix(0.06172839506172839,0,0,0.06172839506172839,45.61728395061728,0)" xlink:href="#bw"/></g><g id="av"><use transform="matrix(0.06172839506172839,0,0,0.06172839506172839,0,0)" xlink:href="#aZ"/><use transform="matrix(0.06172839506172839,0,0,0.06172839506172839,12.345679012345679,0)" xlink:href="#bf"/><use transform="matrix(0.06172839506172839,0,0,0.06172839506172839,24.691358024691358,0)" xlink:href="#bb"/><use transform="matrix(0.06172839506172839,0,0,0.06172839506172839,37.03703703703704,0)" xlink:href="#bb"/><use transform="matrix(0.06172839506172839,0,0,0.06172839506172839,49.382716049382715,0)" xlink:href="#aR"/></g><path d="M80-196l47-18 7 23-49 13 32 44-20 13-27-46-27 45-21-12 33-44-49-13 8-23 47 19-2-53h23" id="bB"/><use transform="matrix(0.06172839506172839,0,0,0.06172839506172839,0,0)" xlink:href="#bB" id="aw"/><path d="M108 0H70L1-190h34L89-25l56-165h34" id="bC"/><g id="ax"><use transform="matrix(0.06172839506172839,0,0,0.06172839506172839,0,0)" xlink:href="#bA"/><use transform="matrix(0.06172839506172839,0,0,0.06172839506172839,14.814814814814813,0)" xlink:href="#aV"/><use transform="matrix(0.06172839506172839,0,0,0.06172839506172839,27.160493827160494,0)" xlink:href="#bC"/><use transform="matrix(0.06172839506172839,0,0,0.06172839506172839,38.27160493827161,0)" xlink:href="#aD"/><use transform="matrix(0.06172839506172839,0,0,0.06172839506172839,50.617283950617285,0)" xlink:href="#aE"/><use transform="matrix(0.06172839506172839,0,0,0.06172839506172839,57.96296296296296,0)" xlink:href="#aK"/><use transform="matrix(0.06172839506172839,0,0,0.06172839506172839,64.1358024691358,0)" xlink:href="#bm"/><use transform="matrix(0.06172839506172839,0,0,0.06172839506172839,69.01234567901234,0)" xlink:href="#bq"/><use transform="matrix(0.06172839506172839,0,0,0.06172839506172839,80.12345679012346,0)" xlink:href="#aD"/><use transform="matrix(0.06172839506172839,0,0,0.06172839506172839,92.46913580246914,0)" xlink:href="#bq"/></g><g id="ay"><use transform="matrix(0.06172839506172839,0,0,0.06172839506172839,0,0)" xlink:href="#aR"/><use transform="matrix(0.06172839506172839,0,0,0.06172839506172839,12.345679012345679,0)" xlink:href="#aW"/><use transform="matrix(0.06172839506172839,0,0,0.06172839506172839,24.691358024691358,0)" xlink:href="#aX"/><use transform="matrix(0.06172839506172839,0,0,0.06172839506172839,37.03703703703704,0)" xlink:href="#aY"/><use transform="matrix(0.06172839506172839,0,0,0.06172839506172839,43.20987654320988,0)" xlink:href="#aR"/><use transform="matrix(0.06172839506172839,0,0,0.06172839506172839,55.55555555555556,0)" xlink:href="#aZ"/><use transform="matrix(0.06172839506172839,0,0,0.06172839506172839,67.90123456790124,0)" xlink:href="#ba"/><use transform="matrix(0.06172839506172839,0,0,0.06172839506172839,80.24691358024693,0)" xlink:href="#aY"/><use transform="matrix(0.06172839506172839,0,0,0.06172839506172839,86.41975308641976,0)" xlink:href="#aR"/><use transform="matrix(0.06172839506172839,0,0,0.06172839506172839,98.76543209876544,0)" xlink:href="#aY"/><use transform="matrix(0.06172839506172839,0,0,0.06172839506172839,104.93827160493828,0)" xlink:href="#bb"/><use transform="matrix(0.06172839506172839,0,0,0.06172839506172839,117.28395061728396,0)" xlink:href="#bc"/><use transform="matrix(0.06172839506172839,0,0,0.06172839506172839,123.4567901234568,0)" xlink:href="#aX"/><use transform="matrix(0.06172839506172839,0,0,0.06172839506172839,135.80246913580248,0)" xlink:href="#bd"/></g><g id="az"><use transform="matrix(0.06172839506172839,0,0,0.06172839506172839,0,0)" xlink:href="#aP"/><use transform="matrix(0.06172839506172839,0,0,0.06172839506172839,14.814814814814813,0)" xlink:href="#aQ"/><use transform="matrix(0.06172839506172839,0,0,0.06172839506172839,29.629629629629626,0)" xlink:href="#aJ"/></g><g id="aA"><use transform="matrix(0.06172839506172839,0,0,0.06172839506172839,0,0)" xlink:href="#aJ"/><use transform="matrix(0.06172839506172839,0,0,0.06172839506172839,15.987654320987653,0)" xlink:href="#aD"/><use transform="matrix(0.06172839506172839,0,0,0.06172839506172839,28.333333333333332,0)" xlink:href="#bs"/><use transform="matrix(0.06172839506172839,0,0,0.06172839506172839,40.67901234567901,0)" xlink:href="#bm"/><use transform="matrix(0.06172839506172839,0,0,0.06172839506172839,45.55555555555556,0)" xlink:href="#aG"/><use transform="matrix(0.06172839506172839,0,0,0.06172839506172839,57.901234567901234,0)" xlink:href="#aU"/></g><use transform="matrix(0.06172839506172839,0,0,0.06172839506172839,0,0)" xlink:href="#aR" id="aB"/></defs></g></svg>