<svg xmlns="http://www.w3.org/2000/svg" xmlns:xlink="http://www.w3.org/1999/xlink" xmlns:lucid="lucid" width="1380" height="680"><g transform="translate(-1740 580)" lucid:page-tab-id="2t9R69eLrsnZ"><path d="M1696-1296h1760v2656H1696z" fill="#fff"/><path d="M2540-554c0-3.3 2.7-6 6-6h548c3.3 0 6 2.7 6 6v108c0 3.3-2.7 6-6 6h-548c-3.3 0-6-2.7-6-6z" fill="#fff" fill-opacity="0"/><path d="M2596-560h-50c-3.3 0-6 2.7-6 6v108c0 3.3 2.7 6 6 6h50" stroke="#5e5e5e" stroke-width="3" fill="none"/><use xlink:href="#a" transform="matrix(1,0,0,1,2580,-555) translate(0 32.77777777777778)"/><use xlink:href="#b" transform="matrix(1,0,0,1,2580,-555) translate(99.38271604938272 32.77777777777778)"/><use xlink:href="#c" transform="matrix(1,0,0,1,2580,-555) translate(117.90123456790124 32.77777777777778)"/><use xlink:href="#d" transform="matrix(1,0,0,1,2580,-555) translate(247.22222222222223 32.77777777777778)"/><use xlink:href="#e" transform="matrix(1,0,0,1,2580,-555) translate(312.5925925925926 32.77777777777778)"/><use xlink:href="#f" transform="matrix(1,0,0,1,2580,-555) translate(0 59.44444444444445)"/><use xlink:href="#g" transform="matrix(1,0,0,1,2580,-555) translate(94.87654320987654 59.44444444444445)"/><use xlink:href="#h" transform="matrix(1,0,0,1,2580,-555) translate(212.1604938271605 59.44444444444445)"/><use xlink:href="#i" transform="matrix(1,0,0,1,2580,-555) translate(238.64197530864197 59.44444444444445)"/><use xlink:href="#j" transform="matrix(1,0,0,1,2580,-555) translate(307.1604938271605 59.44444444444445)"/><use xlink:href="#k" transform="matrix(1,0,0,1,2580,-555) translate(0 86.11111111111111)"/><use xlink:href="#l" transform="matrix(1,0,0,1,2580,-555) translate(94.87654320987654 86.11111111111111)"/><use xlink:href="#m" transform="matrix(1,0,0,1,2580,-555) translate(187.46913580246914 86.11111111111111)"/><use xlink:href="#n" transform="matrix(1,0,0,1,2580,-555) translate(213.9506172839506 86.11111111111111)"/><path d="M2540-390.8c0-3.33 2.7-6 6-6h548c3.3 0 6 2.67 6 6v108c0 3.3-2.7 6-6 6h-548c-3.3 0-6-2.7-6-6z" fill="#fff" fill-opacity="0"/><path d="M2596-396.8h-50c-3.3 0-6 2.67-6 6v108c0 3.3 2.7 6 6 6h50" stroke="#5e5e5e" stroke-width="3" fill="none"/><use xlink:href="#a" transform="matrix(1,0,0,1,2580,-391.81146922593183) translate(0 32.77777777777778)"/><use xlink:href="#b" transform="matrix(1,0,0,1,2580,-391.81146922593183) translate(99.38271604938272 32.77777777777778)"/><use xlink:href="#o" transform="matrix(1,0,0,1,2580,-391.81146922593183) translate(117.90123456790124 32.77777777777778)"/><use xlink:href="#d" transform="matrix(1,0,0,1,2580,-391.81146922593183) translate(275.8024691358025 32.77777777777778)"/><use xlink:href="#e" transform="matrix(1,0,0,1,2580,-391.81146922593183) translate(341.17283950617286 32.77777777777778)"/><use xlink:href="#f" transform="matrix(1,0,0,1,2580,-391.81146922593183) translate(0 59.44444444444445)"/><use xlink:href="#g" transform="matrix(1,0,0,1,2580,-391.81146922593183) translate(94.87654320987654 59.44444444444445)"/><use xlink:href="#h" transform="matrix(1,0,0,1,2580,-391.81146922593183) translate(212.1604938271605 59.44444444444445)"/><use xlink:href="#i" transform="matrix(1,0,0,1,2580,-391.81146922593183) translate(238.64197530864197 59.44444444444445)"/><use xlink:href="#j" transform="matrix(1,0,0,1,2580,-391.81146922593183) translate(307.1604938271605 59.44444444444445)"/><use xlink:href="#k" transform="matrix(1,0,0,1,2580,-391.81146922593183) translate(0 86.11111111111111)"/><use xlink:href="#l" transform="matrix(1,0,0,1,2580,-391.81146922593183) translate(94.87654320987654 86.11111111111111)"/><use xlink:href="#m" transform="matrix(1,0,0,1,2580,-391.81146922593183) translate(187.46913580246914 86.11111111111111)"/><use xlink:href="#n" transform="matrix(1,0,0,1,2580,-391.81146922593183) translate(213.9506172839506 86.11111111111111)"/><path d="M1780-550c0-5.52 4.48-10 10-10h680c5.52 0 10 4.48 10 10V70c0 5.52-4.48 10-10 10h-680c-5.52 0-10-4.48-10-10z" stroke="#000" stroke-width="2" fill="#fff"/><path d="M1860-446.04c0-5.53 4.48-10 10-10h560c5.52 0 10 4.47 10 10V18c0 5.52-4.48 10-10 10h-560c-5.52 0-10-4.48-10-10z" fill="#f2f3f5"/><path d="M1861-446.04c0 .55-.45 1-1 1s-1-.45-1-1c0-.56.45-1 1-1s1 .44 1 1zm3-7c0 .56-.44 1-1 1-.54 0-1-.44-1-1 0-.54.46-1 1-1 .56 0 1 .46 1 1zm7-3c0 .55-.45 1-1 1s-1-.45-1-1c0-.56.45-1 1-1s1 .44 1 1zm8 0c0 .55-.45 1-1 1s-1-.45-1-1c0-.56.45-1 1-1s1 .44 1 1zm8 0c0 .55-.45 1-1 1s-1-.45-1-1c0-.56.45-1 1-1s1 .44 1 1zm8 0c0 .55-.45 1-1 1s-1-.45-1-1c0-.56.45-1 1-1s1 .44 1 1zm8 0c0 .55-.45 1-1 1s-1-.45-1-1c0-.56.45-1 1-1s1 .44 1 1zm8 0c0 .55-.45 1-1 1s-1-.45-1-1c0-.56.45-1 1-1s1 .44 1 1zm8 0c0 .55-.45 1-1 1s-1-.45-1-1c0-.56.45-1 1-1s1 .44 1 1zm8 0c0 .55-.45 1-1 1s-1-.45-1-1c0-.56.45-1 1-1s1 .44 1 1zm8 0c0 .55-.45 1-1 1s-1-.45-1-1c0-.56.45-1 1-1s1 .44 1 1zm8 0c0 .55-.45 1-1 1s-1-.45-1-1c0-.56.45-1 1-1s1 .44 1 1zm8 0c0 .55-.45 1-1 1s-1-.45-1-1c0-.56.45-1 1-1s1 .44 1 1zm8 0c0 .55-.45 1-1 1s-1-.45-1-1c0-.56.45-1 1-1s1 .44 1 1zm8 0c0 .55-.45 1-1 1s-1-.45-1-1c0-.56.45-1 1-1s1 .44 1 1zm8 0c0 .55-.45 1-1 1s-1-.45-1-1c0-.56.45-1 1-1s1 .44 1 1zm8 0c0 .55-.45 1-1 1s-1-.45-1-1c0-.56.45-1 1-1s1 .44 1 1zm8 0c0 .55-.45 1-1 1s-1-.45-1-1c0-.56.45-1 1-1s1 .44 1 1zm8 0c0 .55-.45 1-1 1s-1-.45-1-1c0-.56.45-1 1-1s1 .44 1 1zm8 0c0 .55-.45 1-1 1s-1-.45-1-1c0-.56.45-1 1-1s1 .44 1 1zm8 0c0 .55-.45 1-1 1s-1-.45-1-1c0-.56.45-1 1-1s1 .44 1 1zm8 0c0 .55-.45 1-1 1s-1-.45-1-1c0-.56.45-1 1-1s1 .44 1 1zm8 0c0 .55-.45 1-1 1s-1-.45-1-1c0-.56.45-1 1-1s1 .44 1 1zm8 0c0 .55-.45 1-1 1s-1-.45-1-1c0-.56.45-1 1-1s1 .44 1 1zm8 0c0 .55-.45 1-1 1s-1-.45-1-1c0-.56.45-1 1-1s1 .44 1 1zm8 0c0 .55-.45 1-1 1s-1-.45-1-1c0-.56.45-1 1-1s1 .44 1 1zm8 0c0 .55-.45 1-1 1s-1-.45-1-1c0-.56.45-1 1-1s1 .44 1 1zm8 0c0 .55-.45 1-1 1s-1-.45-1-1c0-.56.45-1 1-1s1 .44 1 1zm8 0c0 .55-.45 1-1 1s-1-.45-1-1c0-.56.45-1 1-1s1 .44 1 1zm8 0c0 .55-.45 1-1 1s-1-.45-1-1c0-.56.45-1 1-1s1 .44 1 1zm8 0c0 .55-.45 1-1 1s-1-.45-1-1c0-.56.45-1 1-1s1 .44 1 1zm8 0c0 .55-.45 1-1 1s-1-.45-1-1c0-.56.45-1 1-1s1 .44 1 1zm8 0c0 .55-.45 1-1 1s-1-.45-1-1c0-.56.45-1 1-1s1 .44 1 1zm8 0c0 .55-.45 1-1 1s-1-.45-1-1c0-.56.45-1 1-1s1 .44 1 1zm8 0c0 .55-.45 1-1 1s-1-.45-1-1c0-.56.45-1 1-1s1 .44 1 1zm8 0c0 .55-.45 1-1 1s-1-.45-1-1c0-.56.45-1 1-1s1 .44 1 1zm8 0c0 .55-.45 1-1 1s-1-.45-1-1c0-.56.45-1 1-1s1 .44 1 1zm8 0c0 .55-.45 1-1 1s-1-.45-1-1c0-.56.45-1 1-1s1 .44 1 1zm8 0c0 .55-.45 1-1 1s-1-.45-1-1c0-.56.45-1 1-1s1 .44 1 1zm8 0c0 .55-.45 1-1 1s-1-.45-1-1c0-.56.45-1 1-1s1 .44 1 1zm8 0c0 .55-.45 1-1 1s-1-.45-1-1c0-.56.45-1 1-1s1 .44 1 1zm8 0c0 .55-.45 1-1 1s-1-.45-1-1c0-.56.45-1 1-1s1 .44 1 1zm8 0c0 .55-.45 1-1 1s-1-.45-1-1c0-.56.45-1 1-1s1 .44 1 1zm8 0c0 .55-.45 1-1 1s-1-.45-1-1c0-.56.45-1 1-1s1 .44 1 1zm8 0c0 .55-.45 1-1 1s-1-.45-1-1c0-.56.45-1 1-1s1 .44 1 1zm8 0c0 .55-.45 1-1 1s-1-.45-1-1c0-.56.45-1 1-1s1 .44 1 1zm8 0c0 .55-.45 1-1 1s-1-.45-1-1c0-.56.45-1 1-1s1 .44 1 1zm8 0c0 .55-.45 1-1 1s-1-.45-1-1c0-.56.45-1 1-1s1 .44 1 1zm8 0c0 .55-.45 1-1 1s-1-.45-1-1c0-.56.45-1 1-1s1 .44 1 1zm8 0c0 .55-.45 1-1 1s-1-.45-1-1c0-.56.45-1 1-1s1 .44 1 1zm8 0c0 .55-.45 1-1 1s-1-.45-1-1c0-.56.45-1 1-1s1 .44 1 1zm8 0c0 .55-.45 1-1 1s-1-.45-1-1c0-.56.45-1 1-1s1 .44 1 1zm8 0c0 .55-.45 1-1 1s-1-.45-1-1c0-.56.45-1 1-1s1 .44 1 1zm8 0c0 .55-.45 1-1 1s-1-.45-1-1c0-.56.45-1 1-1s1 .44 1 1zm8 0c0 .55-.45 1-1 1s-1-.45-1-1c0-.56.45-1 1-1s1 .44 1 1zm8 0c0 .55-.45 1-1 1s-1-.45-1-1c0-.56.45-1 1-1s1 .44 1 1zm8 0c0 .55-.45 1-1 1s-1-.45-1-1c0-.56.45-1 1-1s1 .44 1 1zm8 0c0 .55-.45 1-1 1s-1-.45-1-1c0-.56.45-1 1-1s1 .44 1 1zm8 0c0 .55-.45 1-1 1s-1-.45-1-1c0-.56.45-1 1-1s1 .44 1 1zm8 0c0 .55-.45 1-1 1s-1-.45-1-1c0-.56.45-1 1-1s1 .44 1 1zm8 0c0 .55-.45 1-1 1s-1-.45-1-1c0-.56.45-1 1-1s1 .44 1 1zm8 0c0 .55-.45 1-1 1s-1-.45-1-1c0-.56.45-1 1-1s1 .44 1 1zm8 0c0 .55-.45 1-1 1s-1-.45-1-1c0-.56.45-1 1-1s1 .44 1 1zm8 0c0 .55-.45 1-1 1s-1-.45-1-1c0-.56.45-1 1-1s1 .44 1 1zm8 0c0 .55-.45 1-1 1s-1-.45-1-1c0-.56.45-1 1-1s1 .44 1 1zm8 0c0 .55-.45 1-1 1s-1-.45-1-1c0-.56.45-1 1-1s1 .44 1 1zm8 0c0 .55-.45 1-1 1s-1-.45-1-1c0-.56.45-1 1-1s1 .44 1 1zm8 0c0 .55-.45 1-1 1s-1-.45-1-1c0-.56.45-1 1-1s1 .44 1 1zm8 0c0 .55-.45 1-1 1s-1-.45-1-1c0-.56.45-1 1-1s1 .44 1 1zm8 0c0 .55-.45 1-1 1s-1-.45-1-1c0-.56.45-1 1-1s1 .44 1 1zm8 0c0 .55-.45 1-1 1s-1-.45-1-1c0-.56.45-1 1-1s1 .44 1 1zm8 0c0 .55-.45 1-1 1s-1-.45-1-1c0-.56.45-1 1-1s1 .44 1 1zm8 0c0 .55-.45 1-1 1s-1-.45-1-1c0-.56.45-1 1-1s1 .44 1 1zm7 3c0 .56-.46 1-1 1-.56 0-1-.44-1-1 0-.54.44-1 1-1 .54 0 1 .46 1 1zm3 7c0 .55-.45 1-1 1s-1-.45-1-1c0-.56.45-1 1-1s1 .44 1 1zm0 8c0 .55-.45 1-1 1s-1-.45-1-1 .45-1 1-1 1 .45 1 1zm0 8c0 .55-.45 1-1 1s-1-.45-1-1 .45-1 1-1 1 .45 1 1zm0 8c0 .55-.45 1-1 1s-1-.45-1-1 .45-1 1-1 1 .45 1 1zm0 8c0 .55-.45 1-1 1s-1-.45-1-1 .45-1 1-1 1 .45 1 1zm0 8c0 .55-.45 1-1 1s-1-.45-1-1 .45-1 1-1 1 .45 1 1zm0 8c0 .55-.45 1-1 1s-1-.45-1-1 .45-1 1-1 1 .45 1 1zm0 8c0 .55-.45 1-1 1s-1-.45-1-1 .45-1 1-1 1 .45 1 1zm0 8c0 .56-.45 1-1 1s-1-.44-1-1c0-.55.45-1 1-1s1 .45 1 1zm0 8c0 .56-.45 1-1 1s-1-.44-1-1c0-.55.45-1 1-1s1 .45 1 1zm0 8c0 .56-.45 1-1 1s-1-.44-1-1c0-.55.45-1 1-1s1 .45 1 1zm0 8c0 .56-.45 1-1 1s-1-.44-1-1c0-.55.45-1 1-1s1 .45 1 1zm0 8c0 .56-.45 1-1 1s-1-.44-1-1c0-.55.45-1 1-1s1 .45 1 1zm0 8c0 .56-.45 1-1 1s-1-.44-1-1c0-.55.45-1 1-1s1 .45 1 1zm0 8c0 .56-.45 1-1 1s-1-.44-1-1c0-.54.45-1 1-1s1 .46 1 1zm0 8c0 .56-.45 1-1 1s-1-.44-1-1c0-.54.45-1 1-1s1 .46 1 1zm0 8c0 .56-.45 1-1 1s-1-.44-1-1c0-.54.45-1 1-1s1 .46 1 1zm0 8c0 .56-.45 1-1 1s-1-.44-1-1c0-.54.45-1 1-1s1 .46 1 1zm0 8c0 .56-.45 1-1 1s-1-.44-1-1c0-.54.45-1 1-1s1 .46 1 1zm0 8c0 .56-.45 1-1 1s-1-.44-1-1c0-.54.45-1 1-1s1 .46 1 1zm0 8c0 .56-.45 1-1 1s-1-.44-1-1c0-.54.45-1 1-1s1 .46 1 1zm0 8c0 .56-.45 1-1 1s-1-.44-1-1c0-.54.45-1 1-1s1 .46 1 1zm0 8c0 .57-.45 1-1 1s-1-.43-1-1c0-.54.45-1 1-1s1 .46 1 1zm0 8c0 .57-.45 1-1 1s-1-.43-1-1c0-.54.45-1 1-1s1 .46 1 1zm0 8c0 .57-.45 1-1 1s-1-.43-1-1c0-.54.45-1 1-1s1 .46 1 1zm0 8.02c0 .55-.45 1-1 1s-1-.45-1-1c0-.56.45-1 1-1s1 .44 1 1zm0 8c0 .55-.45 1-1 1s-1-.45-1-1c0-.56.45-1 1-1s1 .44 1 1zm0 8c0 .55-.45 1-1 1s-1-.45-1-1c0-.56.45-1 1-1s1 .44 1 1zm0 8c0 .55-.45 1-1 1s-1-.45-1-1 .45-1 1-1 1 .45 1 1zm0 8c0 .55-.45 1-1 1s-1-.45-1-1 .45-1 1-1 1 .45 1 1zm0 8c0 .55-.45 1-1 1s-1-.45-1-1 .45-1 1-1 1 .45 1 1zm0 8c0 .55-.45 1-1 1s-1-.45-1-1 .45-1 1-1 1 .45 1 1zm0 8c0 .55-.45 1-1 1s-1-.45-1-1 .45-1 1-1 1 .45 1 1zm0 8c0 .55-.45 1-1 1s-1-.45-1-1 .45-1 1-1 1 .45 1 1zm0 8c0 .55-.45 1-1 1s-1-.45-1-1 .45-1 1-1 1 .45 1 1zm0 8c0 .56-.45 1-1 1s-1-.44-1-1c0-.55.45-1 1-1s1 .45 1 1zm0 8c0 .56-.45 1-1 1s-1-.44-1-1c0-.55.45-1 1-1s1 .45 1 1zm0 8c0 .56-.45 1-1 1s-1-.44-1-1c0-.55.45-1 1-1s1 .45 1 1zm0 8c0 .56-.45 1-1 1s-1-.44-1-1c0-.55.45-1 1-1s1 .45 1 1zm0 8c0 .56-.45 1-1 1s-1-.44-1-1c0-.55.45-1 1-1s1 .45 1 1zm0 8c0 .56-.45 1-1 1s-1-.44-1-1c0-.55.45-1 1-1s1 .45 1 1zm0 8c0 .56-.45 1-1 1s-1-.44-1-1c0-.54.45-1 1-1s1 .46 1 1zm0 8c0 .56-.45 1-1 1s-1-.44-1-1c0-.54.45-1 1-1s1 .46 1 1zm0 8c0 .56-.45 1-1 1s-1-.44-1-1c0-.54.45-1 1-1s1 .46 1 1zm0 8c0 .56-.45 1-1 1s-1-.44-1-1c0-.54.45-1 1-1s1 .46 1 1zm0 8c0 .56-.45 1-1 1s-1-.44-1-1c0-.54.45-1 1-1s1 .46 1 1zm0 8c0 .56-.45 1-1 1s-1-.44-1-1c0-.54.45-1 1-1s1 .46 1 1zm0 8c0 .56-.45 1-1 1s-1-.44-1-1c0-.54.45-1 1-1s1 .46 1 1zm0 8c0 .56-.45 1-1 1s-1-.44-1-1c0-.54.45-1 1-1s1 .46 1 1zm0 8c0 .57-.45 1-1 1s-1-.43-1-1c0-.54.45-1 1-1s1 .46 1 1zm0 8c0 .57-.45 1-1 1s-1-.43-1-1c0-.54.45-1 1-1s1 .46 1 1zm0 8c0 .57-.45 1-1 1s-1-.43-1-1c0-.54.45-1 1-1s1 .46 1 1zm0 8.02c0 .55-.45 1-1 1s-1-.45-1-1c0-.56.45-1 1-1s1 .44 1 1zm0 8c0 .55-.45 1-1 1s-1-.45-1-1c0-.56.45-1 1-1s1 .44 1 1zm0 8c0 .55-.45 1-1 1s-1-.45-1-1c0-.56.45-1 1-1s1 .44 1 1zm0 8c0 .55-.45 1-1 1s-1-.45-1-1 .45-1 1-1 1 .45 1 1zm0 8c0 .55-.45 1-1 1s-1-.45-1-1 .45-1 1-1 1 .45 1 1zm0 8c0 .55-.45 1-1 1s-1-.45-1-1 .45-1 1-1 1 .45 1 1zm0 8c0 .55-.45 1-1 1s-1-.45-1-1 .45-1 1-1 1 .45 1 1zm-3 7c0 .54-.46 1-1 1-.56 0-1-.46-1-1 0-.56.44-1 1-1 .54 0 1 .44 1 1zm-7 3c0 .55-.45 1-1 1s-1-.45-1-1 .45-1 1-1 1 .45 1 1zm-8 0c0 .55-.45 1-1 1s-1-.45-1-1 .45-1 1-1 1 .45 1 1zm-8 0c0 .55-.45 1-1 1s-1-.45-1-1 .45-1 1-1 1 .45 1 1zm-8 0c0 .55-.45 1-1 1s-1-.45-1-1 .45-1 1-1 1 .45 1 1zm-8 0c0 .55-.45 1-1 1s-1-.45-1-1 .45-1 1-1 1 .45 1 1zm-8 0c0 .55-.45 1-1 1s-1-.45-1-1 .45-1 1-1 1 .45 1 1zm-8 0c0 .55-.45 1-1 1s-1-.45-1-1 .45-1 1-1 1 .45 1 1zm-8 0c0 .55-.45 1-1 1s-1-.45-1-1 .45-1 1-1 1 .45 1 1zm-8 0c0 .55-.45 1-1 1s-1-.45-1-1 .45-1 1-1 1 .45 1 1zm-8 0c0 .55-.45 1-1 1s-1-.45-1-1 .45-1 1-1 1 .45 1 1zm-8 0c0 .55-.45 1-1 1s-1-.45-1-1 .45-1 1-1 1 .45 1 1zm-8 0c0 .55-.45 1-1 1s-1-.45-1-1 .45-1 1-1 1 .45 1 1zm-8 0c0 .55-.45 1-1 1s-1-.45-1-1 .45-1 1-1 1 .45 1 1zm-8 0c0 .55-.45 1-1 1s-1-.45-1-1 .45-1 1-1 1 .45 1 1zm-8 0c0 .55-.45 1-1 1s-1-.45-1-1 .45-1 1-1 1 .45 1 1zm-8 0c0 .55-.45 1-1 1s-1-.45-1-1 .45-1 1-1 1 .45 1 1zm-8 0c0 .55-.45 1-1 1s-1-.45-1-1 .45-1 1-1 1 .45 1 1zm-8 0c0 .55-.45 1-1 1s-1-.45-1-1 .45-1 1-1 1 .45 1 1zm-8 0c0 .55-.45 1-1 1s-1-.45-1-1 .45-1 1-1 1 .45 1 1zm-8 0c0 .55-.45 1-1 1s-1-.45-1-1 .45-1 1-1 1 .45 1 1zm-8 0c0 .55-.45 1-1 1s-1-.45-1-1 .45-1 1-1 1 .45 1 1zm-8 0c0 .55-.45 1-1 1s-1-.45-1-1 .45-1 1-1 1 .45 1 1zm-8 0c0 .55-.45 1-1 1s-1-.45-1-1 .45-1 1-1 1 .45 1 1zm-8 0c0 .55-.45 1-1 1s-1-.45-1-1 .45-1 1-1 1 .45 1 1zm-8 0c0 .55-.45 1-1 1s-1-.45-1-1 .45-1 1-1 1 .45 1 1zm-8 0c0 .55-.45 1-1 1s-1-.45-1-1 .45-1 1-1 1 .45 1 1zm-8 0c0 .55-.45 1-1 1s-1-.45-1-1 .45-1 1-1 1 .45 1 1zm-8 0c0 .55-.45 1-1 1s-1-.45-1-1 .45-1 1-1 1 .45 1 1zm-8 0c0 .55-.45 1-1 1s-1-.45-1-1 .45-1 1-1 1 .45 1 1zm-8 0c0 .55-.45 1-1 1s-1-.45-1-1 .45-1 1-1 1 .45 1 1zm-8 0c0 .55-.45 1-1 1s-1-.45-1-1 .45-1 1-1 1 .45 1 1zm-8 0c0 .55-.45 1-1 1s-1-.45-1-1 .45-1 1-1 1 .45 1 1zm-8 0c0 .55-.45 1-1 1s-1-.45-1-1 .45-1 1-1 1 .45 1 1zm-8 0c0 .55-.45 1-1 1s-1-.45-1-1 .45-1 1-1 1 .45 1 1zm-8 0c0 .55-.45 1-1 1s-1-.45-1-1 .45-1 1-1 1 .45 1 1zm-8 0c0 .55-.45 1-1 1s-1-.45-1-1 .45-1 1-1 1 .45 1 1zm-8 0c0 .55-.45 1-1 1s-1-.45-1-1 .45-1 1-1 1 .45 1 1zm-8 0c0 .55-.45 1-1 1s-1-.45-1-1 .45-1 1-1 1 .45 1 1zm-8 0c0 .55-.45 1-1 1s-1-.45-1-1 .45-1 1-1 1 .45 1 1zm-8 0c0 .55-.45 1-1 1s-1-.45-1-1 .45-1 1-1 1 .45 1 1zm-8 0c0 .55-.45 1-1 1s-1-.45-1-1 .45-1 1-1 1 .45 1 1zm-8 0c0 .55-.45 1-1 1s-1-.45-1-1 .45-1 1-1 1 .45 1 1zm-8 0c0 .55-.45 1-1 1s-1-.45-1-1 .45-1 1-1 1 .45 1 1zm-8 0c0 .55-.45 1-1 1s-1-.45-1-1 .45-1 1-1 1 .45 1 1zm-8 0c0 .55-.45 1-1 1s-1-.45-1-1 .45-1 1-1 1 .45 1 1zm-8 0c0 .55-.45 1-1 1s-1-.45-1-1 .45-1 1-1 1 .45 1 1zm-8 0c0 .55-.45 1-1 1s-1-.45-1-1 .45-1 1-1 1 .45 1 1zm-8 0c0 .55-.45 1-1 1s-1-.45-1-1 .45-1 1-1 1 .45 1 1zm-8 0c0 .55-.45 1-1 1s-1-.45-1-1 .45-1 1-1 1 .45 1 1zm-8 0c0 .55-.45 1-1 1s-1-.45-1-1 .45-1 1-1 1 .45 1 1zm-8 0c0 .55-.45 1-1 1s-1-.45-1-1 .45-1 1-1 1 .45 1 1zm-8 0c0 .55-.45 1-1 1s-1-.45-1-1 .45-1 1-1 1 .45 1 1zm-8 0c0 .55-.45 1-1 1s-1-.45-1-1 .45-1 1-1 1 .45 1 1zm-8 0c0 .55-.45 1-1 1s-1-.45-1-1 .45-1 1-1 1 .45 1 1zm-8 0c0 .55-.45 1-1 1s-1-.45-1-1 .45-1 1-1 1 .45 1 1zm-8 0c0 .55-.45 1-1 1s-1-.45-1-1 .45-1 1-1 1 .45 1 1zm-8 0c0 .55-.45 1-1 1s-1-.45-1-1 .45-1 1-1 1 .45 1 1zm-8 0c0 .55-.45 1-1 1s-1-.45-1-1 .45-1 1-1 1 .45 1 1zm-8 0c0 .55-.45 1-1 1s-1-.45-1-1 .45-1 1-1 1 .45 1 1zm-8 0c0 .55-.45 1-1 1s-1-.45-1-1 .45-1 1-1 1 .45 1 1zm-8 0c0 .55-.45 1-1 1s-1-.45-1-1 .45-1 1-1 1 .45 1 1zm-8 0c0 .55-.45 1-1 1s-1-.45-1-1 .45-1 1-1 1 .45 1 1zm-8 0c0 .55-.45 1-1 1s-1-.45-1-1 .45-1 1-1 1 .45 1 1zm-8 0c0 .55-.45 1-1 1s-1-.45-1-1 .45-1 1-1 1 .45 1 1zm-8 0c0 .55-.45 1-1 1s-1-.45-1-1 .45-1 1-1 1 .45 1 1zm-8 0c0 .55-.45 1-1 1s-1-.45-1-1 .45-1 1-1 1 .45 1 1zm-8 0c0 .55-.45 1-1 1s-1-.45-1-1 .45-1 1-1 1 .45 1 1zm-8 0c0 .55-.45 1-1 1s-1-.45-1-1 .45-1 1-1 1 .45 1 1zm-8 0c0 .55-.45 1-1 1s-1-.45-1-1 .45-1 1-1 1 .45 1 1zm-8 0c0 .55-.45 1-1 1s-1-.45-1-1 .45-1 1-1 1 .45 1 1zm-8 0c0 .55-.45 1-1 1s-1-.45-1-1 .45-1 1-1 1 .45 1 1zm-7-3c0 .54-.44 1-1 1-.54 0-1-.46-1-1 0-.56.46-1 1-1 .56 0 1 .44 1 1zm-3-7c0 .55-.45 1-1 1s-1-.45-1-1 .45-1 1-1 1 .45 1 1zm0-8c0 .55-.45 1-1 1s-1-.45-1-1 .45-1 1-1 1 .45 1 1zm0-8c0 .55-.45 1-1 1s-1-.45-1-1 .45-1 1-1 1 .45 1 1zm0-8c0 .55-.45 1-1 1s-1-.45-1-1 .45-1 1-1 1 .45 1 1zm0-8c0 .55-.45 1-1 1s-1-.45-1-1c0-.56.45-1 1-1s1 .44 1 1zm0-8c0 .55-.45 1-1 1s-1-.45-1-1c0-.56.45-1 1-1s1 .44 1 1zm0-8c0 .55-.45 1-1 1s-1-.45-1-1c0-.56.45-1 1-1s1 .44 1 1zm0-8c0 .55-.45 1-1 1s-1-.45-1-1c0-.56.45-1 1-1s1 .44 1 1zm0-8c0 .55-.45 1-1 1s-1-.45-1-1c0-.56.45-1 1-1s1 .44 1 1zm0-8c0 .55-.45 1-1 1s-1-.45-1-1c0-.56.45-1 1-1s1 .44 1 1zm0-8c0 .54-.45 1-1 1s-1-.46-1-1c0-.56.45-1 1-1s1 .44 1 1zm0-8c0 .54-.45 1-1 1s-1-.46-1-1c0-.56.45-1 1-1s1 .44 1 1zm0-8c0 .54-.45 1-1 1s-1-.46-1-1c0-.56.45-1 1-1s1 .44 1 1zm0-8c0 .54-.45 1-1 1s-1-.46-1-1c0-.56.45-1 1-1s1 .44 1 1zm0-8c0 .54-.45 1-1 1s-1-.46-1-1c0-.56.45-1 1-1s1 .44 1 1zm0-8c0 .54-.45 1-1 1s-1-.46-1-1c0-.56.45-1 1-1s1 .44 1 1zm0-8c0 .54-.45 1-1 1s-1-.46-1-1c0-.56.45-1 1-1s1 .44 1 1zm0-8c0 .54-.45 1-1 1s-1-.46-1-1c0-.56.45-1 1-1s1 .44 1 1zm0-8c0 .54-.45 1-1 1s-1-.46-1-1c0-.57.45-1 1-1s1 .43 1 1zm0-8c0 .54-.45 1-1 1s-1-.46-1-1c0-.57.45-1 1-1s1 .43 1 1zm0-8c0 .54-.45 1-1 1s-1-.46-1-1c0-.57.45-1 1-1s1 .43 1 1zm0-8.02c0 .56-.45 1-1 1s-1-.44-1-1c0-.55.45-1 1-1s1 .45 1 1zm0-8c0 .56-.45 1-1 1s-1-.44-1-1c0-.55.45-1 1-1s1 .45 1 1zm0-8c0 .56-.45 1-1 1s-1-.44-1-1c0-.55.45-1 1-1s1 .45 1 1zm0-8c0 .55-.45 1-1 1s-1-.45-1-1 .45-1 1-1 1 .45 1 1zm0-8c0 .55-.45 1-1 1s-1-.45-1-1 .45-1 1-1 1 .45 1 1zm0-8c0 .55-.45 1-1 1s-1-.45-1-1 .45-1 1-1 1 .45 1 1zm0-8c0 .55-.45 1-1 1s-1-.45-1-1 .45-1 1-1 1 .45 1 1zm0-8c0 .55-.45 1-1 1s-1-.45-1-1 .45-1 1-1 1 .45 1 1zm0-8c0 .55-.45 1-1 1s-1-.45-1-1 .45-1 1-1 1 .45 1 1zm0-8c0 .55-.45 1-1 1s-1-.45-1-1 .45-1 1-1 1 .45 1 1zm0-8c0 .55-.45 1-1 1s-1-.45-1-1c0-.56.45-1 1-1s1 .44 1 1zm0-8c0 .55-.45 1-1 1s-1-.45-1-1c0-.56.45-1 1-1s1 .44 1 1zm0-8c0 .55-.45 1-1 1s-1-.45-1-1c0-.56.45-1 1-1s1 .44 1 1zm0-8c0 .55-.45 1-1 1s-1-.45-1-1c0-.56.45-1 1-1s1 .44 1 1zm0-8c0 .55-.45 1-1 1s-1-.45-1-1c0-.56.45-1 1-1s1 .44 1 1zm0-8c0 .55-.45 1-1 1s-1-.45-1-1c0-.56.45-1 1-1s1 .44 1 1zm0-8c0 .54-.45 1-1 1s-1-.46-1-1c0-.56.45-1 1-1s1 .44 1 1zm0-8c0 .54-.45 1-1 1s-1-.46-1-1c0-.56.45-1 1-1s1 .44 1 1zm0-8c0 .54-.45 1-1 1s-1-.46-1-1c0-.56.45-1 1-1s1 .44 1 1zm0-8c0 .54-.45 1-1 1s-1-.46-1-1c0-.56.45-1 1-1s1 .44 1 1zm0-8c0 .54-.45 1-1 1s-1-.46-1-1c0-.56.45-1 1-1s1 .44 1 1zm0-8c0 .54-.45 1-1 1s-1-.46-1-1c0-.56.45-1 1-1s1 .44 1 1zm0-8c0 .54-.45 1-1 1s-1-.46-1-1c0-.56.45-1 1-1s1 .44 1 1zm0-8c0 .54-.45 1-1 1s-1-.46-1-1c0-.56.45-1 1-1s1 .44 1 1zm0-8c0 .54-.45 1-1 1s-1-.46-1-1c0-.57.45-1 1-1s1 .43 1 1zm0-8c0 .54-.45 1-1 1s-1-.46-1-1c0-.57.45-1 1-1s1 .43 1 1zm0-8c0 .54-.45 1-1 1s-1-.46-1-1c0-.57.45-1 1-1s1 .43 1 1zm0-8.02c0 .56-.45 1-1 1s-1-.44-1-1c0-.55.45-1 1-1s1 .45 1 1zm0-8c0 .56-.45 1-1 1s-1-.44-1-1c0-.55.45-1 1-1s1 .45 1 1zm0-8c0 .56-.45 1-1 1s-1-.44-1-1c0-.55.45-1 1-1s1 .45 1 1zm0-8c0 .55-.45 1-1 1s-1-.45-1-1 .45-1 1-1 1 .45 1 1zm0-8c0 .55-.45 1-1 1s-1-.45-1-1 .45-1 1-1 1 .45 1 1zm0-8c0 .55-.45 1-1 1s-1-.45-1-1 .45-1 1-1 1 .45 1 1zm0-8c0 .55-.45 1-1 1s-1-.45-1-1 .45-1 1-1 1 .45 1 1zm0-8c0 .55-.45 1-1 1s-1-.45-1-1 .45-1 1-1 1 .45 1 1zm0-8c0 .55-.45 1-1 1s-1-.45-1-1 .45-1 1-1 1 .45 1 1zm0-8c0 .55-.45 1-1 1s-1-.45-1-1 .45-1 1-1 1 .45 1 1z" fill="#282c33"/><path d="M1882.28-410c0-5.52 4.48-10 10-10H2390c5.52 0 10 4.48 10 10V-1.44c0 5.52-4.48 10-10 10h-497.72c-5.52 0-10-4.48-10-10z" stroke="#000" stroke-width="2" fill="#fff"/><path d="M2320-2c0-5.52 4.48-10 10-10h40c5.52 0 10 4.48 10 10v20c0 5.52-4.48 10-10 10h-40c-5.52 0-10-4.48-10-10z" stroke="#fff" stroke-width="2" fill="#fff"/><path d="M2379.6 9c.6-.68.48-1.8 0-2.52l-2.88-3.32-12.94-14.64c-.6-.68-1.44-.68-2.04 0-.6.68-.72 1.8 0 2.52l13.54 15.44c.6.72.6 1.84 0 2.52l-13.77 16.04c-.6.68-.6 1.8 0 2.48.6.72 1.56.56 2.04 0l12.82-14.76.12-.12L2379.6 9zM2320.4 9c-.6-.68-.48-1.8 0-2.52l2.88-3.32 12.94-14.64c.6-.68 1.44-.68 2.04 0 .6.68.72 1.8 0 2.52l-13.3 15.44c-.6.72-.6 1.84 0 2.52l13.53 16.04c.6.68.6 1.8 0 2.48-.6.72-1.56.56-2.04 0l-13.05-14.6-.12-.16L2320.4 9z" stroke="#000" stroke-opacity="0" fill="#3999c6"/><path d="M2341.85 7.75c0 2.64-1.9 4.6-3.95 4.6-2.04 0-4.2-2.23-4.2-4.6 0-2.38 1.68-4.6 4.2-4.6 2.4 0 3.95 2.22 3.95 4.6zM2353.95 7.75c0 2.64-1.9 4.6-3.95 4.6-2.03 0-4.2-2.23-4.2-4.6 0-2.38 1.92-4.6 4.2-4.6 2.28 0 3.95 2.22 3.95 4.6zM2366.18 7.75c0 2.53-1.78 4.6-3.96 4.6-2.18 0-3.95-2.07-3.95-4.6 0-2.54 1.77-4.6 3.95-4.6s3.96 2.06 3.96 4.6z" stroke="#000" stroke-opacity="0" fill="#7fba00"/><path d="M2336.87-11.1h26.18l16.27 18.9-16.92 19.7h-25.3l-16.74-19.48z" stroke="#000" stroke-opacity="0" stroke-width="0" fill-opacity="0"/><path d="M1882.28-420.6h300v82.8h-300z" stroke="#000" stroke-opacity="0" stroke-width="2" fill="#fff" fill-opacity="0"/><use xlink:href="#p" transform="matrix(1,0,0,1,1887.279081891369,-415.59676653927096) translate(53.80339506172841 27.584027777777777)"/><use xlink:href="#q" transform="matrix(1,0,0,1,1887.279081891369,-415.59676653927096) translate(59.420679012345694 27.584027777777777)"/><use xlink:href="#r" transform="matrix(1,0,0,1,1887.279081891369,-415.59676653927096) translate(127.44598765432099 27.584027777777777)"/><use xlink:href="#s" transform="matrix(1,0,0,1,1887.279081891369,-415.59676653927096) translate(212.66018518518518 27.584027777777777)"/><use xlink:href="#t" transform="matrix(1,0,0,1,1887.279081891369,-415.59676653927096) translate(224.96203703703702 27.584027777777777)"/><use xlink:href="#u" transform="matrix(1,0,0,1,1887.279081891369,-415.59676653927096) translate(94.44444444444446 51.85069444444444)"/><path d="M1760-540h360v62.32h-360z" fill="#fff" fill-opacity="0"/><use xlink:href="#v" transform="matrix(1,0,0,1,1765,-535) translate(128.20987654320987 31.02777777777778)"/><use xlink:href="#w" transform="matrix(1,0,0,1,1765,-535) translate(209.44444444444443 31.02777777777778)"/><path d="M1870-119.5h240v60h-240z" stroke="#000" stroke-opacity="0" stroke-width="2" fill="#fff" fill-opacity="0"/><use xlink:href="#x" transform="matrix(1,0,0,1,1875,-114.49006160127175) translate(65.125 17.525)"/><use xlink:href="#y" transform="matrix(1,0,0,1,1875,-114.49006160127175) translate(70 39.125)"/><path d="M1930-266.8c0-5.53 4.48-10 10-10h88.48c5.52 0 10 4.47 10 10V-135c0 5.52-4.48 10-10 10H1940c-5.52 0-10-4.48-10-10z" fill="#fff"/><path d="M1959.66-276.8h19.66m9.83 0h19.66m9.84 0h9.84l3.16.5 2.74 1.42 2.17 2.16 1.42 2.75.5 3.16v10.97m0 11v21.96m0 10.98v21.98m0 10.98v21.97m0 11V-135l-.5 3.16-1.42 2.75-2.17 2.17-2.74 1.42-3.16.5h-9.84m-9.83 0h-19.65m-9.83 0h-19.66m-9.83 0H1940l-3.16-.5-2.75-1.43-2.17-2.16-1.42-2.74-.5-3.16v-10.98m0-11v-21.96m0-10.98v-21.97m0-10.97v-21.97m0-11v-10.97l.5-3.17 1.43-2.75 2.16-2.16 2.74-1.42 3.16-.5h9.83" stroke="#000" stroke-width="2" fill="none"/><path d="M2094.8-210.2h30.16v-18.97h-30.16v18.96zm21.68-5.53l-5.68 3.12v-6.25l5.68-3.12v6.24zm-6.24-10.2l5.68 3.12-5.68 3.1-5.68-3.1 5.68-3.13zm-6.08 3.96l5.68 3.12v6.24l-5.68-3.13v-6.24z" stroke="#000" stroke-opacity="0" fill="#0078d7"/><path d="M2144.96-243.33H2072c-2 0-3.52 1.56-3.52 3.24v53.53c0 1.86 1.68 3.24 3.52 3.24h72.96c2.08 0 3.52-1.56 3.52-3.24v-53.52c0-1.67-1.52-3.23-3.52-3.23zm-36.72 49.68l-2.24 6.18v.18l-.16.2H2103.92h-.16v-.2l-2.24-6.17v-.54h1.52v.17l1.84 5.34 1.84-5.33v-.18l.16-.2h1.12v.2c.4.17.4.35.24.35zm9.76 6.36c-.24.2-.4.2-.4.2H2116.64h-.16v-5.9l-2.08 5.7v.2h-.32H2112.88v-.2l-2.16-5.7v5.9h-.4H2109.2v-6.37c0-.18 0-.36.16-.36.24-.18.24-.18.4-.18h1.28c.16 0 .16 0 .4.17l.16.18c0 .18.24.18.24.36l1.6 4.1 1.68-4.1c0-.17.16-.35.16-.35 0-.18.16-.18.16-.18s.24-.18.4-.18h1.68s.16 0 .16.17c0 0 0 .18.24.18v.18l.08 6.18zm9.36-22.37c0 1.02-.96 1.68-1.84 1.68h-11.04c-1.12 4.03-.56 4.5 6.8 4.5v1.75h-23.04v-1.74c6.64 0 7.76-.47 6.8-4.5h-10.8c-1.12 0-1.84-.83-1.84-1.67v-20.04c0-1.03.88-1.93 1.84-1.93h31.2c1.12 0 1.84.9 1.84 1.92v20.03z" stroke="#000" stroke-opacity="0" fill="#0078d7"/><use xlink:href="#z" transform="matrix(1,0,0,1,2038.4750000000035,-174.33333333333331) translate(22.75 14.4)"/><use xlink:href="#A" transform="matrix(1,0,0,1,2038.4750000000035,-174.33333333333331) translate(64.35 14.4)"/><use xlink:href="#B" transform="matrix(1,0,0,1,2038.4750000000035,-174.33333333333331) translate(24.75 36)"/><use xlink:href="#C" transform="matrix(1,0,0,1,2038.4750000000035,-174.33333333333331) translate(105.25 36)"/><path d="M2049.7-139.7c-6.46-.74-7.57-3.73-7.57-3.73s-1.47 3.86-10.75 3.86v15.95c0 1.93.98 3.76 2.4 5.32 3.2 3.54 8.35 5.97 8.35 5.97s10.75-4.98 10.75-11.3v-15.94c-1.2 0-2.24-.06-3.2-.13z" stroke="#000" stroke-opacity="0" stroke-width="3" fill="#0072c6"/><path d="M2044.83-133.16l4.87-6.53c-6.47-.74-7.57-3.73-7.57-3.73s-1.48 3.87-10.75 3.87v15.95c0 1.92.98 3.73 2.4 5.3l3.64-4.9 7.4-9.96z" stroke="#000" stroke-opacity="0" stroke-width="3" fill="#3999c6" fill-opacity=".4"/><path d="M2033.6-128.22v3.8c0 1.56.83 3 1.95 4.23 2.53 2.9 6.63 4.75 6.63 4.75v-12.77h-8.57z" stroke="#000" stroke-opacity="0" stroke-width="3" fill="#fff" fill-opacity=".3"/><path d="M2042.13-115.45s8.57-4 8.57-8.98v-3.8h-8.57v12.78zm0-24.8s-1.17 3.13-8.58 3.13v8.9h8.58v-12.03z" stroke="#000" stroke-opacity="0" stroke-width="3" fill="#fff" fill-opacity=".7"/><path d="M2048.12-137.26c-5.1-.62-6-2.93-6-2.93v11.98h8.58v-8.92c-.94 0-1.82-.06-2.58-.12z" stroke="#000" stroke-opacity="0" stroke-width="3" fill="#fff" fill-opacity=".3"/><path d="M2326.32-210.9h30.16v-18.96h-30.16v18.96zm21.68-5.52l-5.68 3.12v-6.24l5.68-3.12v6.24zm-6.24-10.2l5.68 3.12-5.68 3.12-5.68-3.12 5.68-3.12zm-6.08 3.96l5.68 3.12v6.24l-5.68-3.12v-6.24z" stroke="#000" stroke-opacity="0" fill="#0078d7"/><path d="M2376.48-244.02h-72.96c-2 0-3.52 1.56-3.52 3.24v53.52c0 1.86 1.68 3.24 3.52 3.24h72.96c2.08 0 3.52-1.56 3.52-3.24v-53.52c0-1.68-1.52-3.24-3.52-3.24zm-36.72 49.68l-2.24 6.18v.18l-.16.18H2335.44h-.16v-.18l-2.24-6.18v-.54h1.52v.18l1.84 5.34 1.84-5.34v-.18l.16-.18h1.12v.18c.4.18.4.36.24.36zm9.76 6.36c-.24.18-.4.18-.4.18H2348.16h-.16v-5.88l-2.08 5.7v.18h-.32H2344.4v-.18l-2.16-5.7v5.88h-.4H2340.72V-194.16c0-.18 0-.36.16-.36.24-.18.24-.18.4-.18h1.28c.16 0 .16 0 .4.18l.16.18c0 .18.24.18.24.36l1.6 4.08 1.68-4.08c0-.18.16-.36.16-.36 0-.18.16-.18.16-.18s.24-.18.4-.18h1.68s.16 0 .16.18c0 0 0 .18.24.18v.18l.08 6.18zm9.36-22.38c0 1.02-.96 1.68-1.84 1.68H2346c-1.12 4.02-.56 4.5 6.8 4.5v1.74h-23.04v-1.74c6.64 0 7.76-.48 6.8-4.5h-10.8c-1.12 0-1.84-.84-1.84-1.68v-20.04c0-1.02.88-1.92 1.84-1.92h31.2c1.12 0 1.84.9 1.84 1.92v20.04z" stroke="#000" stroke-opacity="0" fill="#0078d7"/><use xlink:href="#D" transform="matrix(1,0,0,1,2270,-175.02152174534524) translate(31.525 14.4)"/><use xlink:href="#E" transform="matrix(1,0,0,1,2270,-175.02152174534524) translate(43.55 36)"/><use xlink:href="#B" transform="matrix(1,0,0,1,2270,-175.02152174534524) translate(24.75 57.6)"/><use xlink:href="#C" transform="matrix(1,0,0,1,2270,-175.02152174534524) translate(105.25 57.6)"/><path d="M2104-119.5h240v60h-240z" stroke="#000" stroke-opacity="0" stroke-width="2" fill="#fff" fill-opacity="0"/><use xlink:href="#F" transform="matrix(1,0,0,1,2108.987500000002,-114.49006160127175) translate(53.550000000000004 17.525)"/><use xlink:href="#G" transform="matrix(1,0,0,1,2108.987500000002,-114.49006160127175) translate(70 39.125)"/><path d="M2457.84 4.1c2.88-2.6 2.88-6.84 0-9.43l-12.64-11.6c-2.88-2.6-7.52-2.6-10.4 0l-12.64 11.6c-2.88 2.6-2.88 6.83 0 9.42l11.12 10.17v19.6L2440 40l5.84-5.3v-.06l3.4-3.12-3.4-3.12 3.4-3.06-3.4-3.12 3.4-3.06-3.4-3.12v-.94l12-11zM2440-14.1c2.32-.06 4.2 1.64 4.24 3.7.04 2.12-1.8 3.83-4.08 3.9h-.16c-2.32-.07-4.12-1.78-4.08-3.9.04-2.06 1.84-3.7 4.08-3.7z" stroke="#000" stroke-opacity="0" stroke-width="3" fill="#fcd116"/><path d="M2436.42 32.9l2.62 2.34V16.46l-2.62-1.18z" stroke="#000" stroke-opacity="0" stroke-width="3" fill="#ff8c00" fill-opacity=".4"/><path d="M2427.57-2.84h24.05V.32h-24.05zm0 5.13h24.05v3.15h-24.05z" stroke="#000" stroke-opacity="0" stroke-width="3" fill="#fff" fill-opacity=".5"/><path d="M2162.96-270.7c0-5.54 4.48-10 10-10h88.48c5.52 0 10 4.46 10 10v131.8c0 5.52-4.48 10-10 10h-88.48c-5.52 0-10-4.48-10-10z" fill="#fff"/><path d="M2192.62-280.7h19.66m9.84 0h19.66m9.83 0h9.84l3.16.5 2.74 1.4 2.17 2.18 1.43 2.74.5 3.17v10.97m0 10.98v21.97m0 11v21.96m0 10.98v21.97m0 10.98v11l-.5 3.16-1.42 2.74-2.16 2.17-2.74 1.42-3.16.5h-9.83m-9.82 0h-19.66m-9.84 0h-19.66m-9.83 0h-9.84l-3.16-.5-2.74-1.43-2.17-2.17-1.43-2.74-.5-3.16v-11m0-10.97v-21.97m0-10.98v-21.97m0-10.98v-21.97m0-10.98v-10.98l.5-3.18 1.42-2.74 2.16-2.17 2.74-1.4 3.16-.5h9.83" stroke="#000" stroke-width="2" fill="none"/><path d="M2278.32-139.7c-6.45-.74-7.57-3.73-7.57-3.73s-1.46 3.86-10.75 3.86v15.95c0 1.93 1 3.76 2.4 5.32 3.2 3.54 8.35 5.97 8.35 5.97s10.75-4.98 10.75-11.3v-15.94c-1.18 0-2.24-.06-3.18-.13z" stroke="#000" stroke-opacity="0" stroke-width="3" fill="#0072c6"/><path d="M2273.45-133.16l4.88-6.53c-6.47-.74-7.57-3.73-7.57-3.73s-1.5 3.87-10.76 3.87v15.95c0 1.92 1 3.73 2.4 5.3l3.65-4.9 7.4-9.96z" stroke="#000" stroke-opacity="0" stroke-width="3" fill="#3999c6" fill-opacity=".4"/><path d="M2262.23-128.22v3.8c0 1.56.83 3 1.94 4.23 2.53 2.9 6.64 4.75 6.64 4.75v-12.77h-8.57z" stroke="#000" stroke-opacity="0" stroke-width="3" fill="#fff" fill-opacity=".3"/><path d="M2270.75-115.45s8.58-4 8.58-8.98v-3.8h-8.58v12.78zm0-24.8s-1.17 3.13-8.58 3.13v8.9h8.58v-12.03z" stroke="#000" stroke-opacity="0" stroke-width="3" fill="#fff" fill-opacity=".7"/><path d="M2276.74-137.26c-5.1-.62-6-2.93-6-2.93v11.98h8.6v-8.92c-.96 0-1.83-.06-2.6-.12z" stroke="#000" stroke-opacity="0" stroke-width="3" fill="#fff" fill-opacity=".3"/><path d="M1964.03-240h46.7v60h-46.7v-60z" stroke="#000" stroke-opacity="0" fill="#7fba00"/><path d="M1982.84-234.1h21.98v14.26h-21.98v-14.26z" stroke="#000" stroke-opacity="0"/><path d="M2010.74-235.38h5.23v10.3h-5.23v-10.3zM2010.74-220.7h5.23v27.4h-5.23v-27.4z" stroke="#000" stroke-opacity="0" fill="#fcd116"/><path d="M1984.72-201.94h3.77v16.07h-3.78v-16.07zM1978.63-201.94h3.77v16.07h-3.77v-16.07z" stroke="#000" stroke-opacity="0"/><path d="M1981.03-195.16h-7.13v-30.55h9.57v2.5h-7.13v25.53h4.7v2.5z" stroke="#000" stroke-opacity="0" fill-opacity=".2"/><path d="M1978.6-188.87h-9.58v-41.87h15.67v2.5h-13.23v36.86h7.13v2.5zM1999.03-191.83h-7.05v-20.76h5.5v-9.36h2.44v11.87h-5.5v15.74h4.6v2.53z" stroke="#000" stroke-opacity="0" fill-opacity=".2"/><path d="M1987.27-211.07c0 1.6-1.27 2.92-2.82 2.92-1.56 0-2.83-1.3-2.83-2.92 0-1.6 1.27-2.92 2.83-2.92 1.55 0 2.82 1.32 2.82 2.93zM1998.7-201.2h5.03v14.85h-5.02v-14.84z" stroke="#000" stroke-opacity="0" fill="#e5e5e5"/><path d="M2198.02-240h46.7v60h-46.7v-60z" stroke="#000" stroke-opacity="0" fill="#7fba00"/><path d="M2216.83-234.1h21.98v14.26h-21.97v-14.26z" stroke="#000" stroke-opacity="0"/><path d="M2244.73-235.38h5.23v10.3h-5.23v-10.3zM2244.73-220.7h5.23v27.4h-5.23v-27.4z" stroke="#000" stroke-opacity="0" fill="#fcd116"/><path d="M2218.7-201.94h3.78v16.07h-3.77v-16.07zM2212.62-201.94h3.76v16.07h-3.76v-16.07z" stroke="#000" stroke-opacity="0"/><path d="M2215.02-195.16h-7.14v-30.55h9.58v2.5h-7.13v25.53h4.7v2.5z" stroke="#000" stroke-opacity="0" fill-opacity=".2"/><path d="M2212.58-188.87H2203v-41.87h15.68v2.5h-13.23v36.86h7.13v2.5zM2233-191.83h-7.03v-20.76h5.5v-9.36h2.44v11.87h-5.5v15.74h4.6v2.53z" stroke="#000" stroke-opacity="0" fill-opacity=".2"/><path d="M2221.26-211.07c0 1.6-1.27 2.92-2.83 2.92s-2.82-1.3-2.82-2.92c0-1.6 1.27-2.92 2.83-2.92s2.83 1.32 2.83 2.93zM2232.7-201.2h5v14.85h-5v-14.84z" stroke="#000" stroke-opacity="0" fill="#e5e5e5"/><path d="M2016.97-213.1h50.5" stroke="#5e5e5e" stroke-width="2" fill="none"/><path d="M2017-212.1h-1.03v-2h1.02zM2068.47-212.1h-1.02v-2h1.03z" stroke="#5e5e5e" stroke-width=".05" fill="#5e5e5e"/><path d="M2250.96-213.78H2299" stroke="#5e5e5e" stroke-width="2" fill="none"/><path d="M2250.98-212.78h-1.02v-2h1.02zM2300-212.78h-1.03v-2h1.03z" stroke="#5e5e5e" stroke-width=".05" fill="#5e5e5e"/><defs><path fill="#333" d="M266 0h-40l-56-210L115 0H75L2-248h35L96-30l15-64 43-154h32l59 218 59-218h35" id="H"/><path fill="#333" d="M100-194c62-1 85 37 85 99 1 63-27 99-86 99S16-35 15-95c0-66 28-99 85-99zM99-20c44 1 53-31 53-75 0-43-8-75-51-75s-53 32-53 75 10 74 51 75" id="I"/><path fill="#333" d="M114-163C36-179 61-72 57 0H25l-1-190h30c1 12-1 29 2 39 6-27 23-49 58-41v29" id="J"/><path fill="#333" d="M143 0L79-87 56-68V0H24v-261h32v163l83-92h37l-77 82L181 0h-38" id="K"/><path fill="#333" d="M24 0v-261h32V0H24" id="L"/><path fill="#333" d="M141-36C126-15 110 5 73 4 37 3 15-17 15-53c-1-64 63-63 125-63 3-35-9-54-41-54-24 1-41 7-42 31l-33-3c5-37 33-52 76-52 45 0 72 20 72 64v82c-1 20 7 32 28 27v20c-31 9-61-2-59-35zM48-53c0 20 12 33 32 33 41-3 63-29 60-74-43 2-92-5-92 41" id="M"/><path fill="#333" d="M85-194c31 0 48 13 60 33l-1-100h32l1 261h-30c-2-10 0-23-3-31C134-8 116 4 85 4 32 4 16-35 15-94c0-66 23-100 70-100zm9 24c-40 0-46 34-46 75 0 40 6 74 45 74 42 0 51-32 51-76 0-42-9-74-50-73" id="N"/><g id="a"><use transform="matrix(0.06172839506172839,0,0,0.06172839506172839,0,0)" xlink:href="#H"/><use transform="matrix(0.06172839506172839,0,0,0.06172839506172839,20.493827160493826,0)" xlink:href="#I"/><use transform="matrix(0.06172839506172839,0,0,0.06172839506172839,32.839506172839506,0)" xlink:href="#J"/><use transform="matrix(0.06172839506172839,0,0,0.06172839506172839,40.18518518518518,0)" xlink:href="#K"/><use transform="matrix(0.06172839506172839,0,0,0.06172839506172839,51.29629629629629,0)" xlink:href="#L"/><use transform="matrix(0.06172839506172839,0,0,0.06172839506172839,56.172839506172835,0)" xlink:href="#I"/><use transform="matrix(0.06172839506172839,0,0,0.06172839506172839,68.51851851851852,0)" xlink:href="#M"/><use transform="matrix(0.06172839506172839,0,0,0.06172839506172839,80.8641975308642,0)" xlink:href="#N"/><path fill="#333" d="M-1.1 1.54h101.6v1.63H-1.1z"/></g><path fill="#333" d="M27 0v-27h64v-190l-56 39v-29l58-41h29v221h61V0H27" id="O"/><g id="b"><use transform="matrix(0.06172839506172839,0,0,0.06172839506172839,0,0)" xlink:href="#O"/><path fill="#333" d="M-1.1 1.54h20.73v1.63H-1.1z"/></g><path fill="#333" d="M135-143c-3-34-86-38-87 0 15 53 115 12 119 90S17 21 10-45l28-5c4 36 97 45 98 0-10-56-113-15-118-90-4-57 82-63 122-42 12 7 21 19 24 35" id="P"/><path fill="#333" d="M117-194c89-4 53 116 60 194h-32v-121c0-31-8-49-39-48C34-167 62-67 57 0H25l-1-190h30c1 10-1 24 2 32 11-22 29-35 61-36" id="Q"/><path fill="#333" d="M100-194c63 0 86 42 84 106H49c0 40 14 67 53 68 26 1 43-12 49-29l28 8c-11 28-37 45-77 45C44 4 14-33 15-96c1-61 26-98 85-98zm52 81c6-60-76-77-97-28-3 7-6 17-6 28h103" id="R"/><path fill="#333" d="M59-47c-2 24 18 29 38 22v24C64 9 27 4 27-40v-127H5v-23h24l9-43h21v43h35v23H59v120" id="S"/><path fill="#333" d="M16-82v-28h88v28H16" id="T"/><path fill="#333" d="M115-194c55 1 70 41 70 98S169 2 115 4C84 4 66-9 55-30l1 105H24l-1-265h31l2 30c10-21 28-34 59-34zm-8 174c40 0 45-34 45-75s-6-73-45-74c-42 0-51 32-51 76 0 43 10 73 51 73" id="U"/><path fill="#333" d="M24-231v-30h32v30H24zM24 0v-190h32V0H24" id="V"/><path fill="#333" d="M210-169c-67 3-38 105-44 169h-31v-121c0-29-5-50-35-48C34-165 62-65 56 0H25l-1-190h30c1 10-1 24 2 32 10-44 99-50 107 0 11-21 27-35 58-36 85-2 47 119 55 194h-31v-121c0-29-5-49-35-48" id="W"/><path fill="#333" d="M179-190L93 31C79 59 56 82 12 73V49c39 6 53-20 64-50L1-190h34L92-34l54-156h33" id="X"/><g id="c"><use transform="matrix(0.06172839506172839,0,0,0.06172839506172839,0,0)" xlink:href="#P"/><use transform="matrix(0.06172839506172839,0,0,0.06172839506172839,11.11111111111111,0)" xlink:href="#Q"/><use transform="matrix(0.06172839506172839,0,0,0.06172839506172839,23.45679012345679,0)" xlink:href="#R"/><use transform="matrix(0.06172839506172839,0,0,0.06172839506172839,35.80246913580247,0)" xlink:href="#S"/><use transform="matrix(0.06172839506172839,0,0,0.06172839506172839,41.97530864197531,0)" xlink:href="#T"/><use transform="matrix(0.06172839506172839,0,0,0.06172839506172839,49.32098765432099,0)" xlink:href="#U"/><use transform="matrix(0.06172839506172839,0,0,0.06172839506172839,61.666666666666664,0)" xlink:href="#J"/><use transform="matrix(0.06172839506172839,0,0,0.06172839506172839,69.01234567901234,0)" xlink:href="#V"/><use transform="matrix(0.06172839506172839,0,0,0.06172839506172839,73.88888888888889,0)" xlink:href="#W"/><use transform="matrix(0.06172839506172839,0,0,0.06172839506172839,92.34567901234567,0)" xlink:href="#M"/><use transform="matrix(0.06172839506172839,0,0,0.06172839506172839,104.69135802469135,0)" xlink:href="#J"/><use transform="matrix(0.06172839506172839,0,0,0.06172839506172839,112.03703703703704,0)" xlink:href="#X"/><path fill="#333" d="M-1.1 1.54h131.53v1.63H-1.1z"/></g><path fill="#333" d="M233-177c-1 41-23 64-60 70L243 0h-38l-65-103H63V0H30v-248c88 3 205-21 203 71zM63-129c60-2 137 13 137-47 0-61-80-42-137-45v92" id="Y"/><path fill="#333" d="M84 4C-5 8 30-112 23-190h32v120c0 31 7 50 39 49 72-2 45-101 50-169h31l1 190h-30c-1-10 1-25-2-33-11 22-28 36-60 37" id="Z"/><g id="d"><use transform="matrix(0.06172839506172839,0,0,0.06172839506172839,0,0)" xlink:href="#Y"/><use transform="matrix(0.06172839506172839,0,0,0.06172839506172839,15.987654320987653,0)" xlink:href="#I"/><use transform="matrix(0.06172839506172839,0,0,0.06172839506172839,28.333333333333332,0)" xlink:href="#Z"/><use transform="matrix(0.06172839506172839,0,0,0.06172839506172839,40.67901234567901,0)" xlink:href="#S"/><use transform="matrix(0.06172839506172839,0,0,0.06172839506172839,46.851851851851855,0)" xlink:href="#R"/><path fill="#333" d="M-1.1 1.54h67.58v1.63h-67.6z"/></g><path fill="#333" d="M127-220V0H93v-220H8v-28h204v28h-85" id="aa"/><path fill="#333" d="M115-194c53 0 69 39 70 98 0 66-23 100-70 100C84 3 66-7 56-30L54 0H23l1-261h32v101c10-23 28-34 59-34zm-8 174c40 0 45-34 45-75 0-40-5-75-45-74-42 0-51 32-51 76 0 43 10 73 51 73" id="ab"/><g id="e"><use transform="matrix(0.06172839506172839,0,0,0.06172839506172839,0,0)" xlink:href="#aa"/><use transform="matrix(0.06172839506172839,0,0,0.06172839506172839,11.049382716049381,0)" xlink:href="#M"/><use transform="matrix(0.06172839506172839,0,0,0.06172839506172839,23.39506172839506,0)" xlink:href="#ab"/><use transform="matrix(0.06172839506172839,0,0,0.06172839506172839,35.74074074074074,0)" xlink:href="#L"/><use transform="matrix(0.06172839506172839,0,0,0.06172839506172839,40.617283950617285,0)" xlink:href="#R"/><path fill="#333" d="M-1.1 1.54h55.18v1.63h-55.2z"/></g><path fill="#333" d="M87 75C49 33 22-17 22-94c0-76 28-126 65-167h31c-38 41-64 92-64 168S80 34 118 75H87" id="ac"/><path fill="#333" d="M185-189c-5-48-123-54-124 2 14 75 158 14 163 119 3 78-121 87-175 55-17-10-28-26-33-46l33-7c5 56 141 63 141-1 0-78-155-14-162-118-5-82 145-84 179-34 5 7 8 16 11 25" id="ad"/><path fill="#333" d="M33-261c38 41 65 92 65 168S71 34 33 75H2C39 34 66-17 66-93S39-220 2-261h31" id="ae"/><g id="f"><use transform="matrix(0.06172839506172839,0,0,0.06172839506172839,0,0)" xlink:href="#ac"/><use transform="matrix(0.06172839506172839,0,0,0.06172839506172839,7.345679012345679,0)" xlink:href="#ad"/><use transform="matrix(0.06172839506172839,0,0,0.06172839506172839,22.160493827160494,0)" xlink:href="#X"/><use transform="matrix(0.06172839506172839,0,0,0.06172839506172839,33.27160493827161,0)" xlink:href="#P"/><use transform="matrix(0.06172839506172839,0,0,0.06172839506172839,44.38271604938272,0)" xlink:href="#S"/><use transform="matrix(0.06172839506172839,0,0,0.06172839506172839,50.555555555555564,0)" xlink:href="#R"/><use transform="matrix(0.06172839506172839,0,0,0.06172839506172839,62.90123456790124,0)" xlink:href="#W"/><use transform="matrix(0.06172839506172839,0,0,0.06172839506172839,81.35802469135803,0)" xlink:href="#ae"/></g><path fill="#333" d="M101-251c68 0 85 55 85 127S166 4 100 4C33 4 14-52 14-124c0-73 17-127 87-127zm-1 229c47 0 54-49 54-102s-4-102-53-102c-51 0-55 48-55 102 0 53 5 102 54 102" id="af"/><path fill="#333" d="M33 0v-38h34V0H33" id="ag"/><path fill="#333" d="M101-251c82-7 93 87 43 132L82-64C71-53 59-42 53-27h129V0H18c2-99 128-94 128-182 0-28-16-43-45-43s-46 15-49 41l-32-3c6-41 34-60 81-64" id="ah"/><path fill="#333" d="M0 4l72-265h28L28 4H0" id="ai"/><path fill="#333" d="M110-160c48 1 74 30 74 79 0 53-28 85-80 85-65 0-83-55-86-122-5-90 50-162 133-122 14 7 22 21 27 39l-31 6c-5-40-67-38-82-6-9 19-15 44-15 74 11-20 30-34 60-33zm-7 138c34 0 49-23 49-58s-16-56-50-56c-29 0-50 16-49 49 1 36 15 65 50 65" id="aj"/><g id="g"><use transform="matrix(0.06172839506172839,0,0,0.06172839506172839,0,0)" xlink:href="#O"/><use transform="matrix(0.06172839506172839,0,0,0.06172839506172839,12.345679012345679,0)" xlink:href="#af"/><use transform="matrix(0.06172839506172839,0,0,0.06172839506172839,24.691358024691358,0)" xlink:href="#ag"/><use transform="matrix(0.06172839506172839,0,0,0.06172839506172839,30.864197530864196,0)" xlink:href="#ah"/><use transform="matrix(0.06172839506172839,0,0,0.06172839506172839,43.20987654320987,0)" xlink:href="#ag"/><use transform="matrix(0.06172839506172839,0,0,0.06172839506172839,49.382716049382715,0)" xlink:href="#af"/><use transform="matrix(0.06172839506172839,0,0,0.06172839506172839,61.72839506172839,0)" xlink:href="#ag"/><use transform="matrix(0.06172839506172839,0,0,0.06172839506172839,67.90123456790123,0)" xlink:href="#af"/><use transform="matrix(0.06172839506172839,0,0,0.06172839506172839,80.24691358024691,0)" xlink:href="#ai"/><use transform="matrix(0.06172839506172839,0,0,0.06172839506172839,86.41975308641975,0)" xlink:href="#O"/><use transform="matrix(0.06172839506172839,0,0,0.06172839506172839,98.76543209876543,0)" xlink:href="#aj"/></g><path fill="#333" d="M18-27v-27l151-64-151-65v-27l175 74v36" id="ak"/><g id="h"><use transform="matrix(0.06172839506172839,0,0,0.06172839506172839,0,0)" xlink:href="#T"/><use transform="matrix(0.06172839506172839,0,0,0.06172839506172839,7.345679012345679,0)" xlink:href="#ak"/></g><path fill="#333" d="M137 0h-34L2-248h35l83 218 83-218h36" id="al"/><g id="i"><use transform="matrix(0.06172839506172839,0,0,0.06172839506172839,0,0)" xlink:href="#al"/><use transform="matrix(0.06172839506172839,0,0,0.06172839506172839,14.382716049382715,0)" xlink:href="#V"/><use transform="matrix(0.06172839506172839,0,0,0.06172839506172839,19.25925925925926,0)" xlink:href="#J"/><use transform="matrix(0.06172839506172839,0,0,0.06172839506172839,26.604938271604937,0)" xlink:href="#S"/><use transform="matrix(0.06172839506172839,0,0,0.06172839506172839,32.77777777777778,0)" xlink:href="#Z"/><use transform="matrix(0.06172839506172839,0,0,0.06172839506172839,45.123456790123456,0)" xlink:href="#M"/><use transform="matrix(0.06172839506172839,0,0,0.06172839506172839,57.46913580246913,0)" xlink:href="#L"/></g><path fill="#333" d="M190 0L58-211 59 0H30v-248h39L202-35l-2-213h31V0h-41" id="am"/><path fill="#333" d="M206 0h-36l-40-164L89 0H53L-1-190h32L70-26l43-164h34l41 164 42-164h31" id="an"/><g id="j"><use transform="matrix(0.06172839506172839,0,0,0.06172839506172839,0,0)" xlink:href="#am"/><use transform="matrix(0.06172839506172839,0,0,0.06172839506172839,15.987654320987653,0)" xlink:href="#R"/><use transform="matrix(0.06172839506172839,0,0,0.06172839506172839,28.333333333333332,0)" xlink:href="#S"/><use transform="matrix(0.06172839506172839,0,0,0.06172839506172839,34.50617283950617,0)" xlink:href="#an"/><use transform="matrix(0.06172839506172839,0,0,0.06172839506172839,50.49382716049382,0)" xlink:href="#I"/><use transform="matrix(0.06172839506172839,0,0,0.06172839506172839,62.8395061728395,0)" xlink:href="#J"/><use transform="matrix(0.06172839506172839,0,0,0.06172839506172839,70.18518518518518,0)" xlink:href="#K"/></g><g id="k"><use transform="matrix(0.06172839506172839,0,0,0.06172839506172839,0,0)" xlink:href="#ac"/><use transform="matrix(0.06172839506172839,0,0,0.06172839506172839,7.345679012345679,0)" xlink:href="#ad"/><use transform="matrix(0.06172839506172839,0,0,0.06172839506172839,22.160493827160494,0)" xlink:href="#X"/><use transform="matrix(0.06172839506172839,0,0,0.06172839506172839,33.27160493827161,0)" xlink:href="#P"/><use transform="matrix(0.06172839506172839,0,0,0.06172839506172839,44.38271604938272,0)" xlink:href="#S"/><use transform="matrix(0.06172839506172839,0,0,0.06172839506172839,50.555555555555564,0)" xlink:href="#R"/><use transform="matrix(0.06172839506172839,0,0,0.06172839506172839,62.90123456790124,0)" xlink:href="#W"/><use transform="matrix(0.06172839506172839,0,0,0.06172839506172839,81.35802469135803,0)" xlink:href="#ae"/></g><g id="l"><use transform="matrix(0.06172839506172839,0,0,0.06172839506172839,0,0)" xlink:href="#af"/><use transform="matrix(0.06172839506172839,0,0,0.06172839506172839,12.345679012345679,0)" xlink:href="#ag"/><use transform="matrix(0.06172839506172839,0,0,0.06172839506172839,18.51851851851852,0)" xlink:href="#af"/><use transform="matrix(0.06172839506172839,0,0,0.06172839506172839,30.864197530864196,0)" xlink:href="#ag"/><use transform="matrix(0.06172839506172839,0,0,0.06172839506172839,37.03703703703704,0)" xlink:href="#af"/><use transform="matrix(0.06172839506172839,0,0,0.06172839506172839,49.382716049382715,0)" xlink:href="#ag"/><use transform="matrix(0.06172839506172839,0,0,0.06172839506172839,55.55555555555556,0)" xlink:href="#af"/><use transform="matrix(0.06172839506172839,0,0,0.06172839506172839,67.90123456790124,0)" xlink:href="#ai"/><use transform="matrix(0.06172839506172839,0,0,0.06172839506172839,74.07407407407408,0)" xlink:href="#af"/></g><g id="m"><use transform="matrix(0.06172839506172839,0,0,0.06172839506172839,0,0)" xlink:href="#T"/><use transform="matrix(0.06172839506172839,0,0,0.06172839506172839,7.345679012345679,0)" xlink:href="#ak"/></g><path fill="#333" d="M33 0v-248h34V0H33" id="ao"/><g id="n"><use transform="matrix(0.06172839506172839,0,0,0.06172839506172839,0,0)" xlink:href="#ao"/><use transform="matrix(0.06172839506172839,0,0,0.06172839506172839,6.172839506172839,0)" xlink:href="#Q"/><use transform="matrix(0.06172839506172839,0,0,0.06172839506172839,18.51851851851852,0)" xlink:href="#S"/><use transform="matrix(0.06172839506172839,0,0,0.06172839506172839,24.691358024691358,0)" xlink:href="#R"/><use transform="matrix(0.06172839506172839,0,0,0.06172839506172839,37.03703703703704,0)" xlink:href="#J"/><use transform="matrix(0.06172839506172839,0,0,0.06172839506172839,44.382716049382715,0)" xlink:href="#Q"/><use transform="matrix(0.06172839506172839,0,0,0.06172839506172839,56.72839506172839,0)" xlink:href="#R"/><use transform="matrix(0.06172839506172839,0,0,0.06172839506172839,69.07407407407408,0)" xlink:href="#S"/></g><path fill="#333" d="M96-169c-40 0-48 33-48 73s9 75 48 75c24 0 41-14 43-38l32 2c-6 37-31 61-74 61-59 0-76-41-82-99-10-93 101-131 147-64 4 7 5 14 7 22l-32 3c-4-21-16-35-41-35" id="ap"/><g id="o"><use transform="matrix(0.06172839506172839,0,0,0.06172839506172839,0,0)" xlink:href="#P"/><use transform="matrix(0.06172839506172839,0,0,0.06172839506172839,11.11111111111111,0)" xlink:href="#Q"/><use transform="matrix(0.06172839506172839,0,0,0.06172839506172839,23.45679012345679,0)" xlink:href="#R"/><use transform="matrix(0.06172839506172839,0,0,0.06172839506172839,35.80246913580247,0)" xlink:href="#S"/><use transform="matrix(0.06172839506172839,0,0,0.06172839506172839,41.97530864197531,0)" xlink:href="#T"/><use transform="matrix(0.06172839506172839,0,0,0.06172839506172839,49.32098765432099,0)" xlink:href="#P"/><use transform="matrix(0.06172839506172839,0,0,0.06172839506172839,60.4320987654321,0)" xlink:href="#R"/><use transform="matrix(0.06172839506172839,0,0,0.06172839506172839,72.77777777777779,0)" xlink:href="#ap"/><use transform="matrix(0.06172839506172839,0,0,0.06172839506172839,83.8888888888889,0)" xlink:href="#I"/><use transform="matrix(0.06172839506172839,0,0,0.06172839506172839,96.23456790123458,0)" xlink:href="#Q"/><use transform="matrix(0.06172839506172839,0,0,0.06172839506172839,108.58024691358027,0)" xlink:href="#N"/><use transform="matrix(0.06172839506172839,0,0,0.06172839506172839,120.92592592592595,0)" xlink:href="#M"/><use transform="matrix(0.06172839506172839,0,0,0.06172839506172839,133.27160493827162,0)" xlink:href="#J"/><use transform="matrix(0.06172839506172839,0,0,0.06172839506172839,140.6172839506173,0)" xlink:href="#X"/><path fill="#333" d="M-1.1 1.54H159v1.63H-1.1z"/></g><path d="M147 0H94L2-248h55l64 206c17-72 42-137 63-206h54" id="aq"/><path d="M25-224v-37h50v37H25zM25 0v-190h50V0H25" id="ar"/><path d="M135-150c-39-12-60 13-60 57V0H25l-1-190h47c2 13-1 29 3 40 6-28 27-53 61-41v41" id="as"/><path d="M115-3C79 11 28 4 28-45v-112H4v-33h27l15-45h31v45h36v33H77v99c-1 23 16 31 38 25v30" id="at"/><path d="M85 4C-2 5 27-109 22-190h50c7 57-23 150 33 157 60-5 35-97 40-157h50l1 190h-47c-2-12 1-28-3-38-12 25-28 42-61 42" id="au"/><path d="M133-34C117-15 103 5 69 4 32 3 11-16 11-54c-1-60 55-63 116-61 1-26-3-47-28-47-18 1-26 9-28 27l-52-2c7-38 36-58 82-57s74 22 75 68l1 82c-1 14 12 18 25 15v27c-30 8-71 5-69-32zm-48 3c29 0 43-24 42-57-32 0-66-3-65 30 0 17 8 27 23 27" id="av"/><path d="M25 0v-261h50V0H25" id="aw"/><g id="q"><use transform="matrix(0.056172839506172835,0,0,0.056172839506172835,0,0)" xlink:href="#aq"/><use transform="matrix(0.056172839506172835,0,0,0.056172839506172835,13.08827160493827,0)" xlink:href="#ar"/><use transform="matrix(0.056172839506172835,0,0,0.056172839506172835,18.705555555555556,0)" xlink:href="#as"/><use transform="matrix(0.056172839506172835,0,0,0.056172839506172835,26.56975308641975,0)" xlink:href="#at"/><use transform="matrix(0.056172839506172835,0,0,0.056172839506172835,33.25432098765432,0)" xlink:href="#au"/><use transform="matrix(0.056172839506172835,0,0,0.056172839506172835,45.55617283950617,0)" xlink:href="#av"/><use transform="matrix(0.056172839506172835,0,0,0.056172839506172835,56.79074074074073,0)" xlink:href="#aw"/></g><path d="M175 0L67-191c6 58 2 128 3 191H24v-248h59L193-55c-6-58-2-129-3-193h46V0h-61" id="ax"/><path d="M185-48c-13 30-37 53-82 52C43 2 14-33 14-96s30-98 90-98c62 0 83 45 84 108H66c0 31 8 55 39 56 18 0 30-7 34-22zm-45-69c5-46-57-63-70-21-2 6-4 13-4 21h74" id="ay"/><path d="M231 0h-52l-39-155L100 0H48L-1-190h46L77-45c9-52 24-97 36-145h53l37 145 32-145h46" id="az"/><path d="M110-194c64 0 96 36 96 99 0 64-35 99-97 99-61 0-95-36-95-99 0-62 34-99 96-99zm-1 164c35 0 45-28 45-65 0-40-10-65-43-65-34 0-45 26-45 65 0 36 10 65 43 65" id="aA"/><path d="M147 0L96-86 75-71V0H25v-261h50v150l67-79h53l-66 74L201 0h-54" id="aB"/><g id="r"><use transform="matrix(0.056172839506172835,0,0,0.056172839506172835,0,0)" xlink:href="#ax"/><use transform="matrix(0.056172839506172835,0,0,0.056172839506172835,14.548765432098763,0)" xlink:href="#ay"/><use transform="matrix(0.056172839506172835,0,0,0.056172839506172835,25.78333333333333,0)" xlink:href="#at"/><use transform="matrix(0.056172839506172835,0,0,0.056172839506172835,32.4679012345679,0)" xlink:href="#az"/><use transform="matrix(0.056172839506172835,0,0,0.056172839506172835,48.19629629629629,0)" xlink:href="#aA"/><use transform="matrix(0.056172839506172835,0,0,0.056172839506172835,60.49814814814815,0)" xlink:href="#as"/><use transform="matrix(0.056172839506172835,0,0,0.056172839506172835,68.36234567901234,0)" xlink:href="#aB"/></g><path d="M14-72v-43h91v43H14" id="aC"/><use transform="matrix(0.056172839506172835,0,0,0.056172839506172835,0,0)" xlink:href="#aC" id="s"/><path d="M23 0v-37h61v-169l-59 37v-38l62-41h46v211h57V0H23" id="aD"/><use transform="matrix(0.056172839506172835,0,0,0.056172839506172835,0,0)" xlink:href="#aD" id="t"/><path d="M101-251c68 0 84 54 84 127C185-50 166 4 99 4S15-52 14-124c-1-75 17-127 87-127zm-1 216c37-5 36-46 36-89s4-89-36-89c-39 0-36 45-36 89 0 43-3 85 36 89" id="aE"/><path d="M24 0v-54h51V0H24" id="aF"/><path d="M182-182c0 78-84 86-111 141h115V0H12c-6-101 99-100 120-180 1-22-12-31-33-32-23 0-32 14-35 34l-49-3c5-45 32-70 84-70 51 0 83 22 83 69" id="aG"/><path d="M4 7l51-268h42L46 7H4" id="aH"/><path d="M115-159c48 0 72 30 72 78 0 54-30 85-83 85-64 0-91-50-91-122 0-98 58-163 141-120 15 8 21 24 27 44l-47 6c-5-31-48-31-61-4-7 14-11 33-11 60 9-17 28-27 53-27zM102-35c24 0 36-20 36-45s-11-43-37-43c-23 0-36 14-36 38 0 27 11 50 37 50" id="aI"/><g id="u"><use transform="matrix(0.056172839506172835,0,0,0.056172839506172835,0,0)" xlink:href="#aD"/><use transform="matrix(0.056172839506172835,0,0,0.056172839506172835,11.234567901234566,0)" xlink:href="#aE"/><use transform="matrix(0.056172839506172835,0,0,0.056172839506172835,22.469135802469133,0)" xlink:href="#aF"/><use transform="matrix(0.056172839506172835,0,0,0.056172839506172835,28.086419753086417,0)" xlink:href="#aG"/><use transform="matrix(0.056172839506172835,0,0,0.056172839506172835,39.32098765432099,0)" xlink:href="#aF"/><use transform="matrix(0.056172839506172835,0,0,0.056172839506172835,44.93827160493827,0)" xlink:href="#aE"/><use transform="matrix(0.056172839506172835,0,0,0.056172839506172835,56.172839506172835,0)" xlink:href="#aF"/><use transform="matrix(0.056172839506172835,0,0,0.056172839506172835,61.79012345679012,0)" xlink:href="#aE"/><use transform="matrix(0.056172839506172835,0,0,0.056172839506172835,73.02469135802468,0)" xlink:href="#aH"/><use transform="matrix(0.056172839506172835,0,0,0.056172839506172835,78.64197530864196,0)" xlink:href="#aD"/><use transform="matrix(0.056172839506172835,0,0,0.056172839506172835,89.87654320987653,0)" xlink:href="#aI"/></g><path fill="#333" d="M240-174c0 40-23 61-54 70L253 0h-59l-57-94H76V0H24v-248c93 4 217-23 216 74zM76-134c48-2 112 12 112-38 0-48-66-32-112-35v73" id="aJ"/><path fill="#333" d="M185-48c-13 30-37 53-82 52C43 2 14-33 14-96s30-98 90-98c62 0 83 45 84 108H66c0 31 8 55 39 56 18 0 30-7 34-22zm-45-69c5-46-57-63-70-21-2 6-4 13-4 21h74" id="aK"/><path fill="#333" d="M195-6C206 82 75 100 31 46c-4-6-6-13-8-21l49-6c3 16 16 24 34 25 40 0 42-37 40-79-11 22-30 35-61 35-53 0-70-43-70-97 0-56 18-96 73-97 30 0 46 14 59 34l2-30h47zm-90-29c32 0 41-27 41-63 0-35-9-62-40-62-32 0-39 29-40 63 0 36 9 62 39 62" id="aL"/><path fill="#333" d="M25-224v-37h50v37H25zM25 0v-190h50V0H25" id="aM"/><path fill="#333" d="M110-194c64 0 96 36 96 99 0 64-35 99-97 99-61 0-95-36-95-99 0-62 34-99 96-99zm-1 164c35 0 45-28 45-65 0-40-10-65-43-65-34 0-45 26-45 65 0 36 10 65 43 65" id="aN"/><path fill="#333" d="M135-194c87-1 58 113 63 194h-50c-7-57 23-157-34-157-59 0-34 97-39 157H25l-1-190h47c2 12-1 28 3 38 12-26 28-41 61-42" id="aO"/><g id="v"><use transform="matrix(0.06172839506172839,0,0,0.06172839506172839,0,0)" xlink:href="#aJ"/><use transform="matrix(0.06172839506172839,0,0,0.06172839506172839,15.987654320987653,0)" xlink:href="#aK"/><use transform="matrix(0.06172839506172839,0,0,0.06172839506172839,28.333333333333332,0)" xlink:href="#aL"/><use transform="matrix(0.06172839506172839,0,0,0.06172839506172839,41.85185185185185,0)" xlink:href="#aM"/><use transform="matrix(0.06172839506172839,0,0,0.06172839506172839,48.02469135802469,0)" xlink:href="#aN"/><use transform="matrix(0.06172839506172839,0,0,0.06172839506172839,61.54320987654321,0)" xlink:href="#aO"/></g><path fill="#333" d="M23 0v-37h61v-169l-59 37v-38l62-41h46v211h57V0H23" id="aP"/><use transform="matrix(0.06172839506172839,0,0,0.06172839506172839,0,0)" xlink:href="#aP" id="w"/><path d="M135-143c-3-34-86-38-87 0 15 53 115 12 119 90S17 21 10-45l28-5c4 36 97 45 98 0-10-56-113-15-118-90-4-57 82-63 122-42 12 7 21 19 24 35" id="aQ"/><path d="M117-194c89-4 53 116 60 194h-32v-121c0-31-8-49-39-48C34-167 62-67 57 0H25l-1-190h30c1 10-1 24 2 32 11-22 29-35 61-36" id="aR"/><path d="M100-194c63 0 86 42 84 106H49c0 40 14 67 53 68 26 1 43-12 49-29l28 8c-11 28-37 45-77 45C44 4 14-33 15-96c1-61 26-98 85-98zm52 81c6-60-76-77-97-28-3 7-6 17-6 28h103" id="aS"/><path d="M59-47c-2 24 18 29 38 22v24C64 9 27 4 27-40v-127H5v-23h24l9-43h21v43h35v23H59v120" id="aT"/><path d="M16-82v-28h88v28H16" id="aU"/><path d="M115-194c55 1 70 41 70 98S169 2 115 4C84 4 66-9 55-30l1 105H24l-1-265h31l2 30c10-21 28-34 59-34zm-8 174c40 0 45-34 45-75s-6-73-45-74c-42 0-51 32-51 76 0 43 10 73 51 73" id="aV"/><path d="M114-163C36-179 61-72 57 0H25l-1-190h30c1 12-1 29 2 39 6-27 23-49 58-41v29" id="aW"/><path d="M24-231v-30h32v30H24zM24 0v-190h32V0H24" id="aX"/><path d="M210-169c-67 3-38 105-44 169h-31v-121c0-29-5-50-35-48C34-165 62-65 56 0H25l-1-190h30c1 10-1 24 2 32 10-44 99-50 107 0 11-21 27-35 58-36 85-2 47 119 55 194h-31v-121c0-29-5-49-35-48" id="aY"/><path d="M141-36C126-15 110 5 73 4 37 3 15-17 15-53c-1-64 63-63 125-63 3-35-9-54-41-54-24 1-41 7-42 31l-33-3c5-37 33-52 76-52 45 0 72 20 72 64v82c-1 20 7 32 28 27v20c-31 9-61-2-59-35zM48-53c0 20 12 33 32 33 41-3 63-29 60-74-43 2-92-5-92 41" id="aZ"/><path d="M179-190L93 31C79 59 56 82 12 73V49c39 6 53-20 64-50L1-190h34L92-34l54-156h33" id="ba"/><g id="x"><use transform="matrix(0.04999999999999999,0,0,0.04999999999999999,0,0)" xlink:href="#aQ"/><use transform="matrix(0.04999999999999999,0,0,0.04999999999999999,8.999999999999998,0)" xlink:href="#aR"/><use transform="matrix(0.04999999999999999,0,0,0.04999999999999999,18.999999999999996,0)" xlink:href="#aS"/><use transform="matrix(0.04999999999999999,0,0,0.04999999999999999,28.999999999999993,0)" xlink:href="#aT"/><use transform="matrix(0.04999999999999999,0,0,0.04999999999999999,33.99999999999999,0)" xlink:href="#aU"/><use transform="matrix(0.04999999999999999,0,0,0.04999999999999999,39.94999999999999,0)" xlink:href="#aV"/><use transform="matrix(0.04999999999999999,0,0,0.04999999999999999,49.94999999999999,0)" xlink:href="#aW"/><use transform="matrix(0.04999999999999999,0,0,0.04999999999999999,55.899999999999984,0)" xlink:href="#aX"/><use transform="matrix(0.04999999999999999,0,0,0.04999999999999999,59.84999999999997,0)" xlink:href="#aY"/><use transform="matrix(0.04999999999999999,0,0,0.04999999999999999,74.79999999999998,0)" xlink:href="#aZ"/><use transform="matrix(0.04999999999999999,0,0,0.04999999999999999,84.79999999999998,0)" xlink:href="#aW"/><use transform="matrix(0.04999999999999999,0,0,0.04999999999999999,90.74999999999999,0)" xlink:href="#ba"/></g><path d="M27 0v-27h64v-190l-56 39v-29l58-41h29v221h61V0H27" id="bb"/><path d="M101-251c68 0 85 55 85 127S166 4 100 4C33 4 14-52 14-124c0-73 17-127 87-127zm-1 229c47 0 54-49 54-102s-4-102-53-102c-51 0-55 48-55 102 0 53 5 102 54 102" id="bc"/><path d="M33 0v-38h34V0H33" id="bd"/><path d="M101-251c82-7 93 87 43 132L82-64C71-53 59-42 53-27h129V0H18c2-99 128-94 128-182 0-28-16-43-45-43s-46 15-49 41l-32-3c6-41 34-60 81-64" id="be"/><path d="M0 4l72-265h28L28 4H0" id="bf"/><path d="M155-56V0h-30v-56H8v-25l114-167h33v167h35v25h-35zm-30-156c-27 46-58 90-88 131h88v-131" id="bg"/><g id="y"><use transform="matrix(0.04999999999999999,0,0,0.04999999999999999,0,0)" xlink:href="#bb"/><use transform="matrix(0.04999999999999999,0,0,0.04999999999999999,9.999999999999998,0)" xlink:href="#bc"/><use transform="matrix(0.04999999999999999,0,0,0.04999999999999999,19.999999999999996,0)" xlink:href="#bd"/><use transform="matrix(0.04999999999999999,0,0,0.04999999999999999,24.999999999999996,0)" xlink:href="#be"/><use transform="matrix(0.04999999999999999,0,0,0.04999999999999999,34.99999999999999,0)" xlink:href="#bd"/><use transform="matrix(0.04999999999999999,0,0,0.04999999999999999,39.99999999999999,0)" xlink:href="#bc"/><use transform="matrix(0.04999999999999999,0,0,0.04999999999999999,49.99999999999999,0)" xlink:href="#bd"/><use transform="matrix(0.04999999999999999,0,0,0.04999999999999999,54.999999999999986,0)" xlink:href="#bc"/><use transform="matrix(0.04999999999999999,0,0,0.04999999999999999,64.99999999999999,0)" xlink:href="#bf"/><use transform="matrix(0.04999999999999999,0,0,0.04999999999999999,69.99999999999999,0)" xlink:href="#be"/><use transform="matrix(0.04999999999999999,0,0,0.04999999999999999,79.99999999999999,0)" xlink:href="#bg"/></g><path d="M266 0h-40l-56-210L115 0H75L2-248h35L96-30l15-64 43-154h32l59 218 59-218h35" id="bh"/><path d="M115-194c53 0 69 39 70 98 0 66-23 100-70 100C84 3 66-7 56-30L54 0H23l1-261h32v101c10-23 28-34 59-34zm-8 174c40 0 45-34 45-75 0-40-5-75-45-74-42 0-51 32-51 76 0 43 10 73 51 73" id="bi"/><g id="z"><use transform="matrix(0.05,0,0,0.05,0,0)" xlink:href="#bh"/><use transform="matrix(0.05,0,0,0.05,16.599999999999998,0)" xlink:href="#aS"/><use transform="matrix(0.05,0,0,0.05,26.599999999999994,0)" xlink:href="#bi"/></g><path d="M185-189c-5-48-123-54-124 2 14 75 158 14 163 119 3 78-121 87-175 55-17-10-28-26-33-46l33-7c5 56 141 63 141-1 0-78-155-14-162-118-5-82 145-84 179-34 5 7 8 16 11 25" id="bj"/><path d="M108 0H70L1-190h34L89-25l56-165h34" id="bk"/><g id="A"><use transform="matrix(0.05,0,0,0.05,0,0)" xlink:href="#bj"/><use transform="matrix(0.05,0,0,0.05,12,0)" xlink:href="#aS"/><use transform="matrix(0.05,0,0,0.05,22,0)" xlink:href="#aW"/><use transform="matrix(0.05,0,0,0.05,27.950000000000003,0)" xlink:href="#bk"/><use transform="matrix(0.05,0,0,0.05,36.95,0)" xlink:href="#aS"/><use transform="matrix(0.05,0,0,0.05,46.95,0)" xlink:href="#aW"/></g><path d="M100-194c62-1 85 37 85 99 1 63-27 99-86 99S16-35 15-95c0-66 28-99 85-99zM99-20c44 1 53-31 53-75 0-43-8-75-51-75s-53 32-53 75 10 74 51 75" id="bl"/><path d="M143 0L79-87 56-68V0H24v-261h32v163l83-92h37l-77 82L181 0h-38" id="bm"/><path d="M24 0v-261h32V0H24" id="bn"/><path d="M85-194c31 0 48 13 60 33l-1-100h32l1 261h-30c-2-10 0-23-3-31C134-8 116 4 85 4 32 4 16-35 15-94c0-66 23-100 70-100zm9 24c-40 0-46 34-46 75 0 40 6 74 45 74 42 0 51-32 51-76 0-42-9-74-50-73" id="bo"/><g id="B"><use transform="matrix(0.05,0,0,0.05,0,0)" xlink:href="#bh"/><use transform="matrix(0.05,0,0,0.05,16.599999999999998,0)" xlink:href="#bl"/><use transform="matrix(0.05,0,0,0.05,26.599999999999994,0)" xlink:href="#aW"/><use transform="matrix(0.05,0,0,0.05,32.55,0)" xlink:href="#bm"/><use transform="matrix(0.05,0,0,0.05,41.55,0)" xlink:href="#bn"/><use transform="matrix(0.05,0,0,0.05,45.5,0)" xlink:href="#bl"/><use transform="matrix(0.05,0,0,0.05,55.5,0)" xlink:href="#aZ"/><use transform="matrix(0.05,0,0,0.05,65.5,0)" xlink:href="#bo"/></g><use transform="matrix(0.05,0,0,0.05,0,0)" xlink:href="#bb" id="C"/><path d="M30-248c118-7 216 8 213 122C240-48 200 0 122 0H30v-248zM63-27c89 8 146-16 146-99s-60-101-146-95v194" id="bp"/><g id="D"><use transform="matrix(0.05,0,0,0.05,0,0)" xlink:href="#bp"/><use transform="matrix(0.05,0,0,0.05,12.950000000000001,0)" xlink:href="#aZ"/><use transform="matrix(0.05,0,0,0.05,22.950000000000003,0)" xlink:href="#aT"/><use transform="matrix(0.05,0,0,0.05,27.950000000000003,0)" xlink:href="#aZ"/><use transform="matrix(0.05,0,0,0.05,37.95,0)" xlink:href="#bi"/><use transform="matrix(0.05,0,0,0.05,47.95,0)" xlink:href="#aZ"/><use transform="matrix(0.05,0,0,0.05,57.95,0)" xlink:href="#aQ"/><use transform="matrix(0.05,0,0,0.05,66.95,0)" xlink:href="#aS"/></g><g id="E"><use transform="matrix(0.05,0,0,0.05,0,0)" xlink:href="#bj"/><use transform="matrix(0.05,0,0,0.05,12,0)" xlink:href="#aS"/><use transform="matrix(0.05,0,0,0.05,22,0)" xlink:href="#aW"/><use transform="matrix(0.05,0,0,0.05,27.950000000000003,0)" xlink:href="#bk"/><use transform="matrix(0.05,0,0,0.05,36.95,0)" xlink:href="#aS"/><use transform="matrix(0.05,0,0,0.05,46.95,0)" xlink:href="#aW"/></g><path d="M96-169c-40 0-48 33-48 73s9 75 48 75c24 0 41-14 43-38l32 2c-6 37-31 61-74 61-59 0-76-41-82-99-10-93 101-131 147-64 4 7 5 14 7 22l-32 3c-4-21-16-35-41-35" id="bq"/><g id="F"><use transform="matrix(0.04999999999999999,0,0,0.04999999999999999,0,0)" xlink:href="#aQ"/><use transform="matrix(0.04999999999999999,0,0,0.04999999999999999,8.999999999999998,0)" xlink:href="#aR"/><use transform="matrix(0.04999999999999999,0,0,0.04999999999999999,18.999999999999996,0)" xlink:href="#aS"/><use transform="matrix(0.04999999999999999,0,0,0.04999999999999999,28.999999999999993,0)" xlink:href="#aT"/><use transform="matrix(0.04999999999999999,0,0,0.04999999999999999,33.99999999999999,0)" xlink:href="#aU"/><use transform="matrix(0.04999999999999999,0,0,0.04999999999999999,39.94999999999999,0)" xlink:href="#aQ"/><use transform="matrix(0.04999999999999999,0,0,0.04999999999999999,48.94999999999999,0)" xlink:href="#aS"/><use transform="matrix(0.04999999999999999,0,0,0.04999999999999999,58.94999999999999,0)" xlink:href="#bq"/><use transform="matrix(0.04999999999999999,0,0,0.04999999999999999,67.94999999999999,0)" xlink:href="#bl"/><use transform="matrix(0.04999999999999999,0,0,0.04999999999999999,77.94999999999999,0)" xlink:href="#aR"/><use transform="matrix(0.04999999999999999,0,0,0.04999999999999999,87.94999999999999,0)" xlink:href="#bo"/><use transform="matrix(0.04999999999999999,0,0,0.04999999999999999,97.94999999999999,0)" xlink:href="#aZ"/><use transform="matrix(0.04999999999999999,0,0,0.04999999999999999,107.95,0)" xlink:href="#aW"/><use transform="matrix(0.04999999999999999,0,0,0.04999999999999999,113.89999999999999,0)" xlink:href="#ba"/></g><g id="G"><use transform="matrix(0.04999999999999999,0,0,0.04999999999999999,0,0)" xlink:href="#bb"/><use transform="matrix(0.04999999999999999,0,0,0.04999999999999999,9.999999999999998,0)" xlink:href="#bc"/><use transform="matrix(0.04999999999999999,0,0,0.04999999999999999,19.999999999999996,0)" xlink:href="#bd"/><use transform="matrix(0.04999999999999999,0,0,0.04999999999999999,24.999999999999996,0)" xlink:href="#be"/><use transform="matrix(0.04999999999999999,0,0,0.04999999999999999,34.99999999999999,0)" xlink:href="#bd"/><use transform="matrix(0.04999999999999999,0,0,0.04999999999999999,39.99999999999999,0)" xlink:href="#bb"/><use transform="matrix(0.04999999999999999,0,0,0.04999999999999999,49.99999999999999,0)" xlink:href="#bd"/><use transform="matrix(0.04999999999999999,0,0,0.04999999999999999,54.999999999999986,0)" xlink:href="#bc"/><use transform="matrix(0.04999999999999999,0,0,0.04999999999999999,64.99999999999999,0)" xlink:href="#bf"/><use transform="matrix(0.04999999999999999,0,0,0.04999999999999999,69.99999999999999,0)" xlink:href="#be"/><use transform="matrix(0.04999999999999999,0,0,0.04999999999999999,79.99999999999999,0)" xlink:href="#bg"/></g></defs></g></svg>