<svg xmlns="http://www.w3.org/2000/svg" xmlns:xlink="http://www.w3.org/1999/xlink" xmlns:lucid="lucid" width="1790" height="1419"><g transform="translate(241 -95)" lucid:page-tab-id="A-pHyNG8n0ai"><path d="M-2500-500h4000v2000h-4000z" fill="#fff"/><path d="M791.92 239.6a6 6 0 0 1 6-6H1454a6 6 0 0 1 6 6V1414a6 6 0 0 1-6 6H797.92a6 6 0 0 1-6-6z" stroke="#3a414a" stroke-width="2" fill="#ffd9d9"/><path d="M1060 750a10 10 0 0 1 10-10h140a10 10 0 0 1 10 10v100a10 10 0 0 1-10 10h-140a10 10 0 0 1-10-10z" stroke="#000" stroke-width="2" fill="#fff"/><use xlink:href="#a" transform="matrix(1,0,0,1,1065,745) translate(5.308641975308646 31.52777777777778)"/><use xlink:href="#b" transform="matrix(1,0,0,1,1065,745) translate(68.82716049382717 58.19444444444445)"/><use xlink:href="#c" transform="matrix(1,0,0,1,1065,745) translate(12.037037037037038 84.86111111111111)"/><use xlink:href="#d" transform="matrix(1,0,0,1,1065,745) translate(45.37037037037037 84.86111111111111)"/><path d="M1140 862v150.92" stroke="#5e5e5e" stroke-width="2" fill="none"/><path d="M1140.97 862.03h-1.94V861h1.94zM1140.97 1013.92h-1.94v-1.03h1.94z" stroke="#5e5e5e" stroke-width=".05" fill="#5e5e5e"/><path d="M-120 720h105v38.65h-105zM-15 720H98v38.65H-15zM98 720h464v38.65H98zM562 720h190.74v38.65H562z" fill="#fcfcca"/><path d="M-120 758.65h105v38.65h-105zM-15 758.65H98v38.65H-15zM98 758.65h464v38.65H98zM562 758.65h190.74v38.65H562zM-120 797.3h105v43h-105zM-15 797.3H98v43H-15zM98 797.3h464v43H98zM562 797.3h190.74v43H562z" fill="#fff"/><path d="M-120 720v38.65M-120 720h105M-15 720v38.65M-15 720H98M98 720v38.65M98 720h464M562 720v38.65M752.74 720v38.65M562 720h190.74M-120 758.65v38.65M-120 758.65h105M-15 758.65v38.65M-15 758.65H98M98 758.65v38.65M98 758.65h464M562 758.65v38.65M752.74 758.65v38.65M562 758.65h190.74M-120 797.3v43M-120 797.3h105M-120 840.3h105M-15 797.3v43M-15 797.3H98M-15 840.3H98M98 797.3v43M98 797.3h464M98 840.3h464M562 797.3v43M752.74 797.3v43M562 797.3h190.74M562 840.3h190.74" stroke="#5e5e5e" stroke-width="3" fill="none"/><use xlink:href="#e" transform="matrix(1,0,0,1,-115,725) translate(24.074074074074076 18.944444444444443)"/><use xlink:href="#f" transform="matrix(1,0,0,1,-10,725) translate(16.345679012345677 18.944444444444443)"/><use xlink:href="#g" transform="matrix(1,0,0,1,103,725) translate(197.40123456790124 18.944444444444443)"/><use xlink:href="#h" transform="matrix(1,0,0,1,567,725) translate(44.26543209876543 18.944444444444443)"/><use xlink:href="#i" transform="matrix(1,0,0,1,567,725) translate(96.05555555555556 18.944444444444443)"/><use xlink:href="#j" transform="matrix(1,0,0,1,-115,763.6511627906978) translate(19.135802469135804 18.944444444444443)"/><use xlink:href="#k" transform="matrix(1,0,0,1,-115,763.6511627906978) translate(63.51851851851852 18.944444444444443)"/><use xlink:href="#l" transform="matrix(1,0,0,1,-10,763.6511627906978) translate(10.79012345679012 18.944444444444443)"/><use xlink:href="#m" transform="matrix(1,0,0,1,103,763.6511627906978) translate(118.97530864197532 18.944444444444443)"/><use xlink:href="#n" transform="matrix(1,0,0,1,103,763.6511627906978) translate(273.2962962962963 18.944444444444443)"/><use xlink:href="#o" transform="matrix(1,0,0,1,567,763.6511627906978) translate(31.85802469135802 18.944444444444443)"/><use xlink:href="#p" transform="matrix(1,0,0,1,-115,802.3023255813954) translate(17.901234567901234 20.944444444444443)"/><use xlink:href="#k" transform="matrix(1,0,0,1,-115,802.3023255813954) translate(64.75308641975309 20.944444444444443)"/><use xlink:href="#l" transform="matrix(1,0,0,1,-10,802.3023255813954) translate(10.79012345679012 20.944444444444443)"/><use xlink:href="#q" transform="matrix(1,0,0,1,103,802.3023255813954) translate(137.49382716049382 20.944444444444443)"/><use xlink:href="#r" transform="matrix(1,0,0,1,103,802.3023255813954) translate(254.77777777777777 20.944444444444443)"/><use xlink:href="#s" transform="matrix(1,0,0,1,567,802.3023255813954) translate(44.2037037037037 20.944444444444443)"/><path d="M993.1 1184.48L755.14 1067.8" stroke="#5e5e5e" stroke-width="2" fill="none"/><path d="M994 1183.83v2.17l-1.35-.66.86-1.75zM755.6 1066.94l-.87 1.75-.5-.25v-2.17z" stroke="#5e5e5e" stroke-width=".05" fill="#5e5e5e"/><path d="M995 1024.92a10 10 0 0 1 10-10h270a10 10 0 0 1 10 10v320a10 10 0 0 1-10 10h-270a10 10 0 0 1-10-10z" stroke="#000" stroke-width="2" fill="#fff"/><path d="M1140 1094.92c-16.56 0-30-13.44-30-30 0-16.56 13.44-30 30-30 16.56 0 30 13.44 30 30 0 16.56-13.44 30-30 30zm0-57.42c-15.18 0-27.42 12.24-27.42 27.42 0 15.18 12.24 27.42 27.42 27.42 15.18 0 27.42-12.24 27.42-27.42 0-15.18-12.24-27.42-27.42-27.42z" stroke="#fff" stroke-opacity="0" fill="#693cc5"/><path d="M1144.97 1048.9l-4.97-5.8-4.97 5.8-1.94-1.66 5.93-6.93c.46-.52 1.26-.58 1.8-.12l.14.13 5.94 6.94z" stroke="#fff" stroke-opacity="0" fill="#693cc5"/><path d="M1138.72 1042.1h2.56v45.63h-2.56v-45.64z" stroke="#fff" stroke-opacity="0" fill="#693cc5"/><path d="M1140 1089.96c-.36 0-.66-.12-.9-.37l-5.94-5.95 1.8-1.8 5.04 5.1 5.04-5.1 1.8 1.8-5.94 5.94c-.24.24-.54.36-.9.36zM1131.06 1071.76l-1.87-1.74 5.03-5.1-5.04-5.04 1.86-1.8 5.94 5.93c.5.5.5 1.3 0 1.82zM1149 1071.76l-5.94-5.94c-.5-.5-.5-1.3 0-1.8l5.94-5.95 1.8 1.8-5.03 5.05 5.04 5.1z" stroke="#fff" stroke-opacity="0" fill="#693cc5"/><path d="M1143.96 1063.64h21.8v2.55h-21.8v-2.56zM1114.25 1063.64h21.8v2.55h-21.8v-2.56z" stroke="#fff" stroke-opacity="0" fill="#693cc5"/><path d="M-120 1030.42h105v39.07h-105zM-15 1030.42H99v39.07H-15zM99 1030.42h463v39.07H99zM562 1030.42h190.74v39.07H562z" fill="#fcfcca"/><path d="M-120 1069.5h105v49h-105zM-15 1069.5H99v49H-15zM99 1069.5h463v49H99zM562 1069.5h190.74v49H562z" fill="#fff"/><path d="M-120 1030.42v39.07M-120 1030.42h105M-15 1030.42v39.07M-15 1030.42H99M99 1030.42v39.07M99 1030.42h463M562 1030.42v39.07M752.74 1030.42v39.07M562 1030.42h190.74M-120 1069.5v49M-120 1069.5h105M-120 1118.5h105M-15 1069.5v49M-15 1069.5H99M-15 1118.5H99M99 1069.5v49M99 1069.5h463M99 1118.5h463M562 1069.5v49M752.74 1069.5v49M562 1069.5h190.74M562 1118.5h190.74" stroke="#5e5e5e" stroke-width="3" fill="none"/><use xlink:href="#e" transform="matrix(1,0,0,1,-114.99999999999977,1035.416666666667) translate(24.074074074074076 19.444444444444443)"/><use xlink:href="#f" transform="matrix(1,0,0,1,-9.999999999999773,1035.416666666667) translate(16.845679012345677 19.444444444444443)"/><use xlink:href="#g" transform="matrix(1,0,0,1,104.00000000000023,1035.416666666667) translate(196.90123456790124 19.444444444444443)"/><use xlink:href="#h" transform="matrix(1,0,0,1,567.0000000000002,1035.416666666667) translate(44.26543209876543 19.444444444444443)"/><use xlink:href="#i" transform="matrix(1,0,0,1,567.0000000000002,1035.416666666667) translate(96.05555555555556 19.444444444444443)"/><use xlink:href="#t" transform="matrix(1,0,0,1,-114.99999999999977,1074.4864341085274) translate(15.432098765432102 23.944444444444443)"/><use xlink:href="#k" transform="matrix(1,0,0,1,-114.99999999999977,1074.4864341085274) translate(67.22222222222223 23.944444444444443)"/><use xlink:href="#l" transform="matrix(1,0,0,1,-9.999999999999773,1074.4864341085274) translate(11.29012345679012 23.944444444444443)"/><use xlink:href="#q" transform="matrix(1,0,0,1,104.00000000000023,1074.4864341085274) translate(136.99382716049382 23.944444444444443)"/><use xlink:href="#u" transform="matrix(1,0,0,1,104.00000000000023,1074.4864341085274) translate(254.27777777777777 23.944444444444443)"/><use xlink:href="#v" transform="matrix(1,0,0,1,567.0000000000002,1074.4864341085274) translate(44.2037037037037 23.944444444444443)"/><path d="M990 1120.92a6 6 0 0 1 6-6h288a6 6 0 0 1 6 6v48a6 6 0 0 1-6 6H996a6 6 0 0 1-6-6z" fill="none"/><use xlink:href="#j" transform="matrix(1,0,0,1,990,1114.916666666667) translate(121.6358024691358 17.77777777777778)"/><use xlink:href="#b" transform="matrix(1,0,0,1,990,1114.916666666667) translate(166.0185185185185 17.77777777777778)"/><use xlink:href="#c" transform="matrix(1,0,0,1,990,1114.916666666667) translate(74.69135802469135 44.44444444444444)"/><use xlink:href="#w" transform="matrix(1,0,0,1,990,1114.916666666667) translate(108.02469135802468 44.44444444444444)"/><use xlink:href="#x" transform="matrix(1,0,0,1,990,1114.916666666667) translate(42.68518518518519 71.11111111111111)"/><use xlink:href="#y" transform="matrix(1,0,0,1,990,1114.916666666667) translate(109.16666666666667 71.11111111111111)"/><use xlink:href="#z" transform="matrix(1,0,0,1,990,1114.916666666667) translate(90.15432098765433 97.77777777777777)"/><use xlink:href="#A" transform="matrix(1,0,0,1,990,1114.916666666667) translate(148.1172839506173 97.77777777777777)"/><use xlink:href="#B" transform="matrix(1,0,0,1,990,1114.916666666667) translate(13.641975308641975 124.44444444444446)"/><use xlink:href="#C" transform="matrix(1,0,0,1,990,1114.916666666667) translate(28.456790123456788 124.44444444444446)"/><use xlink:href="#D" transform="matrix(1,0,0,1,990,1114.916666666667) translate(138.20987654320987 124.44444444444446)"/><use xlink:href="#E" transform="matrix(1,0,0,1,990,1114.916666666667) translate(117.9320987654321 151.11111111111111)"/><use xlink:href="#k" transform="matrix(1,0,0,1,990,1114.916666666667) translate(169.72222222222223 151.11111111111111)"/><path d="M1058 799.93l-302.76-21.36" stroke="#5e5e5e" stroke-width="2" fill="none"/><path d="M1059 799.02v1.96l-1.1-.08.15-1.94zM755.33 777.6l-.14 1.94-.96-.06v-1.96z" stroke="#5e5e5e" stroke-width=".05" fill="#5e5e5e"/><path d="M950 298.43a10 10 0 0 1 10-10h360a10 10 0 0 1 10 10v320a10 10 0 0 1-10 10H960a10 10 0 0 1-10-10z" stroke="#000" stroke-width="2" fill="#fff"/><use xlink:href="#F" transform="matrix(1,0,0,1,955,293.4320416666718) translate(185 156.99652777777777)"/><use xlink:href="#G" transform="matrix(1,0,0,1,955,293.4320416666718) translate(185 183.66319444444443)"/><path d="M-120 496.78h105v38.65h-105zM-15 496.78H98v38.65H-15zM98 496.78h464v38.65H98zM562 496.78h190.74v38.65H562z" fill="#fcfcca"/><path d="M-120 535.43h105v38.65h-105zM-15 535.43H98v38.65H-15zM98 535.43h464v38.65H98zM562 535.43h190.74v38.65H562zM-120 574.08h105v43h-105zM-15 574.08H98v43H-15zM98 574.08h464v43H98zM562 574.08h190.74v43H562z" fill="#fff"/><path d="M-120 496.78v38.65M-120 496.78h105M-15 496.78v38.65M-15 496.78H98M98 496.78v38.65M98 496.78h464M562 496.78v38.65M752.74 496.78v38.65M562 496.78h190.74M-120 535.43v38.65M-120 535.43h105M-15 535.43v38.65M-15 535.43H98M98 535.43v38.65M98 535.43h464M562 535.43v38.65M752.74 535.43v38.65M562 535.43h190.74M-120 574.08v43M-120 574.08h105M-120 617.08h105M-15 574.08v43M-15 574.08H98M-15 617.08H98M98 574.08v43M98 574.08h464M98 617.08h464M562 574.08v43M752.74 574.08v43M562 574.08h190.74M562 617.08h190.74" stroke="#5e5e5e" stroke-width="3" fill="none"/><use xlink:href="#e" transform="matrix(1,0,0,1,-114.99999999999994,501.7808788759742) translate(24.074074074074076 18.944444444444443)"/><use xlink:href="#f" transform="matrix(1,0,0,1,-9.999999999999943,501.7808788759742) translate(16.345679012345677 18.944444444444443)"/><use xlink:href="#g" transform="matrix(1,0,0,1,103.00000000000006,501.7808788759742) translate(197.40123456790124 18.944444444444443)"/><use xlink:href="#h" transform="matrix(1,0,0,1,567,501.7808788759742) translate(44.26543209876543 18.944444444444443)"/><use xlink:href="#i" transform="matrix(1,0,0,1,567,501.7808788759742) translate(96.05555555555556 18.944444444444443)"/><use xlink:href="#t" transform="matrix(1,0,0,1,-114.99999999999994,540.4320416666719) translate(15.432098765432102 18.944444444444443)"/><use xlink:href="#k" transform="matrix(1,0,0,1,-114.99999999999994,540.4320416666719) translate(67.22222222222223 18.944444444444443)"/><use xlink:href="#l" transform="matrix(1,0,0,1,-9.999999999999943,540.4320416666719) translate(10.79012345679012 18.944444444444443)"/><use xlink:href="#m" transform="matrix(1,0,0,1,103.00000000000006,540.4320416666719) translate(85.02469135802468 18.944444444444443)"/><use xlink:href="#H" transform="matrix(1,0,0,1,103.00000000000006,540.4320416666719) translate(239.34567901234567 18.944444444444443)"/><use xlink:href="#n" transform="matrix(1,0,0,1,103.00000000000006,540.4320416666719) translate(307.2469135802469 18.944444444444443)"/><use xlink:href="#v" transform="matrix(1,0,0,1,567,540.4320416666719) translate(44.2037037037037 18.944444444444443)"/><use xlink:href="#I" transform="matrix(1,0,0,1,-114.99999999999994,579.0832044573697) translate(6.851851851851855 20.944444444444443)"/><use xlink:href="#l" transform="matrix(1,0,0,1,-9.999999999999943,579.0832044573697) translate(10.79012345679012 20.944444444444443)"/><use xlink:href="#J" transform="matrix(1,0,0,1,103.00000000000006,579.0832044573697) translate(171.44444444444446 20.944444444444443)"/><path d="M1140 630.43V738" stroke="#5e5e5e" stroke-width="2" fill="none"/><path d="M1140.97 630.46h-1.94v-1.03h1.94zM1140.97 739h-1.94v-1.03h1.94z" stroke="#5e5e5e" stroke-width=".05" fill="#5e5e5e"/><path d="M-120 233.5H-7v38.67h-113zM-7 233.5h196v38.67H-7zM189 233.5h268v38.67H189zM457 233.5h170v38.67H457z" fill="#fcfcca"/><path d="M-120 272.17H-7v37h-113zM-7 272.17h196v37H-7zM189 272.17h268v37H189zM457 272.17h170v37H457zM-120 309.17H-7v43h-113zM-7 309.17h196v43H-7zM189 309.17h268v43H189zM457 309.17h170v43H457zM-120 352.17H-7v43h-113zM-7 352.17h196v43H-7zM189 352.17h268v43H189zM457 352.17h170v43H457z" fill="#fff"/><path d="M-120 233.5v38.67M-120 233.5H-7M-7 233.5v38.67M-7 233.5h196M189 233.5v38.67M189 233.5h268M457 233.5v38.67M627 233.5v38.67M457 233.5h170M-120 272.17v37M-120 272.17H-7M-7 272.17v37M-7 272.17h196M189 272.17v37M189 272.17h268M457 272.17v37M627 272.17v37M457 272.17h170M-120 309.17v43M-120 309.17H-7M-7 309.17v43M-7 309.17h196M189 309.17v43M189 309.17h268M457 309.17v43M627 309.17v43M457 309.17h170M-120 352.17v43M-120 352.17H-7M-120 395.17H-7M-7 352.17v43M-7 352.17h196M-7 395.17h196M189 352.17v43M189 352.17h268M189 395.17h268M457 352.17v43M627 352.17v43M457 352.17h170M457 395.17h170" stroke="#5e5e5e" stroke-width="3" fill="none"/><use xlink:href="#f" transform="matrix(1,0,0,1,-115,238.51537500000515) translate(16.345679012345677 18.944444444444443)"/><use xlink:href="#g" transform="matrix(1,0,0,1,-2,238.51537500000515) translate(63.401234567901234 18.944444444444443)"/><use xlink:href="#h" transform="matrix(1,0,0,1,194,238.51537500000515) translate(55.6358024691358 18.944444444444443)"/><use xlink:href="#K" transform="matrix(1,0,0,1,194,238.51537500000515) translate(107.42592592592592 18.944444444444443)"/><use xlink:href="#L" transform="matrix(1,0,0,1,194,238.51537500000515) translate(154.27777777777777 18.944444444444443)"/><use xlink:href="#h" transform="matrix(1,0,0,1,462,238.51537500000515) translate(20.18518518518519 18.944444444444443)"/><use xlink:href="#K" transform="matrix(1,0,0,1,462,238.51537500000515) translate(71.97530864197532 18.944444444444443)"/><use xlink:href="#M" transform="matrix(1,0,0,1,462,238.51537500000515) translate(118.82716049382717 18.944444444444443)"/><use xlink:href="#l" transform="matrix(1,0,0,1,-115,277.1665377907028) translate(10.79012345679012 17.944444444444443)"/><use xlink:href="#N" transform="matrix(1,0,0,1,-2,277.1665377907028) translate(18.925925925925924 17.944444444444443)"/><use xlink:href="#O" transform="matrix(1,0,0,1,194,277.1665377907028) translate(7.209876543209873 17.944444444444443)"/><use xlink:href="#P" transform="matrix(1,0,0,1,194,277.1665377907028) translate(75.72839506172839 17.944444444444443)"/><use xlink:href="#Q" transform="matrix(1,0,0,1,194,277.1665377907028) translate(163.19753086419752 17.944444444444443)"/><use xlink:href="#v" transform="matrix(1,0,0,1,462,277.1665377907028) translate(33.7037037037037 17.944444444444443)"/><g><use xlink:href="#R" transform="matrix(1,0,0,1,-115,314.1665377907028) translate(14.49382716049383 20.944444444444443)"/></g><g><use xlink:href="#J" transform="matrix(1,0,0,1,-2,314.1665377907028) translate(37.44444444444444 20.944444444444443)"/></g><g><use xlink:href="#O" transform="matrix(1,0,0,1,194,314.1665377907028) translate(54.092592592592595 20.944444444444443)"/><use xlink:href="#S" transform="matrix(1,0,0,1,194,314.1665377907028) translate(122.61111111111111 20.944444444444443)"/></g><g><use xlink:href="#R" transform="matrix(1,0,0,1,-115,357.1665377907028) translate(14.49382716049383 20.944444444444443)"/></g><g><use xlink:href="#T" transform="matrix(1,0,0,1,-2,357.1665377907028) translate(49.79012345679012 20.944444444444443)"/></g><g><use xlink:href="#U" transform="matrix(1,0,0,1,194,357.1665377907028) translate(91.37654320987654 20.944444444444443)"/></g><path d="M820 503.7a10 10 0 0 1 10-10h360a10 10 0 0 1 10 10v79.81a10 10 0 0 1-10 10H830a10 10 0 0 1-10-10z" stroke="#000" stroke-width="2" fill="#fff"/><path d="M859.43 543.5l-104.2-12.1" stroke="#5e5e5e" stroke-width="2" fill="none"/><path d="M861.14 542.72l-.37.27.03.02-.07.03v.02l-.13.06-.5 1.36-.03.05-.78-.08.22-1.94zM755.37 530.43l-.23 1.94-.9-.1v-1.97z" stroke="#5e5e5e" stroke-width=".05" fill="#5e5e5e"/><path d="M897.88 542.4h-2.96v-10.2c.05-5.03-1.4-9.3-4.4-13-2.8-3.73-6.46-5.6-10.78-5.6-4.36-.05-8.07 1.87-10.9 5.6-3 3.65-4.44 7.97-4.4 13v10.2h-2.4c-1.12.07-2.04 1.1-2.04 2.35v26.58c0 1.26.92 2.28 2.04 2.28h35.84c1.12 0 2.04-1 2.08-2.27v-26.58c-.04-1.32-.96-2.28-2.08-2.34zm-9.95 0h-16.38v-10.37c0-2.76.88-5.16 2.56-7.14 1.44-1.87 3.36-2.9 5.56-2.9 2.2 0 4.12 1.03 5.56 2.9.4.47.67.9.95 1.43 1.16 1.68 1.72 3.48 1.8 5.64z" stroke="#000" stroke-opacity="0" fill="url(#V)"/><path d="M897.97 542.4h-35.9c-.52 0-.95.2-1.3.6l38.5 29.9c.46-.43.74-1.04.74-1.74v-26.58c-.07-1.22-.93-2.13-2.03-2.17z" stroke="#000" stroke-opacity="0" fill="#50e6ff"/><path d="M862.14 542.4H898c.5 0 .95.2 1.34.6l-38.54 29.9c-.47-.46-.74-1.04-.74-1.74v-26.58c.12-1.22.98-2.13 2.08-2.17z" stroke="#000" stroke-opacity="0" fill="#fff" fill-opacity=".2"/><path d="M876.46 548.86l3.53-4c.08-.07.17-.07.26 0l3.5 4c.1.05.1.18.06.26-.03.03-.03.06-.06.08h-2.05c-.1 0-.17.08-.17.2v5.1c0 .12-.1.2-.18.2h-2.33c-.1.02-.15-.03-.18-.1V549.4c-.03-.12-.1-.22-.2-.2h-2.06c-.1-.02-.2-.1-.2-.23 0-.03.04-.08.08-.1zm7.27 18.2l-3.5 3.96c-.06.1-.18.1-.24.02-.04 0-.04 0-.04-.02l-3.5-3.95c-.1-.05-.13-.18-.07-.3.02 0 .02 0 .06-.04h2.05c.13 0 .22-.08.22-.18v-5.15c0-.13.1-.2.18-.2h2.18c.1 0 .18.07.18.2v5.15c0 .1.1.18.18.18h2.05c.08-.08.2-.05.26.05.06.08.06.22-.03.3zm-13.86-5.14v-2.34c0-.1-.1-.18-.18-.18h-4.45c-.12 0-.18-.1-.18-.2v-2.38c-.06-.08-.03-.2.06-.26.03-.02.06-.02.12-.02h4.44c.08 0 .17-.08.17-.2V554c0-.12.12-.22.24-.2.04 0 .07.03.1.06l3.5 3.96c.07.08.07.2 0 .27l-3.5 3.98c-.1.08-.24.05-.3-.05l-.03-.1zm20.45-7.9v2.3c0 .14.1.2.18.2h4.53s.2 0 .2.23v2.44c0 .12-.08.2-.2.2h-4.53c-.1 0-.18.08-.18.18v2.34c0 .1-.06.2-.15.2-.06 0-.12 0-.15-.04l-3.5-4 3.5-4.23s.3-.05.3.16z" stroke="#000" stroke-opacity="0" fill="#fff"/><path d="M952.74 519.6a6 6 0 0 1 6-6h228a6 6 0 0 1 6 6v48a6 6 0 0 1-6 6h-228a6 6 0 0 1-6-6z" fill="none"/><g><use xlink:href="#W" transform="matrix(1,0,0,1,952.7379417648367,513.6143333333384) translate(75.55555555555556 17.77777777777778)"/><use xlink:href="#X" transform="matrix(1,0,0,1,952.7379417648367,513.6143333333384) translate(152.09876543209876 17.77777777777778)"/><use xlink:href="#Y" transform="matrix(1,0,0,1,952.7379417648367,513.6143333333384) translate(31.203703703703695 44.44444444444444)"/><use xlink:href="#Z" transform="matrix(1,0,0,1,952.7379417648367,513.6143333333384) translate(97.68518518518518 44.44444444444444)"/><use xlink:href="#aa" transform="matrix(1,0,0,1,952.7379417648367,513.6143333333384) translate(10.15432098765433 71.11111111111111)"/><use xlink:href="#ab" transform="matrix(1,0,0,1,952.7379417648367,513.6143333333384) translate(103.91975308641976 71.11111111111111)"/><use xlink:href="#ac" transform="matrix(1,0,0,1,952.7379417648367,513.6143333333384) translate(137.2530864197531 71.11111111111111)"/></g><path d="M820 363.5a10 10 0 0 1 10-10h360a10 10 0 0 1 10 10v79.82a10 10 0 0 1-10 10H830a10 10 0 0 1-10-10z" stroke="#000" stroke-width="2" fill="#fff"/><path d="M851.98 373.42h56.04c1.32 0 1.98.87 1.98 2.56v46.13c0 1.7-.66 2.58-1.98 2.58h-56.04c-1.32 0-1.98-.87-1.98-2.56v-46.14c0-1.7.66-2.56 1.98-2.56z" stroke="#000" stroke-opacity="0" fill="url(#ad)"/><path d="M890.02 391.6v14.9L880 414.04v-14.97l10.02-7.47z" stroke="#000" stroke-opacity="0" fill="#50e6ff"/><path d="M889.96 391.54l-10 7.5-9.98-7.5 10-7.47 9.98 7.47z" stroke="#000" stroke-opacity="0" fill="#c3f1ff"/><path d="M880 399.1v14.93l-10.02-7.52v-14.9l10.02 7.5z" stroke="#000" stroke-opacity="0" fill="#9cebff"/><path d="M869.98 406.46l10.02-7.4v14.9l-10.02-7.5z" stroke="#000" stroke-opacity="0" fill="#c3f1ff"/><path d="M890.02 406.46l-10.02-7.4v14.9l10.02-7.5z" stroke="#000" stroke-opacity="0" fill="#9cebff"/><path d="M892.03 440.15c-5.94-1.18-6.15-6.65-6.15-15.47h-11.8c0 8.82-.17 14.3-6.1 15.47-1.72.24-2.98 2.08-2.98 4.27h30c0-2.2-1.26-4.03-2.97-4.27z" stroke="#000" stroke-opacity="0" fill="url(#ae)"/><path d="M940 379.42a6 6 0 0 1 6-6h228a6 6 0 0 1 6 6v48a6 6 0 0 1-6 6H946a6 6 0 0 1-6-6z" fill="none"/><g><use xlink:href="#W" transform="matrix(1,0,0,1,940,373.4164166666718) translate(75.55555555555556 17.77777777777778)"/><use xlink:href="#af" transform="matrix(1,0,0,1,940,373.4164166666718) translate(152.09876543209876 17.77777777777778)"/><use xlink:href="#Y" transform="matrix(1,0,0,1,940,373.4164166666718) translate(31.203703703703695 44.44444444444444)"/><use xlink:href="#ag" transform="matrix(1,0,0,1,940,373.4164166666718) translate(97.68518518518518 44.44444444444444)"/><use xlink:href="#ah" transform="matrix(1,0,0,1,940,373.4164166666718) translate(31.141975308641975 71.11111111111111)"/><use xlink:href="#ai" transform="matrix(1,0,0,1,940,373.4164166666718) translate(70.58641975308642 71.11111111111111)"/><use xlink:href="#aj" transform="matrix(1,0,0,1,940,373.4164166666718) translate(103.91975308641975 71.11111111111111)"/></g><path d="M849.06 408.56L629.44 325.6" stroke="#5e5e5e" stroke-width="2" fill="none"/><path d="M850 407.87v2.1l-1.3-.5.68-1.83zM629.8 324.7l-.68 1.83-.62-.23v-2.08z" stroke="#5e5e5e" stroke-width=".05" fill="#5e5e5e"/><path d="M1040 299.12a6 6 0 0 1 6-6h228a6 6 0 0 1 6 6v48a6 6 0 0 1-6 6h-228a6 6 0 0 1-6-6z" fill="none"/><g><use xlink:href="#ak" transform="matrix(1,0,0,1,1040,293.11954166667186) translate(86.08024691358025 21.111111111111114)"/><use xlink:href="#b" transform="matrix(1,0,0,1,1040,293.11954166667186) translate(141.57407407407408 21.111111111111114)"/><use xlink:href="#x" transform="matrix(1,0,0,1,1040,293.11954166667186) translate(31.203703703703695 47.777777777777786)"/><use xlink:href="#al" transform="matrix(1,0,0,1,1040,293.11954166667186) translate(97.68518518518518 47.777777777777786)"/></g><path d="M1084.22 210a10 10 0 0 1 10-10h91.56a10 10 0 0 1 10 10v40a10 10 0 0 1-10 10h-91.56a10 10 0 0 1-10-10z" stroke="#000" stroke-width="2" fill="#ffd9d9"/><g><use xlink:href="#am" transform="matrix(1,0,0,1,1089.2201229902942,205) translate(6.617283950617285 30.27777777777778)"/><use xlink:href="#an" transform="matrix(1,0,0,1,1089.2201229902942,205) translate(83.03703703703704 30.27777777777778)"/></g><defs><path d="M30 0v-248h187v28H63v79h144v27H63v87h162V0H30" id="ao"/><path d="M141 0L90-78 38 0H4l68-98-65-92h35l48 74 47-74h35l-64 92 68 98h-35" id="ap"/><path d="M115-194c55 1 70 41 70 98S169 2 115 4C84 4 66-9 55-30l1 105H24l-1-265h31l2 30c10-21 28-34 59-34zm-8 174c40 0 45-34 45-75s-6-73-45-74c-42 0-51 32-51 76 0 43 10 73 51 73" id="aq"/><path d="M114-163C36-179 61-72 57 0H25l-1-190h30c1 12-1 29 2 39 6-27 23-49 58-41v29" id="ar"/><path d="M100-194c63 0 86 42 84 106H49c0 40 14 67 53 68 26 1 43-12 49-29l28 8c-11 28-37 45-77 45C44 4 14-33 15-96c1-61 26-98 85-98zm52 81c6-60-76-77-97-28-3 7-6 17-6 28h103" id="as"/><path d="M135-143c-3-34-86-38-87 0 15 53 115 12 119 90S17 21 10-45l28-5c4 36 97 45 98 0-10-56-113-15-118-90-4-57 82-63 122-42 12 7 21 19 24 35" id="at"/><path d="M233-177c-1 41-23 64-60 70L243 0h-38l-65-103H63V0H30v-248c88 3 205-21 203 71zM63-129c60-2 137 13 137-47 0-61-80-42-137-45v92" id="au"/><path d="M100-194c62-1 85 37 85 99 1 63-27 99-86 99S16-35 15-95c0-66 28-99 85-99zM99-20c44 1 53-31 53-75 0-43-8-75-51-75s-53 32-53 75 10 74 51 75" id="av"/><path d="M84 4C-5 8 30-112 23-190h32v120c0 31 7 50 39 49 72-2 45-101 50-169h31l1 190h-30c-1-10 1-25-2-33-11 22-28 36-60 37" id="aw"/><path d="M59-47c-2 24 18 29 38 22v24C64 9 27 4 27-40v-127H5v-23h24l9-43h21v43h35v23H59v120" id="ax"/><g id="a"><use transform="matrix(0.06172839506172839,0,0,0.06172839506172839,0,0)" xlink:href="#ao"/><use transform="matrix(0.06172839506172839,0,0,0.06172839506172839,14.814814814814813,0)" xlink:href="#ap"/><use transform="matrix(0.06172839506172839,0,0,0.06172839506172839,25.925925925925924,0)" xlink:href="#aq"/><use transform="matrix(0.06172839506172839,0,0,0.06172839506172839,38.2716049382716,0)" xlink:href="#ar"/><use transform="matrix(0.06172839506172839,0,0,0.06172839506172839,45.61728395061728,0)" xlink:href="#as"/><use transform="matrix(0.06172839506172839,0,0,0.06172839506172839,57.962962962962955,0)" xlink:href="#at"/><use transform="matrix(0.06172839506172839,0,0,0.06172839506172839,69.07407407407406,0)" xlink:href="#at"/><use transform="matrix(0.06172839506172839,0,0,0.06172839506172839,80.18518518518518,0)" xlink:href="#au"/><use transform="matrix(0.06172839506172839,0,0,0.06172839506172839,96.17283950617283,0)" xlink:href="#av"/><use transform="matrix(0.06172839506172839,0,0,0.06172839506172839,108.51851851851852,0)" xlink:href="#aw"/><use transform="matrix(0.06172839506172839,0,0,0.06172839506172839,120.8641975308642,0)" xlink:href="#ax"/><use transform="matrix(0.06172839506172839,0,0,0.06172839506172839,127.03703703703702,0)" xlink:href="#as"/></g><path d="M27 0v-27h64v-190l-56 39v-29l58-41h29v221h61V0H27" id="ay"/><use transform="matrix(0.06172839506172839,0,0,0.06172839506172839,0,0)" xlink:href="#ay" id="b"/><path d="M33 0v-248h34V0H33" id="az"/><path d="M30-248c87 1 191-15 191 75 0 78-77 80-158 76V0H30v-248zm33 125c57 0 124 11 124-50 0-59-68-47-124-48v98" id="aA"/><path d="M33-154v-36h34v36H33zM33 0v-36h34V0H33" id="aB"/><g id="c"><use transform="matrix(0.06172839506172839,0,0,0.06172839506172839,0,0)" xlink:href="#az"/><use transform="matrix(0.06172839506172839,0,0,0.06172839506172839,6.172839506172839,0)" xlink:href="#aA"/><use transform="matrix(0.06172839506172839,0,0,0.06172839506172839,20.98765432098765,0)" xlink:href="#aB"/></g><path d="M101-251c68 0 85 55 85 127S166 4 100 4C33 4 14-52 14-124c0-73 17-127 87-127zm-1 229c47 0 54-49 54-102s-4-102-53-102c-51 0-55 48-55 102 0 53 5 102 54 102" id="aC"/><path d="M33 0v-38h34V0H33" id="aD"/><path d="M101-251c82-7 93 87 43 132L82-64C71-53 59-42 53-27h129V0H18c2-99 128-94 128-182 0-28-16-43-45-43s-46 15-49 41l-32-3c6-41 34-60 81-64" id="aE"/><path d="M126-127c33 6 58 20 58 59 0 88-139 92-164 29-3-8-5-16-6-25l32-3c6 27 21 44 54 44 32 0 52-15 52-46 0-38-36-46-79-43v-28c39 1 72-4 72-42 0-27-17-43-46-43-28 0-47 15-49 41l-32-3c6-42 35-63 81-64 48-1 79 21 79 65 0 36-21 52-52 59" id="aF"/><g id="d"><use transform="matrix(0.06172839506172839,0,0,0.06172839506172839,0,0)" xlink:href="#ay"/><use transform="matrix(0.06172839506172839,0,0,0.06172839506172839,12.345679012345679,0)" xlink:href="#aC"/><use transform="matrix(0.06172839506172839,0,0,0.06172839506172839,24.691358024691358,0)" xlink:href="#aD"/><use transform="matrix(0.06172839506172839,0,0,0.06172839506172839,30.864197530864196,0)" xlink:href="#aC"/><use transform="matrix(0.06172839506172839,0,0,0.06172839506172839,43.20987654320987,0)" xlink:href="#aD"/><use transform="matrix(0.06172839506172839,0,0,0.06172839506172839,49.382716049382715,0)" xlink:href="#aC"/><use transform="matrix(0.06172839506172839,0,0,0.06172839506172839,61.72839506172839,0)" xlink:href="#aD"/><use transform="matrix(0.06172839506172839,0,0,0.06172839506172839,67.90123456790123,0)" xlink:href="#aE"/><use transform="matrix(0.06172839506172839,0,0,0.06172839506172839,80.24691358024691,0)" xlink:href="#aF"/></g><g id="e"><use transform="matrix(0.06172839506172839,0,0,0.06172839506172839,0,0)" xlink:href="#aA"/><use transform="matrix(0.06172839506172839,0,0,0.06172839506172839,14.814814814814813,0)" xlink:href="#as"/><use transform="matrix(0.06172839506172839,0,0,0.06172839506172839,27.160493827160494,0)" xlink:href="#as"/><use transform="matrix(0.06172839506172839,0,0,0.06172839506172839,39.50617283950617,0)" xlink:href="#ar"/></g><path d="M185-189c-5-48-123-54-124 2 14 75 158 14 163 119 3 78-121 87-175 55-17-10-28-26-33-46l33-7c5 56 141 63 141-1 0-78-155-14-162-118-5-82 145-84 179-34 5 7 8 16 11 25" id="aG"/><path d="M96-169c-40 0-48 33-48 73s9 75 48 75c24 0 41-14 43-38l32 2c-6 37-31 61-74 61-59 0-76-41-82-99-10-93 101-131 147-64 4 7 5 14 7 22l-32 3c-4-21-16-35-41-35" id="aH"/><g id="f"><use transform="matrix(0.06172839506172839,0,0,0.06172839506172839,0,0)" xlink:href="#aG"/><use transform="matrix(0.06172839506172839,0,0,0.06172839506172839,14.814814814814813,0)" xlink:href="#av"/><use transform="matrix(0.06172839506172839,0,0,0.06172839506172839,27.160493827160494,0)" xlink:href="#aw"/><use transform="matrix(0.06172839506172839,0,0,0.06172839506172839,39.50617283950617,0)" xlink:href="#ar"/><use transform="matrix(0.06172839506172839,0,0,0.06172839506172839,46.85185185185185,0)" xlink:href="#aH"/><use transform="matrix(0.06172839506172839,0,0,0.06172839506172839,57.96296296296296,0)" xlink:href="#as"/></g><g id="g"><use transform="matrix(0.06172839506172839,0,0,0.06172839506172839,0,0)" xlink:href="#au"/><use transform="matrix(0.06172839506172839,0,0,0.06172839506172839,15.987654320987653,0)" xlink:href="#av"/><use transform="matrix(0.06172839506172839,0,0,0.06172839506172839,28.333333333333332,0)" xlink:href="#aw"/><use transform="matrix(0.06172839506172839,0,0,0.06172839506172839,40.67901234567901,0)" xlink:href="#ax"/><use transform="matrix(0.06172839506172839,0,0,0.06172839506172839,46.851851851851855,0)" xlink:href="#as"/></g><path d="M190 0L58-211 59 0H30v-248h39L202-35l-2-213h31V0h-41" id="aI"/><g id="h"><use transform="matrix(0.06172839506172839,0,0,0.06172839506172839,0,0)" xlink:href="#aI"/><use transform="matrix(0.06172839506172839,0,0,0.06172839506172839,15.987654320987653,0)" xlink:href="#as"/><use transform="matrix(0.06172839506172839,0,0,0.06172839506172839,28.333333333333332,0)" xlink:href="#ap"/><use transform="matrix(0.06172839506172839,0,0,0.06172839506172839,39.44444444444444,0)" xlink:href="#ax"/></g><path d="M197 0v-115H63V0H30v-248h33v105h134v-105h34V0h-34" id="aJ"/><g id="i"><use transform="matrix(0.06172839506172839,0,0,0.06172839506172839,0,0)" xlink:href="#aJ"/><use transform="matrix(0.06172839506172839,0,0,0.06172839506172839,15.987654320987653,0)" xlink:href="#av"/><use transform="matrix(0.06172839506172839,0,0,0.06172839506172839,28.333333333333332,0)" xlink:href="#aq"/></g><path d="M24-231v-30h32v30H24zM24 0v-190h32V0H24" id="aK"/><g id="j"><use transform="matrix(0.06172839506172839,0,0,0.06172839506172839,0,0)" xlink:href="#aG"/><use transform="matrix(0.06172839506172839,0,0,0.06172839506172839,14.814814814814813,0)" xlink:href="#aK"/><use transform="matrix(0.06172839506172839,0,0,0.06172839506172839,19.691358024691354,0)" xlink:href="#ax"/><use transform="matrix(0.06172839506172839,0,0,0.06172839506172839,25.864197530864192,0)" xlink:href="#as"/></g><use transform="matrix(0.06172839506172839,0,0,0.06172839506172839,0,0)" xlink:href="#ay" id="k"/><path d="M30 0v-248h33v221h125V0H30" id="aL"/><path d="M141-36C126-15 110 5 73 4 37 3 15-17 15-53c-1-64 63-63 125-63 3-35-9-54-41-54-24 1-41 7-42 31l-33-3c5-37 33-52 76-52 45 0 72 20 72 64v82c-1 20 7 32 28 27v20c-31 9-61-2-59-35zM48-53c0 20 12 33 32 33 41-3 63-29 60-74-43 2-92-5-92 41" id="aM"/><path d="M117-194c89-4 53 116 60 194h-32v-121c0-31-8-49-39-48C34-167 62-67 57 0H25l-1-190h30c1 10-1 24 2 32 11-22 29-35 61-36" id="aN"/><path d="M85-194c31 0 48 13 60 33l-1-100h32l1 261h-30c-2-10 0-23-3-31C134-8 116 4 85 4 32 4 16-35 15-94c0-66 23-100 70-100zm9 24c-40 0-46 34-46 75 0 40 6 74 45 74 42 0 51-32 51-76 0-42-9-74-50-73" id="aO"/><g id="l"><use transform="matrix(0.06172839506172839,0,0,0.06172839506172839,0,0)" xlink:href="#aL"/><use transform="matrix(0.06172839506172839,0,0,0.06172839506172839,12.345679012345679,0)" xlink:href="#as"/><use transform="matrix(0.06172839506172839,0,0,0.06172839506172839,24.691358024691358,0)" xlink:href="#aM"/><use transform="matrix(0.06172839506172839,0,0,0.06172839506172839,37.03703703703704,0)" xlink:href="#ar"/><use transform="matrix(0.06172839506172839,0,0,0.06172839506172839,44.382716049382715,0)" xlink:href="#aN"/><use transform="matrix(0.06172839506172839,0,0,0.06172839506172839,56.72839506172839,0)" xlink:href="#as"/><use transform="matrix(0.06172839506172839,0,0,0.06172839506172839,69.07407407407408,0)" xlink:href="#aO"/></g><path d="M99-251c64 0 84 50 84 122C183-37 130 33 47-8c-14-7-20-23-25-40l30-5c6 39 69 39 84 7 9-19 16-44 16-74-10 22-31 35-62 35-49 0-73-33-73-83 0-54 28-83 82-83zm-1 141c31-1 51-18 51-49 0-36-14-67-51-67-34 0-49 23-49 58 0 34 15 58 49 58" id="aP"/><path d="M110-160c48 1 74 30 74 79 0 53-28 85-80 85-65 0-83-55-86-122-5-90 50-162 133-122 14 7 22 21 27 39l-31 6c-5-40-67-38-82-6-9 19-15 44-15 74 11-20 30-34 60-33zm-7 138c34 0 49-23 49-58s-16-56-50-56c-29 0-50 16-49 49 1 36 15 65 50 65" id="aQ"/><path d="M134-131c28 9 52 24 51 62-1 50-34 73-85 73S17-19 16-69c0-36 21-54 49-61-75-25-45-126 34-121 46 3 78 18 79 63 0 33-17 51-44 57zm-34-11c31 1 46-15 46-44 0-28-17-43-47-42-29 0-46 13-45 42 1 28 16 44 46 44zm1 122c35 0 51-18 51-52 0-30-18-46-53-46-33 0-51 17-51 47 0 34 19 51 53 51" id="aR"/><path d="M0 4l72-265h28L28 4H0" id="aS"/><path d="M155-56V0h-30v-56H8v-25l114-167h33v167h35v25h-35zm-30-156c-27 46-58 90-88 131h88v-131" id="aT"/><g id="m"><use transform="matrix(0.06172839506172839,0,0,0.06172839506172839,0,0)" xlink:href="#ay"/><use transform="matrix(0.06172839506172839,0,0,0.06172839506172839,12.345679012345679,0)" xlink:href="#aP"/><use transform="matrix(0.06172839506172839,0,0,0.06172839506172839,24.691358024691358,0)" xlink:href="#aE"/><use transform="matrix(0.06172839506172839,0,0,0.06172839506172839,37.03703703703704,0)" xlink:href="#aD"/><use transform="matrix(0.06172839506172839,0,0,0.06172839506172839,43.20987654320988,0)" xlink:href="#ay"/><use transform="matrix(0.06172839506172839,0,0,0.06172839506172839,55.55555555555556,0)" xlink:href="#aQ"/><use transform="matrix(0.06172839506172839,0,0,0.06172839506172839,67.90123456790124,0)" xlink:href="#aR"/><use transform="matrix(0.06172839506172839,0,0,0.06172839506172839,80.24691358024693,0)" xlink:href="#aD"/><use transform="matrix(0.06172839506172839,0,0,0.06172839506172839,86.41975308641976,0)" xlink:href="#ay"/><use transform="matrix(0.06172839506172839,0,0,0.06172839506172839,98.76543209876544,0)" xlink:href="#aD"/><use transform="matrix(0.06172839506172839,0,0,0.06172839506172839,104.93827160493828,0)" xlink:href="#aC"/><use transform="matrix(0.06172839506172839,0,0,0.06172839506172839,117.28395061728396,0)" xlink:href="#aS"/><use transform="matrix(0.06172839506172839,0,0,0.06172839506172839,123.4567901234568,0)" xlink:href="#aE"/><use transform="matrix(0.06172839506172839,0,0,0.06172839506172839,135.80246913580248,0)" xlink:href="#aT"/></g><path d="M54-142c48-35 137-8 131 61C196 18 31 33 14-55l32-4c7 23 22 37 52 37 35-1 51-22 54-58 4-55-73-65-99-34H22l8-134h141v27H59" id="aU"/><g id="n"><use transform="matrix(0.06172839506172839,0,0,0.06172839506172839,0,0)" xlink:href="#aQ"/><use transform="matrix(0.06172839506172839,0,0,0.06172839506172839,12.345679012345679,0)" xlink:href="#aU"/><use transform="matrix(0.06172839506172839,0,0,0.06172839506172839,24.691358024691358,0)" xlink:href="#aC"/><use transform="matrix(0.06172839506172839,0,0,0.06172839506172839,37.03703703703704,0)" xlink:href="#aC"/><use transform="matrix(0.06172839506172839,0,0,0.06172839506172839,49.382716049382715,0)" xlink:href="#ay"/></g><g id="o"><use transform="matrix(0.06172839506172839,0,0,0.06172839506172839,0,0)" xlink:href="#ay"/><use transform="matrix(0.06172839506172839,0,0,0.06172839506172839,12.345679012345679,0)" xlink:href="#aP"/><use transform="matrix(0.06172839506172839,0,0,0.06172839506172839,24.691358024691358,0)" xlink:href="#aE"/><use transform="matrix(0.06172839506172839,0,0,0.06172839506172839,37.03703703703704,0)" xlink:href="#aD"/><use transform="matrix(0.06172839506172839,0,0,0.06172839506172839,43.20987654320988,0)" xlink:href="#ay"/><use transform="matrix(0.06172839506172839,0,0,0.06172839506172839,55.55555555555556,0)" xlink:href="#aQ"/><use transform="matrix(0.06172839506172839,0,0,0.06172839506172839,67.90123456790124,0)" xlink:href="#aR"/><use transform="matrix(0.06172839506172839,0,0,0.06172839506172839,80.24691358024693,0)" xlink:href="#aD"/><use transform="matrix(0.06172839506172839,0,0,0.06172839506172839,86.41975308641976,0)" xlink:href="#ay"/><use transform="matrix(0.06172839506172839,0,0,0.06172839506172839,98.76543209876544,0)" xlink:href="#aD"/><use transform="matrix(0.06172839506172839,0,0,0.06172839506172839,104.93827160493828,0)" xlink:href="#ay"/></g><path d="M115-194c53 0 69 39 70 98 0 66-23 100-70 100C84 3 66-7 56-30L54 0H23l1-261h32v101c10-23 28-34 59-34zm-8 174c40 0 45-34 45-75 0-40-5-75-45-74-42 0-51 32-51 76 0 43 10 73 51 73" id="aV"/><g id="p"><use transform="matrix(0.06172839506172839,0,0,0.06172839506172839,0,0)" xlink:href="#aJ"/><use transform="matrix(0.06172839506172839,0,0,0.06172839506172839,15.987654320987653,0)" xlink:href="#aw"/><use transform="matrix(0.06172839506172839,0,0,0.06172839506172839,28.333333333333332,0)" xlink:href="#aV"/></g><g id="q"><use transform="matrix(0.06172839506172839,0,0,0.06172839506172839,0,0)" xlink:href="#ay"/><use transform="matrix(0.06172839506172839,0,0,0.06172839506172839,12.345679012345679,0)" xlink:href="#aC"/><use transform="matrix(0.06172839506172839,0,0,0.06172839506172839,24.691358024691358,0)" xlink:href="#aD"/><use transform="matrix(0.06172839506172839,0,0,0.06172839506172839,30.864197530864196,0)" xlink:href="#aC"/><use transform="matrix(0.06172839506172839,0,0,0.06172839506172839,43.20987654320987,0)" xlink:href="#aD"/><use transform="matrix(0.06172839506172839,0,0,0.06172839506172839,49.382716049382715,0)" xlink:href="#aC"/><use transform="matrix(0.06172839506172839,0,0,0.06172839506172839,61.72839506172839,0)" xlink:href="#aD"/><use transform="matrix(0.06172839506172839,0,0,0.06172839506172839,67.90123456790123,0)" xlink:href="#aC"/><use transform="matrix(0.06172839506172839,0,0,0.06172839506172839,80.24691358024691,0)" xlink:href="#aS"/><use transform="matrix(0.06172839506172839,0,0,0.06172839506172839,86.41975308641975,0)" xlink:href="#aE"/><use transform="matrix(0.06172839506172839,0,0,0.06172839506172839,98.76543209876543,0)" xlink:href="#aE"/></g><g id="r"><use transform="matrix(0.06172839506172839,0,0,0.06172839506172839,0,0)" xlink:href="#aQ"/><use transform="matrix(0.06172839506172839,0,0,0.06172839506172839,12.345679012345679,0)" xlink:href="#aU"/><use transform="matrix(0.06172839506172839,0,0,0.06172839506172839,24.691358024691358,0)" xlink:href="#aU"/><use transform="matrix(0.06172839506172839,0,0,0.06172839506172839,37.03703703703704,0)" xlink:href="#ay"/><use transform="matrix(0.06172839506172839,0,0,0.06172839506172839,49.382716049382715,0)" xlink:href="#aU"/></g><g id="s"><use transform="matrix(0.06172839506172839,0,0,0.06172839506172839,0,0)" xlink:href="#ay"/><use transform="matrix(0.06172839506172839,0,0,0.06172839506172839,12.345679012345679,0)" xlink:href="#aC"/><use transform="matrix(0.06172839506172839,0,0,0.06172839506172839,24.691358024691358,0)" xlink:href="#aD"/><use transform="matrix(0.06172839506172839,0,0,0.06172839506172839,30.864197530864196,0)" xlink:href="#aC"/><use transform="matrix(0.06172839506172839,0,0,0.06172839506172839,43.20987654320987,0)" xlink:href="#aD"/><use transform="matrix(0.06172839506172839,0,0,0.06172839506172839,49.382716049382715,0)" xlink:href="#aC"/><use transform="matrix(0.06172839506172839,0,0,0.06172839506172839,61.72839506172839,0)" xlink:href="#aD"/><use transform="matrix(0.06172839506172839,0,0,0.06172839506172839,67.90123456790123,0)" xlink:href="#aU"/><use transform="matrix(0.06172839506172839,0,0,0.06172839506172839,80.24691358024691,0)" xlink:href="#aC"/></g><path d="M195 0l-74-108L45 0H8l94-129-87-119h37l69 98 67-98h37l-84 118L233 0h-38" id="aW"/><g id="t"><use transform="matrix(0.06172839506172839,0,0,0.06172839506172839,0,0)" xlink:href="#ao"/><use transform="matrix(0.06172839506172839,0,0,0.06172839506172839,14.814814814814813,0)" xlink:href="#aW"/><use transform="matrix(0.06172839506172839,0,0,0.06172839506172839,29.629629629629626,0)" xlink:href="#au"/></g><path d="M64 0c3-98 48-159 88-221H18v-27h164v26C143-157 98-101 97 0H64" id="aX"/><g id="u"><use transform="matrix(0.06172839506172839,0,0,0.06172839506172839,0,0)" xlink:href="#ay"/><use transform="matrix(0.06172839506172839,0,0,0.06172839506172839,12.345679012345679,0)" xlink:href="#aE"/><use transform="matrix(0.06172839506172839,0,0,0.06172839506172839,24.691358024691358,0)" xlink:href="#aC"/><use transform="matrix(0.06172839506172839,0,0,0.06172839506172839,37.03703703703704,0)" xlink:href="#aX"/><use transform="matrix(0.06172839506172839,0,0,0.06172839506172839,49.382716049382715,0)" xlink:href="#aQ"/></g><g id="v"><use transform="matrix(0.06172839506172839,0,0,0.06172839506172839,0,0)" xlink:href="#ay"/><use transform="matrix(0.06172839506172839,0,0,0.06172839506172839,12.345679012345679,0)" xlink:href="#aC"/><use transform="matrix(0.06172839506172839,0,0,0.06172839506172839,24.691358024691358,0)" xlink:href="#aD"/><use transform="matrix(0.06172839506172839,0,0,0.06172839506172839,30.864197530864196,0)" xlink:href="#aC"/><use transform="matrix(0.06172839506172839,0,0,0.06172839506172839,43.20987654320987,0)" xlink:href="#aD"/><use transform="matrix(0.06172839506172839,0,0,0.06172839506172839,49.382716049382715,0)" xlink:href="#aC"/><use transform="matrix(0.06172839506172839,0,0,0.06172839506172839,61.72839506172839,0)" xlink:href="#aD"/><use transform="matrix(0.06172839506172839,0,0,0.06172839506172839,67.90123456790123,0)" xlink:href="#aE"/><use transform="matrix(0.06172839506172839,0,0,0.06172839506172839,80.24691358024691,0)" xlink:href="#aF"/></g><g id="w"><use transform="matrix(0.06172839506172839,0,0,0.06172839506172839,0,0)" xlink:href="#ay"/><use transform="matrix(0.06172839506172839,0,0,0.06172839506172839,12.345679012345679,0)" xlink:href="#aP"/><use transform="matrix(0.06172839506172839,0,0,0.06172839506172839,24.691358024691358,0)" xlink:href="#aE"/><use transform="matrix(0.06172839506172839,0,0,0.06172839506172839,37.03703703703704,0)" xlink:href="#aD"/><use transform="matrix(0.06172839506172839,0,0,0.06172839506172839,43.20987654320988,0)" xlink:href="#ay"/><use transform="matrix(0.06172839506172839,0,0,0.06172839506172839,55.55555555555556,0)" xlink:href="#aQ"/><use transform="matrix(0.06172839506172839,0,0,0.06172839506172839,67.90123456790124,0)" xlink:href="#aR"/><use transform="matrix(0.06172839506172839,0,0,0.06172839506172839,80.24691358024693,0)" xlink:href="#aD"/><use transform="matrix(0.06172839506172839,0,0,0.06172839506172839,86.41975308641976,0)" xlink:href="#ay"/><use transform="matrix(0.06172839506172839,0,0,0.06172839506172839,98.76543209876544,0)" xlink:href="#aD"/><use transform="matrix(0.06172839506172839,0,0,0.06172839506172839,104.93827160493828,0)" xlink:href="#ay"/></g><path d="M212-179c-10-28-35-45-73-45-59 0-87 40-87 99 0 60 29 101 89 101 43 0 62-24 78-52l27 14C228-24 195 4 139 4 59 4 22-46 18-125c-6-104 99-153 187-111 19 9 31 26 39 46" id="aY"/><path d="M30-248c118-7 216 8 213 122C240-48 200 0 122 0H30v-248zM63-27c89 8 146-16 146-99s-60-101-146-95v194" id="aZ"/><g id="x"><use transform="matrix(0.06172839506172839,0,0,0.06172839506172839,0,0)" xlink:href="#aY"/><use transform="matrix(0.06172839506172839,0,0,0.06172839506172839,15.987654320987653,0)" xlink:href="#az"/><use transform="matrix(0.06172839506172839,0,0,0.06172839506172839,22.160493827160494,0)" xlink:href="#aZ"/><use transform="matrix(0.06172839506172839,0,0,0.06172839506172839,38.148148148148145,0)" xlink:href="#au"/><use transform="matrix(0.06172839506172839,0,0,0.06172839506172839,54.1358024691358,0)" xlink:href="#aB"/></g><g id="y"><use transform="matrix(0.06172839506172839,0,0,0.06172839506172839,0,0)" xlink:href="#ay"/><use transform="matrix(0.06172839506172839,0,0,0.06172839506172839,12.345679012345679,0)" xlink:href="#aP"/><use transform="matrix(0.06172839506172839,0,0,0.06172839506172839,24.691358024691358,0)" xlink:href="#aE"/><use transform="matrix(0.06172839506172839,0,0,0.06172839506172839,37.03703703703704,0)" xlink:href="#aD"/><use transform="matrix(0.06172839506172839,0,0,0.06172839506172839,43.20987654320988,0)" xlink:href="#ay"/><use transform="matrix(0.06172839506172839,0,0,0.06172839506172839,55.55555555555556,0)" xlink:href="#aQ"/><use transform="matrix(0.06172839506172839,0,0,0.06172839506172839,67.90123456790124,0)" xlink:href="#aR"/><use transform="matrix(0.06172839506172839,0,0,0.06172839506172839,80.24691358024693,0)" xlink:href="#aD"/><use transform="matrix(0.06172839506172839,0,0,0.06172839506172839,86.41975308641976,0)" xlink:href="#ay"/><use transform="matrix(0.06172839506172839,0,0,0.06172839506172839,98.76543209876544,0)" xlink:href="#aD"/><use transform="matrix(0.06172839506172839,0,0,0.06172839506172839,104.93827160493828,0)" xlink:href="#aC"/><use transform="matrix(0.06172839506172839,0,0,0.06172839506172839,117.28395061728396,0)" xlink:href="#aS"/><use transform="matrix(0.06172839506172839,0,0,0.06172839506172839,123.4567901234568,0)" xlink:href="#aE"/><use transform="matrix(0.06172839506172839,0,0,0.06172839506172839,135.80246913580248,0)" xlink:href="#aT"/></g><path d="M205 0l-28-72H64L36 0H1l101-248h38L239 0h-34zm-38-99l-47-123c-12 45-31 82-46 123h93" id="ba"/><g id="z"><use transform="matrix(0.06172839506172839,0,0,0.06172839506172839,0,0)" xlink:href="#ba"/><use transform="matrix(0.06172839506172839,0,0,0.06172839506172839,14.814814814814813,0)" xlink:href="#aG"/><use transform="matrix(0.06172839506172839,0,0,0.06172839506172839,29.629629629629626,0)" xlink:href="#aI"/><use transform="matrix(0.06172839506172839,0,0,0.06172839506172839,45.61728395061728,0)" xlink:href="#aB"/></g><g id="A"><use transform="matrix(0.06172839506172839,0,0,0.06172839506172839,0,0)" xlink:href="#aQ"/><use transform="matrix(0.06172839506172839,0,0,0.06172839506172839,12.345679012345679,0)" xlink:href="#aU"/><use transform="matrix(0.06172839506172839,0,0,0.06172839506172839,24.691358024691358,0)" xlink:href="#aC"/><use transform="matrix(0.06172839506172839,0,0,0.06172839506172839,37.03703703703704,0)" xlink:href="#aC"/><use transform="matrix(0.06172839506172839,0,0,0.06172839506172839,49.382716049382715,0)" xlink:href="#ay"/></g><path d="M80-196l47-18 7 23-49 13 32 44-20 13-27-46-27 45-21-12 33-44-49-13 8-23 47 19-2-53h23" id="bb"/><use transform="matrix(0.06172839506172839,0,0,0.06172839506172839,0,0)" xlink:href="#bb" id="B"/><path d="M108 0H70L1-190h34L89-25l56-165h34" id="bc"/><g id="C"><use transform="matrix(0.06172839506172839,0,0,0.06172839506172839,0,0)" xlink:href="#ba"/><use transform="matrix(0.06172839506172839,0,0,0.06172839506172839,14.814814814814813,0)" xlink:href="#aO"/><use transform="matrix(0.06172839506172839,0,0,0.06172839506172839,27.160493827160494,0)" xlink:href="#bc"/><use transform="matrix(0.06172839506172839,0,0,0.06172839506172839,38.27160493827161,0)" xlink:href="#as"/><use transform="matrix(0.06172839506172839,0,0,0.06172839506172839,50.617283950617285,0)" xlink:href="#ar"/><use transform="matrix(0.06172839506172839,0,0,0.06172839506172839,57.96296296296296,0)" xlink:href="#ax"/><use transform="matrix(0.06172839506172839,0,0,0.06172839506172839,64.1358024691358,0)" xlink:href="#aK"/><use transform="matrix(0.06172839506172839,0,0,0.06172839506172839,69.01234567901234,0)" xlink:href="#at"/><use transform="matrix(0.06172839506172839,0,0,0.06172839506172839,80.12345679012346,0)" xlink:href="#as"/><use transform="matrix(0.06172839506172839,0,0,0.06172839506172839,92.46913580246914,0)" xlink:href="#at"/></g><g id="D"><use transform="matrix(0.06172839506172839,0,0,0.06172839506172839,0,0)" xlink:href="#ay"/><use transform="matrix(0.06172839506172839,0,0,0.06172839506172839,12.345679012345679,0)" xlink:href="#aP"/><use transform="matrix(0.06172839506172839,0,0,0.06172839506172839,24.691358024691358,0)" xlink:href="#aE"/><use transform="matrix(0.06172839506172839,0,0,0.06172839506172839,37.03703703703704,0)" xlink:href="#aD"/><use transform="matrix(0.06172839506172839,0,0,0.06172839506172839,43.20987654320988,0)" xlink:href="#ay"/><use transform="matrix(0.06172839506172839,0,0,0.06172839506172839,55.55555555555556,0)" xlink:href="#aQ"/><use transform="matrix(0.06172839506172839,0,0,0.06172839506172839,67.90123456790124,0)" xlink:href="#aR"/><use transform="matrix(0.06172839506172839,0,0,0.06172839506172839,80.24691358024693,0)" xlink:href="#aD"/><use transform="matrix(0.06172839506172839,0,0,0.06172839506172839,86.41975308641976,0)" xlink:href="#ay"/><use transform="matrix(0.06172839506172839,0,0,0.06172839506172839,98.76543209876544,0)" xlink:href="#aD"/><use transform="matrix(0.06172839506172839,0,0,0.06172839506172839,104.93827160493828,0)" xlink:href="#aC"/><use transform="matrix(0.06172839506172839,0,0,0.06172839506172839,117.28395061728396,0)" xlink:href="#aS"/><use transform="matrix(0.06172839506172839,0,0,0.06172839506172839,123.4567901234568,0)" xlink:href="#aE"/><use transform="matrix(0.06172839506172839,0,0,0.06172839506172839,135.80246913580248,0)" xlink:href="#aT"/></g><g id="E"><use transform="matrix(0.06172839506172839,0,0,0.06172839506172839,0,0)" xlink:href="#ao"/><use transform="matrix(0.06172839506172839,0,0,0.06172839506172839,14.814814814814813,0)" xlink:href="#aW"/><use transform="matrix(0.06172839506172839,0,0,0.06172839506172839,29.629629629629626,0)" xlink:href="#au"/></g><g id="H"><use transform="matrix(0.06172839506172839,0,0,0.06172839506172839,0,0)" xlink:href="#ay"/><use transform="matrix(0.06172839506172839,0,0,0.06172839506172839,12.345679012345679,0)" xlink:href="#aE"/><use transform="matrix(0.06172839506172839,0,0,0.06172839506172839,24.691358024691358,0)" xlink:href="#aC"/><use transform="matrix(0.06172839506172839,0,0,0.06172839506172839,37.03703703703704,0)" xlink:href="#aX"/><use transform="matrix(0.06172839506172839,0,0,0.06172839506172839,49.382716049382715,0)" xlink:href="#aQ"/></g><path d="M206 0h-36l-40-164L89 0H53L-1-190h32L70-26l43-164h34l41 164 42-164h31" id="bd"/><path d="M143 0L79-87 56-68V0H24v-261h32v163l83-92h37l-77 82L181 0h-38" id="be"/><g id="I"><use transform="matrix(0.06172839506172839,0,0,0.06172839506172839,0,0)" xlink:href="#aI"/><use transform="matrix(0.06172839506172839,0,0,0.06172839506172839,15.987654320987653,0)" xlink:href="#as"/><use transform="matrix(0.06172839506172839,0,0,0.06172839506172839,28.333333333333332,0)" xlink:href="#ax"/><use transform="matrix(0.06172839506172839,0,0,0.06172839506172839,34.50617283950617,0)" xlink:href="#bd"/><use transform="matrix(0.06172839506172839,0,0,0.06172839506172839,50.49382716049382,0)" xlink:href="#av"/><use transform="matrix(0.06172839506172839,0,0,0.06172839506172839,62.8395061728395,0)" xlink:href="#ar"/><use transform="matrix(0.06172839506172839,0,0,0.06172839506172839,70.18518518518518,0)" xlink:href="#be"/></g><g id="J"><use transform="matrix(0.06172839506172839,0,0,0.06172839506172839,0,0)" xlink:href="#ay"/><use transform="matrix(0.06172839506172839,0,0,0.06172839506172839,12.345679012345679,0)" xlink:href="#aC"/><use transform="matrix(0.06172839506172839,0,0,0.06172839506172839,24.691358024691358,0)" xlink:href="#aD"/><use transform="matrix(0.06172839506172839,0,0,0.06172839506172839,30.864197530864196,0)" xlink:href="#aC"/><use transform="matrix(0.06172839506172839,0,0,0.06172839506172839,43.20987654320987,0)" xlink:href="#aD"/><use transform="matrix(0.06172839506172839,0,0,0.06172839506172839,49.382716049382715,0)" xlink:href="#aC"/><use transform="matrix(0.06172839506172839,0,0,0.06172839506172839,61.72839506172839,0)" xlink:href="#aD"/><use transform="matrix(0.06172839506172839,0,0,0.06172839506172839,67.90123456790123,0)" xlink:href="#aC"/><use transform="matrix(0.06172839506172839,0,0,0.06172839506172839,80.24691358024691,0)" xlink:href="#aS"/><use transform="matrix(0.06172839506172839,0,0,0.06172839506172839,86.41975308641975,0)" xlink:href="#aE"/><use transform="matrix(0.06172839506172839,0,0,0.06172839506172839,98.76543209876543,0)" xlink:href="#aE"/></g><g id="K"><use transform="matrix(0.06172839506172839,0,0,0.06172839506172839,0,0)" xlink:href="#aJ"/><use transform="matrix(0.06172839506172839,0,0,0.06172839506172839,15.987654320987653,0)" xlink:href="#av"/><use transform="matrix(0.06172839506172839,0,0,0.06172839506172839,28.333333333333332,0)" xlink:href="#aq"/></g><path d="M127-220V0H93v-220H8v-28h204v28h-85" id="bf"/><path d="M179-190L93 31C79 59 56 82 12 73V49c39 6 53-20 64-50L1-190h34L92-34l54-156h33" id="bg"/><g id="L"><use transform="matrix(0.06172839506172839,0,0,0.06172839506172839,0,0)" xlink:href="#bf"/><use transform="matrix(0.06172839506172839,0,0,0.06172839506172839,12.28395061728395,0)" xlink:href="#bg"/><use transform="matrix(0.06172839506172839,0,0,0.06172839506172839,23.39506172839506,0)" xlink:href="#aq"/><use transform="matrix(0.06172839506172839,0,0,0.06172839506172839,35.74074074074074,0)" xlink:href="#as"/></g><g id="M"><use transform="matrix(0.06172839506172839,0,0,0.06172839506172839,0,0)" xlink:href="#az"/><use transform="matrix(0.06172839506172839,0,0,0.06172839506172839,6.172839506172839,0)" xlink:href="#aA"/></g><g id="N"><use transform="matrix(0.06172839506172839,0,0,0.06172839506172839,0,0)" xlink:href="#ay"/><use transform="matrix(0.06172839506172839,0,0,0.06172839506172839,12.345679012345679,0)" xlink:href="#aP"/><use transform="matrix(0.06172839506172839,0,0,0.06172839506172839,24.691358024691358,0)" xlink:href="#aE"/><use transform="matrix(0.06172839506172839,0,0,0.06172839506172839,37.03703703703704,0)" xlink:href="#aD"/><use transform="matrix(0.06172839506172839,0,0,0.06172839506172839,43.20987654320988,0)" xlink:href="#ay"/><use transform="matrix(0.06172839506172839,0,0,0.06172839506172839,55.55555555555556,0)" xlink:href="#aQ"/><use transform="matrix(0.06172839506172839,0,0,0.06172839506172839,67.90123456790124,0)" xlink:href="#aR"/><use transform="matrix(0.06172839506172839,0,0,0.06172839506172839,80.24691358024693,0)" xlink:href="#aD"/><use transform="matrix(0.06172839506172839,0,0,0.06172839506172839,86.41975308641976,0)" xlink:href="#ay"/><use transform="matrix(0.06172839506172839,0,0,0.06172839506172839,98.76543209876544,0)" xlink:href="#aD"/><use transform="matrix(0.06172839506172839,0,0,0.06172839506172839,104.93827160493828,0)" xlink:href="#aC"/><use transform="matrix(0.06172839506172839,0,0,0.06172839506172839,117.28395061728396,0)" xlink:href="#aS"/><use transform="matrix(0.06172839506172839,0,0,0.06172839506172839,123.4567901234568,0)" xlink:href="#aE"/><use transform="matrix(0.06172839506172839,0,0,0.06172839506172839,135.80246913580248,0)" xlink:href="#aT"/></g><path d="M137 0h-34L2-248h35l83 218 83-218h36" id="bh"/><path d="M24 0v-261h32V0H24" id="bi"/><g id="O"><use transform="matrix(0.06172839506172839,0,0,0.06172839506172839,0,0)" xlink:href="#bh"/><use transform="matrix(0.06172839506172839,0,0,0.06172839506172839,14.382716049382715,0)" xlink:href="#aK"/><use transform="matrix(0.06172839506172839,0,0,0.06172839506172839,19.25925925925926,0)" xlink:href="#ar"/><use transform="matrix(0.06172839506172839,0,0,0.06172839506172839,26.604938271604937,0)" xlink:href="#ax"/><use transform="matrix(0.06172839506172839,0,0,0.06172839506172839,32.77777777777778,0)" xlink:href="#aw"/><use transform="matrix(0.06172839506172839,0,0,0.06172839506172839,45.123456790123456,0)" xlink:href="#aM"/><use transform="matrix(0.06172839506172839,0,0,0.06172839506172839,57.46913580246913,0)" xlink:href="#bi"/></g><g id="P"><use transform="matrix(0.06172839506172839,0,0,0.06172839506172839,0,0)" xlink:href="#aI"/><use transform="matrix(0.06172839506172839,0,0,0.06172839506172839,15.987654320987653,0)" xlink:href="#as"/><use transform="matrix(0.06172839506172839,0,0,0.06172839506172839,28.333333333333332,0)" xlink:href="#ax"/><use transform="matrix(0.06172839506172839,0,0,0.06172839506172839,34.50617283950617,0)" xlink:href="#bd"/><use transform="matrix(0.06172839506172839,0,0,0.06172839506172839,50.49382716049382,0)" xlink:href="#av"/><use transform="matrix(0.06172839506172839,0,0,0.06172839506172839,62.8395061728395,0)" xlink:href="#ar"/><use transform="matrix(0.06172839506172839,0,0,0.06172839506172839,70.18518518518518,0)" xlink:href="#be"/></g><path d="M143 4C61 4 22-44 18-125c-5-107 100-154 193-111 17 8 29 25 37 43l-32 9c-13-25-37-40-76-40-61 0-88 39-88 99 0 61 29 100 91 101 35 0 62-11 79-27v-45h-74v-28h105v86C228-13 192 4 143 4" id="bj"/><g id="Q"><use transform="matrix(0.06172839506172839,0,0,0.06172839506172839,0,0)" xlink:href="#bj"/><use transform="matrix(0.06172839506172839,0,0,0.06172839506172839,17.28395061728395,0)" xlink:href="#aM"/><use transform="matrix(0.06172839506172839,0,0,0.06172839506172839,29.629629629629626,0)" xlink:href="#ax"/><use transform="matrix(0.06172839506172839,0,0,0.06172839506172839,35.80246913580247,0)" xlink:href="#as"/><use transform="matrix(0.06172839506172839,0,0,0.06172839506172839,48.148148148148145,0)" xlink:href="#bd"/><use transform="matrix(0.06172839506172839,0,0,0.06172839506172839,64.1358024691358,0)" xlink:href="#aM"/><use transform="matrix(0.06172839506172839,0,0,0.06172839506172839,76.48148148148148,0)" xlink:href="#bg"/></g><path d="M210-169c-67 3-38 105-44 169h-31v-121c0-29-5-50-35-48C34-165 62-65 56 0H25l-1-190h30c1 10-1 24 2 32 10-44 99-50 107 0 11-21 27-35 58-36 85-2 47 119 55 194h-31v-121c0-29-5-49-35-48" id="bk"/><g id="R"><use transform="matrix(0.06172839506172839,0,0,0.06172839506172839,0,0)" xlink:href="#aG"/><use transform="matrix(0.06172839506172839,0,0,0.06172839506172839,14.814814814814813,0)" xlink:href="#bg"/><use transform="matrix(0.06172839506172839,0,0,0.06172839506172839,25.925925925925924,0)" xlink:href="#at"/><use transform="matrix(0.06172839506172839,0,0,0.06172839506172839,37.03703703703704,0)" xlink:href="#ax"/><use transform="matrix(0.06172839506172839,0,0,0.06172839506172839,43.20987654320988,0)" xlink:href="#as"/><use transform="matrix(0.06172839506172839,0,0,0.06172839506172839,55.55555555555556,0)" xlink:href="#bk"/></g><g id="S"><use transform="matrix(0.06172839506172839,0,0,0.06172839506172839,0,0)" xlink:href="#aI"/><use transform="matrix(0.06172839506172839,0,0,0.06172839506172839,15.987654320987653,0)" xlink:href="#as"/><use transform="matrix(0.06172839506172839,0,0,0.06172839506172839,28.333333333333332,0)" xlink:href="#ax"/><use transform="matrix(0.06172839506172839,0,0,0.06172839506172839,34.50617283950617,0)" xlink:href="#bd"/><use transform="matrix(0.06172839506172839,0,0,0.06172839506172839,50.49382716049382,0)" xlink:href="#av"/><use transform="matrix(0.06172839506172839,0,0,0.06172839506172839,62.8395061728395,0)" xlink:href="#ar"/><use transform="matrix(0.06172839506172839,0,0,0.06172839506172839,70.18518518518518,0)" xlink:href="#be"/></g><g id="T"><use transform="matrix(0.06172839506172839,0,0,0.06172839506172839,0,0)" xlink:href="#aC"/><use transform="matrix(0.06172839506172839,0,0,0.06172839506172839,12.345679012345679,0)" xlink:href="#aD"/><use transform="matrix(0.06172839506172839,0,0,0.06172839506172839,18.51851851851852,0)" xlink:href="#aC"/><use transform="matrix(0.06172839506172839,0,0,0.06172839506172839,30.864197530864196,0)" xlink:href="#aD"/><use transform="matrix(0.06172839506172839,0,0,0.06172839506172839,37.03703703703704,0)" xlink:href="#aC"/><use transform="matrix(0.06172839506172839,0,0,0.06172839506172839,49.382716049382715,0)" xlink:href="#aD"/><use transform="matrix(0.06172839506172839,0,0,0.06172839506172839,55.55555555555556,0)" xlink:href="#aC"/><use transform="matrix(0.06172839506172839,0,0,0.06172839506172839,67.90123456790124,0)" xlink:href="#aS"/><use transform="matrix(0.06172839506172839,0,0,0.06172839506172839,74.07407407407408,0)" xlink:href="#aC"/></g><g id="U"><use transform="matrix(0.06172839506172839,0,0,0.06172839506172839,0,0)" xlink:href="#az"/><use transform="matrix(0.06172839506172839,0,0,0.06172839506172839,6.172839506172839,0)" xlink:href="#aN"/><use transform="matrix(0.06172839506172839,0,0,0.06172839506172839,18.51851851851852,0)" xlink:href="#ax"/><use transform="matrix(0.06172839506172839,0,0,0.06172839506172839,24.691358024691358,0)" xlink:href="#as"/><use transform="matrix(0.06172839506172839,0,0,0.06172839506172839,37.03703703703704,0)" xlink:href="#ar"/><use transform="matrix(0.06172839506172839,0,0,0.06172839506172839,44.382716049382715,0)" xlink:href="#aN"/><use transform="matrix(0.06172839506172839,0,0,0.06172839506172839,56.72839506172839,0)" xlink:href="#as"/><use transform="matrix(0.06172839506172839,0,0,0.06172839506172839,69.07407407407408,0)" xlink:href="#ax"/></g><linearGradient gradientUnits="userSpaceOnUse" id="V" x1="878.82" y1="487.72" x2="880.38" y2="580.26"><stop offset="22%" stop-color="#32d4f5"/><stop offset="47%" stop-color="#31d1f3"/><stop offset="63%" stop-color="#2ec9eb"/><stop offset="77%" stop-color="#29bade"/><stop offset="89%" stop-color="#22a5cb"/><stop offset="100%" stop-color="#198ab3"/><stop offset="100%" stop-color="#198ab3"/></linearGradient><g id="W"><use transform="matrix(0.06172839506172839,0,0,0.06172839506172839,0,0)" xlink:href="#aG"/><use transform="matrix(0.06172839506172839,0,0,0.06172839506172839,14.814814814814813,0)" xlink:href="#aw"/><use transform="matrix(0.06172839506172839,0,0,0.06172839506172839,27.160493827160494,0)" xlink:href="#aV"/><use transform="matrix(0.06172839506172839,0,0,0.06172839506172839,39.50617283950617,0)" xlink:href="#aN"/><use transform="matrix(0.06172839506172839,0,0,0.06172839506172839,51.85185185185185,0)" xlink:href="#as"/><use transform="matrix(0.06172839506172839,0,0,0.06172839506172839,64.19753086419753,0)" xlink:href="#ax"/></g><use transform="matrix(0.06172839506172839,0,0,0.06172839506172839,0,0)" xlink:href="#ay" id="X"/><g id="Y"><use transform="matrix(0.06172839506172839,0,0,0.06172839506172839,0,0)" xlink:href="#aY"/><use transform="matrix(0.06172839506172839,0,0,0.06172839506172839,15.987654320987653,0)" xlink:href="#az"/><use transform="matrix(0.06172839506172839,0,0,0.06172839506172839,22.160493827160494,0)" xlink:href="#aZ"/><use transform="matrix(0.06172839506172839,0,0,0.06172839506172839,38.148148148148145,0)" xlink:href="#au"/><use transform="matrix(0.06172839506172839,0,0,0.06172839506172839,54.1358024691358,0)" xlink:href="#aB"/></g><g id="Z"><use transform="matrix(0.06172839506172839,0,0,0.06172839506172839,0,0)" xlink:href="#ay"/><use transform="matrix(0.06172839506172839,0,0,0.06172839506172839,12.345679012345679,0)" xlink:href="#aC"/><use transform="matrix(0.06172839506172839,0,0,0.06172839506172839,24.691358024691358,0)" xlink:href="#aD"/><use transform="matrix(0.06172839506172839,0,0,0.06172839506172839,30.864197530864196,0)" xlink:href="#aC"/><use transform="matrix(0.06172839506172839,0,0,0.06172839506172839,43.20987654320987,0)" xlink:href="#aD"/><use transform="matrix(0.06172839506172839,0,0,0.06172839506172839,49.382716049382715,0)" xlink:href="#aC"/><use transform="matrix(0.06172839506172839,0,0,0.06172839506172839,61.72839506172839,0)" xlink:href="#aD"/><use transform="matrix(0.06172839506172839,0,0,0.06172839506172839,67.90123456790123,0)" xlink:href="#aC"/><use transform="matrix(0.06172839506172839,0,0,0.06172839506172839,80.24691358024691,0)" xlink:href="#aS"/><use transform="matrix(0.06172839506172839,0,0,0.06172839506172839,86.41975308641975,0)" xlink:href="#aE"/><use transform="matrix(0.06172839506172839,0,0,0.06172839506172839,98.76543209876543,0)" xlink:href="#aT"/></g><g id="aa"><use transform="matrix(0.06172839506172839,0,0,0.06172839506172839,0,0)" xlink:href="#bj"/><use transform="matrix(0.06172839506172839,0,0,0.06172839506172839,17.28395061728395,0)" xlink:href="#aM"/><use transform="matrix(0.06172839506172839,0,0,0.06172839506172839,29.629629629629626,0)" xlink:href="#ax"/><use transform="matrix(0.06172839506172839,0,0,0.06172839506172839,35.80246913580247,0)" xlink:href="#as"/><use transform="matrix(0.06172839506172839,0,0,0.06172839506172839,48.148148148148145,0)" xlink:href="#bd"/><use transform="matrix(0.06172839506172839,0,0,0.06172839506172839,64.1358024691358,0)" xlink:href="#aM"/><use transform="matrix(0.06172839506172839,0,0,0.06172839506172839,76.48148148148148,0)" xlink:href="#bg"/></g><g id="ab"><use transform="matrix(0.06172839506172839,0,0,0.06172839506172839,0,0)" xlink:href="#az"/><use transform="matrix(0.06172839506172839,0,0,0.06172839506172839,6.172839506172839,0)" xlink:href="#aA"/><use transform="matrix(0.06172839506172839,0,0,0.06172839506172839,20.98765432098765,0)" xlink:href="#aB"/></g><g id="ac"><use transform="matrix(0.06172839506172839,0,0,0.06172839506172839,0,0)" xlink:href="#ay"/><use transform="matrix(0.06172839506172839,0,0,0.06172839506172839,12.345679012345679,0)" xlink:href="#aC"/><use transform="matrix(0.06172839506172839,0,0,0.06172839506172839,24.691358024691358,0)" xlink:href="#aD"/><use transform="matrix(0.06172839506172839,0,0,0.06172839506172839,30.864197530864196,0)" xlink:href="#aC"/><use transform="matrix(0.06172839506172839,0,0,0.06172839506172839,43.20987654320987,0)" xlink:href="#aD"/><use transform="matrix(0.06172839506172839,0,0,0.06172839506172839,49.382716049382715,0)" xlink:href="#aC"/><use transform="matrix(0.06172839506172839,0,0,0.06172839506172839,61.72839506172839,0)" xlink:href="#aD"/><use transform="matrix(0.06172839506172839,0,0,0.06172839506172839,67.90123456790123,0)" xlink:href="#aU"/><use transform="matrix(0.06172839506172839,0,0,0.06172839506172839,80.24691358024691,0)" xlink:href="#aC"/></g><linearGradient gradientUnits="userSpaceOnUse" id="ad" x1="880" y1="444.42" x2="880" y2="373.42"><stop offset="0%" stop-color="#0078d4"/><stop offset="82%" stop-color="#5ea0ef"/></linearGradient><linearGradient gradientUnits="userSpaceOnUse" id="ae" x1="880" y1="444.42" x2="880" y2="373.42"><stop offset="15%" stop-color="#ccc"/><stop offset="100%" stop-color="#707070"/></linearGradient><use transform="matrix(0.06172839506172839,0,0,0.06172839506172839,0,0)" xlink:href="#aE" id="af"/><g id="ag"><use transform="matrix(0.06172839506172839,0,0,0.06172839506172839,0,0)" xlink:href="#ay"/><use transform="matrix(0.06172839506172839,0,0,0.06172839506172839,12.345679012345679,0)" xlink:href="#aC"/><use transform="matrix(0.06172839506172839,0,0,0.06172839506172839,24.691358024691358,0)" xlink:href="#aD"/><use transform="matrix(0.06172839506172839,0,0,0.06172839506172839,30.864197530864196,0)" xlink:href="#aC"/><use transform="matrix(0.06172839506172839,0,0,0.06172839506172839,43.20987654320987,0)" xlink:href="#aD"/><use transform="matrix(0.06172839506172839,0,0,0.06172839506172839,49.382716049382715,0)" xlink:href="#ay"/><use transform="matrix(0.06172839506172839,0,0,0.06172839506172839,61.72839506172839,0)" xlink:href="#aD"/><use transform="matrix(0.06172839506172839,0,0,0.06172839506172839,67.90123456790123,0)" xlink:href="#aC"/><use transform="matrix(0.06172839506172839,0,0,0.06172839506172839,80.24691358024691,0)" xlink:href="#aS"/><use transform="matrix(0.06172839506172839,0,0,0.06172839506172839,86.41975308641975,0)" xlink:href="#aE"/><use transform="matrix(0.06172839506172839,0,0,0.06172839506172839,98.76543209876543,0)" xlink:href="#aT"/></g><path d="M240 0l2-218c-23 76-54 145-80 218h-23L58-218 59 0H30v-248h44l77 211c21-75 51-140 76-211h43V0h-30" id="bl"/><g id="ah"><use transform="matrix(0.06172839506172839,0,0,0.06172839506172839,0,0)" xlink:href="#bh"/><use transform="matrix(0.06172839506172839,0,0,0.06172839506172839,14.814814814814813,0)" xlink:href="#bl"/></g><g id="ai"><use transform="matrix(0.06172839506172839,0,0,0.06172839506172839,0,0)" xlink:href="#az"/><use transform="matrix(0.06172839506172839,0,0,0.06172839506172839,6.172839506172839,0)" xlink:href="#aA"/><use transform="matrix(0.06172839506172839,0,0,0.06172839506172839,20.98765432098765,0)" xlink:href="#aB"/></g><g id="aj"><use transform="matrix(0.06172839506172839,0,0,0.06172839506172839,0,0)" xlink:href="#ay"/><use transform="matrix(0.06172839506172839,0,0,0.06172839506172839,12.345679012345679,0)" xlink:href="#aC"/><use transform="matrix(0.06172839506172839,0,0,0.06172839506172839,24.691358024691358,0)" xlink:href="#aD"/><use transform="matrix(0.06172839506172839,0,0,0.06172839506172839,30.864197530864196,0)" xlink:href="#aC"/><use transform="matrix(0.06172839506172839,0,0,0.06172839506172839,43.20987654320987,0)" xlink:href="#aD"/><use transform="matrix(0.06172839506172839,0,0,0.06172839506172839,49.382716049382715,0)" xlink:href="#ay"/><use transform="matrix(0.06172839506172839,0,0,0.06172839506172839,61.72839506172839,0)" xlink:href="#aD"/><use transform="matrix(0.06172839506172839,0,0,0.06172839506172839,67.90123456790123,0)" xlink:href="#ay"/><use transform="matrix(0.06172839506172839,0,0,0.06172839506172839,80.24691358024691,0)" xlink:href="#aC"/><use transform="matrix(0.06172839506172839,0,0,0.06172839506172839,92.5925925925926,0)" xlink:href="#aC"/></g><g id="ak"><use transform="matrix(0.06172839506172839,0,0,0.06172839506172839,0,0)" xlink:href="#bh"/><use transform="matrix(0.06172839506172839,0,0,0.06172839506172839,14.814814814814813,0)" xlink:href="#aI"/><use transform="matrix(0.06172839506172839,0,0,0.06172839506172839,30.80246913580247,0)" xlink:href="#as"/><use transform="matrix(0.06172839506172839,0,0,0.06172839506172839,43.148148148148145,0)" xlink:href="#ax"/></g><g id="al"><use transform="matrix(0.06172839506172839,0,0,0.06172839506172839,0,0)" xlink:href="#ay"/><use transform="matrix(0.06172839506172839,0,0,0.06172839506172839,12.345679012345679,0)" xlink:href="#aC"/><use transform="matrix(0.06172839506172839,0,0,0.06172839506172839,24.691358024691358,0)" xlink:href="#aD"/><use transform="matrix(0.06172839506172839,0,0,0.06172839506172839,30.864197530864196,0)" xlink:href="#aC"/><use transform="matrix(0.06172839506172839,0,0,0.06172839506172839,43.20987654320987,0)" xlink:href="#aD"/><use transform="matrix(0.06172839506172839,0,0,0.06172839506172839,49.382716049382715,0)" xlink:href="#aC"/><use transform="matrix(0.06172839506172839,0,0,0.06172839506172839,61.72839506172839,0)" xlink:href="#aD"/><use transform="matrix(0.06172839506172839,0,0,0.06172839506172839,67.90123456790123,0)" xlink:href="#aC"/><use transform="matrix(0.06172839506172839,0,0,0.06172839506172839,80.24691358024691,0)" xlink:href="#aS"/><use transform="matrix(0.06172839506172839,0,0,0.06172839506172839,86.41975308641975,0)" xlink:href="#aE"/><use transform="matrix(0.06172839506172839,0,0,0.06172839506172839,98.76543209876543,0)" xlink:href="#aE"/></g><path d="M177-190C167-65 218 103 67 71c-23-6-38-20-44-43l32-5c15 47 100 32 89-28v-30C133-14 115 1 83 1 29 1 15-40 15-95c0-56 16-97 71-98 29-1 48 16 59 35 1-10 0-23 2-32h30zM94-22c36 0 50-32 50-73 0-42-14-75-50-75-39 0-46 34-46 75s6 73 46 73" id="bm"/><g id="am"><use transform="matrix(0.06172839506172839,0,0,0.06172839506172839,0,0)" xlink:href="#au"/><use transform="matrix(0.06172839506172839,0,0,0.06172839506172839,15.987654320987653,0)" xlink:href="#as"/><use transform="matrix(0.06172839506172839,0,0,0.06172839506172839,28.333333333333332,0)" xlink:href="#bm"/><use transform="matrix(0.06172839506172839,0,0,0.06172839506172839,40.67901234567901,0)" xlink:href="#aK"/><use transform="matrix(0.06172839506172839,0,0,0.06172839506172839,45.55555555555556,0)" xlink:href="#av"/><use transform="matrix(0.06172839506172839,0,0,0.06172839506172839,57.901234567901234,0)" xlink:href="#aN"/></g><use transform="matrix(0.06172839506172839,0,0,0.06172839506172839,0,0)" xlink:href="#ay" id="an"/></defs></g></svg>